<svg id="SvgjsSvg1021" width="288" height="288" xmlns="http://www.w3.org/2000/svg" version="1.1" xmlns:xlink="http://www.w3.org/1999/xlink" xmlns:svgjs="http://svgjs.com/svgjs"><defs id="SvgjsDefs1022"></defs><g id="SvgjsG1023"><svg xmlns="http://www.w3.org/2000/svg" width="288" height="288" viewBox="0 0 400 400"><path fill-rule="evenodd" d="M140.952 18.808 C 135.714 20.411,122.222 26.398,110.970 32.111 L 90.512 42.498 93.097 65.352 C 96.630 96.581,93.421 99.854,62.390 96.675 L 38.183 94.195 26.535 119.087 C 7.531 159.697,7.760 167.331,28.389 180.952 C 51.951 196.510,51.951 207.300,28.389 222.857 C 7.773 236.470,7.535 244.120,26.467 284.577 L 38.048 309.325 61.026 306.658 C 92.792 302.971,96.470 306.539,93.123 337.795 L 90.543 361.890 115.356 373.502 C 156.092 392.565,163.548 392.355,177.143 371.763 C 192.981 347.774,204.760 347.753,219.650 371.688 C 232.536 392.401,239.977 392.622,280.834 373.502 L 305.648 361.890 303.068 337.795 C 299.720 306.539,303.398 302.971,335.164 306.658 L 358.143 309.325 369.724 284.577 C 388.501 244.450,388.253 236.673,367.718 221.784 C 345.049 205.347,345.044 196.134,367.695 180.952 C 387.472 167.696,388.432 162.402,376.405 132.889 C 360.862 94.747,359.961 93.995,333.111 96.746 C 302.846 99.846,299.578 96.427,303.094 65.343 L 305.681 42.478 282.654 30.854 C 243.811 11.246,232.737 11.482,219.048 32.206 C 203.592 55.604,192.777 55.630,177.143 32.305 C 165.442 14.849,160.234 12.906,140.952 18.808 M237.499 134.283 C 281.034 158.331,288.289 223.249,251.384 258.517 C 215.663 292.654,150.468 281.360,129.160 237.343 C 94.819 166.404,168.596 96.222,237.499 134.283 " fill="#01a89e" class="color000 svgShape"></path></svg></g></svg>