<svg id="svg" version="1.1" xmlns="http://www.w3.org/2000/svg" xmlns:xlink="http://www.w3.org/1999/xlink" width="400" height="400" viewBox="0, 0, 400,400"><g id="svgg"><path id="path0" d="M75.400 115.786 C 68.586 116.975,62.047 118.691,58.600 120.194 C 57.940 120.482,56.035 121.281,54.366 121.969 C 42.974 126.666,28.976 137.881,20.628 149.000 C 3.699 171.548,-0.333 203.563,10.483 229.552 C 30.355 277.298,87.150 296.122,132.791 270.089 C 147.668 261.604,161.885 246.180,167.347 232.600 C 169.339 227.646,169.562 227.043,170.383 224.400 C 172.369 218.004,172.846 214.257,173.207 202.200 C 173.863 180.244,179.089 167.011,191.788 155.146 C 229.684 119.738,292.562 144.439,294.281 195.408 C 295.759 239.222,254.856 268.859,213.000 254.301 C 203.101 250.859,195.887 253.270,194.031 260.643 C 191.390 271.133,200.579 277.834,222.000 281.040 C 230.769 282.353,248.259 281.760,251.539 280.040 C 251.902 279.849,253.010 279.560,254.000 279.397 C 265.752 277.462,283.138 267.688,293.815 257.014 C 339.686 211.152,317.769 133.044,254.600 117.258 C 238.684 113.280,215.117 114.548,203.800 119.991 C 203.360 120.203,201.594 120.924,199.876 121.593 C 181.660 128.692,164.453 144.643,156.257 162.029 C 151.371 172.392,149.737 180.488,149.197 197.000 C 148.747 210.745,147.775 215.215,143.196 224.600 C 123.890 264.170,67.211 269.749,40.558 234.702 C 16.091 202.531,29.708 155.834,67.515 142.253 C 81.456 137.246,94.605 137.264,109.800 142.312 C 117.184 144.764,122.045 144.323,125.736 140.864 C 131.589 135.379,129.822 125.394,122.351 121.735 C 109.809 115.594,90.513 113.149,75.400 115.786 M210.249 165.703 C 204.440 169.934,198.881 194.758,201.369 205.360 C 203.557 214.684,211.456 222.231,222.721 225.760 C 231.070 228.375,232.650 226.723,230.559 217.561 C 228.881 210.207,228.825 209.863,229.068 208.473 C 229.277 207.275,229.343 207.220,229.750 207.905 C 229.997 208.323,230.606 209.280,231.101 210.032 C 231.597 210.784,232.817 213.488,233.811 216.040 C 237.227 224.800,238.835 224.603,245.525 214.600 L 248.200 210.600 248.192 204.800 C 248.177 194.425,244.724 190.074,224.386 174.800 C 221.896 172.930,218.362 170.026,216.533 168.347 C 212.864 164.979,211.836 164.547,210.249 165.703 M266.200 184.685 C 263.655 185.035,253.954 187.598,252.011 188.433 C 248.097 190.117,247.716 191.530,249.628 197.283 C 250.893 201.091,251.011 203.505,250.188 208.669 C 249.953 210.140,250.045 210.444,250.961 211.241 C 252.731 212.780,252.234 213.736,246.694 219.459 C 241.585 224.736,242.692 226.440,251.420 226.731 C 264.834 227.177,270.708 221.498,274.932 204.000 C 279.735 184.099,279.773 184.362,272.100 184.460 C 269.515 184.493,266.860 184.594,266.200 184.685 M350.713 208.400 C 338.728 211.034,331.400 217.268,331.400 224.829 C 331.400 234.173,340.195 236.810,349.233 230.176 C 356.455 224.875,364.843 225.416,367.813 231.376 C 370.362 236.492,367.599 241.134,355.400 252.227 C 344.823 261.845,330.352 276.449,329.465 278.400 C 327.487 282.748,328.808 288.502,332.356 290.996 L 334.069 292.200 361.334 292.200 L 388.600 292.200 390.127 291.251 C 394.450 288.563,395.556 280.061,392.115 275.972 C 389.824 273.249,388.842 273.027,378.000 272.787 C 368.780 272.583,366.800 272.371,366.800 271.590 C 366.800 271.411,366.690 270.979,366.556 270.629 C 366.383 270.179,368.123 268.142,372.477 263.696 C 388.740 247.089,392.327 239.228,389.209 227.034 C 385.638 213.074,368.091 204.580,350.713 208.400 " stroke="none" fill="#08ac9e" fill-rule="evenodd"></path></g></svg>