<svg xmlns="http://www.w3.org/2000/svg" width="400" height="400" viewBox="0 0 400 NaN" xmlns:v="https://vecta.io/nano"><path d="M7.797 35.445c-2.707 1.417-4.354 3.062-5.67 5.665-.608 1.201-1.335 2.272-1.616 2.38-.6.23-.771 245.31-.172 245.31.187 0 1.001 1.338 1.809 2.973 2.101 4.252 4.803 6.245 9.499 7.007 1.694.275 27.281.415 76.039.417l73.921.815c.497.93-.165 18.76-.787 21.177-.2.776-.483 3.031-.629 5.011-.85 11.519-4.773 18.21-13.836 23.6l-6.955 4.019c-1.1.63-2.245 1.386-2.544 1.679s-1.38.96-2.4 1.482c-5.603 2.865-8.173 8.045-4.869 9.813 1.004.538 138.741.567 140.153.03 3.691-1.404 1.137-6.851-4.612-9.836-1.029-.535-1.977-1.142-2.105-1.35s-1.806-1.224-3.728-2.258c-16.173-8.698-18.868-13.161-20.518-33.979l-1.162-14.149c-.312-3.504-.274-4.295.249-5.092l.619-.945 75.058-.107L388.6 299l2.051-1.023c2.794-1.392 5.192-3.444 6.368-5.448l.981-1.671V166.613l-.768-125.75c-1.12-2.195-3.106-4.004-5.832-5.311l-2.4-1.151-189.603-.001H9.794l-1.997 1.045M378.49 62.712c.857.858 1.138 203.741.284 205.336-.838 1.567.923 1.552-179.53 1.552H22.139l-.867-.923-.867-.924-.007-102.032c-.008-107.874-.077-103.203 1.546-103.559l1.356-.297c2.746-.595 354.587.244 355.19.847M152.8 98.372c-2.968.593-4.009 1.717-3.987 4.302.028 3.435 1.142 3.89 10.099 4.126 10.322.272 10.239.147 4.393 6.671l-13.58 15.366c-18.834 21.449-16.793 19.84-20.872 16.459L110.04 130.2c-.591-.44-2.845-2.24-5.007-4-10.952-8.912-8.781-9.442-25.233 6.154l-6.8 6.42-9.8 9.259-8.178 7.598c-9.193 7.558-11.874 12.501-8.4 15.489 2.551 2.194 4.003 1.434 12.378-6.48L69.427 155c.246-.22 3.204-3.01 6.574-6.2l13.368-12.702c6.319-6.041 5.933-6.037 13.022-.154 2.909 2.415 16.352 13.183 18.569 14.875.734.56 2.214 1.753 3.288 2.65 8.899 7.436 10.2 7.285 17.924-2.078 1.085-1.315 2.27-2.661 2.633-2.991.542-.492 7.174-7.976 10.634-12 .473-.55 2.908-3.301 5.41-6.113l8.043-9.188c5.465-6.378 5.908-6.174 5.908 2.713 0 7.66.715 8.988 4.837 8.988 3.952 0 4.56-2.626 4.241-18.306-.301-14.746-.474-15.454-3.939-16.123-2.075-.401-25.133-.4-27.139.001m139.452.771c-1.036 1.145-1.022 60.391.014 61.153.839.616 1.097.461 8.213-4.918l6.364-4.8 12.2-9.173L335.765 129c5.902-4.164 5.529-5.99-2.72-13.332-3.894-3.466-12.142-9.207-13.289-9.251-.244-.009-1.114-.471-1.933-1.027-6.587-4.47-23.451-8.59-25.571-6.247m-14.052 4.309c-4.266.52-7.388 1.11-8.6 1.627-.77.328-2.635.946-4.144 1.372s-3.577 1.22-4.597 1.763-2.065.986-2.325.986-.981.407-1.603.906-1.941 1.339-2.931 1.868c-3.663 1.961-11.382 8.519-14.6 12.404l-3.438 4.16c-2.261 2.748-8.762 14.93-8.762 16.418 0 .318-.655 2.618-1.456 5.111-2.455 7.641-2.44 25.539.027 31.502.508 1.227 1.042 3.014 1.187 3.972.244 1.607 1.749 5.379 3.295 8.259l1.484 2.8c3.261 6.214 12.028 16.19 17.325 19.715l3.885 2.58c1.783 1.181 7.936 4.251 12.453 6.212 1.54.669 4.06 1.424 5.6 1.678s3.79.764 5 1.133c3.213.979 18.42.983 21.6.006 1.21-.372 3.46-.88 5-1.128 2.671-.431 4.858-1.286 10.552-4.124 4.046-2.017 4.38-3.466 1.584-6.872-.542-.66-1.514-2.08-2.161-3.156l-1.979-3.2c-.443-.684-1.163-1.856-1.6-2.604s-2.068-3.268-3.623-5.6a419.25 419.25 0 0 1-7.973-12.42c-.66-1.071-2.1-3.311-3.2-4.978-12.708-19.262-11.4-13.52-11.4-50.055 0-26.982-.046-28.904-.7-29.494-.823-.742-2.228-1.045-3.9-.841m66 29.239c-.44.109-1.183.494-1.65.854L331.4 142l-15.8 11.813c-.77.55-2.771 2.032-4.446 3.294l-11.554 8.64c-4.845 3.54-5.689 4.925-3.957 6.491.463.419 1.207 1.482 1.653 2.362s1.282 2.231 1.857 3.002 1.267 1.76 1.535 2.2c2.35 3.843 3.687 5.902 4.988 7.681.838 1.146 1.524 2.188 1.524 2.316 0 .258 4.394 7.126 6.835 10.681.861 1.255 1.565 2.395 1.565 2.535s.516 1.004 1.146 1.92 2.366 3.555 3.859 5.865c4.292 6.644 4.546 7.003 5.757 8.164l1.147 1.099 1.734-.885c2.574-1.313 11.088-10.019 13.494-13.8 1.113-1.748 2.363-3.628 2.778-4.178s1.51-2.62 2.434-4.6l2.429-5.017c3.376-6.38 5.648-26.944 4-36.21-.893-5.017-2.868-12.42-3.777-14.157-.523-.999-1.523-2.986-2.222-4.416-1.205-2.465-2.644-4.455-3.149-4.354a43.77 43.77 0 0 0-1.03.245m-182.556 17.725c-4.806.989-4.644-.375-4.644 39.184 0 37.114-.086 35.878 2.659 38.189l1.202 1.011h9.383c11.013 0 11.691-.152 12.72-2.859.601-1.581.652-5.016.549-37.341-.123-38.615-.007-36.709-2.291-37.856-1.24-.623-16.875-.885-19.578-.328M85.84 163.538c-3.437.577-3.225-1.428-3.35 31.711-.142 37.514-1.687 33.551 13.082 33.551 14.293 0 12.835 3.671 12.855-32.367.017-30.343-.027-31.09-1.924-32.334-1.128-.739-17.027-1.171-20.663-.561m37.127 13.279c-3.307.995-3.365 1.447-3.348 26.183.019 28.261-1.271 25.921 14.173 25.72 13.897-.181 12.687 2.448 12.525-27.233-.129-23.544-.077-22.927-2.03-24.108-1.442-.873-18.769-1.33-21.32-.562m-76.012 13.175c-2.578 1.042-2.555.871-2.555 19.008 0 21.423-1.104 19.8 13.467 19.8 14.023 0 12.919 1.644 12.927-19.25.007-17.903-.014-18.13-1.752-19.19-1.349-.822-20.186-1.136-22.087-.368" fill="#08ac9e" fill-rule="evenodd"/></svg>