<svg id="svg" version="1.1" xmlns="http://www.w3.org/2000/svg" xmlns:xlink="http://www.w3.org/1999/xlink" width="400" height="400" viewBox="0, 0, 400,400"><g id="svgg"><path id="path0" d="M186.800 10.417 C 185.810 10.592,182.660 10.937,179.800 11.186 C 176.940 11.434,173.430 11.891,172.000 12.201 C 170.570 12.512,168.410 12.876,167.200 13.010 C 165.990 13.145,164.190 13.498,163.200 13.795 C 162.210 14.093,160.502 14.458,159.405 14.607 C 158.308 14.756,156.956 15.113,156.400 15.400 C 155.844 15.687,154.492 16.052,153.395 16.211 C 152.298 16.369,150.845 16.725,150.167 17.001 C 149.489 17.277,146.969 17.988,144.567 18.580 C 142.165 19.173,139.545 20.005,138.746 20.429 C 137.946 20.853,136.975 21.200,136.589 21.200 C 136.203 21.200,135.148 21.538,134.244 21.952 C 133.340 22.366,131.610 23.109,130.400 23.603 C 127.629 24.736,124.141 26.280,122.668 27.026 C 122.045 27.342,121.266 27.600,120.936 27.600 C 120.606 27.600,118.956 28.342,117.268 29.248 C 115.581 30.155,112.490 31.801,110.400 32.906 C 108.310 34.011,106.404 35.067,106.164 35.254 C 105.924 35.440,104.667 36.158,103.371 36.849 C 100.931 38.152,99.338 39.158,96.600 41.129 C 95.720 41.763,93.650 43.162,92.000 44.238 C 86.744 47.667,78.103 54.673,69.901 62.154 C 66.190 65.540,63.916 67.911,56.816 75.800 C 55.906 76.812,52.219 81.408,49.687 84.690 C 49.309 85.180,48.490 86.170,47.866 86.890 C 46.533 88.430,42.400 94.554,42.400 94.989 C 42.400 95.154,41.680 96.149,40.800 97.200 C 39.920 98.251,39.195 99.266,39.189 99.456 C 39.182 99.645,38.462 100.876,37.589 102.191 C 36.715 103.507,36.000 104.784,36.000 105.030 C 36.000 105.276,35.640 105.893,35.200 106.400 C 34.760 106.907,34.400 107.541,34.400 107.807 C 34.400 108.074,34.065 108.721,33.655 109.246 C 33.245 109.771,32.774 110.650,32.608 111.200 C 32.441 111.750,32.071 112.470,31.785 112.800 C 31.060 113.637,27.600 120.485,27.600 121.084 C 27.600 121.571,26.675 123.632,25.178 126.479 C 24.750 127.293,24.400 128.247,24.400 128.600 C 24.400 128.953,24.057 129.907,23.637 130.721 C 22.171 133.566,21.200 135.893,21.200 136.564 C 21.200 136.936,20.902 137.816,20.538 138.520 C 19.897 139.758,18.681 144.010,17.971 147.495 C 17.782 148.427,17.350 149.723,17.013 150.375 C 16.676 151.027,16.392 152.064,16.382 152.680 C 16.373 153.296,16.088 154.520,15.749 155.400 C 15.411 156.280,14.888 158.260,14.587 159.800 C 14.286 161.340,13.866 163.175,13.654 163.878 C 13.442 164.581,13.139 166.381,12.981 167.878 C 12.823 169.375,12.529 171.040,12.328 171.577 C 12.126 172.114,11.703 175.174,11.388 178.377 C 11.073 181.580,10.633 185.730,10.411 187.600 C 9.889 191.984,9.887 209.192,10.408 213.600 C 10.629 215.470,11.072 219.610,11.392 222.800 C 11.713 225.990,12.147 229.230,12.357 230.000 C 12.567 230.770,12.865 232.570,13.019 234.000 C 13.173 235.430,13.472 237.050,13.683 237.600 C 13.894 238.150,14.307 239.860,14.600 241.400 C 14.894 242.940,15.411 244.920,15.749 245.800 C 16.088 246.680,16.373 247.850,16.382 248.400 C 16.392 248.950,16.744 250.480,17.165 251.800 C 18.624 256.372,19.145 258.207,19.433 259.792 C 19.593 260.667,20.055 261.927,20.460 262.592 C 20.865 263.256,21.198 264.163,21.199 264.606 C 21.199 265.049,21.536 266.039,21.947 266.806 C 22.357 267.573,22.819 268.773,22.972 269.472 C 23.126 270.172,23.510 270.959,23.826 271.221 C 24.142 271.483,24.400 272.045,24.400 272.470 C 24.400 272.894,24.750 273.907,25.178 274.721 C 26.766 277.741,27.507 279.468,27.794 280.816 C 27.956 281.577,28.318 282.470,28.597 282.800 C 28.877 283.130,29.238 283.850,29.400 284.400 C 29.562 284.950,29.924 285.670,30.203 286.000 C 30.483 286.330,31.559 288.220,32.593 290.200 C 33.628 292.180,34.687 294.070,34.947 294.400 C 35.207 294.730,36.021 296.210,36.756 297.689 C 37.491 299.168,38.342 300.586,38.646 300.838 C 38.951 301.091,39.200 301.520,39.200 301.791 C 39.200 302.062,39.605 302.744,40.100 303.307 C 41.070 304.409,42.873 307.002,44.894 310.200 C 45.589 311.300,47.517 313.915,49.179 316.012 C 50.841 318.108,52.638 320.440,53.173 321.195 C 53.709 321.949,54.789 323.272,55.573 324.135 C 56.358 324.998,58.075 326.895,59.390 328.352 C 67.127 336.926,88.438 356.000,90.281 356.000 C 90.610 356.000,96.062 359.645,96.600 360.225 C 97.177 360.847,99.765 362.457,103.000 364.206 C 103.660 364.563,104.920 365.287,105.800 365.815 C 106.680 366.343,108.660 367.424,110.200 368.218 C 111.740 369.012,113.893 370.205,114.984 370.869 C 116.076 371.533,118.146 372.529,119.584 373.083 C 121.023 373.638,122.515 374.250,122.900 374.445 C 123.285 374.640,123.915 374.959,124.300 375.154 C 124.685 375.349,125.990 375.911,127.200 376.402 C 128.410 376.894,130.140 377.634,131.044 378.048 C 131.948 378.462,132.836 378.800,133.018 378.800 C 133.199 378.800,134.079 379.138,134.974 379.552 C 137.254 380.605,140.189 381.572,143.000 382.195 C 144.320 382.487,145.940 382.914,146.600 383.143 C 149.207 384.050,153.128 385.214,154.819 385.583 C 155.799 385.798,157.680 386.233,159.000 386.552 C 161.926 387.257,164.953 387.864,168.400 388.437 C 169.830 388.674,172.800 389.205,175.000 389.616 C 185.962 391.665,216.102 391.742,225.400 389.746 C 226.940 389.415,229.640 388.974,231.400 388.767 C 233.160 388.559,235.397 388.122,236.371 387.795 C 237.345 387.468,238.745 387.200,239.481 387.200 C 240.218 387.200,241.844 386.840,243.096 386.400 C 244.348 385.960,245.735 385.600,246.179 385.600 C 246.887 385.600,251.059 384.380,254.600 383.137 C 255.260 382.906,257.008 382.493,258.483 382.221 C 259.959 381.948,261.399 381.538,261.683 381.309 C 261.968 381.080,262.830 380.758,263.600 380.593 C 264.370 380.428,265.627 379.957,266.394 379.547 C 267.161 379.136,268.066 378.800,268.405 378.800 C 268.744 378.800,269.377 378.556,269.811 378.257 C 270.245 377.958,271.292 377.489,272.139 377.213 C 272.985 376.938,274.155 376.463,274.739 376.159 C 275.322 375.854,276.001 375.604,276.246 375.602 C 276.491 375.601,277.121 375.267,277.646 374.861 C 278.171 374.455,279.118 373.995,279.752 373.840 C 281.001 373.535,286.191 371.030,289.400 369.184 C 290.500 368.551,291.940 367.754,292.600 367.414 C 293.260 367.073,294.520 366.358,295.400 365.825 C 296.280 365.291,297.587 364.581,298.304 364.246 C 299.733 363.579,303.596 361.116,305.244 359.821 C 305.819 359.369,306.695 358.730,307.191 358.400 C 307.687 358.070,308.505 357.485,309.009 357.100 C 309.514 356.715,310.093 356.400,310.298 356.400 C 310.649 356.400,316.473 352.007,318.200 350.440 C 318.640 350.041,320.196 348.810,321.659 347.705 C 325.485 344.812,326.514 343.860,335.187 335.185 C 342.891 327.479,344.086 326.178,347.894 321.361 C 348.954 320.019,350.087 318.635,350.411 318.285 C 350.735 317.934,351.450 316.996,352.000 316.200 C 352.550 315.404,353.670 313.998,354.489 313.076 C 355.308 312.154,355.983 311.230,355.989 311.022 C 356.002 310.587,357.227 308.743,360.516 304.208 C 361.789 302.452,363.295 300.112,363.862 299.008 C 364.429 297.903,365.321 296.280,365.844 295.400 C 366.367 294.520,367.063 293.227,367.391 292.527 C 367.719 291.827,368.157 291.150,368.363 291.023 C 368.570 290.895,368.854 290.265,368.995 289.623 C 369.136 288.981,369.508 288.243,369.821 287.983 C 370.560 287.370,373.392 281.459,373.963 279.338 C 374.206 278.433,374.674 277.470,375.003 277.198 C 375.331 276.925,375.600 276.459,375.600 276.162 C 375.600 275.640,376.463 273.533,378.044 270.200 C 378.461 269.320,378.803 268.330,378.804 268.000 C 378.805 267.670,379.163 266.860,379.600 266.200 C 380.037 265.540,380.396 264.679,380.397 264.287 C 380.399 263.895,380.701 262.905,381.069 262.087 C 381.437 261.269,381.953 259.520,382.217 258.200 C 382.480 256.880,382.892 255.260,383.132 254.600 C 384.129 251.860,385.603 246.536,385.602 245.680 C 385.601 245.174,385.855 244.267,386.167 243.664 C 386.479 243.060,386.929 241.168,387.167 239.458 C 387.404 237.748,387.764 236.040,387.967 235.662 C 388.169 235.285,388.456 233.631,388.605 231.988 C 388.755 230.344,389.135 228.010,389.451 226.800 C 391.678 218.274,391.673 183.055,389.443 174.400 C 389.132 173.190,388.758 170.890,388.613 169.288 C 388.468 167.687,388.113 165.797,387.825 165.088 C 387.537 164.380,387.176 162.641,387.022 161.225 C 386.869 159.809,386.486 158.153,386.172 157.545 C 385.857 156.937,385.592 155.936,385.582 155.320 C 385.573 154.704,385.292 153.480,384.958 152.600 C 384.625 151.720,384.095 149.966,383.781 148.703 C 383.468 147.440,383.037 146.090,382.824 145.703 C 382.611 145.316,382.264 144.010,382.053 142.800 C 381.659 140.543,380.792 137.824,379.567 135.000 C 379.185 134.120,378.475 132.410,377.989 131.200 C 377.502 129.990,376.766 128.260,376.352 127.356 C 375.938 126.452,375.600 125.490,375.600 125.219 C 375.600 124.948,375.240 124.269,374.800 123.709 C 374.360 123.150,374.000 122.421,374.000 122.090 C 374.000 121.759,373.660 120.748,373.246 119.844 C 372.831 118.940,372.287 117.750,372.038 117.200 C 371.788 116.650,371.154 115.480,370.629 114.600 C 370.104 113.720,369.014 111.740,368.207 110.200 C 367.399 108.660,366.304 106.680,365.772 105.800 C 365.241 104.920,364.522 103.660,364.175 103.000 C 363.829 102.340,363.115 101.080,362.588 100.200 C 362.062 99.320,361.361 98.127,361.031 97.548 C 360.700 96.970,360.153 96.391,359.815 96.261 C 359.477 96.131,359.200 95.841,359.200 95.617 C 359.200 95.392,358.480 94.172,357.601 92.904 C 356.721 91.637,356.001 90.468,356.001 90.306 C 355.999 89.627,345.800 77.133,341.558 72.614 C 340.105 71.066,338.326 69.119,337.605 68.286 C 336.883 67.454,333.842 64.505,330.846 61.733 C 323.086 54.553,322.773 54.274,321.006 52.974 C 320.130 52.328,317.304 50.180,314.728 48.200 C 312.152 46.220,308.763 43.790,307.197 42.800 C 305.631 41.810,304.029 40.704,303.637 40.343 C 303.245 39.981,302.402 39.389,301.762 39.027 C 301.123 38.665,299.880 37.938,299.000 37.412 C 298.120 36.885,296.860 36.178,296.200 35.840 C 295.540 35.502,293.560 34.409,291.800 33.413 C 290.040 32.416,288.174 31.417,287.653 31.192 C 287.132 30.968,286.253 30.428,285.699 29.992 C 285.145 29.556,284.378 29.200,283.995 29.200 C 283.612 29.200,283.083 28.942,282.821 28.626 C 282.559 28.310,281.799 27.932,281.132 27.785 C 280.465 27.639,278.902 27.071,277.659 26.525 C 276.417 25.978,274.860 25.301,274.200 25.020 C 273.540 24.738,272.370 24.223,271.600 23.874 C 268.628 22.529,265.201 21.200,264.706 21.200 C 264.421 21.200,263.561 20.864,262.794 20.453 C 262.027 20.043,260.770 19.578,260.000 19.420 C 259.230 19.263,257.610 18.858,256.400 18.521 C 255.190 18.183,253.030 17.581,251.600 17.181 C 243.279 14.858,239.095 13.884,233.600 12.991 C 231.510 12.651,229.170 12.213,228.400 12.018 C 227.630 11.823,225.470 11.544,223.600 11.399 C 221.730 11.253,217.951 10.879,215.202 10.567 C 209.808 9.955,190.016 9.851,186.800 10.417 M213.456 37.614 C 217.385 37.842,221.140 38.196,221.800 38.401 C 222.460 38.606,224.620 38.964,226.600 39.196 C 228.580 39.429,230.650 39.797,231.200 40.014 C 231.750 40.232,233.550 40.667,235.200 40.981 C 238.614 41.631,240.758 42.168,244.217 43.242 C 245.547 43.655,247.527 44.112,248.617 44.258 C 249.708 44.403,251.227 44.855,251.994 45.261 C 252.761 45.668,253.661 46.001,253.994 46.002 C 254.327 46.004,255.116 46.274,255.746 46.602 C 256.376 46.931,257.073 47.200,257.296 47.200 C 257.688 47.200,260.945 48.518,264.200 49.993 C 271.673 53.381,273.089 54.000,273.367 54.000 C 273.591 54.000,275.710 55.193,279.536 57.473 C 280.341 57.952,281.540 58.634,282.200 58.987 C 282.860 59.339,284.120 60.068,285.000 60.605 C 285.880 61.142,286.967 61.747,287.416 61.949 C 287.865 62.151,288.473 62.605,288.765 62.958 C 289.058 63.311,289.514 63.600,289.779 63.600 C 290.200 63.600,293.899 66.217,295.600 67.717 C 295.930 68.008,297.276 68.948,298.591 69.805 C 300.744 71.209,305.582 75.076,306.600 76.209 C 306.820 76.453,307.914 77.398,309.032 78.307 C 311.522 80.333,321.279 90.044,323.200 92.408 C 323.970 93.356,325.353 94.965,326.274 95.984 C 328.348 98.280,331.600 102.447,331.600 102.809 C 331.600 102.957,331.926 103.454,332.325 103.913 C 332.724 104.373,333.399 105.238,333.825 105.836 C 334.251 106.433,334.905 107.245,335.279 107.640 C 335.652 108.034,336.243 108.862,336.591 109.479 C 336.939 110.095,337.579 111.140,338.013 111.800 C 338.447 112.460,339.069 113.573,339.395 114.273 C 339.721 114.973,340.173 115.660,340.400 115.800 C 340.627 115.940,341.076 116.627,341.398 117.327 C 342.044 118.731,342.303 119.166,344.446 122.450 C 345.254 123.688,346.045 125.128,346.205 125.650 C 346.364 126.173,346.721 126.870,346.997 127.200 C 347.273 127.530,347.616 128.457,347.760 129.260 C 347.904 130.063,348.275 130.930,348.585 131.187 C 348.895 131.445,349.262 132.170,349.400 132.800 C 349.538 133.430,349.898 134.150,350.200 134.400 C 350.502 134.650,350.871 135.428,351.020 136.128 C 351.170 136.827,351.528 137.850,351.815 138.400 C 352.886 140.448,353.961 143.037,354.224 144.200 C 354.373 144.860,354.720 145.763,354.995 146.206 C 355.446 146.932,356.773 151.531,357.591 155.200 C 357.763 155.970,358.195 157.269,358.552 158.087 C 358.908 158.905,359.200 160.113,359.200 160.772 C 359.200 161.431,359.560 162.884,360.000 164.000 C 360.440 165.116,360.800 166.485,360.800 167.041 C 360.800 167.598,361.147 169.616,361.571 171.526 C 361.995 173.437,362.545 176.710,362.793 178.800 C 363.041 180.890,363.405 183.770,363.602 185.200 C 364.057 188.514,364.070 212.558,363.617 216.000 C 363.430 217.430,363.062 220.310,362.801 222.400 C 362.540 224.490,361.993 227.820,361.586 229.800 C 361.180 231.780,360.748 234.141,360.627 235.047 C 360.506 235.953,360.137 237.213,359.806 237.847 C 359.476 238.481,359.204 239.591,359.202 240.313 C 359.201 241.035,358.912 242.295,358.559 243.113 C 358.207 243.931,357.680 245.590,357.388 246.800 C 356.033 252.429,355.512 254.191,354.977 254.954 C 354.660 255.407,354.400 256.123,354.400 256.545 C 354.400 257.282,353.525 259.429,352.013 262.400 C 351.621 263.170,351.176 264.373,351.024 265.072 C 350.873 265.772,350.490 266.559,350.174 266.821 C 349.858 267.083,349.594 267.501,349.587 267.749 C 349.581 267.997,349.132 269.100,348.591 270.200 C 348.050 271.300,347.606 272.493,347.604 272.851 C 347.602 273.209,347.348 273.711,347.039 273.967 C 346.731 274.223,346.365 274.886,346.226 275.440 C 346.087 275.993,345.390 277.291,344.677 278.323 C 343.965 279.355,343.150 280.650,342.868 281.200 C 341.373 284.110,337.555 290.482,336.919 291.129 C 336.634 291.419,336.400 291.801,336.400 291.978 C 336.400 292.154,335.479 293.446,334.354 294.849 C 333.229 296.252,331.705 298.339,330.968 299.486 C 330.231 300.634,329.306 301.914,328.914 302.332 C 326.375 305.036,324.754 306.872,323.205 308.800 C 320.547 312.108,312.572 320.112,309.400 322.657 C 307.860 323.892,306.323 325.213,305.984 325.591 C 305.008 326.684,298.818 331.600,298.418 331.600 C 298.220 331.600,297.819 331.826,297.529 332.103 C 297.005 332.601,294.940 334.271,293.400 335.443 C 291.670 336.759,286.974 339.595,286.520 339.597 C 286.256 339.599,285.896 339.851,285.720 340.157 C 285.544 340.463,284.770 341.005,284.000 341.360 C 281.885 342.337,278.174 344.515,277.340 345.269 C 276.933 345.637,276.112 346.059,275.516 346.208 C 274.920 346.357,274.223 346.731,273.967 347.039 C 273.711 347.348,273.150 347.600,272.720 347.600 C 272.290 347.600,270.197 348.427,268.069 349.437 C 262.895 351.894,261.435 352.535,258.600 353.591 C 257.280 354.083,255.633 354.755,254.941 355.084 C 254.248 355.413,252.628 355.921,251.341 356.213 C 250.053 356.504,247.740 357.102,246.200 357.541 C 244.660 357.979,242.590 358.548,241.600 358.805 C 240.610 359.062,238.630 359.618,237.200 360.042 C 235.770 360.465,234.138 360.809,233.573 360.806 C 233.008 360.803,231.658 361.062,230.573 361.382 C 229.488 361.702,226.260 362.258,223.400 362.619 C 220.540 362.979,217.210 363.422,216.000 363.603 C 213.141 364.031,188.062 364.032,185.200 363.603 C 183.990 363.422,180.840 362.997,178.200 362.659 C 175.560 362.321,172.327 361.764,171.016 361.422 C 169.705 361.080,168.136 360.800,167.530 360.800 C 166.924 360.800,165.567 360.506,164.514 360.146 C 163.461 359.786,161.610 359.257,160.400 358.970 C 159.190 358.684,156.850 358.064,155.200 357.593 C 153.550 357.122,151.122 356.468,149.805 356.139 C 148.488 355.809,147.228 355.391,147.005 355.208 C 146.782 355.025,145.568 354.577,144.307 354.212 C 143.046 353.846,141.911 353.379,141.784 353.174 C 141.657 352.968,141.282 352.800,140.952 352.800 C 140.320 352.800,137.946 351.770,132.570 349.165 C 130.793 348.304,129.144 347.600,128.906 347.600 C 128.436 347.600,124.326 345.571,124.000 345.178 C 123.890 345.045,121.941 343.871,119.668 342.568 C 111.104 337.660,109.438 336.608,106.400 334.196 C 104.970 333.060,103.350 331.893,102.800 331.603 C 101.574 330.956,98.868 328.831,96.193 326.414 C 95.089 325.416,93.304 323.880,92.226 323.000 C 89.757 320.984,80.458 311.657,78.268 309.000 C 77.362 307.900,75.596 305.865,74.343 304.478 C 73.091 303.092,71.197 300.666,70.133 299.087 C 69.070 297.509,67.930 295.912,67.600 295.538 C 67.270 295.163,66.736 294.541,66.414 294.154 C 65.504 293.060,62.348 288.292,61.943 287.400 C 61.744 286.960,61.142 285.880,60.605 285.000 C 60.068 284.120,59.345 282.860,58.999 282.200 C 58.653 281.540,57.848 280.190,57.209 279.200 C 55.861 277.109,52.400 270.180,52.400 269.572 C 52.400 269.345,52.056 268.493,51.635 267.679 C 51.214 266.866,50.387 265.120,49.797 263.800 C 49.207 262.480,48.492 260.950,48.208 260.400 C 47.925 259.850,47.558 258.773,47.394 258.006 C 47.229 257.239,46.866 256.249,46.587 255.806 C 46.307 255.363,45.951 254.370,45.795 253.600 C 45.639 252.830,45.283 251.930,45.003 251.600 C 44.724 251.270,44.368 249.920,44.212 248.600 C 44.056 247.280,43.677 245.660,43.369 245.000 C 43.061 244.340,42.645 242.990,42.444 242.000 C 41.997 239.789,40.919 235.154,40.352 233.000 C 40.120 232.120,39.761 230.320,39.554 229.000 C 39.346 227.680,38.904 225.160,38.571 223.400 C 37.047 215.340,36.913 183.995,38.382 179.200 C 38.617 178.430,39.002 176.097,39.237 174.015 C 39.471 171.933,39.838 169.902,40.052 169.502 C 40.267 169.102,40.693 167.346,41.000 165.600 C 41.307 163.854,41.725 162.105,41.928 161.713 C 42.131 161.321,42.421 160.153,42.571 159.118 C 42.721 158.082,43.087 156.732,43.384 156.118 C 43.682 155.503,44.055 154.012,44.213 152.804 C 44.372 151.596,44.839 149.979,45.251 149.210 C 45.663 148.441,46.000 147.415,46.000 146.930 C 46.000 146.444,46.175 145.939,46.389 145.807 C 46.603 145.674,46.970 144.809,47.205 143.883 C 47.439 142.957,47.984 141.545,48.415 140.746 C 48.847 139.946,49.200 139.023,49.200 138.695 C 49.200 138.366,49.452 137.889,49.761 137.633 C 50.069 137.377,50.437 136.680,50.577 136.084 C 50.718 135.488,51.212 134.190,51.675 133.200 C 52.137 132.210,52.751 130.860,53.038 130.200 C 54.517 126.797,54.890 126.028,56.042 124.004 C 56.730 122.797,57.632 121.377,58.046 120.850 C 58.461 120.323,58.800 119.671,58.800 119.400 C 58.800 119.129,59.136 118.479,59.547 117.954 C 59.957 117.429,60.780 116.066,61.376 114.925 C 61.971 113.784,62.715 112.637,63.029 112.376 C 63.343 112.115,63.600 111.686,63.600 111.421 C 63.600 110.979,64.512 109.687,68.686 104.215 C 69.519 103.123,70.712 101.425,71.337 100.442 C 71.963 99.459,73.403 97.667,74.537 96.460 C 75.672 95.252,76.870 93.974,77.200 93.619 C 77.530 93.264,78.272 92.347,78.848 91.581 C 80.143 89.862,91.221 78.800,91.649 78.800 C 91.973 78.800,92.751 78.118,96.400 74.634 C 97.610 73.479,99.410 72.013,100.400 71.377 C 101.390 70.741,102.920 69.647,103.800 68.947 C 106.064 67.144,109.160 64.951,110.800 63.987 C 111.570 63.535,113.460 62.362,115.000 61.381 C 116.540 60.400,118.430 59.310,119.200 58.959 C 119.970 58.608,120.870 58.086,121.200 57.800 C 122.199 56.935,126.745 54.624,131.400 52.615 C 133.820 51.571,136.790 50.265,138.000 49.713 C 142.001 47.888,145.750 46.415,148.000 45.783 C 148.550 45.628,149.200 45.343,149.444 45.148 C 149.689 44.954,151.219 44.542,152.844 44.234 C 154.470 43.926,156.610 43.409,157.600 43.085 C 160.256 42.217,162.636 41.621,166.000 40.981 C 167.650 40.667,169.450 40.232,170.000 40.014 C 170.550 39.797,172.620 39.427,174.600 39.192 C 176.580 38.957,178.920 38.572,179.800 38.337 C 183.508 37.348,202.007 36.950,213.456 37.614 M196.688 92.557 C 193.241 93.710,190.244 96.272,188.595 99.477 L 187.400 101.800 187.289 143.640 L 187.179 185.480 186.275 186.329 L 185.371 187.179 143.586 187.289 L 101.800 187.400 99.800 188.369 C 89.434 193.388,89.434 207.908,99.800 212.854 L 102.200 213.999 143.824 214.000 C 179.135 214.000,185.565 214.086,186.224 214.568 C 186.981 215.122,187.005 216.153,187.216 257.268 C 187.335 280.440,187.586 299.850,187.775 300.400 C 189.602 305.734,197.589 310.525,202.539 309.256 C 203.453 309.022,204.771 308.723,205.470 308.590 C 207.214 308.260,211.752 304.030,212.895 301.669 L 213.800 299.800 214.000 257.333 C 214.110 233.976,214.350 214.716,214.533 214.533 C 214.716 214.350,233.976 214.110,257.333 214.000 L 299.800 213.800 301.669 212.895 C 308.808 209.438,311.546 199.897,307.232 193.511 C 305.752 191.320,302.330 188.450,300.400 187.780 C 299.850 187.590,280.440 187.336,257.268 187.217 C 216.154 187.005,215.121 186.981,214.568 186.224 C 214.086 185.565,214.000 179.147,214.000 143.907 L 214.000 102.367 212.837 99.883 C 209.868 93.545,203.023 90.439,196.688 92.557 " stroke="none" fill="#01a89d" fill-rule="evenodd"></path></g></svg>