<svg id="svg" version="1.1" xmlns="http://www.w3.org/2000/svg" xmlns:xlink="http://www.w3.org/1999/xlink" width="400" height="400" viewBox="0, 0, 400,400"><g id="svgg"><path id="path0" d="M190.200 22.236 C 183.474 23.135,181.146 23.522,177.400 24.365 C 173.038 25.346,168.123 26.677,167.549 27.031 C 167.318 27.174,166.290 27.531,165.264 27.824 C 162.372 28.650,158.733 29.959,158.243 30.349 C 157.999 30.543,157.350 30.840,156.800 31.010 C 155.666 31.358,149.314 34.232,148.400 34.809 C 148.070 35.018,147.170 35.521,146.400 35.927 C 138.209 40.246,134.067 43.629,133.928 46.114 C 133.695 50.284,134.911 52.634,138.148 54.275 C 141.274 55.859,141.911 55.675,150.370 50.731 C 153.210 49.071,159.025 46.108,160.064 45.791 C 160.579 45.634,161.270 45.275,161.600 44.992 C 161.930 44.710,162.830 44.291,163.600 44.062 C 164.370 43.832,166.260 43.167,167.800 42.584 C 169.340 42.001,171.678 41.258,172.995 40.932 C 174.312 40.607,175.572 40.189,175.795 40.005 C 176.018 39.821,177.370 39.466,178.800 39.216 C 180.230 38.966,181.940 38.598,182.600 38.399 C 190.268 36.087,209.310 35.880,221.400 37.978 C 226.114 38.796,230.229 39.704,230.605 40.010 C 230.828 40.192,232.088 40.607,233.405 40.932 C 234.722 41.258,237.060 42.001,238.600 42.582 C 240.140 43.164,241.850 43.790,242.400 43.973 C 243.587 44.368,250.339 47.465,251.200 48.009 C 251.530 48.217,252.424 48.668,253.186 49.010 C 253.948 49.351,254.668 49.759,254.786 49.916 C 254.904 50.072,255.630 50.545,256.400 50.967 C 257.170 51.389,259.146 52.514,260.790 53.467 C 266.623 56.847,272.616 53.882,272.570 47.639 C 272.550 44.778,269.945 40.800,268.091 40.800 C 267.875 40.800,267.458 40.511,267.165 40.158 C 266.873 39.805,266.265 39.359,265.816 39.165 C 265.367 38.972,264.280 38.360,263.400 37.804 C 262.520 37.249,261.170 36.508,260.400 36.158 C 259.630 35.807,258.730 35.299,258.400 35.029 C 258.070 34.759,255.820 33.688,253.400 32.648 C 250.980 31.609,248.659 30.570,248.242 30.340 C 247.315 29.827,243.670 28.526,241.097 27.789 C 240.051 27.489,239.023 27.138,238.812 27.008 C 232.958 23.389,203.330 20.481,190.200 22.236 M198.000 51.073 C 188.204 51.797,175.911 54.741,168.000 58.258 C 155.453 63.836,151.800 66.795,151.800 71.378 C 151.800 78.607,157.667 80.695,165.413 76.223 C 167.526 75.003,170.548 73.450,172.128 72.772 C 173.707 72.094,175.540 71.301,176.200 71.010 C 195.346 62.570,221.140 64.679,241.116 76.318 C 244.750 78.436,245.168 78.582,247.616 78.590 C 254.201 78.614,257.345 70.971,252.672 66.299 C 251.034 64.660,243.791 60.571,238.400 58.241 C 226.402 53.055,210.165 50.174,198.000 51.073 M195.600 82.977 C 180.989 84.877,170.000 90.904,170.000 97.019 C 170.000 102.767,175.572 105.736,181.311 103.046 C 190.127 98.915,192.155 98.288,198.916 97.606 C 207.944 96.694,214.357 98.027,225.089 103.048 C 229.613 105.165,233.272 104.267,235.481 100.497 C 239.210 94.135,234.454 89.525,219.200 84.719 C 213.134 82.807,202.781 82.043,195.600 82.977 M197.200 108.929 C 184.660 113.903,181.303 129.204,190.747 138.339 C 202.994 150.184,223.450 139.704,220.846 122.919 C 219.177 112.163,207.084 105.009,197.200 108.929 M205.200 123.600 C 206.521 124.921,206.281 127.041,204.701 128.002 C 201.853 129.734,199.174 126.643,201.046 123.786 C 201.870 122.528,204.032 122.432,205.200 123.600 M144.803 129.248 C 140.864 130.819,140.400 132.630,140.400 146.426 C 140.400 154.888,140.280 157.630,139.900 157.876 C 139.625 158.054,134.090 158.295,127.600 158.411 C 121.110 158.527,115.601 158.746,115.359 158.898 C 115.116 159.050,113.586 159.374,111.959 159.617 C 100.703 161.302,87.662 165.832,77.800 171.482 C 76.920 171.986,75.747 172.624,75.194 172.900 C 74.010 173.489,67.466 177.792,65.950 178.978 C 65.373 179.430,64.424 180.143,63.841 180.563 C 51.687 189.315,38.710 205.690,31.795 221.000 C 31.198 222.320,30.371 224.132,29.955 225.026 C 29.540 225.921,29.200 226.883,29.200 227.165 C 29.200 227.446,28.944 228.154,28.631 228.738 C 28.318 229.322,27.594 231.420,27.022 233.400 C 26.449 235.380,25.708 237.900,25.374 239.000 C 24.281 242.603,23.571 246.996,22.208 258.600 C 21.371 265.730,21.404 266.445,23.198 280.200 C 24.209 287.941,25.992 294.905,29.140 303.400 C 32.576 312.672,39.473 324.852,44.885 331.204 C 45.168 331.536,46.504 333.156,47.853 334.804 C 52.918 340.990,61.672 348.915,68.556 353.546 C 72.812 356.410,72.979 356.515,75.465 357.914 C 76.749 358.637,78.070 359.398,78.400 359.605 C 78.730 359.813,80.350 360.627,82.000 361.416 C 83.650 362.204,85.302 363.011,85.671 363.210 C 88.248 364.596,96.319 367.419,101.200 368.641 C 102.410 368.944,104.210 369.450,105.200 369.766 C 106.190 370.082,107.900 370.456,109.000 370.598 C 110.100 370.739,112.440 371.158,114.200 371.528 C 119.167 372.571,271.921 372.558,277.400 371.514 C 279.380 371.136,281.990 370.651,283.200 370.435 C 288.227 369.540,297.973 366.644,302.400 364.729 C 311.718 360.698,316.606 358.027,323.800 353.033 C 331.183 347.908,345.548 334.140,347.762 330.067 C 347.962 329.700,348.682 328.696,349.362 327.835 C 352.817 323.464,359.142 311.916,361.868 305.000 C 371.841 279.699,372.122 253.233,362.690 227.600 C 361.010 223.033,356.436 213.546,354.932 211.507 C 354.419 210.813,354.000 210.110,354.000 209.946 C 354.000 209.691,351.278 205.622,348.081 201.100 C 346.478 198.832,341.123 192.702,338.210 189.800 C 329.174 180.797,322.105 175.723,309.200 168.978 C 308.061 168.382,305.523 167.236,302.600 165.995 C 297.075 163.651,286.453 160.689,279.600 159.582 C 273.256 158.556,272.047 158.416,269.514 158.408 C 265.860 158.397,266.000 158.906,266.000 145.652 C 266.000 133.575,265.966 133.332,263.943 131.127 C 261.846 128.839,261.566 128.800,247.354 128.800 C 231.988 128.800,231.997 128.797,229.645 133.484 C 228.584 135.599,228.583 136.601,229.642 138.606 C 231.975 143.022,232.859 143.358,242.800 143.600 L 251.000 143.800 251.000 158.200 L 251.000 172.600 203.425 172.702 C 165.629 172.782,155.784 172.700,155.531 172.302 C 155.162 171.721,155.079 145.181,155.443 144.233 C 155.652 143.687,156.735 143.599,163.343 143.591 C 169.931 143.584,171.228 143.479,172.632 142.841 C 178.602 140.130,179.010 133.061,173.400 129.553 C 172.031 128.697,146.858 128.429,144.803 129.248 M139.866 173.408 C 140.176 173.502,140.377 175.129,140.466 178.274 C 140.616 183.580,141.239 184.964,144.343 186.894 L 145.800 187.800 203.200 187.800 L 260.600 187.800 262.081 186.879 C 265.074 185.018,266.000 183.144,266.000 178.947 C 266.000 172.267,265.802 172.340,278.400 174.383 C 282.226 175.004,293.657 178.129,294.600 178.812 C 294.820 178.972,295.450 179.232,296.000 179.391 C 298.164 180.017,307.266 184.485,308.754 185.652 C 309.279 186.063,309.850 186.400,310.023 186.400 C 310.967 186.400,319.647 192.820,324.000 196.739 C 328.093 200.424,335.364 208.312,336.583 210.390 C 336.812 210.782,338.195 212.879,339.656 215.051 C 341.117 217.223,343.251 220.890,344.399 223.200 C 345.546 225.510,346.627 227.683,346.801 228.028 C 347.200 228.822,348.950 233.233,349.804 235.600 C 351.332 239.836,353.104 247.592,354.007 254.000 C 354.483 257.372,354.482 273.437,354.006 276.800 C 353.132 282.980,350.824 293.195,350.098 294.096 C 349.875 294.373,349.564 295.230,349.407 296.000 C 349.250 296.770,348.869 297.799,348.561 298.286 C 348.252 298.773,348.000 299.386,348.000 299.647 C 348.000 300.105,346.342 303.967,345.616 305.200 C 345.422 305.530,344.666 306.970,343.937 308.400 C 341.805 312.578,337.328 319.580,335.495 321.600 C 335.196 321.930,333.837 323.581,332.476 325.268 C 328.492 330.206,315.670 341.567,312.800 342.701 C 312.470 342.831,311.210 343.583,310.000 344.371 C 308.790 345.160,306.000 346.670,303.800 347.727 C 301.600 348.784,299.517 349.800,299.172 349.983 C 297.130 351.068,287.659 354.400,286.616 354.400 C 286.351 354.400,284.979 354.739,283.567 355.154 C 275.693 357.467,278.320 357.400,195.400 357.400 L 119.400 357.400 114.200 356.470 C 111.340 355.959,108.190 355.299,107.200 355.004 C 106.210 354.709,104.050 354.077,102.400 353.600 C 95.757 351.679,86.656 347.621,81.467 344.266 C 80.220 343.460,78.211 342.161,77.002 341.380 C 64.150 333.077,49.437 315.004,44.065 300.919 C 40.934 292.712,39.685 288.340,37.919 279.400 C 37.299 276.264,37.279 254.635,37.893 251.600 C 38.138 250.390,38.625 247.870,38.975 246.000 C 39.325 244.130,39.879 242.033,40.205 241.340 C 40.532 240.646,40.800 239.791,40.800 239.439 C 40.800 238.885,41.893 235.606,43.829 230.347 C 44.308 229.045,45.451 226.566,46.418 224.727 C 46.613 224.357,47.415 222.827,48.200 221.327 C 49.891 218.096,52.454 214.002,54.400 211.424 C 56.914 208.093,59.409 204.934,60.011 204.321 C 60.335 203.991,61.421 202.838,62.424 201.760 C 67.265 196.557,76.142 189.440,81.800 186.227 C 82.460 185.852,83.720 185.123,84.600 184.608 C 86.935 183.239,89.797 181.847,93.200 180.423 C 94.850 179.733,96.470 179.027,96.800 178.854 C 98.538 177.945,109.633 174.951,113.368 174.383 C 114.891 174.152,116.331 173.841,116.568 173.691 C 117.042 173.393,136.789 172.872,138.400 173.116 C 138.950 173.199,139.610 173.330,139.866 173.408 M120.600 195.786 C 98.944 198.163,80.041 210.846,68.120 231.000 C 64.816 236.585,61.357 246.078,60.395 252.200 C 60.154 253.740,59.779 255.792,59.563 256.761 C 58.949 259.509,59.074 271.249,59.757 274.968 C 60.824 280.780,61.125 282.163,61.940 285.000 C 63.110 289.071,64.441 292.582,65.959 295.600 C 74.257 312.099,86.952 323.905,103.800 330.790 C 115.666 335.640,114.747 335.592,196.000 335.593 C 276.342 335.593,277.114 335.553,287.800 330.818 C 302.719 324.208,316.964 312.454,321.755 302.800 C 321.919 302.470,322.565 301.300,323.191 300.200 C 326.547 294.304,327.778 291.315,330.364 282.782 C 334.695 268.494,332.584 248.791,325.154 234.143 C 320.245 224.464,313.929 216.719,305.597 210.163 C 302.253 207.531,300.133 206.000,299.834 206.000 C 299.725 206.000,298.990 205.562,298.200 205.026 C 294.629 202.602,282.748 197.600,280.563 197.600 C 280.269 197.600,279.219 197.325,278.230 196.990 C 273.238 195.295,268.999 195.206,195.200 195.256 C 143.339 195.291,123.851 195.429,120.600 195.786 M267.903 210.405 C 272.381 210.802,279.055 212.280,281.460 213.409 C 282.154 213.734,282.918 214.000,283.158 214.000 C 284.933 214.000,294.660 220.090,299.375 224.153 C 301.968 226.388,307.611 232.969,308.847 235.200 C 309.274 235.970,309.975 237.140,310.405 237.800 C 310.836 238.460,311.377 239.450,311.608 240.000 C 311.838 240.550,312.372 241.720,312.794 242.600 C 318.636 254.788,319.239 273.316,314.164 284.660 C 313.854 285.354,313.600 286.036,313.600 286.177 C 313.600 287.039,310.674 292.448,308.178 296.200 C 299.048 309.923,284.124 318.824,267.600 320.399 C 262.044 320.929,129.279 320.923,123.826 320.393 C 120.060 320.027,111.861 318.228,111.000 317.580 C 110.780 317.414,109.880 317.085,109.000 316.848 C 102.742 315.164,88.707 304.461,84.896 298.465 C 84.523 297.879,84.103 297.310,83.962 297.200 C 83.445 296.796,78.965 288.533,78.106 286.400 C 70.318 267.036,73.603 245.842,86.868 229.883 C 90.595 225.399,93.994 222.414,99.810 218.517 C 105.888 214.444,115.459 211.107,122.990 210.433 C 128.381 209.951,262.479 209.925,267.903 210.405 M148.223 292.089 C 147.728 292.795,147.600 294.181,147.600 298.827 C 147.600 306.424,147.160 306.000,155.042 306.000 C 163.229 306.000,162.800 306.394,162.800 298.866 C 162.800 290.736,163.260 291.200,155.200 291.200 C 149.087 291.200,148.822 291.234,148.223 292.089 M177.843 291.833 C 177.367 293.073,177.574 305.014,178.080 305.520 C 178.873 306.313,190.372 306.175,191.538 305.358 C 192.700 304.544,192.755 292.320,191.600 291.591 C 190.480 290.884,178.123 291.101,177.843 291.833 M207.369 291.650 C 206.841 292.504,207.071 304.763,207.628 305.433 C 208.368 306.326,221.032 306.114,221.609 305.200 C 222.109 304.407,222.110 293.541,221.610 292.226 L 221.220 291.200 214.434 291.200 C 209.838 291.200,207.557 291.345,207.369 291.650 M236.790 292.226 C 236.269 293.597,236.289 304.244,236.814 305.226 C 237.328 306.186,249.279 306.425,250.516 305.500 C 251.204 304.985,251.643 292.640,251.010 291.616 C 250.848 291.355,248.229 291.200,243.966 291.200 L 237.180 291.200 236.790 292.226 " stroke="none" fill="#01a89d" fill-rule="evenodd"></path></g></svg>