<svg xmlns="http://www.w3.org/2000/svg" width="400" height="400" viewBox="0 0 400 NaN" xmlns:v="https://vecta.io/nano"><path d="M195.6 5.229c-13.796.724-27.972 4.105-41.4 9.874-3.03 1.301-9.702 4.494-11 5.263l-5.2 3.048c-8.785 5.14-10.991 8.922-8.085 13.856 3.074 5.219 8.286 6.06 13.485 2.176.66-.493 2.01-1.35 3-1.905l3.4-1.927c6.29-3.617 15.696-7.552 23-9.621 1.43-.406 3.5-1.03 4.6-1.387 8.043-2.612 30.158-4.281 40.4-3.048 6.361.766 13.518 1.989 16.6 2.837l4.6 1.227c1.684.423 9.952 3.301 12 4.177 4.784 2.046 8.659 3.971 12.8 6.358 11.337 6.534 11.784 6.675 15.391 4.848 3.829-1.941 5.868-6.854 4.255-10.25-1.172-2.467-7.178-7.555-8.918-7.555-.231 0-.871-.355-1.422-.788-2.218-1.745-11.994-6.469-17.906-8.654-1.43-.528-2.891-1.127-3.247-1.33s-1.436-.571-2.4-.818-2.653-.797-3.753-1.223c-10.565-4.09-30.846-6.174-50.2-5.158m-.8 32.627c-8.375 1.02-20.045 4.231-27.4 7.54-5.897 2.653-7.946 3.664-10.943 5.398-5.826 3.372-7.657 5.607-7.657 9.344 0 4.375 3.869 8.268 8.2 8.251 2.072-.007 2.16-.047 10-4.468 1.76-.992 3.65-1.945 4.2-2.118s1.9-.736 3-1.252c13.592-6.371 36.308-8.517 50-4.724a175.3 175.3 0 0 0 4.6 1.197c5.334 1.289 12.606 4.374 19.826 8.412 7.46 4.172 11.386 3.827 14.368-1.262 4.09-6.978-1.449-12.38-20.556-20.05-12.828-5.15-33.974-7.932-47.638-6.268m1.823 35.349c-8.655 1.305-20.121 5.613-24.384 9.162-8.297 6.908.693 17.725 10.561 12.708 15.696-7.981 30.911-8.064 46.874-.258 5.89 2.88 9.192 2.467 12.204-1.527 3.736-4.954 1.609-10.003-5.745-13.636l-4.275-2.13c-7.631-3.948-24.213-5.981-35.235-4.319m5.977 27.846c-23.068 6.002-20.486 38.313 3.136 39.248 20.089.795 28.211-24.692 11.548-36.235-3.359-2.327-11.165-3.929-14.684-3.013m5.017 16.549c1.648 0 2.551 3.628 1.283 5.154-2.443 2.943-7.553-.799-5.192-3.801.889-1.13 2.208-1.796 3.025-1.528.293.096.691.175.884.175M143 122.975c-.44.337-1.491.806-2.336 1.044-1.529.429-4.75 3.047-5.519 4.485-.249.464-.389 5.396-.364 12.825.05 15.554 1.327 13.871-10.519 13.871-8.798 0-9.377.046-10.877.872-1.314.723-2.509.918-6.985 1.136-4.31.21-5.763.436-7.2 1.119-.99.47-2.572.859-3.516.864s-2.443.38-3.332.833-2.007.78-2.484.726-1.498.294-2.268.774-1.868.874-2.44.875-1.834.423-2.804.938-2.481 1.058-3.359 1.206-3.217 1.071-5.197 2.052l-5.468 2.614c-1.027.457-2.083 1.091-2.347 1.409s-1.191.791-2.06 1.052-2.234 1.071-3.031 1.802-1.697 1.328-1.999 1.328-1.559.823-2.793 1.828-2.966 2.197-3.848 2.646-3.613 2.787-6.071 5.194c-4.631 4.536-5.561 5.312-7.583 6.329-.712.357-1.564 1.336-2.094 2.403-.492.99-2.585 3.51-4.651 5.6s-4.158 4.61-4.648 5.6-1.573 2.52-2.406 3.4-1.65 2.05-1.815 2.6-.895 1.696-1.622 2.547-1.431 2.047-1.565 2.658-.584 1.419-.999 1.795-.871 1.215-1.014 1.865-.877 1.8-1.632 2.554c-.763.763-1.476 1.952-1.606 2.677-.361 2.016-2.148 6.413-2.97 7.308-.406.443-.867 1.613-1.024 2.6s-.706 2.588-1.22 3.556-.934 2.192-.934 2.722-.354 1.739-.786 2.688c-.436.957-.771 2.516-.751 3.498.021 1.078-.297 2.423-.814 3.436-.623 1.221-.849 2.4-.849 4.426 0 2.259-.164 2.971-.9 3.906l-.9 1.144v16.81 16.81l.961 1.281c.819 1.092.95 1.682.887 4-.058 2.085.119 3.092.76 4.319a8.45 8.45 0 0 1 .844 3.4c.004.99.354 2.588.778 3.551s.77 2.277.77 2.921.45 1.833 1 2.642 1 2.035 1 2.723.45 1.914 1 2.725 1 1.601 1 1.756c0 .225 2.307 5.134 3.995 8.501 4.61 9.194 6.562 12.506 8.604 14.597 1.234 1.265 2.342 2.79 2.462 3.39.284 1.418 22.44 23.556 24.739 24.718.88.445 2.56 1.634 3.733 2.643s2.488 1.833 2.922 1.833 1.279.535 1.876 1.189 1.704 1.404 2.459 1.668 1.992.898 2.748 1.411 1.596.932 1.869.932.71.258.972.574.99.687 1.618.825 1.938.779 2.911 1.424 3.133 1.512 4.798 1.929 3.443 1.047 3.95 1.402 1.577.646 2.378.646c1.005 0 1.909.36 2.917 1.161.919.73 1.752 1.085 2.247.956.436-.115 1.455.202 2.294.712 2.749 1.674 3.24 1.682 104.017 1.834 100.396.151 105.51.087 107.534-1.346.636-.451 1.967-.953 2.957-1.116s2.609-.726 3.597-1.249 2.349-.952 3.024-.952c.689 0 1.618-.363 2.116-.827.488-.455 1.557-.918 2.375-1.028 1.777-.241 7.957-2.799 9.088-3.763s2.421-1.582 3.304-1.582c.416 0 1.193-.468 1.726-1.04.923-.988 2.599-2.008 6.725-4.091 1.015-.512 2.925-1.986 4.245-3.275s2.94-2.476 3.6-2.637c1.722-.421 20.557-19.316 21.927-21.996a14.92 14.92 0 0 1 2.473-3.361 14.32 14.32 0 0 0 2.393-3.2c.506-.99 1.558-2.475 2.337-3.3s1.543-1.905 1.698-2.4c.336-1.075 5.127-10.791 6.164-12.5.4-.66 1.01-2.318 1.355-3.684s1.174-3.451 1.841-4.633 1.212-2.728 1.212-3.437c0-.715.445-1.943 1-2.76.784-1.154 1-1.975 1-3.807 0-1.959.2-2.626 1.245-4.145 1.14-1.656 1.23-2.019 1.062-4.272-.188-2.511.256-4.262 1.081-4.262 1.895 0 1.889.057 1.898-17.793.01-17.876.017-17.807-1.898-17.807-.845 0-1.343-1.874-1.107-4.16.205-1.986.106-2.42-.893-3.93-.815-1.232-1.192-2.41-1.377-4.303-.142-1.451-.644-3.354-1.133-4.291-.483-.926-.878-2.128-.878-2.671s-.614-2.165-1.364-3.605-1.556-3.477-1.79-4.529-1.053-3.081-1.822-4.511-1.869-3.59-2.447-4.8l-2.403-5.021c-.744-1.551-1.826-3.261-2.404-3.8s-1.553-1.969-2.168-3.179-1.872-2.897-2.795-3.749-2.006-2.315-2.408-3.253c-.966-2.254-20.486-21.798-21.771-21.798-.51 0-1.737-.901-3.042-2.233-1.202-1.228-2.746-2.533-3.431-2.9l-3.8-2.008c-1.405-.737-3.185-1.929-3.955-2.65s-1.94-1.435-2.6-1.59-2.006-.814-2.992-1.465-2.245-1.289-2.8-1.417-1.728-.637-2.608-1.132a11.94 11.94 0 0 0-3.454-1.17c-1.034-.151-2.16-.608-2.546-1.035s-1.512-.884-2.546-1.035c-1.02-.149-2.492-.591-3.273-.984a13.26 13.26 0 0 0-3-1c-.869-.158-1.914-.459-2.322-.67s-1.856-.541-3.22-.734-3.319-.723-4.346-1.177c-1.568-.694-2.61-.817-6.511-.772-4.175.049-4.731-.029-5.517-.767-.481-.451-1.682-.945-2.669-1.096-2.933-.448-2.796.151-2.796-12.215 0-10.389-.055-11.255-.8-12.646-.44-.82-.8-1.687-.8-1.926 0-.914-2.951-3.823-4.93-4.86l-2.07-1.085-13.896-.136-13.896-.136-1.739 1.02c-.957.56-2.083 1.022-2.504 1.026-2.605.025-3.586 3.192-3.384 10.923.021.803 4.274 5.47 4.986 5.47.245 0 1.162.405 2.039.9 1.431.808 2.293.92 8.434 1.1 9.149.268 8.192-1.481 8.065 14.742l-.105 13.435-1 .505c-1.574.796-100.733.748-101.824-.049-1.073-.785-1.438-26.068-.399-27.654.595-.909.773-.932 7.985-1.054 6.859-.116 7.441-.184 8.307-.973.512-.466 1.381-.953 1.931-1.083s1.9-1.15 3-2.267l2-2.032.115-3.285c.083-2.388-.051-3.558-.49-4.285-.332-.55-.952-1.701-1.376-2.558-.54-1.089-1.356-1.866-2.711-2.584l-1.938-1.028-14-.133c-12.087-.115-14.109-.05-14.8.478m137.6 93.634c1.545.76 2.639.985 4.811.987 1.731.003 3.114.215 3.6.554.434.303 2.229.939 3.989 1.415s3.65 1.189 4.2 1.586 2.62 1.477 4.6 2.402c2.372 1.109 4.282 2.347 5.6 3.63 1.1 1.072 2.63 2.214 3.4 2.539 2.046.864 7.087 5.653 7.387 7.018.137.623 1.317 2.286 2.623 3.696 2.198 2.374 6.39 9.58 6.39 10.986 0 .284.46 1.063 1.021 1.731.607.721 1.148 2.008 1.331 3.171.171 1.077.701 2.591 1.179 3.364.693 1.121.869 2.024.869 4.45 0 2.337.185 3.346.799 4.352 1.202 1.973 1.204 14.294.001 16.11-.639.965-.795 1.88-.797 4.669-.003 3.115-.105 3.591-1.003 4.658-.657.781-1 1.677-1 2.613 0 .85-.393 2.004-.975 2.862-.537.791-1.188 2.103-1.446 2.918s-.971 2.29-1.582 3.28-1.239 2.25-1.396 2.8-1.336 2.08-2.621 3.4-2.683 3.217-3.108 4.216c-.914 2.15-5.929 7.001-7.622 7.373-.612.135-1.999 1.144-3.081 2.243-1.273 1.292-3.171 2.588-5.369 3.668-1.87.918-3.94 2.059-4.6 2.536s-2.64 1.261-4.4 1.741-3.71 1.133-4.332 1.449-2.243.576-3.6.578c-1.784.003-3.061.28-4.608 1l-2.139.996h-80.683-80.683l-1.355-1c-1.174-.867-1.774-1-4.494-1-2.348 0-3.532-.201-4.706-.8-.862-.44-1.913-.8-2.335-.8-.664 0-4.614-1.844-12.037-5.618-1.101-.56-2.414-1.405-2.918-1.879s-1.496-1.104-2.206-1.403C85.076 324.164 76 314.923 76 313.592c0-.366-.72-1.399-1.6-2.297s-1.6-2.025-1.6-2.508-.858-1.813-1.94-2.998c-1.613-1.765-1.98-2.456-2.174-4.094-.138-1.161-.761-2.859-1.517-4.133-.968-1.631-1.352-2.858-1.566-4.998-.199-1.985-.554-3.2-1.183-4.051-.879-1.189-.899-1.456-.903-11.88l-.004-10.665 1.044-1.505c.798-1.153 1.043-1.995 1.043-3.593 0-1.639.344-2.772 1.6-5.27.95-1.89 1.6-3.747 1.6-4.574 0-1.081.364-1.774 1.635-3.109.899-.944 2.062-2.652 2.585-3.795s1.303-2.267 1.733-2.497 1.002-1.095 1.27-1.922c.716-2.212 8.723-10.281 11.456-11.545 1.143-.529 2.324-1.313 2.625-1.742s1.37-1.133 2.377-1.565 1.942-.964 2.078-1.184 1.497-.877 3.025-1.461 3.213-1.403 3.744-1.821 1.754-.884 2.718-1.039 2.294-.609 2.954-1.011c.9-.549 2.007-.732 4.422-.734 2.808-.001 3.397-.13 4.578-1.001l1.355-1 80.623.013 80.622.012 2 .984m-129 88.894c-7.598.134-7.2-.314-7.2 8.087 0 5.77.07 6.391.829 7.356l.829 1.054h6.397c9.145 0 8.731.39 8.739-8.224.008-8.736.34-8.449-9.594-8.273m28.09.026c-1.882.267-2.155 1.443-2.017 8.675.16 8.393-.465 7.796 8.159 7.796 8.769 0 8.256.485 8.274-7.821.016-7.07-.158-8.088-1.433-8.37-1.052-.233-11.696-.462-12.983-.28m38.71-.044c-8.432.172-8.123-.175-7.93 8.905.17 7.975-.215 7.612 8.074 7.605 9.049-.009 8.656.372 8.656-8.381 0-6.893-.764-8.959-3.08-8.327-.176.048-2.75.137-5.72.198m28.154.031c-3.116.477-3.195.695-3.119 8.658.079 8.328-.472 7.826 8.587 7.826 8.562 0 7.978.616 7.978-8.413 0-4.687-.147-6.828-.5-7.296-.466-.618-10.178-1.2-12.946-.775" fill="#05ac9c" fill-rule="evenodd"/></svg>