<svg xmlns="http://www.w3.org/2000/svg" width="400" height="400" viewBox="0 0 400 NaN" xmlns:v="https://vecta.io/nano"><path d="M183.305 10.414c-.932.188-4.315.63-7.517.981l-6.705.968c-.486.181-1.963.456-3.283.611-2.351.276-6.213 1.157-11.4 2.602l-8.6 2.298c-5.018 1.274-13.652 4.337-16.732 5.938-.623.323-1.302.588-1.509.588s-1.898.72-3.759 1.6-3.612 1.601-3.892 1.601-1.06.339-1.736.751-1.665.882-2.2 1.045-1.242.527-1.572.806-2.22 1.356-4.2 2.392-3.78 2.031-4 2.21-1.66.99-3.2 1.801-3.084 1.728-3.431 2.035-.768.559-.933.559-1.057.619-1.981 1.377-2.741 2.015-4.037 2.795c-2.528 1.523-5.293 3.583-12.263 9.141-6.112 4.875-6.459 5.191-14.555 13.287-8.09 8.09-8.406 8.437-13.287 14.552-4.602 5.767-7.743 10.001-9.974 13.448-.997 1.54-2.156 3.172-2.576 3.626s-.763.956-.763 1.116c0 .274-.285.734-2.27 3.666-.45.664-.954 1.654-1.121 2.2s-.535 1.262-.819 1.592-1.362 2.22-2.397 4.2-2.11 3.87-2.39 4.2-.642 1.038-.806 1.572-.634 1.525-1.045 2.2-.75 1.457-.751 1.736-.721 2.031-1.601 3.892-1.6 3.553-1.6 3.759-.263.886-.584 1.509c-1.113 2.155-2.616 5.831-2.616 6.396 0 .312-.332 1.236-.738 2.052s-1.136 3.014-1.623 4.884-1.235 4.48-1.662 5.8-.777 2.714-.777 3.098-.339 1.735-.754 3c-.962 2.936-2.347 8.914-2.665 11.502-.135 1.1-.406 2.54-.602 3.2-2.179 7.332-3.092 40.903-1.458 53.6 1.522 11.823 3.264 20.149 6.279 30 .404 1.32.852 3.12.996 4s.714 2.86 1.266 4.4l1.572 4.6c.313.99.824 2.34 1.134 3s1.051 2.37 1.646 3.8 1.579 3.68 2.187 5 1.308 3.035 1.554 3.811.983 2.397 1.636 3.6l5.197 9.389c.637 1.1 1.274 2.27 1.414 2.6a12.78 12.78 0 0 0 .609 1.2l1.606 2.756c.689 1.186 1.913 3.014 2.718 4.062a45.43 45.43 0 0 1 2.665 3.963c1.18 2.023 1.529 2.526 3.274 4.72l4.135 5.299c6.593 8.492 18.027 20.403 25.727 26.8l5.123 4.312c1.097.941 2.66 2.132 3.473 2.645s1.926 1.415 2.473 2.004a8.85 8.85 0 0 0 2.195 1.647c1.614.775 2.293 1.22 5.799 3.8 1.651 1.215 3.451 2.439 4.001 2.72s1.72.951 2.6 1.488 2.14 1.252 2.8 1.587c1.35.685 2.335 1.261 3.808 2.225.554.363 1.454.796 2 .963s1.262.534 1.592.815c1.063.906 6.729 3.715 8.085 4.009.723.156 1.793.622 2.377 1.035s1.309.75 1.611.75.904.246 1.338.546 1.239.681 1.789.845c.977.291 1.707.591 5.8 2.378 2.868 1.252 5.672 2.214 8.2 2.811 1.21.286 3.55.923 5.2 1.417 8.565 2.561 14.531 4.008 20.6 4.997 1.76.287 4.55.795 6.2 1.129 11.504 2.328 43.419 2.334 54 .01 1.43-.314 3.95-.747 5.6-.962s3.526-.569 4.17-.785 2.353-.581 3.8-.811 3.44-.68 4.43-1a80.95 80.95 0 0 1 4-1.147 143.03 143.03 0 0 0 5-1.42c1.54-.471 3.79-1.103 5-1.406 2.767-.692 5.843-1.691 7.4-2.402 2.613-1.193 6.949-3 7.199-3 .146 0 1.521-.63 3.055-1.4s3.007-1.4 3.272-1.4c.516 0 8.75-4.189 12.874-6.549a272.18 272.18 0 0 1 4.4-2.433c2.609-1.413 7.347-4.438 7.8-4.981.196-.234 1.493-1.098 5.271-3.513 1.03-.657 2.47-1.685 3.2-2.282l6.902-5.547c9.362-7.492 20.14-18.259 27.779-27.751l5.555-6.897c.601-.744 1.34-1.811 1.642-2.37s.712-1.21.911-1.447.935-1.33 1.636-2.43 1.388-2.09 1.527-2.2c.525-.415 3.521-5.107 4.98-7.8l2.441-4.4c2.278-3.949 6.556-12.35 6.556-12.874 0-.265.63-1.737 1.4-3.272s1.4-2.909 1.4-3.055c0-.25 1.807-4.586 3-7.199.711-1.557 1.71-4.633 2.402-7.4.303-1.21.907-3.37 1.342-4.8 1.859-6.105 2.712-9.268 3.449-12.8l2.605-13.4c2.567-13.462 2.579-43.897.022-55.6-.241-1.1-.703-3.62-1.027-5.6-.876-5.353-3.116-15.165-3.879-17-.417-1.001-1.457-4.664-2.499-8.8a53.42 53.42 0 0 0-2.655-7.8l-1.766-4.2-1.629-3.86c-.311-.694-.565-1.434-.565-1.647s-.337-.814-.748-1.339-.877-1.546-1.035-2.269c-.303-1.388-3.131-7.066-4.027-8.085-.29-.33-.652-1.097-.803-1.704s-.438-1.204-.637-1.327-.628-.796-.953-1.496c-.784-1.688-3.417-6.276-4.297-7.487-.385-.53-.7-1.13-.7-1.334s-.592-1.108-1.314-2.011a54.5 54.5 0 0 1-2.1-2.801l-1.487-2.2c-.385-.572-.966-1.58-1.291-2.24s-1.224-1.821-1.999-2.581-1.409-1.517-1.409-1.685-1.566-2.246-3.48-4.619c-8.421-10.44-20.309-22.166-30.52-30.103l-6.913-5.413c-.268-.22-1.657-1.105-3.087-1.967s-3.312-2.122-4.182-2.8c-2.073-1.614-6.975-4.632-7.524-4.632-.237 0-.715-.254-1.063-.564s-2.586-1.615-4.976-2.9l-6.389-3.434c-1.124-.604-2.678-1.3-3.455-1.547s-2.491-.946-3.811-1.554-3.57-1.592-5-2.187l-3.8-1.646c-.66-.31-2.01-.821-3-1.134s-3.06-1.021-4.6-1.572-3.52-1.122-4.4-1.266-2.68-.602-4-1.017c-8.558-2.694-17.787-4.632-29.8-6.258-5.581-.755-36.316-1.15-39.495-.507M220.8 38.567c2.53.367 5.5.851 6.6 1.076l5.6 1.125c4.215.84 6.695 1.449 10 2.454 1.32.402 3.12.845 4 .984 1.569.249 9.636 2.925 12 3.981l3.1 1.374 3.6 1.609c.935.423 2.87 1.237 4.3 1.81s2.926 1.224 3.324 1.448 1.86 1.022 3.249 1.772 3.403 1.906 4.476 2.57 2.851 1.685 3.951 2.27c2.509 1.336 7.186 4.456 10.671 7.119 1.469 1.122 3.408 2.485 4.308 3.027s2.939 2.22 4.529 3.728 3.522 3.161 4.292 3.671c1.571 1.042 1.207.693 8 7.676 2.75 2.826 5.572 5.859 6.272 6.739s2.268 2.66 3.485 3.956 3.033 3.546 4.037 5l3.429 4.844c2.352 3.224 5.126 7.436 5.589 8.485.222.503.937 1.725 1.588 2.715s1.38 2.25 1.62 2.799.679 1.27.976 1.6c.715.796 3.804 6.651 3.804 7.211 0 .241.692 1.913 1.537 3.714 1.995 4.251 3.38 7.498 4.47 10.476.483 1.32 1.137 2.947 1.453 3.615s.833 2.379 1.148 3.8.953 3.845 1.416 5.385 1.029 3.7 1.255 4.8.74 3.17 1.142 4.6.903 3.59 1.114 4.8l.81 4.6c1.669 9.418 2.513 29.62 1.572 37.6l-.894 8.021c-.335 3.092-.783 6.152-.994 6.8s-.582 2.519-.823 4.157-.61 3.186-.821 3.44-.49 1.345-.62 2.422-.578 3.04-.996 4.36c-1.514 4.784-2.369 7.952-2.369 8.773 0 .461-.36 1.511-.8 2.331s-.8 1.759-.8 2.084-.344 1.36-.765 2.301-1.246 2.881-1.835 4.311-1.667 3.86-2.397 5.4-1.459 3.25-1.621 3.8-.629 1.627-1.038 2.394-.744 1.534-.744 1.704-.622 1.195-1.383 2.277-1.66 2.565-1.999 3.296a25.01 25.01 0 0 1-1.317 2.425c-.386.603-1.76 2.853-3.055 5s-3.259 5.046-4.364 6.442-2.675 3.556-3.486 4.8c-1.329 2.038-3.293 4.366-7.139 8.462-.723.77-1.558 1.85-1.857 2.4s-1.349 1.63-2.335 2.4-2.067 1.858-2.403 2.419-1.028 1.248-1.537 1.527-1.555 1.319-2.325 2.31-1.85 2.043-2.4 2.34-1.72 1.205-2.6 2.02c-5.071 4.694-6.209 5.656-8.262 6.988-1.244.807-3.404 2.372-4.8 3.478s-4.296 3.069-6.444 4.364l-5.4 3.267c-.822.503-1.944 1.135-2.494 1.405s-1.752.978-2.672 1.574c-1.767 1.144-6.576 3.508-7.137 3.508-.182 0-1.605.614-3.161 1.365A123.11 123.11 0 0 1 262 351.8l-4.311 1.835c-.941.421-2.026.765-2.411.765s-1.077.264-1.537.587-1.986.839-3.389 1.148-4.442 1.123-6.752 1.811-4.514 1.25-4.898 1.252-1.735.347-3 .77-3.37.889-4.676 1.038-2.807.435-3.337.636c-6.855 2.607-37.603 2.833-51.889.382-5.449-.935-7.411-1.337-9.8-2.005-1.43-.401-3.5-.917-4.6-1.148s-3.35-.809-5-1.283-4.069-1.106-5.376-1.404-2.927-.801-3.6-1.119-2.304-.975-3.624-1.458c-2.978-1.09-6.225-2.475-10.476-4.47-1.801-.845-3.473-1.537-3.714-1.537-.53 0-6.366-3.057-7.21-3.776-.543-.464-2.358-1.528-8.021-4.704-2.143-1.202-6.527-4.177-8.979-6.093-.88-.688-2.632-1.948-3.894-2.801s-3.332-2.525-4.6-3.716-3.026-2.738-3.906-3.438-3.865-3.493-6.633-6.207l-5.402-5.2c-.203-.146-1.113-1.255-2.021-2.465s-2.807-3.417-4.22-4.904-3.009-3.436-3.546-4.329-1.891-2.827-3.007-4.296c-3.144-4.14-5.5-7.663-6.733-10.071-.62-1.21-1.343-2.47-1.606-2.8-.667-.836-4.232-7.12-4.232-7.459 0-.153-.251-.562-.557-.91s-1.049-1.891-1.652-3.431-1.542-3.79-2.088-5l-3.107-7c-1.099-2.504-3.747-10.467-3.99-12-.139-.88-.582-2.68-.984-4-1.012-3.327-1.619-5.806-2.448-10l-1.109-5.4c-2.639-11.959-2.65-40.618-.021-53.8 1.517-7.604 3.377-15.517 3.859-16.419.23-.43.552-1.675.716-2.767s.821-3.432 1.462-5.2 1.347-3.844 1.572-4.614c.386-1.324 1.046-2.919 2.729-6.6 1.388-3.037 2.318-5.208 3.254-7.6.516-1.32 1.26-2.829 1.652-3.354s.714-1.155.716-1.4.722-1.578 1.6-2.962 1.596-2.595 1.596-2.692.613-1.134 1.361-2.305 1.648-2.749 1.998-3.507c.639-1.387 2.894-4.695 5.981-8.774.913-1.207 2.2-3.008 2.86-4.001 1.488-2.239 2.449-3.426 4.038-4.988.68-.669 2.105-2.297 3.164-3.617C80.661 89.939 89.865 80.725 93 78.187c1.32-1.069 3.179-2.717 4.13-3.664s2.752-2.393 4-3.216a123.65 123.65 0 0 0 4.952-3.501c4.316-3.228 7.173-5.132 9.42-6.279 1.156-.59 2.576-1.445 3.154-1.9s1.253-.832 1.498-.838 1.522-.727 2.837-1.6 2.548-1.589 2.739-1.589.824-.322 1.408-.716 2.142-1.137 3.462-1.652c2.712-1.057 5.458-2.239 7.134-3.071 3.354-1.665 13.107-5.153 16.666-5.962 1.21-.275 4.334-1.06 6.943-1.745s5.938-1.45 7.4-1.7 2.946-.604 3.298-.787c.57-.295 5.837-1.03 14.159-1.974 5.08-.576 29.467-.172 34.6.574m-20 17.449c-14.085.987-26.203 4.601-38.511 11.485-8.873 4.963-10.719 9.203-5.539 12.723 2.437 1.656 4.116 1.36 8.724-1.542 15.055-9.479 35.524-13.552 53.617-10.668 6.849 1.092 9.639 1.873 17.909 5.013 2.98 1.132 9.255 4.334 13.176 6.724 3.78 2.304 6.54 1.82 8.596-1.505 2.067-3.346.151-6.72-5.609-9.877-17.364-9.519-34.638-13.594-52.363-12.353m-3.2 22.636c-13.973 2.515-28.184 8.858-29.625 13.222-1.171 3.549 1.478 7.32 5.145 7.325 1.163.001 6.731-2.496 8.48-3.802.33-.246 1.95-.952 3.6-1.568l4.4-1.644c7.171-2.688 21.856-3.408 29.4-1.441 4.129 1.076 9.412 2.792 10 3.248.22.171.789.429 1.265.575s2.636 1.246 4.8 2.445c5.273 2.921 7.637 2.854 10.106-.284 4.359-5.542-5.1-12.256-23.971-17.013-4.063-1.024-19.861-1.735-23.6-1.063m2.674 23.965c-10.437 1.422-18.674 6.046-18.674 10.482 0 4.911 5.298 6.923 10.2 3.874 6.265-3.896 20.465-4.765 26.4-1.615.66.35 1.34.638 1.511.64s1.639.632 3.262 1.402c3.431 1.628 3.746 1.661 5.805.611 4.817-2.457 4.364-8.053-.863-10.669-9.357-4.683-17.602-6.093-27.641-4.725m2.526 19.374c-9.621 3.545-12.628 14.251-6.071 21.613 6.796 7.629 17.848 5.914 22.623-3.51 4.89-9.648-6.297-21.883-16.552-18.103m5.836 11.808c.613.935.204 3.001-.593 3.001-.208 0-.654.106-.992.236-.626.24-2.651-1.44-2.651-2.2 0-1.945 3.138-2.713 4.236-1.037m-44.818 2.572c-.126.204-.863.58-1.638.836s-1.988.993-2.695 1.638l-1.285 1.173-.122 8.881c-.145 10.516.655 9.487-7.379 9.495-5.53.005-6.485.104-7.795.806-1.158.621-2.256.8-4.909.8-2.258 0-3.685.187-4.206.552-.434.304-1.599.655-2.589.782-3.552.452-4.779.759-5.235 1.308-.255.307-.892.558-1.415.558s-1.625.36-2.446.8-1.785.8-2.144.8c-.584 0-7.263 3.064-8.76 4.019-.33.211-1.05.574-1.6.809s-1.36.75-1.8 1.147a10.9 10.9 0 0 1-1.845 1.273c-2.37 1.251-4.75 3.108-8.175 6.376-1.991 1.901-4.149 3.709-4.796 4.019s-1.427 1.103-1.734 1.761-1.883 2.57-3.504 4.25-2.946 3.238-2.946 3.462-.63 1.162-1.4 2.084-1.4 1.901-1.4 2.176-.357.824-.794 1.219-1.34 1.838-2.006 3.205-1.569 2.81-2.006 3.205-.794 1.22-.794 1.833-.167 1.218-.371 1.344-.591.897-.86 1.713-.733 1.726-1.029 2.023-.54 1.026-.54 1.622-.264 1.459-.586 1.919c-.617.881-1.272 3.13-1.789 6.141-.17.99-.515 2.307-.767 2.926S70 225.281 70 226.295c0 1.093-.249 2.117-.613 2.519-.917 1.014-.917 23.358 0 24.372.368.406.613 1.43.613 2.558 0 1.035.27 2.528.6 3.318s.6 1.922.6 2.516c0 1.242.986 4.527 1.827 6.084.315.584.573 1.428.573 1.876s.765 2.314 1.7 4.148l2.1 4.22c1.762 3.899 4.584 8.767 5.86 10.108.847.891 1.54 1.839 1.54 2.107 0 .66 15.389 15.975 17.4 17.316.88.588 2.109 1.494 2.731 2.015s1.359.948 1.638.948.833.36 1.231.8.891.8 1.095.8 1.445.63 2.759 1.4 2.595 1.4 2.846 1.4 1.097.43 1.878.957 2.368 1.174 3.523 1.44 2.202.645 2.324.843.814.36 1.537.36c.806 0 1.594.309 2.038.8.398.44 1.155.8 1.682.8s1.534.315 2.238.7c1.205.659 5.387.7 71.68.7l71.389-.7c.544-.385 1.357-.7 1.806-.7s1.489-.36 2.309-.8 1.909-.8 2.418-.8 1.274-.264 1.702-.587 1.103-.593 1.502-.6c.944-.017 6.479-2.574 6.842-3.161.154-.249.615-.452 1.025-.452s1.255-.405 1.878-.9c1.213-.965 2.414-1.696 4.329-2.637.66-.324 2.047-1.371 3.083-2.326s2.104-1.737 2.375-1.737c.643 0 14.742-14.021 14.742-14.661 0-.27.675-1.282 1.5-2.249 3.43-4.021 9.283-14.541 9.889-17.775.147-.78.669-2.071 1.16-2.867s.823-1.776.737-2.178.156-1.074.537-1.496c.396-.437.776-1.669.884-2.87.105-1.157.473-2.426.818-2.819.372-.425.692-1.723.79-3.2.101-1.541.386-2.661.75-2.948.984-.777.896-22.414-.097-23.929-.481-.735-.687-1.69-.615-2.855.078-1.282-.115-2.032-.723-2.806-.518-.658-.83-1.642-.83-2.617 0-.859-.36-2.268-.8-3.13s-.8-1.854-.8-2.202-.45-1.48-1-2.513-1.001-2.24-1.002-2.682c-.001-.728-1.482-4.026-2.311-5.148-.185-.25-.935-1.805-1.666-3.455s-1.846-3.549-2.476-4.219-1.145-1.443-1.145-1.717-.81-1.364-1.8-2.423-1.8-2.177-1.8-2.487c0-.703-13.62-14.354-14.321-14.354-.282 0-1.361-.788-2.396-1.75s-2.821-2.222-3.968-2.799-2.701-1.59-3.453-2.25-1.551-1.201-1.774-1.201-1.433-.54-2.688-1.2-2.511-1.2-2.792-1.2-.734-.27-1.008-.6-1.003-.6-1.62-.6-1.371-.248-1.675-.552-1.305-.679-2.226-.835-1.763-.425-1.871-.6-1.593-.627-3.302-1.006-3.903-.941-4.877-1.248-3.155-.559-4.846-.559c-2.469 0-3.275-.158-4.092-.8-.56-.44-1.462-.8-2.005-.8-1.782 0-1.919-.62-1.869-8.499.058-9.105-.541-10.852-4.389-12.801l-2.171-1.1h-9.28c-7.76 0-9.361.098-9.777.6-.274.33-.854.6-1.288.6-1.673 0-3.112 2.252-3.112 4.869 0 5.381 3.537 7.931 11.001 7.931 5.398 0 5.036-.756 4.907 10.25l-.108 9.15h-35-35v-9.6-9.6l4.983-.113c3.513-.08 5.165-.274 5.6-.66.339-.301 1.262-.813 2.05-1.139 4.573-1.887 4.279-9.604-.439-11.516-1.996-.809-19.706-1.161-20.176-.401M257 200c.815.54 1.877.796 3.314.797 1.163.002 2.513.253 3 .558s1.822.771 2.966 1.035 2.282.723 2.528 1.019.962.653 1.592.791 1.359.51 1.621.826.719.574 1.015.574 1.449.81 2.564 1.8 2.219 1.8 2.454 1.8c.705 0 4.363 3.697 5.145 5.2.4.77 1.297 1.94 1.993 2.6 1.103 1.047 4.008 6.357 4.008 7.327 0 .192.36.675.8 1.073.463.419.805 1.245.813 1.962.007.681.277 1.587.6 2.014.347.46.593 1.685.601 3 .008 1.223.272 2.674.586 3.224.817 1.429.807 9.893-.013 10.976-.369.489-.587 1.695-.587 3.251 0 1.712-.185 2.629-.6 2.973-.33.274-.6 1.078-.6 1.787 0 .781-.315 1.574-.8 2.013-.44.398-.8.902-.8 1.12 0 .991-2.867 6.202-4.006 7.28-.697.66-1.592 1.83-1.99 2.6-.967 1.874-3.312 4.235-5.127 5.161-.812.415-1.837 1.156-2.277 1.648-.98 1.096-3.252 2.568-4.6 2.98-.55.168-1.292.561-1.649.874-1.022.895-7.439 2.936-9.282 2.951-.918.008-2.119.272-2.669.586-1.548.885-111.665.885-112.4 0-.325-.392-1.215-.6-2.563-.6-2.788 0-9.143-2.342-12.226-4.506-.544-.382-1.288-.694-1.654-.694s-.96-.45-1.32-1-1.039-1-1.517-1c-.956 0-7.92-6.865-7.92-7.808 0-.303-.45-1.036-1-1.63s-1-1.34-1-1.66-.53-1.076-1.177-1.681-1.291-1.622-1.43-2.26-.771-2.331-1.404-3.761-1.132-3.161-1.11-3.848-.257-1.671-.62-2.189c-.977-1.395-.976-14.707.001-16.199.363-.554.643-1.583.622-2.286s.491-2.403 1.139-3.779 1.179-2.916 1.179-3.424.543-1.478 1.206-2.157 1.401-1.792 1.639-2.476.592-1.242.786-1.242.717-.715 1.163-1.588c1.034-2.028 5.96-6.968 7.968-7.993.847-.432 1.646-1.063 1.776-1.402s.578-.617.996-.617 1.187-.329 1.712-.73c1.145-.877 6.234-3.27 6.953-3.27.28 0 1.025-.269 1.655-.598s2.168-.598 3.417-.6c1.362-.001 2.486-.217 2.808-.538.294-.294.802-.64 1.128-.768 1.958-.769 109.411-.279 110.593.504m-91.72 61.28c-.316.316-.48 2.011-.48 4.971 0 5.785-.033 5.749 5.203 5.749 6.163 0 5.997.153 5.997-5.51 0-5.92.226-5.69-5.6-5.69-3.076 0-4.802.162-5.12.48m22.334.294c-.682 1.275-.525 8.49.209 9.537.867 1.239 8.822 1.365 9.915.158.828-.915.978-9.193.182-9.989-.897-.897-9.804-.643-10.306.294m22.686-.342c-1.192.694-1.031 9.29.189 10.145 1.28.897 8.784.892 9.682-.006.799-.798.924-9.316.149-10.091-.599-.599-9.004-.639-10.02-.048m22.191.037c-.593.593-.678 9.015-.1 9.931.557.883 9.641 1.125 10.346.276.341-.411.454-2.082.376-5.532L243 261l-5.009-.111c-3.556-.079-5.151.031-5.5.38" fill="#04ac9c" fill-rule="evenodd"/></svg>