<svg xmlns="http://www.w3.org/2000/svg" width="400" height="400" xmlns:v="https://vecta.io/nano"><path d="M192.6 48.013c-13.775 1.752-28.134 6.85-41.435 14.711-5.693 3.365-7.423 7.265-4.783 10.785 2.911 3.881 5.483 3.802 12.218-.373 21.823-13.53 53.139-16.592 76.8-7.509l4.228 1.552c1.49.47 9.818 4.731 12.248 6.267 4.998 3.161 6.963 3.612 9.42 2.163 5.455-3.219 4.379-8.837-2.47-12.895-12.001-7.111-23.553-11.44-37.826-14.175-3.772-.723-23.921-1.096-28.4-.526m5.984 25.202c-6.136.414-18.171 3.056-19.984 4.387-.22.162-1.12.519-2 .794-3.575 1.117-12.563 6.074-14.166 7.814-5.421 5.881 1.203 13.189 8.366 9.23 23.648-13.07 44.902-13.085 68.334-.05 5.042 2.805 10.466.209 10.466-5.008 0-7.595-28.87-18.637-45.8-17.517l-5.216.35m-1.984 27.574c-8.696 1.567-16.492 4.861-18.9 7.986-3.843 4.987 1.484 11.792 7.351 9.391 1.931-.79 5.622-2.469 6.949-3.162 5.25-2.739 19.812-2.695 25.997.08l4.369 2.02c6.26 2.933 10.681 1.157 11.149-4.481.654-7.895-20.73-14.751-36.915-11.834m3.6 21.745c-8.197 2.693-12.691 12.208-9.523 20.162 5.119 12.849 23.637 12.738 28.702-.173 4.514-11.504-7.355-23.873-19.179-19.989m6.418 12.848c1.662 1.662 1.053 3.597-1.276 4.054-2.518.495-3.819-2.196-1.96-4.054 1.238-1.238 1.998-1.238 3.236 0m-50.018 3.364c-2.21.818-4.524 2.174-5.6 3.283l-1.2 1.236-.109 9.668c-.137 12.142.707 11.067-8.692 11.067-6.032 0-7.134.101-8.655.791-1.306.593-2.649.797-5.344.814-2.349.015-3.947.222-4.6.595-.55.314-1.72.584-2.6.6s-2.05.286-2.6.6-1.363.578-1.806.586-1.478.374-2.298.814-1.849.8-2.285.8-1.381.359-2.101.799-1.718.799-2.216.8-2.582.811-4.63 1.801-3.909 1.8-4.133 1.8-.718.344-1.098.764a3.97 3.97 0 0 1-1.672 1.01c-.539.135-1.831.87-2.871 1.633-3.96 2.907-5.121 3.707-6.09 4.197-.55.278-2.8 2.243-5 4.367s-4.57 4.095-5.266 4.38c-.79.323-1.457.993-1.775 1.783-.28.696-1.885 2.706-3.566 4.466s-3.546 4.01-4.144 5c-1.256 2.081-2.649 4.142-3.837 5.676-.458.591-1.087 1.686-1.399 2.431s-.847 1.589-1.19 1.874-.623.751-.623 1.037-.432 1.034-.961 1.662-1.174 1.947-1.435 2.931-.975 2.779-1.586 3.989c-1.57 3.11-3.352 8.463-4.062 12.2-.21 1.1-.632 2.63-.939 3.4-1.863 4.671-1.696 35.798.216 40.474.422 1.031.773 2.471.781 3.2s.272 1.776.586 2.326.578 1.455.586 2.011.278 1.388.601 1.849.707 1.585.853 2.498.415 1.752.598 1.866 1.148 1.954 2.143 4.091 2.163 4.515 2.595 5.285 1.402 2.678 2.155 4.241 2.292 3.859 3.419 5.104 2.05 2.539 2.05 2.877c0 .816 16.957 17.749 19 18.973.88.527 2.339 1.554 3.241 2.282S90.875 336 91.111 336s.936.417 1.558.926 1.941 1.344 2.931 1.855l5 2.591c1.76.915 5.09 2.267 7.4 3.005s4.555 1.586 4.989 1.883 1.082.54 1.44.54 1.534.495 2.611 1.1L119 349h79.6l80.681-.733c.594-.404 1.854-.974 2.8-1.268s2.979-1.006 4.519-1.582l5.16-1.856c2.763-.948 6.872-2.965 7.234-3.552.139-.225.578-.409.975-.409s1.37-.515 2.162-1.145 2.451-1.656 3.685-2.281 3.23-1.999 4.437-3.054 2.398-1.92 2.647-1.92c.728 0 15.89-15.26 16.693-16.8.401-.77 1.214-1.85 1.807-2.4s1.421-1.67 1.841-2.489 1.27-2.079 1.888-2.8 1.922-3.021 2.896-5.111 2.177-4.41 2.673-5.155 1.274-2.606 1.729-4.136 1.175-3.349 1.599-4.045.772-1.79.773-2.433.289-1.487.642-1.876.765-1.76.916-3.045.583-2.775.959-3.312c.455-.649.684-1.755.684-3.3 0-2.233.055-2.358 1.4-3.151l1.4-.826V257.57v-12.752l-1.1-.7c-1.551-.986-1.687-1.269-1.695-3.518-.005-1.284-.294-2.469-.806-3.31a6.44 6.44 0 0 1-.808-2.8c-.005-.819-.365-2.275-.8-3.234s-.792-2.039-.793-2.4-.54-1.736-1.198-3.056-1.208-2.76-1.222-3.2-.509-1.736-1.101-2.879l-3.366-6.7c-1.259-2.542-2.441-4.621-2.626-4.621s-.76-.765-1.275-1.7-1.719-2.547-2.674-3.583-1.736-2.186-1.736-2.557c0-.897-14.656-15.68-16.23-16.372-.677-.297-2.117-1.332-3.2-2.298s-3.23-2.45-4.77-3.296-3.268-1.922-3.84-2.39c-1.652-1.352-9.566-5.004-10.845-5.004-.434 0-1.246-.36-1.806-.8s-1.271-.8-1.582-.8-2.491-.618-4.846-1.373-5.132-1.485-6.172-1.623-1.995-.42-2.123-.627-1.87-.377-3.871-.377c-3.545 0-5.233-.457-8.715-2.358-.495-.27-.635-1.859-.802-9.085-.341-14.774-1.136-15.488-17.462-15.681l-10.463-.124-2.337 1.289c-3.367 1.857-3.717 2.409-3.727 5.885-.019 6.082 3.475 8.637 11.929 8.726 3.856.041 5.072.187 5.552.667.749.749.831 20.52.088 21.263-.723.723-77.605.779-78.594.057-.736-.539-.791-1.175-.902-10.506-.148-12.418-.638-11.476 5.921-11.374 5.557.087 8.711-1 11.24-3.873 2.478-2.814 1.022-9.229-2.535-11.171-1.392-.761-21.069-1.249-22.908-.569M262.104 211.2c.919.492 2.257.8 3.48.8 1.092 0 2.9.36 4.016.8s2.341.8 2.721.8 1.319.358 2.085.794 2.564 1.36 3.994 2.05 3.347 1.94 4.26 2.777 2.353 1.88 3.2 2.318c1.774.916 4.571 3.71 5.467 5.461.338.66 1.349 2.01 2.247 3 1.519 1.675 6.426 10.917 6.426 12.103 0 .291.36 1.234.8 2.097.506.993.805 2.383.814 3.785.008 1.218.272 2.665.586 3.215.415.726.572 2.426.572 6.2s-.157 5.474-.572 6.2c-.314.55-.578 2.042-.586 3.316-.009 1.503-.295 2.866-.814 3.884-.44.862-.8 1.781-.8 2.04s-.99 2.531-2.2 5.048-2.2 4.705-2.2 4.863-.735.998-1.634 1.868-1.96 2.211-2.358 2.981c-.84 1.625-5.288 6-6.1 6-.303 0-1.168.636-1.921 1.413-1.377 1.422-5.16 3.787-6.055 3.787-.264 0-.852.347-1.306.771-1.112 1.039-8.976 3.629-11.017 3.629-.899 0-2.281.27-3.071.6-2.284.954-125.302.904-126.761-.052-.619-.405-1.753-.635-2.998-.607-3.593.081-11.715-3.332-18.779-7.893-2.677-1.728-9.2-8.182-9.2-9.103 0-.284-.516-1.108-1.146-1.831s-1.262-1.674-1.404-2.114-.796-1.41-1.454-2.155-1.387-2.095-1.62-3-.862-2.5-1.399-3.545c-.572-1.112-.977-2.586-.977-3.553a6.28 6.28 0 0 0-.87-3.06c-1.186-1.919-1.288-17.207-.123-18.494.371-.411.803-1.792.96-3.07s.664-3.051 1.126-3.942.967-2.294 1.122-3.12.845-2.189 1.533-3.029c1.24-1.515 3.091-4.337 4.256-6.49.848-1.567 6.747-7.498 8.194-8.237.661-.338 1.832-1.103 2.602-1.7 1.383-1.073 2.854-1.937 4.8-2.819.55-.25 1.54-.733 2.2-1.075 2.853-1.478 7.671-2.911 9.797-2.914 1.525-.001 2.572-.247 3.403-.797 1.895-1.255 124.362-1.255 126.704 0m-104.015 69.023c-1.285.9-1.385 11.083-.115 11.763 1.535.822 11.139.524 11.612-.36.823-1.537.521-10.319-.386-11.226-1.068-1.068-9.644-1.205-11.111-.177m25.373.108c-.833.921-.988 10.783-.182 11.589.77.77 10.298.651 11.431-.143 1.353-.948 1.364-10.103.014-11.361-1.257-1.171-10.219-1.238-11.263-.085m25.408.195c-1.133 1.205-1.318 9.456-.247 10.985.731 1.045 10.712 1.394 11.697.409.863-.863.648-10.844-.251-11.658-1.286-1.163-10.053-.957-11.199.264m25.392-.195c-.833.921-.988 10.783-.182 11.589.607.607 10.431.663 11.546.066 1.27-.68 1.17-10.863-.115-11.763-1.404-.984-10.339-.898-11.249.108" fill="#05ac9c" fill-rule="evenodd"/></svg>