<svg id="svg" version="1.1" xmlns="http://www.w3.org/2000/svg" xmlns:xlink="http://www.w3.org/1999/xlink" width="400" height="400" viewBox="0, 0, 400,400"><g id="svgg"><path id="path0" d="M186.200 7.819 C 176.900 8.388,173.024 8.907,160.600 11.246 C 148.044 13.610,131.550 18.968,119.200 24.693 C 114.959 26.659,108.415 29.934,107.800 30.397 C 107.580 30.563,106.140 31.380,104.600 32.212 C 99.903 34.749,101.086 34.033,93.800 38.746 C 89.788 41.341,79.350 48.909,78.600 49.767 C 78.380 50.019,77.190 51.040,75.956 52.037 C 64.655 61.163,50.108 76.831,42.400 88.181 C 41.410 89.638,40.420 91.049,40.200 91.315 C 39.980 91.582,39.332 92.520,38.761 93.400 C 38.189 94.280,37.019 96.080,36.161 97.400 C 35.303 98.720,34.406 100.160,34.168 100.600 C 33.929 101.040,33.206 102.300,32.561 103.400 C 30.427 107.040,30.058 107.743,26.380 115.200 C 21.681 124.727,21.200 125.772,21.200 126.455 C 21.200 126.767,20.923 127.418,20.584 127.902 C 20.244 128.386,19.717 129.551,19.410 130.491 C 19.104 131.431,18.023 134.540,17.008 137.400 C 15.993 140.260,14.933 143.511,14.651 144.625 C 14.370 145.739,14.020 146.845,13.873 147.082 C 13.726 147.320,13.320 148.749,12.970 150.257 C 10.029 162.946,8.545 170.496,8.187 174.600 C 8.053 176.140,7.657 179.470,7.309 182.000 C 6.407 188.550,6.412 211.781,7.318 218.800 C 7.672 221.550,8.073 224.970,8.208 226.400 C 8.489 229.371,9.461 234.663,11.404 243.800 C 12.936 251.004,16.648 263.168,19.337 269.800 C 22.592 277.825,23.590 280.061,26.653 286.200 C 30.558 294.027,32.786 298.147,33.500 298.860 C 33.775 299.135,34.000 299.536,34.000 299.751 C 34.000 299.966,34.840 301.415,35.866 302.971 C 36.892 304.527,38.197 306.520,38.766 307.400 C 39.335 308.280,39.980 309.210,40.200 309.467 C 40.420 309.724,41.410 311.129,42.400 312.589 C 44.155 315.177,47.369 319.407,50.600 323.380 C 54.991 328.779,64.681 338.777,71.195 344.628 C 72.403 345.713,73.573 346.789,73.795 347.020 C 74.473 347.725,81.578 353.400,83.833 355.038 C 84.410 355.457,85.339 356.148,85.897 356.573 C 86.455 356.998,88.012 358.084,89.356 358.986 C 90.700 359.888,92.340 360.999,93.000 361.454 C 96.437 363.826,99.904 366.000,100.249 366.000 C 100.464 366.000,100.864 366.224,101.137 366.497 C 102.254 367.614,117.425 375.378,123.200 377.789 C 124.630 378.386,126.430 379.159,127.200 379.507 C 133.022 382.136,149.381 387.232,156.400 388.603 C 157.830 388.882,160.260 389.388,161.800 389.726 C 174.545 392.529,192.920 393.949,207.100 393.227 C 222.379 392.449,232.641 390.954,246.800 387.443 C 250.972 386.408,258.870 384.030,261.600 382.987 C 262.370 382.692,263.692 382.240,264.539 381.982 C 265.385 381.724,266.555 381.263,267.139 380.959 C 267.722 380.654,268.403 380.404,268.652 380.402 C 268.900 380.401,270.160 379.936,271.452 379.368 C 272.743 378.801,274.160 378.185,274.600 378.000 C 281.546 375.084,295.692 367.733,299.979 364.811 C 300.540 364.429,302.260 363.332,303.800 362.375 C 305.340 361.417,307.081 360.266,307.668 359.817 C 308.255 359.368,309.666 358.370,310.802 357.600 C 319.769 351.525,335.011 337.749,343.723 327.845 C 347.662 323.367,356.668 311.788,357.604 310.000 C 357.891 309.450,358.683 308.246,359.363 307.324 C 360.043 306.403,361.320 304.452,362.200 302.989 C 363.080 301.526,364.275 299.580,364.857 298.664 C 367.974 293.754,374.926 279.767,377.363 273.503 C 378.374 270.904,379.615 267.616,381.176 263.400 C 381.924 261.381,382.770 258.615,384.541 252.400 C 386.449 245.708,386.739 244.576,387.003 242.800 C 387.150 241.810,387.511 240.100,387.804 239.000 C 388.097 237.900,388.446 236.100,388.578 235.000 C 388.711 233.900,389.166 230.930,389.590 228.400 C 392.253 212.502,392.313 188.997,389.732 173.200 C 389.391 171.110,388.866 167.724,388.565 165.676 C 388.264 163.628,387.916 161.788,387.792 161.588 C 387.668 161.387,387.306 159.822,386.988 158.111 C 386.461 155.282,385.841 152.899,383.628 145.200 C 382.010 139.571,380.541 135.077,379.771 133.400 C 379.026 131.777,377.200 127.001,377.200 126.676 C 377.200 125.623,366.305 103.902,365.023 102.400 C 364.742 102.070,363.811 100.568,362.956 99.061 C 361.200 95.970,361.012 95.675,358.089 91.392 C 355.616 87.769,355.602 87.750,350.317 81.000 C 340.788 68.826,330.479 58.449,318.600 49.072 C 316.180 47.161,313.952 45.391,313.650 45.136 C 313.347 44.882,311.649 43.692,309.876 42.492 C 308.103 41.292,306.430 40.105,306.158 39.855 C 305.885 39.605,304.460 38.680,302.990 37.800 C 301.520 36.920,299.698 35.795,298.940 35.299 C 293.483 31.732,281.532 25.652,273.200 22.205 C 271.770 21.614,269.830 20.786,268.889 20.365 C 267.948 19.944,266.958 19.599,266.689 19.598 C 266.420 19.596,265.750 19.362,265.200 19.077 C 264.650 18.792,262.310 17.967,260.000 17.244 C 257.690 16.520,255.170 15.696,254.400 15.411 C 253.630 15.127,251.560 14.519,249.800 14.061 C 227.774 8.324,208.644 6.446,186.200 7.819 M218.600 34.780 C 219.700 34.998,222.490 35.452,224.800 35.789 C 231.178 36.722,238.961 38.439,245.200 40.290 C 250.981 42.006,258.156 44.463,259.086 45.045 C 259.573 45.350,260.181 45.600,260.436 45.600 C 261.488 45.600,277.000 52.988,281.000 55.395 C 281.880 55.924,283.768 57.030,285.195 57.851 C 299.426 66.045,316.870 81.367,328.624 96.000 C 332.541 100.876,334.342 103.425,340.211 112.400 C 341.439 114.279,347.600 125.188,347.600 125.484 C 347.600 125.672,349.501 129.717,351.626 134.050 C 351.801 134.408,352.512 136.208,353.205 138.050 C 353.899 139.893,354.712 141.940,355.013 142.600 C 355.837 144.410,359.221 155.077,359.200 155.800 C 359.194 156.020,359.544 157.370,359.979 158.800 C 360.939 161.959,362.223 167.950,362.800 171.959 C 363.034 173.586,363.309 175.053,363.412 175.219 C 365.600 178.759,365.591 212.339,363.399 225.200 C 363.080 227.070,362.715 229.320,362.588 230.200 C 362.270 232.406,360.856 239.099,360.348 240.800 C 360.119 241.570,359.598 243.460,359.191 245.000 C 357.873 249.989,356.957 252.981,356.473 253.874 C 356.213 254.354,356.000 255.077,356.000 255.480 C 356.000 255.882,355.640 256.884,355.200 257.704 C 354.760 258.525,354.394 259.423,354.386 259.699 C 354.379 259.974,354.025 260.920,353.600 261.800 C 353.175 262.680,352.821 263.546,352.814 263.725 C 352.799 264.080,351.577 266.799,349.158 271.861 C 348.301 273.654,347.600 275.218,347.600 275.336 C 347.600 275.618,341.391 286.595,340.211 288.400 C 334.922 296.488,334.314 297.349,328.677 304.729 C 323.773 311.149,311.974 323.059,304.000 329.639 C 299.683 333.200,286.048 342.800,285.305 342.800 C 285.183 342.800,284.164 343.409,283.041 344.154 C 280.647 345.741,268.556 351.874,264.800 353.407 C 263.370 353.990,261.660 354.722,261.000 355.032 C 256.667 357.072,244.204 360.994,237.468 362.436 C 235.525 362.852,233.793 363.281,233.619 363.388 C 233.445 363.496,231.456 363.861,229.200 364.200 C 226.944 364.539,224.926 364.922,224.716 365.052 C 224.296 365.312,216.228 366.136,207.200 366.841 C 198.620 367.511,181.223 366.563,173.600 365.008 C 171.950 364.672,169.070 364.129,167.200 363.802 C 161.211 362.756,153.158 360.838,151.400 360.039 C 150.960 359.840,148.620 359.038,146.200 358.258 C 140.510 356.425,138.474 355.704,137.000 355.002 C 136.340 354.687,133.910 353.622,131.600 352.635 C 129.290 351.648,126.320 350.271,125.000 349.575 C 120.061 346.970,117.354 345.500,115.800 344.579 C 114.920 344.057,113.570 343.261,112.800 342.811 C 110.705 341.585,110.027 341.142,107.731 339.500 C 106.578 338.675,105.518 338.000,105.376 338.000 C 105.009 338.000,97.764 332.477,92.836 328.442 C 88.551 324.932,78.761 315.504,75.335 311.588 C 69.527 304.948,66.187 300.678,62.087 294.649 C 58.256 289.015,57.505 287.803,53.659 281.051 C 51.970 278.085,48.116 270.267,46.831 267.200 C 46.140 265.550,45.317 263.660,45.001 263.000 C 44.365 261.672,44.000 260.655,41.339 252.800 C 38.810 245.333,37.494 240.229,36.002 232.101 C 35.588 229.847,35.158 227.856,35.047 227.676 C 34.818 227.306,33.717 217.532,33.190 211.200 C 32.738 205.765,32.737 194.500,33.189 189.400 C 33.860 181.821,34.809 173.797,35.176 172.600 C 35.379 171.940,35.652 170.590,35.784 169.600 C 36.422 164.811,40.207 150.216,41.644 147.000 C 41.840 146.560,42.260 145.390,42.576 144.400 C 43.625 141.114,44.715 138.126,45.145 137.358 C 45.378 136.941,46.135 135.250,46.828 133.600 C 47.866 131.128,50.992 124.699,53.441 120.000 C 55.332 116.371,61.769 106.398,66.220 100.200 C 73.930 89.465,88.716 74.984,102.000 65.159 C 111.416 58.195,124.818 50.705,135.200 46.606 C 136.630 46.042,138.141 45.387,138.558 45.150 C 139.359 44.696,142.591 43.528,145.600 42.604 C 146.590 42.300,148.120 41.778,149.000 41.443 C 149.880 41.109,150.933 40.827,151.340 40.818 C 151.746 40.808,152.646 40.536,153.340 40.213 C 154.609 39.623,157.090 39.010,163.907 37.603 C 165.946 37.182,167.746 36.757,167.907 36.658 C 168.068 36.558,170.000 36.270,172.200 36.017 C 174.400 35.764,176.755 35.383,177.432 35.170 C 180.921 34.073,213.469 33.765,218.600 34.780 M198.853 104.230 C 196.266 104.926,192.254 108.078,184.378 115.600 C 184.032 115.930,181.877 117.910,179.587 120.000 C 177.298 122.090,174.157 124.970,172.607 126.400 C 171.057 127.830,167.818 130.800,165.409 133.000 C 163.000 135.200,158.494 139.340,155.397 142.200 C 152.299 145.060,148.675 148.390,147.343 149.600 C 144.272 152.390,138.406 157.757,132.000 163.638 C 129.250 166.163,123.580 171.357,119.400 175.182 C 111.115 182.763,108.305 185.343,104.354 189.000 C 102.928 190.320,99.970 193.020,97.780 194.999 C 86.889 204.847,86.200 205.847,86.200 211.800 C 86.200 223.617,99.716 229.277,108.400 221.097 C 109.750 219.825,113.382 216.478,118.019 212.232 C 123.344 207.355,128.560 202.568,128.963 202.187 C 129.203 201.961,130.576 200.701,132.014 199.387 C 133.452 198.074,136.422 195.353,138.614 193.341 C 140.806 191.328,143.140 189.192,143.800 188.593 C 144.460 187.995,145.990 186.575,147.200 185.437 C 148.410 184.300,151.379 181.576,153.797 179.385 C 156.215 177.193,158.481 175.130,158.831 174.800 C 159.181 174.470,161.163 172.656,163.234 170.770 C 166.594 167.710,174.315 160.634,179.772 155.614 C 183.162 152.496,183.837 151.878,187.061 148.942 C 188.788 147.370,190.751 145.570,191.425 144.942 C 192.099 144.314,194.247 142.360,196.198 140.600 C 198.150 138.840,200.139 136.995,200.619 136.500 C 201.587 135.502,203.758 135.274,204.280 136.116 C 204.590 136.616,206.107 138.033,214.007 145.200 C 216.068 147.070,218.229 149.050,218.808 149.600 C 219.388 150.150,221.644 152.220,223.821 154.200 C 229.550 159.410,237.883 167.055,240.200 169.228 C 241.300 170.260,243.076 171.890,244.146 172.852 C 247.597 175.952,254.520 182.273,257.015 184.600 C 257.958 185.480,260.308 187.640,262.236 189.400 C 264.165 191.160,266.034 192.870,266.390 193.200 C 266.746 193.530,268.911 195.510,271.200 197.600 C 273.489 199.690,275.650 201.670,276.001 202.000 C 277.066 203.001,284.928 210.258,286.034 211.262 C 291.068 215.829,294.424 218.885,295.600 219.973 C 301.930 225.832,308.900 226.492,314.653 221.778 C 321.527 216.145,320.659 207.206,312.513 199.730 C 310.397 197.788,308.183 195.750,307.592 195.200 C 307.002 194.650,304.938 192.760,303.007 191.000 C 301.075 189.240,298.727 187.080,297.788 186.200 C 296.850 185.320,295.388 183.973,294.541 183.208 C 293.693 182.442,291.914 180.822,290.586 179.608 C 289.258 178.393,286.298 175.690,284.008 173.600 C 281.718 171.510,278.979 168.927,277.922 167.859 L 276.000 165.919 276.000 137.192 C 276.000 121.392,275.891 108.181,275.757 107.833 C 275.359 106.796,255.606 106.888,254.662 107.931 C 254.067 108.589,254.000 110.480,254.000 126.731 C 254.000 143.198,253.942 144.800,253.345 144.800 C 252.619 144.800,250.979 143.370,238.200 131.593 C 233.360 127.132,227.608 121.844,225.418 119.841 C 223.227 117.839,221.148 115.930,220.796 115.600 C 208.038 103.630,205.662 102.399,198.853 104.230 M200.514 152.482 C 199.681 153.187,197.827 154.852,196.393 156.182 C 193.460 158.902,190.557 161.574,184.201 167.400 C 181.801 169.600,177.389 173.650,174.398 176.400 C 165.820 184.285,164.462 185.529,160.013 189.584 C 157.710 191.683,155.540 193.670,155.192 194.000 C 154.844 194.330,152.685 196.310,150.395 198.400 C 142.464 205.637,134.588 212.927,131.900 215.519 L 129.200 218.123 129.200 263.847 C 129.200 308.644,129.216 309.580,129.974 309.986 C 131.149 310.615,170.888 310.552,171.520 309.920 C 171.883 309.557,172.000 303.283,172.000 284.134 C 172.000 259.524,172.021 258.817,172.774 258.414 C 173.803 257.863,230.728 257.840,232.174 258.390 L 233.200 258.780 233.200 284.110 C 233.200 303.278,233.317 309.557,233.680 309.920 C 234.372 310.612,274.828 310.612,275.520 309.920 C 275.888 309.552,276.000 298.767,276.000 263.810 L 276.000 218.180 273.100 215.352 C 271.505 213.797,264.440 207.247,257.400 200.797 C 250.360 194.347,242.800 187.417,240.600 185.397 C 238.400 183.377,231.920 177.434,226.200 172.190 C 220.480 166.946,214.825 161.743,213.632 160.628 C 210.503 157.701,210.496 157.695,206.739 154.300 C 202.853 150.789,202.600 150.715,200.514 152.482 " stroke="none" fill="#01a99e" fill-rule="evenodd"></path></g></svg>