<svg xmlns="http://www.w3.org/2000/svg" width="400" height="400" viewBox="0 0 400 NaN" xmlns:v="https://vecta.io/nano"><path d="M193.8 38.861c-4.236 1.172-9.404 4.811-15.978 11.25-.436.427-5.49 5.057-8.565 7.848L164 62.794l-24 22.025-10.011 9.172-12.6 11.569-10.011 9.2-4.4 4.035-4.787 4.4-6.995 6.405-6.391 5.842-4.578 4.2-3.16 2.918c-.433.418-3.955 3.64-7.827 7.16l-9.876 9.04-17.882 16.394L26.408 189l-6.995 6.4C6.672 206.932 4.798 209.09 3.348 213.904c-6.319 20.981 17.039 38.155 34.172 25.125 2.566-1.952 3.66-2.932 17.883-16.029l17.377-15.961 42.02-38.624 6.195-5.644c2.459-2.182 10.273-9.331 17.205-15.74l7.204-6.619L156.788 130l5.045-4.635 27.954-25.6 6.551-6.1c3.025-2.923 4.55-2.644 8.462 1.549.11.118 4.52 4.163 9.8 8.989l17.2 15.795 11.8 10.788 5.021 4.59c.451.453 2.611 2.455 4.8 4.448l18.979 17.395c.11.126 1.37 1.282 2.8 2.568L288.599 172l7.403 6.8 7.593 7 9.606 8.8 12.204 11.2 9.808 9.04 12.209 11.2c15.031 13.792 15.639 14.273 20.252 16.022 16.469 6.243 33.166-9.301 28.775-26.79-1.463-5.825-3.073-7.754-17.426-20.876l-20.855-19.165-4.8-4.375-5.968-5.44-20.48-18.757c-.954-.847-1.93-1.904-2.167-2.347-.303-.566-.415-15.196-.376-49.059.057-49.054.018-50.462-1.398-51.006-1.143-.438-33.684-.326-34.517.12-1.29.69-1.282.494-1.374 32.686L287 107.8l-1.29.125c-1.112.107-1.615-.198-3.626-2.2-2.188-2.179-8.956-8.463-13.481-12.52L261.2 86.39l-12.4-11.384-9.611-8.786c-19.404-17.987-25.797-23.654-28.451-25.218-4.878-2.874-11.339-3.69-16.938-2.141m4.347 80.121c-.457.32-1.445 1.175-2.194 1.9s-3.701 3.461-6.558 6.079l-15.968 14.673-19.989 18.317-5.249 4.8-6.382 5.849-7.397 6.8-9.614 8.8-9.205 8.4-17.218 15.8-4.572 4.186c-.661.652-2.101 1.986-3.201 2.963-9.419 8.371-14.109 12.961-14.621 14.306-.234.616-.379 30.347-.379 77.709v76.712l.842.762c.812.735 2.055.766 35.135.871l34.293.108 1.081-.85 1.081-.85-.05-42.589c-.047-39.949-.007-42.637.646-43.359.977-1.08 100.546-1.223 102.083-.146l.889.622v42.778c0 42.244.01 42.787.8 43.577 1.172 1.172 68.94 1.269 70.364.1l.853-.7-.007-77.541-.008-77.541-.956-1.136c-.526-.625-3.467-3.441-6.537-6.259l-33.263-30.481-9.641-8.8-6.2-5.631-5.005-4.603-7.581-7.011-12.81-11.797-9.212-8.4-9.195-8.429c-19.738-18.603-23.149-21.324-25.055-19.989" fill="#02a89d" fill-rule="evenodd"/></svg>