<svg xmlns="http://www.w3.org/2000/svg" width="400" height="400" viewBox="0 0 400 NaN" xmlns:v="https://vecta.io/nano"><path d="M186.2 7.819c-9.3.569-13.176 1.088-25.6 3.427-12.556 2.364-29.05 7.722-41.4 13.447-4.241 1.966-10.785 5.241-11.4 5.704-.22.166-1.66.983-3.2 1.815-4.697 2.537-3.514 1.821-10.8 6.534-4.012 2.595-14.45 10.163-15.2 11.021-.22.252-1.41 1.273-2.644 2.27C64.655 61.163 50.108 76.831 42.4 88.181l-2.2 3.134c-.22.267-.868 1.205-1.439 2.085l-2.6 4c-.858 1.32-1.755 2.76-1.993 3.2s-.962 1.7-1.607 2.8c-2.134 3.64-2.503 4.343-6.181 11.8-4.699 9.527-5.18 10.572-5.18 11.255 0 .312-.277.963-.616 1.447s-.867 1.649-1.174 2.589-1.387 4.049-2.402 6.909-2.075 6.111-2.357 7.225-.631 2.22-.778 2.457-.553 1.667-.903 3.175c-2.941 12.689-4.425 20.239-4.783 24.343-.134 1.54-.53 4.87-.878 7.4-.902 6.55-.897 29.781.009 36.8l.89 7.6c.281 2.971 1.253 8.263 3.196 17.4 1.532 7.204 5.244 19.368 7.933 26 3.255 8.025 4.253 10.261 7.316 16.4 3.905 7.827 6.133 11.947 6.847 12.66.275.275.5.676.5.891s.84 1.664 1.866 3.22l2.9 4.429c.569.88 1.214 1.81 1.434 2.067s1.21 1.662 2.2 3.122c1.755 2.588 4.969 6.818 8.2 10.791 4.391 5.399 14.081 15.397 20.595 21.248l2.6 2.392c.678.705 7.783 6.38 10.038 8.018l2.064 1.535c.558.425 2.115 1.511 3.459 2.413L93 361.454c3.437 2.372 6.904 4.546 7.249 4.546.215 0 .615.224.888.497 1.117 1.117 16.288 8.881 22.063 11.292l4 1.718c5.822 2.629 22.181 7.725 29.2 9.096l5.4 1.123c12.745 2.803 31.12 4.223 45.3 3.501 15.279-.778 25.541-2.273 39.7-5.784 4.172-1.035 12.07-3.413 14.8-4.456.77-.295 2.092-.747 2.939-1.005s2.016-.719 2.6-1.023 1.264-.555 1.513-.557 1.508-.466 2.8-1.034L274.6 378c6.946-2.916 21.092-10.267 25.379-13.189.561-.382 2.281-1.479 3.821-2.436s3.281-2.109 3.868-2.558 1.998-1.447 3.134-2.217c8.967-6.075 24.209-19.851 32.921-29.755 3.939-4.478 12.945-16.057 13.881-17.845.287-.55 1.079-1.754 1.759-2.676s1.957-2.872 2.837-4.335l2.657-4.325c3.117-4.91 10.069-18.897 12.506-25.161l3.813-10.103c.748-2.019 1.594-4.785 3.365-11 1.908-6.692 2.198-7.824 2.462-9.6.147-.99.508-2.7.801-3.8s.642-2.9.774-4 .588-4.07 1.012-6.6c2.663-15.898 2.723-39.403.142-55.2l-1.167-7.524c-.301-2.048-.649-3.888-.773-4.088s-.486-1.766-.804-3.477c-.527-2.829-1.147-5.212-3.36-12.911-1.618-5.629-3.087-10.123-3.857-11.8-.745-1.623-2.571-6.399-2.571-6.724 0-1.053-10.895-22.774-12.177-24.276-.281-.33-1.212-1.832-2.067-3.339-1.756-3.091-1.944-3.386-4.867-7.669-2.473-3.623-2.487-3.642-7.772-10.392-9.529-12.174-19.838-22.551-31.717-31.928l-4.95-3.936c-.303-.254-2.001-1.444-3.774-2.644s-3.446-2.387-3.718-2.637-1.698-1.175-3.168-2.055l-4.05-2.501c-5.457-3.567-17.408-9.647-25.74-13.094l-4.311-1.84c-.941-.421-1.931-.766-2.2-.767s-.939-.236-1.489-.521-2.89-1.11-5.2-1.833l-5.6-1.833c-.77-.284-2.84-.892-4.6-1.35-22.026-5.737-41.156-7.615-63.6-6.242m32.4 26.961c1.1.218 3.89.672 6.2 1.009a157.21 157.21 0 0 1 20.4 4.501c5.781 1.716 12.956 4.173 13.886 4.755.487.305 1.095.555 1.35.555 1.052 0 16.564 7.388 20.564 9.795l4.195 2.456C299.426 66.045 316.87 81.367 328.624 96c3.917 4.876 5.718 7.425 11.587 16.4 1.228 1.879 7.389 12.788 7.389 13.084 0 .188 1.901 4.233 4.026 8.566.175.358.886 2.158 1.579 4s1.507 3.89 1.808 4.55c.824 1.81 4.208 12.477 4.187 13.2-.006.22.344 1.57.779 3 .96 3.159 2.244 9.15 2.821 13.159.234 1.627.509 3.094.612 3.26 2.188 3.54 2.179 37.12-.013 49.981l-.811 5c-.318 2.206-1.732 8.899-2.24 10.6-.229.77-.75 2.66-1.157 4.2-1.318 4.989-2.234 7.981-2.718 8.874-.26.48-.473 1.203-.473 1.606s-.36 1.404-.8 2.224-.806 1.719-.814 1.995-.361 1.221-.786 2.101-.779 1.746-.786 1.925c-.015.355-1.237 3.074-3.656 8.136-.857 1.793-1.558 3.357-1.558 3.475 0 .282-6.209 11.259-7.389 13.064-5.289 8.088-5.897 8.949-11.534 16.329-4.904 6.42-16.703 18.33-24.677 24.91-4.317 3.561-17.952 13.161-18.695 13.161-.122 0-1.141.609-2.264 1.354-2.394 1.587-14.485 7.72-18.241 9.253-1.43.583-3.14 1.315-3.8 1.625-4.333 2.04-16.796 5.962-23.532 7.404-1.943.416-3.675.845-3.849.952s-2.163.473-4.419.812-4.274.722-4.484.852c-.42.26-8.488 1.084-17.516 1.789-8.58.67-25.977-.278-33.6-1.833l-6.4-1.206c-5.989-1.046-14.042-2.964-15.8-3.763-.44-.199-2.78-1.001-5.2-1.781-5.69-1.833-7.726-2.554-9.2-3.256-.66-.315-3.09-1.38-5.4-2.367s-5.28-2.364-6.6-3.06l-9.2-4.996-3-1.768c-2.095-1.226-2.773-1.669-5.069-3.311-1.153-.825-2.213-1.5-2.355-1.5-.367 0-7.612-5.523-12.54-9.558-4.285-3.51-14.075-12.938-17.501-16.854-5.808-6.64-9.148-10.91-13.248-16.939-3.831-5.634-4.582-6.846-8.428-13.598-1.689-2.966-5.543-10.784-6.828-13.851l-1.83-4.2c-.636-1.328-1.001-2.345-3.662-10.2-2.529-7.467-3.845-12.571-5.337-20.699-.414-2.254-.844-4.245-.955-4.425-.229-.37-1.33-10.144-1.857-16.476-.452-5.435-.453-16.7-.001-21.8.671-7.579 1.62-15.603 1.987-16.8.203-.66.476-2.01.608-3 .638-4.789 4.423-19.384 5.86-22.6.196-.44.616-1.61.932-2.6 1.049-3.286 2.139-6.274 2.569-7.042.233-.417.99-2.108 1.683-3.758 1.038-2.472 4.164-8.901 6.613-13.6 1.891-3.629 8.328-13.602 12.779-19.8C73.93 89.465 88.716 74.984 102 65.159c9.416-6.964 22.818-14.454 33.2-18.553 1.43-.564 2.941-1.219 3.358-1.456.801-.454 4.033-1.622 7.042-2.546a66.3 66.3 0 0 0 3.4-1.161c.88-.334 1.933-.616 2.34-.625s1.306-.282 2-.605c1.269-.59 3.75-1.203 10.567-2.61 2.039-.421 3.839-.846 4-.945s2.093-.388 4.293-.641 4.555-.634 5.232-.847c3.489-1.097 36.037-1.405 41.168-.39m-19.747 69.45c-2.587.696-6.599 3.848-14.475 11.37-.346.33-2.501 2.31-4.791 4.4l-6.98 6.4-7.198 6.6-10.012 9.2-8.054 7.4L132 163.638l-12.6 11.544L104.354 189l-6.574 5.999C86.889 204.847 86.2 205.847 86.2 211.8c0 11.817 13.516 17.477 22.2 9.297l9.619-8.865 10.944-10.045 3.051-2.8 6.6-6.046 5.186-4.748 3.4-3.156 6.597-6.052 5.034-4.585c.35-.33 2.332-2.144 4.403-4.03l16.538-15.156 7.289-6.672 4.364-4 4.773-4.342 4.421-4.1c.968-.998 3.139-1.226 3.661-.384.31.5 1.827 1.917 9.727 9.084l4.801 4.4c.58.55 2.836 2.62 5.013 4.6l16.379 15.028 3.946 3.624 12.869 11.748 5.221 4.8 4.154 3.8 4.81 4.4 4.801 4.4 10.033 9.262 9.566 8.711c6.33 5.859 13.3 6.519 19.053 1.805 6.874-5.633 6.006-14.572-2.14-22.048l-4.921-4.53-4.585-4.2-5.219-4.8-3.247-2.992-3.955-3.6-6.578-6.008c-2.29-2.09-5.029-4.673-6.086-5.741l-1.922-1.94v-28.727l-.243-29.359c-.398-1.037-20.151-.945-21.095.098-.595.658-.662 2.549-.662 18.8 0 16.467-.058 18.069-.655 18.069-.726 0-2.366-1.43-15.145-13.207l-12.782-11.752-4.622-4.241c-12.758-11.97-15.134-13.201-21.943-11.37m1.661 48.252c-.833.705-2.687 2.37-4.121 3.7L184.201 167.4l-9.803 9-14.385 13.184-4.821 4.416c-.348.33-2.507 2.31-4.797 4.4L131.9 215.519l-2.7 2.604v45.724c0 44.797.016 45.733.774 46.139 1.175.629 40.914.566 41.546-.066.363-.363.48-6.637.48-25.786 0-24.61.021-25.317.774-25.72 1.029-.551 57.954-.574 59.4-.024l1.026.39v25.33c0 19.168.117 25.447.48 25.81.692.692 41.148.692 41.84 0 .368-.368.48-11.153.48-46.11v-45.63l-2.9-2.828c-1.595-1.555-8.66-8.105-15.7-14.555l-16.8-15.4-14.4-13.207-12.568-11.562-6.893-6.328c-3.886-3.511-4.139-3.585-6.225-1.818" fill="#01a99e" fill-rule="evenodd"/></svg>