<svg id="SvgjsSvg1026" width="288" height="288" xmlns="http://www.w3.org/2000/svg" version="1.1" xmlns:xlink="http://www.w3.org/1999/xlink" xmlns:svgjs="http://svgjs.com/svgjs"><defs id="SvgjsDefs1027"></defs><g id="SvgjsG1028"><svg xmlns="http://www.w3.org/2000/svg" width="288" height="288" viewBox="0 0 400 400"><path fill-rule="evenodd" d="M194.334 28.364 C 192.690 29.186,190.220 31.093,188.038 33.224 C 187.237 34.007,186.000 34.991,185.290 35.410 C 184.581 35.830,184.000 36.297,184.000 36.450 C 184.000 36.696,182.814 37.694,177.168 42.200 C 176.341 42.860,174.615 44.194,173.332 45.164 C 171.024 46.910,167.838 49.663,165.275 52.126 C 163.925 53.425,162.258 54.716,159.400 56.681 C 157.696 57.852,154.034 60.891,150.354 64.187 C 149.118 65.294,147.090 67.010,145.848 68.000 C 144.605 68.990,142.796 70.430,141.828 71.200 C 137.048 75.000,134.913 76.754,133.043 78.416 C 131.919 79.415,130.280 80.751,129.400 81.385 C 128.520 82.019,127.504 82.822,127.142 83.169 C 126.101 84.168,119.725 89.464,114.585 93.600 C 113.355 94.590,110.329 97.110,107.861 99.200 C 101.445 104.633,99.646 106.082,97.500 107.544 C 96.455 108.256,95.600 108.986,95.600 109.166 C 95.600 109.346,94.852 109.989,93.937 110.594 C 93.022 111.199,91.861 112.141,91.356 112.685 C 90.851 113.230,89.465 114.424,88.276 115.338 C 87.087 116.252,84.423 118.404,82.357 120.119 C 80.291 121.835,77.736 123.905,76.679 124.719 C 75.623 125.534,73.373 127.437,71.679 128.950 C 69.986 130.462,66.980 132.948,65.000 134.472 C 59.577 138.649,56.463 141.206,54.369 143.200 C 51.832 145.616,49.000 147.976,47.120 149.238 C 45.723 150.177,41.050 153.985,35.387 158.800 C 34.223 159.790,32.071 161.590,30.604 162.800 C 29.138 164.010,26.487 166.253,24.714 167.785 C 20.805 171.162,17.310 173.907,14.500 175.805 C 13.345 176.586,12.400 177.379,12.400 177.567 C 12.400 177.756,10.604 179.486,8.409 181.412 C 6.214 183.338,4.337 185.203,4.239 185.557 C 3.324 188.842,3.052 188.412,12.526 198.657 C 19.400 206.090,20.919 206.597,24.975 202.815 C 26.089 201.776,28.080 200.092,29.400 199.073 C 33.762 195.707,35.547 194.239,39.896 190.441 C 42.263 188.374,45.963 185.314,48.118 183.641 C 54.789 178.462,55.768 177.653,56.800 176.465 C 57.350 175.831,58.430 174.889,59.200 174.371 C 59.970 173.853,60.780 173.230,61.000 172.986 C 61.438 172.501,70.632 165.072,72.339 163.824 C 72.922 163.397,74.233 162.317,75.252 161.424 C 76.271 160.531,78.410 158.720,80.007 157.400 C 81.604 156.080,83.561 154.441,84.355 153.757 C 85.150 153.073,87.600 151.113,89.800 149.400 C 92.000 147.688,94.036 145.951,94.324 145.541 C 94.613 145.131,95.423 144.502,96.124 144.143 C 96.826 143.784,98.049 142.840,98.842 142.045 C 99.634 141.250,101.323 139.790,102.593 138.800 C 103.864 137.810,106.640 135.545,108.763 133.767 C 110.885 131.989,113.354 130.004,114.248 129.356 C 115.873 128.179,116.832 127.379,123.200 121.891 C 125.070 120.280,127.230 118.529,128.000 118.000 C 129.738 116.808,132.071 114.912,135.632 111.800 C 138.693 109.125,141.696 106.648,144.400 104.569 C 146.886 102.657,151.273 99.028,154.275 96.400 C 157.871 93.252,159.545 91.909,161.665 90.473 C 162.691 89.778,163.591 89.072,163.665 88.905 C 163.739 88.737,165.129 87.520,166.754 86.200 C 168.378 84.880,170.538 83.062,171.554 82.160 C 172.569 81.257,174.232 79.907,175.249 79.160 C 176.266 78.412,178.541 76.540,180.305 75.000 C 182.069 73.460,184.636 71.300,186.009 70.200 C 187.383 69.100,189.372 67.421,190.429 66.468 C 194.310 62.971,198.617 62.929,202.051 66.354 C 203.773 68.071,205.965 69.920,210.400 73.394 C 212.079 74.709,215.275 77.402,220.853 82.200 C 224.140 85.028,225.779 86.331,227.572 87.544 C 228.994 88.505,232.599 91.546,238.122 96.442 C 239.265 97.455,240.923 98.805,241.806 99.442 C 243.269 100.497,252.051 107.831,253.000 108.790 C 253.414 109.208,255.396 110.764,259.200 113.656 C 260.410 114.576,262.303 116.154,263.406 117.164 C 266.320 119.831,271.535 124.030,273.500 125.291 C 274.435 125.891,275.200 126.565,275.200 126.787 C 275.200 127.010,275.984 127.779,276.943 128.496 C 277.901 129.213,279.767 130.700,281.090 131.800 C 283.381 133.706,289.050 138.263,291.788 140.400 C 292.493 140.950,293.504 141.891,294.035 142.492 C 294.566 143.093,295.573 143.993,296.273 144.492 C 298.642 146.182,311.391 156.499,312.661 157.754 C 314.418 159.491,318.472 162.864,324.785 167.841 C 327.746 170.175,330.806 172.680,331.585 173.407 C 334.385 176.021,337.021 178.253,338.121 178.943 C 338.738 179.330,341.404 181.481,344.045 183.723 C 346.686 185.965,349.903 188.610,351.194 189.600 C 352.486 190.590,354.230 191.993,355.071 192.717 C 357.116 194.479,363.785 200.140,366.583 202.489 C 371.834 206.897,371.743 206.949,387.153 190.814 C 389.901 187.936,389.743 185.264,386.701 183.153 C 385.985 182.657,384.832 181.790,384.138 181.225 C 383.445 180.661,381.762 179.300,380.400 178.200 C 379.038 177.100,376.636 175.064,375.062 173.675 C 373.488 172.286,370.130 169.592,367.600 167.690 C 365.070 165.787,361.290 162.681,359.200 160.788 C 357.110 158.895,353.870 156.194,352.000 154.785 C 347.529 151.417,343.205 147.785,342.543 146.841 C 342.252 146.424,341.200 145.607,340.207 145.025 C 339.213 144.443,338.400 143.796,338.400 143.588 C 338.400 143.380,337.684 142.758,336.808 142.205 C 335.933 141.653,332.468 138.901,329.108 136.089 C 325.749 133.278,322.370 130.537,321.600 129.999 C 320.830 129.461,319.647 128.476,318.972 127.810 C 318.296 127.145,316.586 125.669,315.172 124.531 C 313.757 123.393,310.350 120.651,307.600 118.438 C 304.850 116.224,301.880 113.782,301.000 113.010 C 300.120 112.239,298.635 111.065,297.700 110.401 C 296.765 109.738,296.000 109.040,296.000 108.851 C 296.000 108.661,295.325 108.033,294.500 107.454 C 293.675 106.875,291.920 105.502,290.600 104.402 C 289.280 103.302,287.231 101.659,286.047 100.750 C 284.085 99.243,281.474 97.022,278.581 94.400 C 277.974 93.850,276.792 92.860,275.955 92.200 C 267.777 85.755,265.225 83.681,264.182 82.628 C 262.441 80.872,258.141 77.206,256.174 75.800 C 252.871 73.439,250.153 71.254,247.152 68.548 C 243.568 65.317,240.817 63.014,238.600 61.391 C 237.720 60.746,235.431 58.865,233.514 57.210 C 231.597 55.554,229.077 53.434,227.914 52.497 C 226.751 51.561,223.910 49.244,221.600 47.349 C 219.290 45.454,216.054 42.800,214.409 41.452 C 212.764 40.103,210.604 38.273,209.609 37.384 C 208.614 36.496,207.035 35.278,206.100 34.679 C 205.165 34.079,204.400 33.448,204.400 33.275 C 204.400 32.771,199.169 28.746,197.736 28.147 C 196.116 27.471,196.124 27.470,194.334 28.364 M61.386 50.992 C 59.652 52.396,59.600 53.312,59.606 82.197 C 59.612 111.932,59.576 111.421,61.709 112.171 C 62.675 112.511,62.975 112.384,64.301 111.081 C 65.125 110.270,67.600 108.065,69.800 106.181 C 72.000 104.297,74.610 102.040,75.600 101.167 C 76.590 100.293,78.356 98.819,79.524 97.889 C 83.299 94.887,85.459 93.063,89.104 89.800 C 92.748 86.537,94.411 85.158,96.674 83.521 C 105.326 77.264,106.089 75.557,106.097 62.437 C 106.104 52.641,105.906 51.479,104.107 50.717 C 101.858 49.765,62.588 50.017,61.386 50.992 M193.563 91.530 C 192.090 92.217,189.566 94.228,185.629 97.852 C 183.574 99.744,181.949 101.072,176.027 105.701 C 174.832 106.636,173.271 107.953,172.558 108.628 C 171.846 109.304,170.574 110.368,169.732 110.993 C 168.889 111.618,167.729 112.595,167.153 113.165 C 166.577 113.734,164.619 115.370,162.801 116.800 C 160.983 118.230,158.649 120.120,157.614 121.000 C 156.579 121.880,154.595 123.500,153.205 124.600 C 151.815 125.700,149.850 127.344,148.839 128.254 C 145.292 131.444,143.775 132.695,140.800 134.887 C 139.150 136.102,136.630 138.111,135.200 139.351 C 133.770 140.591,131.790 142.310,130.800 143.171 C 129.810 144.031,128.243 145.335,127.318 146.068 C 124.813 148.051,120.118 151.912,117.400 154.223 C 116.080 155.345,114.550 156.564,114.000 156.931 C 113.450 157.299,112.280 158.240,111.400 159.023 C 105.778 164.029,99.907 168.911,95.800 171.995 C 93.514 173.713,90.648 176.126,86.528 179.800 C 84.555 181.560,81.789 183.810,80.381 184.800 C 78.974 185.790,76.808 187.500,75.568 188.600 C 74.329 189.700,72.016 191.680,70.429 193.000 C 68.842 194.320,66.538 196.255,65.309 197.300 C 64.081 198.345,62.932 199.200,62.757 199.200 C 62.582 199.200,61.807 200.330,61.034 201.712 L 59.629 204.224 59.533 281.012 C 59.417 373.164,59.292 362.885,60.567 365.639 C 62.475 369.763,63.562 370.076,75.563 369.959 C 86.179 369.855,81.178 369.856,117.024 369.954 C 138.652 370.014,147.788 369.909,148.623 369.591 C 151.310 368.570,151.108 371.445,151.092 334.480 C 151.075 295.195,150.944 296.321,155.914 293.169 C 159.259 291.047,158.521 291.085,196.200 291.100 C 235.819 291.116,233.449 290.940,237.709 294.193 C 241.028 296.727,240.844 294.411,240.812 333.158 C 240.780 371.493,240.557 368.742,243.757 369.547 C 245.017 369.865,257.335 369.994,285.781 369.988 C 332.675 369.979,329.390 370.260,331.446 366.086 L 332.572 363.800 332.676 284.400 C 332.733 240.730,332.797 204.703,332.818 204.340 C 332.876 203.330,330.315 200.050,327.555 197.600 C 326.192 196.390,324.160 194.581,323.039 193.579 C 321.917 192.578,320.510 191.452,319.911 191.077 C 319.313 190.703,317.939 189.632,316.858 188.698 C 315.778 187.764,313.758 186.100,312.370 185.000 C 310.982 183.900,309.176 182.370,308.357 181.600 C 306.048 179.430,302.890 176.786,301.402 175.775 C 300.659 175.271,298.401 173.451,296.383 171.729 C 294.366 170.008,292.239 168.250,291.658 167.822 C 291.076 167.395,289.930 166.495,289.111 165.822 C 288.292 165.150,286.511 163.700,285.154 162.600 C 283.796 161.500,282.052 159.970,281.279 159.200 C 280.506 158.430,279.389 157.440,278.797 157.000 C 271.099 151.277,265.898 147.021,262.613 143.757 C 261.925 143.074,260.949 142.294,260.443 142.023 C 259.938 141.753,257.874 140.152,255.856 138.466 C 253.839 136.780,250.580 134.140,248.615 132.600 C 246.649 131.060,244.491 129.228,243.818 128.528 C 243.145 127.829,241.884 126.774,241.015 126.184 C 240.146 125.595,238.977 124.698,238.418 124.192 C 237.858 123.686,235.870 122.054,234.000 120.566 C 230.734 117.967,229.117 116.614,225.200 113.206 C 224.210 112.344,222.680 111.091,221.800 110.420 C 218.485 107.894,217.225 106.870,211.439 102.000 C 208.172 99.250,205.026 96.655,204.449 96.234 C 203.872 95.813,202.590 94.704,201.600 93.769 C 198.612 90.947,196.233 90.284,193.563 91.530 " fill="#01a89e" class="color000 svgShape"></path></svg></g></svg>