<svg id="svg" version="1.1" xmlns="http://www.w3.org/2000/svg" xmlns:xlink="http://www.w3.org/1999/xlink" width="400" height="400" viewBox="0, 0, 400,400"><g id="svgg"><path id="path0" d="M245.294 12.445 C 241.521 14.313,213.916 42.351,201.626 56.800 C 200.035 58.670,197.843 61.219,196.755 62.463 C 195.667 63.708,193.770 65.958,192.539 67.463 C 191.308 68.969,190.172 70.290,190.015 70.400 C 189.631 70.669,178.416 84.781,175.400 88.790 C 174.080 90.545,172.730 92.326,172.400 92.748 C 170.514 95.161,166.961 100.103,161.080 108.491 C 157.258 113.943,149.946 125.188,147.484 129.400 C 147.227 129.840,146.289 131.370,145.400 132.800 C 143.114 136.477,142.970 136.725,141.573 139.400 C 140.884 140.720,140.153 142.004,139.950 142.252 C 138.312 144.260,135.600 150.630,135.600 152.472 C 135.600 155.751,138.837 159.694,143.200 161.729 C 143.530 161.882,145.060 162.814,146.600 163.798 C 156.295 169.997,157.825 169.811,171.200 160.814 C 172.192 160.146,178.515 157.032,181.200 155.889 C 188.256 152.884,201.198 151.528,207.400 153.143 C 223.397 157.309,230.112 175.847,220.514 189.351 C 216.176 195.455,217.028 200.181,222.992 203.106 C 223.877 203.540,226.026 204.593,227.770 205.447 C 229.513 206.301,232.908 208.299,235.314 209.886 C 245.167 216.385,247.909 216.436,257.241 210.286 C 259.748 208.633,262.610 206.888,263.600 206.409 C 264.590 205.929,265.670 205.368,266.000 205.163 C 275.199 199.441,296.528 197.449,302.000 201.801 C 302.330 202.064,302.949 202.403,303.375 202.555 C 310.810 205.213,317.206 220.372,314.234 228.292 C 313.923 229.121,313.561 230.288,313.430 230.885 C 311.765 238.478,302.616 244.914,291.400 246.383 C 287.793 246.856,285.143 248.011,280.200 251.266 C 278.000 252.715,275.536 254.238,274.724 254.650 C 268.320 257.903,267.079 258.633,266.391 259.554 C 265.961 260.130,265.388 260.859,265.119 261.175 C 263.392 263.201,264.513 268.170,267.514 271.790 C 275.950 281.969,271.836 299.338,259.400 306.047 C 254.753 308.555,244.990 309.404,238.915 307.830 C 230.621 305.681,225.961 308.697,225.152 316.739 C 223.805 330.126,215.778 338.700,203.600 339.760 C 199.592 340.109,195.802 341.550,191.400 344.399 C 190.740 344.826,189.710 345.453,189.111 345.792 C 188.512 346.132,187.428 346.812,186.702 347.305 C 185.976 347.797,184.054 348.830,182.429 349.600 C 172.392 354.359,171.637 355.046,171.613 359.455 C 171.593 363.205,173.044 365.086,178.200 367.991 C 186.317 372.564,192.745 375.604,199.300 377.970 C 200.565 378.426,202.545 379.141,203.700 379.558 C 219.595 385.299,247.588 388.579,262.000 386.389 C 263.430 386.171,265.950 385.815,267.600 385.597 C 272.264 384.980,279.631 383.593,281.400 382.999 C 282.280 382.703,283.630 382.338,284.400 382.188 C 286.486 381.781,291.824 380.166,295.000 378.979 C 296.540 378.404,298.610 377.679,299.600 377.367 C 300.590 377.056,301.760 376.635,302.200 376.433 C 305.166 375.067,315.109 370.286,315.600 369.989 C 315.930 369.790,317.820 368.684,319.800 367.530 C 321.780 366.377,323.749 365.111,324.175 364.717 C 324.602 364.323,325.098 364.000,325.277 364.000 C 325.592 364.000,330.792 360.504,331.200 360.018 C 331.310 359.887,332.717 358.814,334.326 357.633 C 341.686 352.232,353.363 340.853,358.143 334.423 C 359.052 333.200,359.891 332.110,360.008 332.000 C 360.459 331.575,364.401 326.073,366.059 323.554 C 368.909 319.222,373.598 311.328,373.602 310.854 C 373.603 310.714,374.771 308.260,376.197 305.400 C 377.622 302.540,378.793 299.930,378.797 299.600 C 378.801 299.270,379.092 298.460,379.442 297.800 C 379.792 297.140,380.316 295.880,380.606 295.000 C 380.896 294.120,381.601 292.140,382.172 290.600 C 382.743 289.060,383.467 286.720,383.781 285.400 C 384.094 284.080,384.817 281.290,385.386 279.200 C 385.956 277.110,386.691 273.517,387.018 271.216 C 387.346 268.915,387.782 266.395,387.988 265.616 C 390.361 256.625,390.163 233.673,387.625 223.605 C 387.431 222.832,387.156 221.120,387.014 219.800 C 386.873 218.480,386.515 216.500,386.219 215.400 C 385.924 214.300,385.563 212.680,385.417 211.800 C 385.271 210.920,384.894 209.300,384.579 208.200 C 384.265 207.100,383.729 205.120,383.390 203.800 C 380.985 194.454,377.807 185.165,373.469 174.800 C 372.686 172.930,371.607 170.351,371.071 169.068 C 370.535 167.786,369.895 166.535,369.648 166.288 C 369.402 166.042,369.200 165.603,369.200 165.313 C 369.200 165.023,368.772 163.934,368.249 162.893 C 367.727 161.852,366.406 159.200,365.315 157.000 C 361.296 148.895,356.116 139.378,354.974 138.000 C 354.700 137.670,353.910 136.320,353.218 135.000 C 352.526 133.680,351.161 131.340,350.186 129.800 C 349.210 128.260,348.182 126.550,347.901 126.000 C 347.620 125.450,346.853 124.210,346.195 123.245 C 343.817 119.754,342.008 116.976,341.359 115.820 C 340.994 115.170,340.495 114.431,340.248 114.176 C 340.002 113.922,339.350 112.957,338.800 112.032 C 338.250 111.107,337.080 109.381,336.200 108.197 C 335.320 107.013,333.700 104.747,332.600 103.161 C 327.527 95.847,322.565 89.323,313.492 78.037 C 305.280 67.821,300.748 62.304,298.783 60.129 C 296.864 58.006,290.448 50.835,289.083 49.286 C 283.346 42.779,265.246 24.233,257.141 16.558 C 251.877 11.573,249.043 10.589,245.294 12.445 M19.506 168.258 C 18.904 168.365,17.599 169.265,16.606 170.258 L 14.800 172.063 14.800 175.770 L 14.800 179.477 16.246 180.966 C 17.991 182.762,18.456 182.949,22.800 183.587 C 29.633 184.592,30.435 184.797,33.490 186.324 C 35.200 187.179,38.105 188.905,39.944 190.159 C 41.783 191.413,44.287 192.972,45.508 193.624 C 46.729 194.275,47.925 194.972,48.167 195.173 C 51.277 197.754,66.423 200.030,72.800 198.875 C 76.830 198.145,80.970 197.157,81.387 196.825 C 81.614 196.645,82.250 196.361,82.800 196.193 C 84.211 195.763,90.725 192.110,92.400 190.810 C 93.170 190.213,94.340 189.420,95.000 189.050 C 95.660 188.679,96.740 188.024,97.400 187.594 C 98.060 187.164,99.050 186.628,99.600 186.403 C 100.150 186.178,101.050 185.745,101.600 185.441 C 108.373 181.691,120.482 183.707,129.944 190.159 C 131.783 191.413,134.287 192.972,135.508 193.624 C 136.729 194.275,137.925 194.972,138.167 195.173 C 143.036 199.214,166.875 200.391,171.400 196.814 C 171.620 196.640,172.250 196.361,172.800 196.193 C 174.211 195.763,180.725 192.110,182.400 190.810 C 183.170 190.213,184.340 189.420,185.000 189.050 C 185.660 188.679,186.740 188.024,187.400 187.594 C 188.060 187.164,189.050 186.628,189.600 186.403 C 190.150 186.178,191.067 185.732,191.638 185.411 C 192.209 185.091,194.009 184.632,195.638 184.391 C 204.862 183.031,205.497 182.839,207.202 180.903 C 210.496 177.161,209.730 171.747,205.525 169.045 C 200.984 166.127,184.259 169.849,177.350 175.316 C 170.021 181.115,164.571 183.180,156.600 183.180 C 148.794 183.180,146.567 182.421,138.377 176.967 C 126.709 169.197,117.549 166.822,105.200 168.366 C 100.028 169.013,90.867 172.545,87.507 175.187 C 86.196 176.219,81.140 179.600,80.909 179.600 C 80.807 179.600,80.246 179.929,79.662 180.332 C 76.319 182.637,69.695 183.722,62.714 183.110 C 57.885 182.686,55.415 181.609,47.800 176.609 C 37.312 169.723,27.529 166.836,19.506 168.258 M19.845 215.393 C 18.616 215.740,17.311 216.510,16.332 217.466 L 14.774 218.988 14.887 222.950 L 15.000 226.913 16.885 228.509 C 18.710 230.054,18.913 230.122,23.285 230.628 C 30.718 231.489,32.517 232.181,39.600 236.905 C 58.345 249.407,74.496 249.559,92.977 237.407 C 100.851 232.229,102.557 231.555,110.113 230.634 C 118.688 229.590,122.245 223.139,117.289 217.620 C 113.655 213.573,97.153 215.005,91.569 219.852 C 91.221 220.153,90.771 220.400,90.569 220.401 C 90.366 220.401,89.163 221.121,87.896 222.001 C 86.628 222.880,85.496 223.600,85.379 223.600 C 85.262 223.600,84.229 224.285,83.083 225.122 C 72.855 232.593,60.624 232.285,49.048 224.263 C 41.362 218.937,34.266 215.982,27.800 215.413 C 26.260 215.277,24.280 215.093,23.400 215.004 C 22.520 214.915,20.920 215.090,19.845 215.393 M195.600 215.423 C 193.070 215.716,190.280 216.228,189.400 216.560 C 188.520 216.893,187.578 217.173,187.306 217.182 C 186.857 217.198,184.409 218.344,180.834 220.211 C 180.082 220.604,177.518 222.230,175.134 223.826 C 168.197 228.472,164.747 229.849,158.712 230.383 C 149.664 231.183,145.715 238.388,151.346 243.825 C 156.426 248.731,170.131 245.975,182.800 237.500 C 196.091 228.609,206.508 228.202,218.394 236.109 C 220.047 237.209,222.120 238.588,223.000 239.174 C 235.430 247.447,251.399 248.446,265.600 241.839 C 267.305 241.046,267.443 240.962,273.283 237.117 C 280.524 232.352,283.485 231.213,290.200 230.613 C 296.726 230.029,299.703 226.890,299.008 221.325 C 298.119 214.212,286.107 212.887,274.000 218.567 C 271.578 219.703,271.246 219.895,267.887 222.089 C 266.616 222.920,265.491 223.600,265.388 223.600 C 265.286 223.600,264.308 224.242,263.216 225.027 C 252.703 232.580,240.583 232.293,228.800 224.212 C 227.150 223.081,225.530 222.022,225.200 221.859 C 224.870 221.695,223.880 221.128,223.000 220.599 C 217.703 217.410,213.810 216.142,207.000 215.386 C 201.045 214.726,201.641 214.724,195.600 215.423 M19.600 262.409 C 15.780 263.700,14.797 265.195,14.813 269.694 C 14.832 275.329,16.689 276.975,23.723 277.593 C 27.794 277.951,32.383 279.150,33.600 280.174 C 33.930 280.451,34.532 280.797,34.938 280.941 C 35.344 281.086,37.684 282.529,40.138 284.149 C 56.197 294.749,71.540 296.187,74.021 287.323 C 75.551 281.859,72.223 278.159,65.073 277.373 C 59.863 276.800,58.271 276.388,55.000 274.764 C 52.411 273.479,51.913 273.185,49.429 271.485 C 45.996 269.136,44.753 268.369,42.120 266.973 C 40.624 266.179,39.220 265.396,39.000 265.232 C 38.101 264.560,33.032 263.136,29.727 262.626 C 23.324 261.638,21.966 261.609,19.600 262.409 M109.705 262.274 C 104.399 263.859,102.315 270.055,105.664 274.286 C 107.435 276.524,109.170 277.251,113.577 277.603 C 117.033 277.879,120.439 278.644,122.600 279.629 C 123.507 280.043,124.100 280.398,127.200 282.380 C 128.410 283.153,129.689 283.970,130.043 284.193 C 130.396 284.417,131.386 285.069,132.243 285.642 C 138.735 289.986,144.682 292.074,152.600 292.791 C 164.031 293.825,172.037 291.551,183.600 283.989 C 192.301 278.297,193.733 277.805,201.600 277.802 C 207.906 277.800,209.894 278.208,214.600 280.473 C 217.212 281.730,217.432 281.856,220.990 284.162 C 238.120 295.262,255.402 296.023,256.312 285.717 C 256.732 280.971,253.419 278.049,246.830 277.353 C 242.192 276.864,237.737 275.814,236.800 274.990 C 236.470 274.700,235.712 274.341,235.116 274.192 C 234.520 274.043,233.823 273.669,233.567 273.361 C 233.311 273.052,232.935 272.800,232.732 272.800 C 232.528 272.800,231.245 272.052,229.881 271.138 C 214.583 260.889,196.184 258.894,183.060 266.061 C 181.927 266.680,180.626 267.353,180.168 267.558 C 179.710 267.762,177.851 268.939,176.037 270.175 C 166.924 276.380,161.265 278.140,153.400 277.214 C 150.304 276.850,145.916 275.710,145.592 275.187 C 145.477 275.001,144.874 274.656,144.251 274.420 C 143.277 274.049,140.636 272.459,137.800 270.534 C 134.843 268.528,133.714 267.846,130.929 266.386 C 126.917 264.282,123.872 263.264,119.613 262.603 C 113.569 261.665,111.927 261.610,109.705 262.274 M18.594 309.648 C 15.474 311.307,14.835 312.496,14.816 316.675 C 14.792 322.124,17.303 324.217,24.400 324.664 C 28.962 324.952,35.577 327.563,39.200 330.507 C 39.804 330.998,40.907 331.758,41.650 332.196 C 42.392 332.634,43.990 333.581,45.200 334.300 C 46.410 335.020,48.030 335.881,48.800 336.214 C 49.570 336.548,50.482 336.976,50.826 337.167 C 54.789 339.365,70.187 340.691,75.400 339.284 C 76.280 339.047,77.997 338.603,79.215 338.299 C 82.186 337.555,88.002 334.577,93.385 331.042 C 99.547 326.996,99.439 327.054,103.000 325.831 C 111.176 323.024,122.471 325.039,129.200 330.507 C 129.804 330.998,130.907 331.758,131.650 332.196 C 132.392 332.634,133.990 333.577,135.200 334.293 C 139.424 336.791,141.293 337.531,147.800 339.285 C 149.899 339.851,163.338 339.843,165.400 339.275 C 166.280 339.033,168.095 338.560,169.433 338.225 C 172.507 337.454,177.735 334.740,183.446 330.951 C 185.891 329.328,188.037 328.000,188.215 328.000 C 188.392 328.000,188.821 327.760,189.169 327.466 C 190.429 326.402,195.081 325.067,198.600 324.760 C 206.145 324.103,209.200 321.663,209.200 316.293 C 209.200 305.668,192.694 306.223,175.600 317.422 C 161.405 326.723,151.893 326.824,138.400 317.817 C 135.870 316.128,132.270 314.019,130.400 313.129 C 128.530 312.239,126.696 311.356,126.325 311.168 C 123.993 309.982,116.629 308.800,111.578 308.800 C 101.751 308.800,94.665 311.191,85.064 317.746 C 72.231 326.508,61.958 326.659,49.096 318.276 C 42.852 314.207,42.432 313.950,40.400 312.949 C 32.907 309.258,22.336 307.658,18.594 309.648 " stroke="none" fill="#04ac9c" fill-rule="evenodd"></path></g></svg>