<svg id="SvgjsSvg1031" width="288" height="288" xmlns="http://www.w3.org/2000/svg" version="1.1" xmlns:xlink="http://www.w3.org/1999/xlink" xmlns:svgjs="http://svgjs.com/svgjs"><defs id="SvgjsDefs1032"></defs><g id="SvgjsG1033"><svg xmlns="http://www.w3.org/2000/svg" width="288" height="288" viewBox="0 0 400 400"><path fill-rule="evenodd" d="M108.800 11.991 C 104.847 12.275,101.572 12.975,100.200 13.829 C 99.760 14.103,97.960 14.719,96.200 15.197 C 94.440 15.676,92.363 16.479,91.585 16.983 C 90.807 17.487,89.146 18.367,87.895 18.939 C 86.644 19.512,85.296 20.304,84.899 20.701 C 84.503 21.097,83.193 22.027,81.989 22.767 C 80.785 23.507,79.374 24.492,78.854 24.956 C 77.095 26.525,72.203 31.663,71.830 32.334 C 71.626 32.700,70.969 33.450,70.370 34.000 C 69.771 34.550,68.834 35.720,68.288 36.600 C 67.741 37.480,66.918 38.627,66.458 39.149 C 65.997 39.672,65.243 41.112,64.783 42.349 C 64.322 43.587,63.446 45.410,62.837 46.400 C 61.697 48.252,61.299 49.433,60.240 54.113 C 59.902 55.605,59.353 57.405,59.021 58.113 C 57.167 62.059,57.200 59.497,57.200 200.995 C 57.200 338.673,57.229 341.396,58.737 343.356 C 59.204 343.963,60.280 347.451,60.603 349.400 C 61.046 352.078,61.639 353.699,63.017 356.000 C 63.742 357.210,64.468 358.740,64.631 359.400 C 64.911 360.535,65.694 362.005,66.595 363.086 C 67.579 364.266,67.878 364.686,68.740 366.092 C 69.244 366.913,70.318 368.323,71.128 369.227 C 74.091 372.532,78.669 377.200,78.947 377.200 C 79.105 377.200,79.631 377.582,80.117 378.049 C 81.240 379.129,85.033 381.600,85.567 381.600 C 85.790 381.600,86.585 382.138,87.333 382.795 C 88.082 383.452,89.997 384.431,91.589 384.969 C 93.181 385.508,95.147 386.388,95.957 386.924 C 100.902 390.197,107.189 390.400,203.382 390.400 C 292.434 390.400,294.514 390.362,305.583 388.553 C 308.986 387.997,309.973 387.668,312.000 386.420 C 313.268 385.639,315.335 384.811,316.615 384.571 C 317.348 384.433,318.635 383.742,319.474 383.036 C 320.313 382.329,321.599 381.510,322.330 381.215 C 323.062 380.919,324.142 380.210,324.730 379.639 C 325.319 379.068,326.520 378.108,327.400 377.507 C 329.834 375.844,334.072 371.640,335.572 369.400 C 336.309 368.300,337.126 367.220,337.388 367.000 C 338.276 366.256,342.477 359.898,342.909 358.645 C 343.146 357.960,343.865 356.410,344.507 355.200 C 346.055 352.287,346.834 349.413,348.305 341.200 C 349.351 335.357,349.369 126.817,348.324 122.800 C 347.041 117.871,346.506 116.130,345.954 115.091 C 344.184 111.760,341.415 107.200,341.161 107.200 C 340.998 107.200,340.455 106.525,339.954 105.700 C 339.453 104.875,338.358 103.525,337.521 102.700 C 336.685 101.876,336.000 101.039,336.000 100.841 C 336.000 99.924,329.143 92.697,311.625 75.153 C 303.361 66.876,292.010 55.482,286.400 49.833 C 268.890 32.198,261.142 24.928,257.426 22.647 C 256.752 22.233,255.673 21.380,255.028 20.751 C 254.384 20.123,253.498 19.495,253.059 19.355 C 252.620 19.216,252.068 18.941,251.831 18.743 C 251.594 18.546,250.861 17.939,250.203 17.396 C 249.544 16.852,247.834 15.942,246.403 15.374 C 244.971 14.805,243.406 14.086,242.923 13.776 C 239.722 11.716,243.738 11.836,175.600 11.774 C 140.950 11.743,110.890 11.841,108.800 11.991 M225.096 42.234 C 226.910 43.126,228.400 44.582,228.400 45.461 C 228.400 45.758,228.580 46.000,228.800 46.000 C 229.020 46.000,229.200 46.177,229.200 46.394 C 229.200 46.610,229.739 47.899,230.397 49.258 C 232.354 53.297,232.483 55.410,232.760 87.800 C 233.032 119.666,233.007 119.272,234.889 121.261 C 235.170 121.558,236.087 122.656,236.927 123.701 C 237.767 124.745,238.669 125.600,238.933 125.600 C 239.196 125.600,240.084 125.960,240.904 126.400 C 241.725 126.840,242.647 127.200,242.953 127.200 C 243.258 127.200,244.024 127.469,244.654 127.798 C 245.631 128.307,249.165 128.396,268.600 128.404 C 298.633 128.415,310.797 129.189,313.380 131.253 C 317.865 134.839,319.472 137.300,320.014 141.415 C 320.301 143.590,320.389 174.861,320.292 240.000 C 320.140 341.470,320.212 337.890,318.244 341.400 C 317.750 342.280,316.908 344.145,316.373 345.544 C 315.318 348.301,311.293 353.315,309.306 354.345 C 308.698 354.661,307.816 355.329,307.346 355.830 C 306.613 356.612,301.723 359.200,300.977 359.200 C 300.836 359.200,300.154 359.463,299.460 359.785 C 295.537 361.604,295.741 361.600,203.616 361.600 C 113.601 361.600,108.638 361.516,108.071 359.976 C 108.000 359.783,107.306 359.506,106.529 359.360 C 104.655 359.009,100.936 356.998,99.495 355.556 C 98.859 354.920,98.142 354.400,97.902 354.400 C 97.279 354.400,92.066 348.838,91.748 347.836 C 91.602 347.376,91.019 346.280,90.452 345.400 C 86.959 339.981,87.227 351.938,87.210 201.200 C 87.194 54.359,87.081 61.274,89.556 58.000 C 90.139 57.230,90.967 55.880,91.397 55.000 C 92.552 52.636,98.980 46.425,101.711 45.033 C 102.970 44.392,104.000 43.731,104.000 43.566 C 104.000 42.978,108.246 41.838,111.400 41.580 C 120.963 40.795,223.368 41.384,225.096 42.234 M161.800 84.395 L 126.600 84.600 123.212 86.944 C 118.879 89.941,119.268 89.427,116.138 96.328 C 115.386 97.987,115.487 115.892,116.254 116.839 C 116.504 117.148,117.125 118.390,117.635 119.600 C 118.826 122.428,121.780 125.367,124.512 126.444 C 125.659 126.896,126.851 127.476,127.160 127.733 C 127.926 128.369,203.842 128.805,204.698 128.178 C 205.689 127.453,206.067 124.198,205.383 122.281 C 203.134 115.980,203.269 117.251,203.130 101.171 C 202.990 85.032,203.067 85.613,200.918 84.463 C 200.442 84.208,199.366 84.043,198.526 84.095 C 197.687 84.147,181.160 84.282,161.800 84.395 M117.555 172.799 C 115.664 173.799,115.610 174.185,115.604 186.806 C 115.598 201.913,114.638 201.021,130.831 200.949 C 143.983 200.890,143.831 200.915,144.414 198.749 C 144.874 197.040,144.975 175.363,144.529 174.106 C 143.768 171.962,144.007 171.999,131.038 172.018 C 119.983 172.034,118.882 172.098,117.555 172.799 M176.121 172.600 C 173.762 174.252,174.014 199.125,176.404 200.603 C 176.669 200.767,281.322 200.961,288.260 200.810 C 291.061 200.749,291.886 174.852,289.155 172.752 C 287.815 171.722,177.586 171.574,176.121 172.600 M118.600 230.064 C 118.160 230.306,117.350 230.971,116.800 231.541 L 115.800 232.580 115.682 244.390 C 115.547 257.970,115.494 257.547,117.454 258.600 C 119.755 259.837,142.743 259.836,143.980 258.598 C 145.589 256.989,145.125 231.868,143.456 230.199 C 142.700 229.443,119.955 229.320,118.600 230.064 M176.362 230.300 C 174.646 232.438,174.642 232.473,174.756 245.333 C 174.864 257.377,174.887 257.687,175.733 258.533 L 176.600 259.400 232.169 259.504 L 287.738 259.608 289.019 258.731 C 290.608 257.642,290.694 256.772,290.585 242.800 C 290.506 232.659,290.399 231.942,288.717 230.260 C 287.666 229.208,177.207 229.248,176.362 230.300 M117.828 289.614 L 115.800 290.628 115.694 302.529 C 115.577 315.665,115.558 315.549,118.093 316.690 C 120.708 317.866,143.233 317.443,144.171 316.200 C 145.203 314.833,145.081 291.236,144.036 289.944 L 143.272 289.000 131.564 288.800 L 119.855 288.600 117.828 289.614 M175.781 289.858 C 175.241 290.441,174.792 291.026,174.781 291.158 C 174.771 291.291,174.751 296.776,174.738 303.347 L 174.713 315.295 175.660 316.242 L 176.607 317.189 232.404 317.222 L 288.200 317.256 289.400 316.128 L 290.600 315.000 290.559 303.284 C 290.515 290.789,290.416 290.100,288.537 289.244 C 287.838 288.925,271.917 288.800,232.162 288.800 L 176.762 288.800 175.781 289.858 " fill="#01a89e" class="color000 svgShape"></path></svg></g></svg>