<svg id="SvgjsSvg1041" width="288" height="288" xmlns="http://www.w3.org/2000/svg" version="1.1" xmlns:xlink="http://www.w3.org/1999/xlink" xmlns:svgjs="http://svgjs.com/svgjs"><defs id="SvgjsDefs1042"></defs><g id="SvgjsG1043"><svg xmlns="http://www.w3.org/2000/svg" width="288" height="288" viewBox="0 0 400 400"><path fill="#01a89e" fill-rule="evenodd" d="M178.000 18.683 C 174.236 19.954,172.503 20.710,172.188 21.219 C 172.053 21.438,170.651 22.236,169.071 22.993 C 167.492 23.750,165.625 24.916,164.922 25.584 C 164.219 26.253,163.456 26.800,163.226 26.800 C 162.815 26.800,159.432 29.663,156.918 32.138 C 156.213 32.832,155.320 33.670,154.934 34.000 C 154.547 34.330,153.774 35.112,153.216 35.737 C 152.657 36.362,151.525 37.591,150.700 38.469 C 149.875 39.346,149.200 40.201,149.200 40.369 C 149.200 40.538,148.296 41.709,147.191 42.971 C 146.086 44.234,144.845 45.927,144.434 46.734 C 144.022 47.540,143.287 48.560,142.800 49.000 C 142.313 49.440,141.554 50.520,141.113 51.400 C 140.673 52.280,139.900 53.450,139.397 54.000 C 138.418 55.070,136.803 57.923,136.796 58.594 C 136.794 58.817,136.164 59.790,135.396 60.756 C 134.628 61.722,134.000 62.837,134.000 63.233 C 134.000 63.629,133.840 64.052,133.644 64.173 C 133.449 64.294,133.172 64.859,133.029 65.429 C 132.885 65.999,132.171 67.333,131.441 68.395 C 130.711 69.456,129.897 71.187,129.631 72.243 C 129.365 73.298,128.628 74.932,127.992 75.874 C 126.857 77.555,125.600 80.671,125.600 81.802 C 125.600 82.344,124.304 84.918,123.583 85.810 C 122.367 87.313,121.989 89.932,122.708 91.868 L 123.425 93.800 152.378 93.903 C 177.841 93.993,181.412 93.932,182.004 93.396 C 183.610 91.943,183.657 90.858,183.638 55.073 L 183.621 20.625 182.710 19.239 C 181.553 17.477,181.569 17.479,178.000 18.683 M202.805 18.320 C 202.258 18.408,201.313 18.835,200.705 19.267 L 199.600 20.054 199.600 55.289 L 199.600 90.524 200.616 91.857 C 201.175 92.590,202.003 93.388,202.456 93.630 C 203.319 94.092,258.079 94.196,259.897 93.740 C 261.094 93.440,261.125 90.896,259.978 87.228 C 259.525 85.783,258.969 83.970,258.740 83.200 C 258.512 82.430,257.840 81.080,257.246 80.200 C 256.653 79.320,255.772 77.218,255.289 75.529 C 254.807 73.840,253.868 71.652,253.204 70.668 C 252.539 69.683,251.878 68.275,251.733 67.539 C 251.462 66.149,250.704 64.749,249.513 63.435 C 249.131 63.014,248.607 62.024,248.348 61.235 C 247.863 59.755,246.477 57.356,245.535 56.364 C 245.241 56.054,244.471 54.725,243.825 53.411 C 243.178 52.097,242.259 50.657,241.782 50.211 C 241.305 49.765,240.595 48.770,240.204 48.000 C 239.813 47.230,238.842 45.862,238.046 44.961 C 237.251 44.059,235.714 42.169,234.630 40.761 C 229.952 34.679,216.531 22.800,214.338 22.800 C 214.160 22.800,212.838 22.080,211.400 21.200 C 209.962 20.320,208.526 19.600,208.208 19.600 C 207.890 19.600,206.768 19.276,205.715 18.880 C 204.662 18.483,203.352 18.232,202.805 18.320 M135.308 25.371 C 133.497 26.117,131.254 26.856,130.323 27.013 C 129.392 27.170,128.354 27.445,128.015 27.623 C 125.553 28.918,122.199 30.381,121.173 30.606 C 120.498 30.754,119.463 31.127,118.873 31.435 C 118.283 31.743,117.575 31.996,117.300 31.998 C 117.025 31.999,116.800 32.138,116.800 32.306 C 116.800 32.637,113.616 34.174,112.000 34.623 C 111.450 34.776,110.226 35.418,109.280 36.050 C 108.334 36.683,107.389 37.200,107.180 37.200 C 106.971 37.200,106.800 37.360,106.800 37.557 C 106.800 37.753,106.318 38.034,105.730 38.182 C 105.141 38.330,103.665 39.111,102.449 39.917 C 101.234 40.724,99.373 41.786,98.313 42.277 C 97.254 42.768,95.805 43.604,95.093 44.135 C 94.382 44.666,93.170 45.392,92.400 45.749 C 91.630 46.106,90.332 46.993,89.516 47.720 C 88.700 48.447,87.233 49.441,86.256 49.929 C 85.279 50.417,84.382 51.071,84.263 51.381 C 84.143 51.692,83.090 52.570,81.923 53.332 C 80.755 54.095,79.313 55.187,78.717 55.759 C 78.122 56.332,77.492 56.802,77.317 56.805 C 77.143 56.808,76.190 57.553,75.200 58.461 C 74.210 59.368,72.070 61.301,70.444 62.756 C 65.218 67.431,56.338 76.496,52.572 81.000 C 51.285 82.540,50.000 84.038,49.716 84.329 C 49.432 84.619,49.200 85.004,49.200 85.184 C 49.200 85.364,48.390 86.332,47.400 87.336 C 45.822 88.937,45.600 89.377,45.600 90.905 C 45.600 94.297,43.136 94.028,74.140 94.028 L 101.671 94.029 103.208 92.714 C 104.982 91.198,106.583 88.195,107.000 85.600 C 107.160 84.610,107.969 82.360,108.799 80.600 C 109.629 78.840,110.436 76.803,110.592 76.073 C 110.748 75.343,111.127 74.263,111.435 73.673 C 111.743 73.083,111.996 72.375,111.998 72.100 C 111.999 71.825,112.146 71.600,112.325 71.600 C 112.691 71.600,114.221 68.262,114.648 66.532 C 114.802 65.909,115.327 64.763,115.815 63.985 C 116.866 62.310,118.400 59.015,118.400 58.434 C 118.400 57.842,119.940 55.188,121.049 53.869 C 121.572 53.247,122.000 52.480,122.000 52.164 C 122.000 51.501,122.707 50.155,123.661 49.000 C 124.024 48.560,124.901 47.120,125.609 45.800 C 126.316 44.480,127.317 42.977,127.833 42.460 C 128.349 41.943,129.256 40.683,129.848 39.660 C 130.441 38.637,131.393 37.243,131.963 36.563 C 132.533 35.883,133.270 34.900,133.600 34.378 C 133.930 33.856,135.145 32.417,136.300 31.179 C 137.455 29.941,138.400 28.640,138.400 28.287 C 138.400 27.935,138.569 27.543,138.775 27.416 C 139.566 26.926,140.320 24.880,139.873 24.433 C 139.249 23.809,138.952 23.870,135.308 25.371 M244.872 24.450 C 244.246 24.683,244.009 25.023,244.142 25.497 C 244.251 25.884,244.455 26.773,244.596 27.473 C 244.738 28.179,245.654 29.606,246.651 30.673 C 250.319 34.601,250.686 35.034,251.697 36.636 C 252.265 37.536,253.008 38.550,253.348 38.890 C 253.688 39.230,254.507 40.564,255.168 41.854 C 255.830 43.144,257.008 44.908,257.786 45.773 C 258.564 46.638,259.200 47.540,259.200 47.779 C 259.200 48.272,260.760 51.297,261.171 51.600 C 261.661 51.962,263.200 54.684,263.200 55.189 C 263.200 55.461,263.758 56.511,264.441 57.523 C 265.123 58.534,266.174 60.630,266.775 62.181 C 267.377 63.731,268.348 65.700,268.934 66.555 C 269.519 67.410,270.190 68.850,270.424 69.755 C 271.065 72.237,272.072 74.800,272.405 74.800 C 272.863 74.800,274.268 78.400,274.555 80.305 C 274.696 81.243,275.528 83.403,276.405 85.105 C 277.281 86.807,277.999 88.540,277.999 88.956 C 278.001 90.509,279.638 93.053,280.938 93.522 C 282.572 94.111,337.513 94.247,338.096 93.664 C 338.785 92.975,338.026 89.279,337.037 88.499 C 336.548 88.115,335.809 87.260,335.393 86.600 C 334.440 85.086,331.744 81.893,326.400 75.951 C 324.363 73.687,316.122 65.483,312.800 62.414 C 311.590 61.296,309.849 59.666,308.931 58.791 C 308.014 57.916,307.065 57.200,306.824 57.200 C 306.583 57.200,305.804 56.608,305.093 55.884 C 304.382 55.160,303.080 54.138,302.200 53.612 C 301.320 53.085,299.933 52.065,299.118 51.345 C 298.303 50.624,296.899 49.659,295.999 49.199 C 295.098 48.740,294.269 48.125,294.157 47.833 C 294.045 47.541,293.019 46.803,291.877 46.194 C 290.735 45.585,289.245 44.676,288.567 44.174 C 287.889 43.672,286.089 42.592,284.567 41.774 C 283.045 40.956,281.710 40.156,281.600 39.997 C 281.490 39.838,280.384 39.229,279.143 38.645 C 277.902 38.061,276.282 37.181,275.543 36.691 C 273.789 35.527,272.688 34.999,269.900 33.981 C 268.635 33.520,267.366 32.909,267.081 32.624 C 266.796 32.339,266.121 31.970,265.581 31.804 C 265.042 31.638,264.420 31.365,264.200 31.197 C 263.980 31.030,263.177 30.759,262.416 30.596 C 261.655 30.433,260.074 29.781,258.903 29.148 C 257.732 28.514,255.475 27.623,253.887 27.167 C 252.299 26.711,250.370 26.154,249.600 25.929 C 248.830 25.704,247.930 25.296,247.600 25.021 C 246.662 24.240,245.878 24.076,244.872 24.450 M34.030 110.384 C 32.209 111.105,30.800 112.450,30.800 113.466 C 30.800 114.428,29.261 117.493,28.208 118.629 C 27.663 119.217,27.102 120.351,26.960 121.149 C 26.818 121.947,26.301 123.410,25.810 124.400 C 25.320 125.390,24.559 126.920,24.119 127.800 C 23.680 128.680,23.003 130.750,22.616 132.400 C 22.228 134.050,21.771 135.580,21.598 135.800 C 20.100 137.715,19.486 139.590,18.391 145.600 C 18.211 146.590,17.623 148.220,17.084 149.222 C 16.144 150.973,15.678 153.322,14.391 162.791 C 14.138 164.656,13.764 166.494,13.559 166.877 C 11.930 169.920,11.378 184.513,12.842 185.838 C 13.655 186.574,14.927 186.604,49.876 186.706 L 86.069 186.813 87.615 185.944 C 89.603 184.826,89.934 183.416,90.416 174.000 C 90.613 170.150,90.958 165.110,91.181 162.800 C 91.404 160.490,91.778 156.170,92.011 153.200 C 92.483 147.194,93.082 142.842,94.376 136.000 C 94.855 133.470,95.412 130.050,95.616 128.400 C 96.095 124.503,96.714 121.550,97.647 118.698 C 98.061 117.433,98.400 116.048,98.400 115.622 C 98.400 115.196,98.580 114.736,98.800 114.600 C 99.484 114.177,99.240 111.979,98.373 110.762 L 97.546 109.600 66.673 109.641 C 38.256 109.680,35.659 109.739,34.030 110.384 M117.729 110.325 C 115.674 111.100,115.257 111.923,114.543 116.600 C 114.241 118.580,113.525 121.640,112.952 123.400 C 112.379 125.160,111.764 127.680,111.586 129.000 C 110.580 136.438,110.332 138.105,109.770 141.200 C 109.430 143.070,108.981 145.050,108.772 145.600 C 108.116 147.327,106.526 166.918,106.140 178.036 L 105.896 185.071 107.110 185.936 L 108.323 186.800 144.862 186.791 C 180.272 186.782,181.431 186.759,182.400 186.014 L 183.400 185.246 183.600 148.923 L 183.800 112.600 182.756 111.200 L 181.712 109.800 150.556 109.747 C 123.071 109.700,119.203 109.768,117.729 110.325 M201.400 110.733 L 199.800 111.839 199.800 148.419 L 199.800 185.000 201.600 185.884 L 203.400 186.767 239.646 186.784 C 283.046 186.803,278.004 187.738,277.992 179.671 C 277.983 173.895,277.092 163.160,276.447 161.050 C 275.891 159.235,274.876 150.716,274.401 143.877 C 274.145 140.180,273.675 136.873,273.152 135.077 C 271.904 130.789,270.930 126.147,270.619 123.000 C 270.217 118.928,269.432 116.406,267.258 112.200 C 265.828 109.432,268.348 109.627,234.000 109.627 L 203.000 109.627 201.400 110.733 M285.995 110.866 C 284.936 111.926,284.770 112.335,284.983 113.366 C 285.123 114.045,285.485 116.310,285.787 118.400 C 286.500 123.326,287.106 126.402,287.563 127.400 C 288.593 129.655,289.223 132.814,289.606 137.648 C 290.144 144.456,290.887 150.211,291.957 155.872 C 292.631 159.440,292.864 162.770,293.108 172.351 C 293.395 183.652,293.463 184.425,294.250 185.480 L 295.086 186.600 331.543 186.702 L 368.000 186.804 369.851 185.934 L 371.703 185.063 371.465 181.632 C 370.709 170.752,369.434 161.134,368.225 157.200 C 367.537 154.961,366.738 151.557,365.972 147.600 C 365.535 145.348,364.098 140.918,363.571 140.200 C 363.410 139.980,362.816 138.110,362.251 136.044 C 361.687 133.978,360.794 131.458,360.266 130.444 C 359.739 129.430,358.745 126.945,358.059 124.922 C 357.372 122.899,356.268 120.389,355.605 119.344 C 354.942 118.299,354.400 117.161,354.400 116.816 C 354.400 115.670,352.724 113.023,350.908 111.300 L 349.116 109.600 318.189 109.600 L 287.262 109.600 285.995 110.866 M14.400 202.291 C 11.119 202.888,10.935 211.558,13.943 223.800 C 14.160 224.680,14.455 226.660,14.600 228.200 C 15.055 233.029,16.043 237.694,17.055 239.785 C 17.926 241.585,18.590 244.190,19.394 248.952 C 19.538 249.806,20.095 251.200,20.632 252.051 C 21.710 253.758,22.591 256.157,23.033 258.586 C 23.191 259.458,23.737 260.898,24.245 261.786 C 25.733 264.387,26.653 266.501,26.945 267.994 C 27.095 268.761,27.742 270.041,28.382 270.838 C 29.023 271.635,29.858 273.257,30.239 274.443 C 31.192 277.416,31.533 277.821,34.234 279.190 L 36.600 280.390 66.838 280.395 C 95.152 280.400,97.113 280.355,97.655 279.700 C 99.386 277.609,99.468 276.621,98.246 272.600 C 96.625 267.263,96.311 265.902,95.801 262.000 C 95.498 259.690,94.875 255.820,94.416 253.400 C 92.678 244.249,91.795 236.199,90.793 220.400 C 89.722 203.496,89.800 203.922,87.589 202.794 C 86.110 202.040,18.340 201.574,14.400 202.291 M107.100 202.846 C 106.034 203.641,106.000 203.786,105.990 207.533 C 105.966 217.145,107.809 238.187,109.410 246.600 C 109.980 249.589,110.478 252.766,111.608 260.600 C 111.862 262.360,112.212 263.980,112.386 264.200 C 112.917 264.869,113.909 268.816,114.399 272.200 C 115.080 276.906,115.713 278.138,118.083 279.367 L 120.074 280.400 150.693 280.400 C 184.862 280.400,181.587 280.683,183.109 277.600 C 183.753 276.295,183.786 273.723,183.600 239.877 L 183.400 203.554 182.400 202.786 C 180.778 201.540,108.773 201.597,107.100 202.846 M201.940 202.724 C 201.137 203.085,200.294 203.678,200.067 204.042 C 199.540 204.885,199.320 277.484,199.842 277.992 C 200.046 278.191,201.047 278.045,202.172 277.654 C 204.341 276.898,204.231 277.096,205.432 271.800 C 206.458 267.272,210.267 262.169,215.000 258.981 C 215.880 258.388,216.656 257.756,216.725 257.577 C 216.793 257.398,217.422 256.475,218.121 255.526 C 219.363 253.840,220.289 250.470,220.368 247.352 C 220.417 245.427,221.921 241.133,222.940 240.009 C 223.443 239.454,224.153 238.518,224.518 237.929 C 225.451 236.420,237.472 224.800,238.099 224.800 C 238.274 224.800,239.179 224.125,240.109 223.300 C 241.039 222.475,242.430 221.450,243.200 221.022 C 243.970 220.595,244.854 219.994,245.164 219.687 C 246.005 218.855,248.466 217.359,249.571 217.009 C 250.105 216.840,251.005 216.269,251.571 215.740 C 252.137 215.211,254.084 214.213,255.897 213.521 C 257.711 212.830,259.511 211.970,259.897 211.611 C 260.660 210.900,263.653 209.836,266.200 209.368 C 267.080 209.207,269.060 208.399,270.600 207.574 C 272.140 206.749,274.063 205.949,274.874 205.797 C 277.159 205.369,278.000 204.223,276.864 203.086 L 275.978 202.200 239.689 202.134 C 206.827 202.074,203.262 202.130,201.940 202.724 M295.341 202.397 C 293.834 203.005,293.856 205.594,295.368 205.602 C 295.605 205.604,296.296 205.864,296.902 206.180 C 299.873 207.730,302.613 208.036,304.504 207.031 C 306.145 206.158,307.051 205.879,312.100 204.690 C 315.091 203.985,314.682 203.603,309.859 202.597 C 306.737 201.946,296.799 201.809,295.341 202.397 M326.000 202.453 C 322.701 203.127,320.774 203.708,321.022 203.955 C 321.334 204.268,324.762 205.134,327.600 205.618 C 330.083 206.041,334.000 207.249,334.000 207.592 C 334.000 208.047,336.666 209.171,339.200 209.785 C 340.630 210.131,342.520 210.910,343.400 211.515 C 344.280 212.121,346.305 213.123,347.900 213.743 C 349.495 214.363,350.800 215.014,350.800 215.189 C 350.800 215.364,351.990 216.099,353.444 216.822 C 354.898 217.545,356.780 218.715,357.627 219.423 C 360.256 221.619,363.956 221.925,367.600 220.248 C 368.729 219.729,370.788 215.959,370.795 214.400 C 370.798 213.850,371.067 212.140,371.393 210.600 C 373.281 201.688,374.103 201.986,347.787 202.043 C 336.794 202.066,326.990 202.251,326.000 202.453 M282.600 220.406 C 276.141 221.466,274.362 221.932,272.760 222.985 C 271.968 223.506,270.528 224.144,269.560 224.403 C 268.592 224.663,267.487 225.038,267.105 225.237 C 266.723 225.437,266.170 225.600,265.876 225.600 C 265.582 225.600,264.455 226.230,263.372 227.000 C 262.289 227.770,261.211 228.400,260.976 228.400 C 260.255 228.400,257.459 229.904,256.330 230.899 C 255.741 231.418,254.579 232.193,253.747 232.621 C 252.916 233.049,251.738 233.895,251.131 234.500 C 250.524 235.105,249.853 235.600,249.641 235.600 C 249.102 235.600,242.181 241.744,240.000 244.158 C 239.010 245.254,237.885 246.427,237.500 246.764 C 237.115 247.102,236.800 247.593,236.800 247.856 C 236.800 248.118,236.602 248.399,236.361 248.480 C 234.330 249.157,235.936 256.291,238.744 259.062 C 242.658 262.925,241.573 269.233,236.673 271.099 C 234.547 271.909,234.511 271.908,228.717 270.993 C 225.523 270.489,221.219 273.340,220.556 276.400 C 220.437 276.950,219.886 278.336,219.332 279.480 C 215.049 288.325,214.673 320.062,218.783 325.800 C 218.941 326.020,219.492 327.370,220.008 328.800 C 222.204 334.880,224.274 336.090,230.966 335.204 C 233.694 334.843,235.106 334.818,235.895 335.117 C 236.503 335.347,237.479 335.639,238.064 335.766 C 241.600 336.534,241.937 344.139,238.598 347.820 C 235.723 350.989,234.315 357.238,236.324 357.908 C 236.586 357.995,236.805 358.277,236.812 358.533 C 236.836 359.455,245.991 368.411,248.952 370.410 C 249.905 371.053,250.923 371.867,251.215 372.219 C 251.507 372.570,252.389 373.189,253.173 373.594 C 253.958 373.998,255.217 374.885,255.972 375.565 C 256.727 376.244,257.517 376.800,257.728 376.800 C 258.187 376.800,261.714 378.492,262.000 378.850 C 262.409 379.361,265.412 380.800,266.070 380.800 C 266.446 380.800,266.852 380.960,266.973 381.156 C 267.094 381.351,267.683 381.635,268.283 381.785 C 268.883 381.936,270.280 382.483,271.387 383.001 C 272.494 383.519,275.380 384.416,277.800 384.994 C 280.220 385.572,282.490 386.200,282.844 386.391 C 284.329 387.189,287.745 386.969,289.415 385.968 C 290.303 385.436,291.383 384.800,291.815 384.556 C 292.531 384.152,293.572 381.753,294.147 379.182 C 294.272 378.622,295.236 377.227,296.289 376.081 C 300.814 371.159,307.039 372.909,309.047 379.668 C 310.568 384.788,316.592 388.414,320.443 386.527 C 320.969 386.269,323.291 385.601,325.603 385.042 C 327.914 384.482,331.478 383.299,333.523 382.412 C 335.567 381.526,337.459 380.800,337.726 380.800 C 338.284 380.800,341.300 379.247,341.600 378.805 C 341.710 378.643,343.195 377.832,344.900 377.004 C 346.605 376.176,348.000 375.363,348.000 375.197 C 348.000 375.031,348.962 374.408,350.139 373.813 C 351.315 373.218,352.997 372.053,353.876 371.225 C 354.756 370.397,356.044 369.383,356.738 368.973 C 357.433 368.563,358.090 367.946,358.199 367.603 C 358.308 367.259,358.783 366.713,359.254 366.389 C 359.725 366.065,360.491 365.401,360.955 364.912 C 361.420 364.424,362.272 363.524,362.850 362.912 C 363.427 362.301,364.282 361.535,364.750 361.212 C 365.217 360.888,365.600 360.420,365.600 360.172 C 365.600 359.923,366.140 358.975,366.800 358.063 C 369.016 355.004,367.965 350.691,364.008 346.608 C 358.399 340.821,364.410 333.449,373.250 335.275 C 376.768 336.001,381.600 334.516,381.600 332.707 C 381.600 332.512,382.139 331.682,382.799 330.861 C 383.996 329.371,384.788 326.661,386.614 317.800 C 386.977 316.040,387.482 313.970,387.737 313.200 C 388.642 310.463,388.287 294.732,387.236 291.000 C 386.740 289.240,386.098 286.630,385.810 285.200 C 384.151 276.974,384.259 277.259,381.620 274.138 C 379.329 271.428,377.188 270.453,374.715 270.991 C 368.127 272.425,363.907 270.913,362.558 266.634 C 361.996 264.851,361.952 264.224,362.331 263.393 C 362.589 262.826,362.800 262.046,362.800 261.660 C 362.800 261.273,363.446 260.337,364.236 259.578 C 365.025 258.820,366.102 257.358,366.628 256.328 C 367.154 255.299,367.777 254.338,368.012 254.193 C 368.719 253.756,367.985 250.387,366.741 248.366 C 366.114 247.346,365.600 246.390,365.600 246.241 C 365.600 245.666,357.367 237.929,355.132 236.403 C 354.324 235.851,353.145 234.936,352.511 234.368 C 351.877 233.800,350.532 232.923,349.522 232.418 C 348.511 231.913,347.260 231.111,346.742 230.636 C 346.224 230.161,344.810 229.354,343.600 228.843 C 342.390 228.332,340.855 227.504,340.189 227.004 C 339.523 226.504,337.453 225.587,335.589 224.966 C 333.725 224.345,331.660 223.445,331.000 222.967 C 329.853 222.136,326.084 221.162,321.800 220.589 C 320.700 220.441,319.464 220.141,319.053 219.922 C 318.353 219.547,317.877 219.616,313.871 220.679 C 312.171 221.130,309.821 224.246,308.840 227.349 C 307.119 232.791,300.667 235.215,297.386 231.651 C 294.878 228.926,294.391 228.166,293.804 226.060 C 292.791 222.419,292.600 222.164,289.899 220.848 C 288.490 220.162,287.261 219.619,287.168 219.642 C 287.076 219.665,285.020 220.009,282.600 220.406 M305.700 280.824 C 306.745 281.031,308.410 281.351,309.399 281.536 C 311.371 281.905,313.750 283.016,314.861 284.086 C 315.252 284.464,316.297 285.230,317.182 285.789 C 318.068 286.348,319.289 287.567,319.896 288.499 C 320.503 289.431,321.405 290.576,321.900 291.043 C 322.395 291.510,322.800 292.024,322.800 292.185 C 322.800 292.347,323.054 293.046,323.364 293.740 C 325.943 299.498,325.046 312.416,321.862 315.381 C 321.379 315.832,320.547 316.920,320.014 317.800 C 319.480 318.680,318.764 319.566,318.422 319.770 C 318.080 319.973,317.187 320.748,316.438 321.491 C 314.754 323.164,313.614 323.751,310.800 324.399 C 309.590 324.677,308.419 325.047,308.197 325.221 C 306.503 326.550,299.736 327.341,298.095 326.403 C 296.895 325.718,293.202 324.400,292.479 324.400 C 291.011 324.400,288.301 322.508,284.339 318.717 C 283.716 318.121,282.553 316.366,281.753 314.817 C 280.954 313.268,280.156 312.000,279.979 312.000 C 277.563 312.000,278.039 296.525,280.537 293.830 C 281.094 293.229,281.657 292.252,281.787 291.660 C 282.078 290.335,285.822 286.301,288.843 284.057 C 292.684 281.203,300.270 279.749,305.700 280.824 M46.300 296.887 C 45.246 298.206,45.417 299.879,46.742 301.204 C 47.371 301.832,48.779 303.483,49.872 304.873 C 50.965 306.263,52.431 308.025,53.130 308.789 C 53.828 309.553,54.400 310.293,54.400 310.433 C 54.400 310.676,57.581 314.036,63.891 320.458 C 65.482 322.076,67.720 324.210,68.865 325.200 C 70.011 326.190,71.860 327.817,72.974 328.816 C 74.088 329.815,75.990 331.370,77.200 332.271 C 78.410 333.173,79.797 334.291,80.283 334.756 C 80.769 335.220,81.363 335.600,81.602 335.600 C 81.842 335.600,82.859 336.410,83.864 337.400 C 84.868 338.390,85.896 339.200,86.148 339.200 C 86.400 339.200,87.594 340.015,88.803 341.012 C 90.011 342.008,91.405 342.927,91.900 343.055 C 92.395 343.182,92.800 343.447,92.800 343.643 C 92.800 343.840,93.060 344.000,93.377 344.000 C 93.695 344.000,94.190 344.336,94.477 344.746 C 94.986 345.471,97.842 347.200,98.532 347.200 C 98.721 347.200,100.083 348.010,101.558 349.000 C 103.034 349.990,104.451 350.800,104.706 350.800 C 104.962 350.800,106.506 351.610,108.137 352.600 C 109.768 353.590,111.709 354.521,112.451 354.668 C 113.193 354.816,114.921 355.621,116.291 356.458 C 117.661 357.295,119.281 358.096,119.891 358.237 C 122.118 358.753,124.800 359.699,124.800 359.969 C 124.800 360.400,127.484 361.449,131.000 362.394 C 132.760 362.867,134.740 363.498,135.400 363.796 C 139.102 365.469,141.868 364.652,139.563 362.567 C 139.103 362.150,138.392 361.117,137.983 360.271 C 137.575 359.425,136.584 358.073,135.781 357.266 C 133.978 355.454,129.200 349.266,129.200 348.744 C 129.200 348.533,128.588 347.730,127.840 346.960 C 127.092 346.190,126.250 344.984,125.968 344.280 C 125.686 343.576,124.705 341.830,123.789 340.400 C 122.872 338.970,122.009 337.336,121.871 336.769 C 121.732 336.202,121.183 335.267,120.651 334.693 C 119.512 333.464,118.566 331.666,118.213 330.060 C 118.075 329.429,117.334 327.942,116.567 326.756 C 115.800 325.570,114.883 323.611,114.529 322.402 C 114.176 321.193,113.470 319.544,112.961 318.738 C 112.451 317.931,111.376 315.320,110.571 312.936 C 109.766 310.551,108.994 308.510,108.854 308.400 C 108.363 308.013,107.248 305.263,106.965 303.740 C 106.358 300.471,104.925 298.094,102.714 296.690 C 101.713 296.054,99.491 296.000,74.314 296.005 L 47.000 296.011 46.300 296.887 M122.968 297.407 L 121.895 298.814 122.581 300.996 C 122.959 302.196,123.590 303.588,123.984 304.089 C 124.707 305.009,126.000 308.384,126.000 309.353 C 126.000 309.952,127.196 312.499,127.619 312.800 C 128.120 313.156,129.600 316.169,129.600 316.833 C 129.600 317.589,130.606 319.739,131.692 321.303 C 132.114 321.909,132.911 323.519,133.464 324.880 C 134.017 326.241,134.994 327.991,135.635 328.769 C 136.276 329.546,136.800 330.339,136.800 330.531 C 136.800 331.336,138.240 333.906,139.473 335.301 C 140.203 336.127,140.800 337.030,140.800 337.308 C 140.800 337.587,141.545 338.711,142.456 339.807 C 143.366 340.903,144.349 342.362,144.640 343.049 C 144.931 343.737,145.761 344.911,146.484 345.659 C 147.208 346.407,148.135 347.555,148.546 348.209 C 149.338 349.475,149.804 349.980,154.818 355.000 C 158.942 359.129,162.166 362.000,162.678 362.000 C 162.901 362.000,163.597 362.476,164.225 363.059 C 165.366 364.115,169.358 366.800,169.789 366.800 C 169.915 366.800,170.741 367.279,171.626 367.864 C 172.510 368.450,175.046 369.536,177.260 370.277 C 184.149 372.585,183.632 375.582,183.638 333.340 L 183.643 298.732 182.601 297.366 L 181.559 296.000 152.800 296.000 L 124.041 296.000 122.968 297.407 M199.769 325.629 C 199.073 327.674,199.602 368.451,200.337 369.437 C 201.161 370.541,203.990 371.858,204.346 371.303 C 204.486 371.085,205.860 370.490,207.400 369.981 C 208.940 369.471,211.190 368.393,212.400 367.584 C 213.610 366.774,215.037 365.975,215.571 365.807 C 217.844 365.091,220.587 361.326,220.456 359.102 C 220.278 356.082,219.197 352.362,218.179 351.264 C 217.635 350.679,217.094 349.896,216.976 349.523 C 216.858 349.151,215.526 347.931,214.017 346.812 C 212.507 345.694,210.900 344.288,210.444 343.689 C 207.411 339.700,206.000 337.616,206.000 337.125 C 206.000 335.139,203.963 329.792,202.842 328.836 C 202.174 328.266,201.284 327.092,200.863 326.228 C 200.118 324.696,200.091 324.682,199.769 325.629 " class="color060606 svgShape"></path></svg></g></svg>