<svg xmlns="http://www.w3.org/2000/svg" width="400" height="400" viewBox="0 0 400 NaN" xmlns:v="https://vecta.io/nano"><path d="M183.305 10.414c-.932.188-4.315.63-7.517.981l-6.705.968c-.486.181-1.963.456-3.283.611-2.351.276-6.213 1.157-11.4 2.602l-8.6 2.298c-5.018 1.274-13.652 4.337-16.732 5.938-.623.323-1.302.588-1.509.588s-1.898.72-3.759 1.6-3.612 1.601-3.892 1.601-1.06.339-1.736.751-1.665.882-2.2 1.045-1.242.527-1.572.806-2.22 1.356-4.2 2.392-3.78 2.031-4 2.21-1.66.99-3.2 1.801-3.084 1.728-3.431 2.035-.768.559-.933.559-1.057.619-1.981 1.377-2.741 2.015-4.037 2.795c-2.528 1.523-5.293 3.583-12.263 9.141-6.112 4.875-6.459 5.191-14.555 13.287-8.09 8.09-8.406 8.437-13.287 14.552-4.602 5.767-7.743 10.001-9.974 13.448-.997 1.54-2.156 3.172-2.576 3.626s-.763.956-.763 1.116c0 .274-.285.734-2.27 3.666-.45.664-.954 1.654-1.121 2.2s-.535 1.262-.819 1.592-1.362 2.22-2.397 4.2-2.11 3.87-2.39 4.2-.642 1.038-.806 1.572-.634 1.525-1.045 2.2-.75 1.457-.751 1.736-.721 2.031-1.601 3.892-1.6 3.553-1.6 3.759-.263.886-.584 1.509c-1.113 2.155-2.616 5.831-2.616 6.396 0 .312-.332 1.236-.738 2.052s-1.136 3.014-1.623 4.884-1.235 4.48-1.662 5.8-.777 2.714-.777 3.098-.339 1.735-.754 3c-.962 2.936-2.347 8.914-2.665 11.502-.135 1.1-.406 2.54-.602 3.2-2.179 7.332-3.092 40.903-1.458 53.6 1.522 11.823 3.264 20.149 6.279 30 .404 1.32.852 3.12.996 4s.714 2.86 1.266 4.4l1.572 4.6c.313.99.824 2.34 1.134 3s1.051 2.37 1.646 3.8 1.579 3.68 2.187 5 1.308 3.035 1.554 3.811.983 2.397 1.636 3.6l5.197 9.389c.637 1.1 1.274 2.27 1.414 2.6a12.78 12.78 0 0 0 .609 1.2l1.606 2.756c.689 1.186 1.913 3.014 2.718 4.062a45.43 45.43 0 0 1 2.665 3.963c1.18 2.023 1.529 2.526 3.274 4.72l4.135 5.299c6.593 8.492 18.027 20.403 25.727 26.8l5.123 4.312c1.097.941 2.66 2.132 3.473 2.645s1.926 1.415 2.473 2.004a8.85 8.85 0 0 0 2.195 1.647c1.614.775 2.293 1.22 5.799 3.8 1.651 1.215 3.451 2.439 4.001 2.72s1.72.951 2.6 1.488 2.14 1.252 2.8 1.587c1.35.685 2.335 1.261 3.808 2.225.554.363 1.454.796 2 .963s1.262.534 1.592.815c1.063.906 6.729 3.715 8.085 4.009.723.156 1.793.622 2.377 1.035s1.309.75 1.611.75.904.246 1.338.546 1.239.681 1.789.845c.977.291 1.707.591 5.8 2.378 2.868 1.252 5.672 2.214 8.2 2.811 1.21.286 3.55.923 5.2 1.417 8.565 2.561 14.531 4.008 20.6 4.997 1.76.287 4.55.795 6.2 1.129 11.504 2.328 43.419 2.334 54 .01 1.43-.314 3.95-.747 5.6-.962s3.526-.569 4.17-.785 2.353-.581 3.8-.811 3.44-.68 4.43-1a80.95 80.95 0 0 1 4-1.147 143.03 143.03 0 0 0 5-1.42c1.54-.471 3.79-1.103 5-1.406 2.767-.692 5.843-1.691 7.4-2.402 2.613-1.193 6.949-3 7.199-3 .146 0 1.521-.63 3.055-1.4s3.007-1.4 3.272-1.4c.516 0 8.75-4.189 12.874-6.549a272.18 272.18 0 0 1 4.4-2.433c2.609-1.413 7.347-4.438 7.8-4.981.196-.234 1.493-1.098 5.271-3.513 1.03-.657 2.47-1.685 3.2-2.282l6.902-5.547c9.362-7.492 20.14-18.259 27.779-27.751l5.555-6.897c.601-.744 1.34-1.811 1.642-2.37s.712-1.21.911-1.447.935-1.33 1.636-2.43 1.388-2.09 1.527-2.2c.525-.415 3.521-5.107 4.98-7.8l2.441-4.4c2.278-3.949 6.556-12.35 6.556-12.874 0-.265.63-1.737 1.4-3.272s1.4-2.909 1.4-3.055c0-.25 1.807-4.586 3-7.199.711-1.557 1.71-4.633 2.402-7.4.303-1.21.907-3.37 1.342-4.8 1.859-6.105 2.712-9.268 3.449-12.8l2.605-13.4c2.567-13.462 2.579-43.897.022-55.6-.241-1.1-.703-3.62-1.027-5.6-.876-5.353-3.116-15.165-3.879-17-.417-1.001-1.457-4.664-2.499-8.8a53.42 53.42 0 0 0-2.655-7.8l-1.766-4.2-1.629-3.86c-.311-.694-.565-1.434-.565-1.647s-.337-.814-.748-1.339-.877-1.546-1.035-2.269c-.303-1.388-3.131-7.066-4.027-8.085-.29-.33-.652-1.097-.803-1.704s-.438-1.204-.637-1.327-.628-.796-.953-1.496c-.784-1.688-3.417-6.276-4.297-7.487-.385-.53-.7-1.13-.7-1.334s-.592-1.108-1.314-2.011a54.5 54.5 0 0 1-2.1-2.801l-1.487-2.2c-.385-.572-.966-1.58-1.291-2.24s-1.224-1.821-1.999-2.581-1.409-1.517-1.409-1.685-1.566-2.246-3.48-4.619c-8.421-10.44-20.309-22.166-30.52-30.103l-6.913-5.413c-.268-.22-1.657-1.105-3.087-1.967s-3.312-2.122-4.182-2.8c-2.073-1.614-6.975-4.632-7.524-4.632-.237 0-.715-.254-1.063-.564s-2.586-1.615-4.976-2.9l-6.389-3.434c-1.124-.604-2.678-1.3-3.455-1.547s-2.491-.946-3.811-1.554-3.57-1.592-5-2.187l-3.8-1.646c-.66-.31-2.01-.821-3-1.134s-3.06-1.021-4.6-1.572-3.52-1.122-4.4-1.266-2.68-.602-4-1.017c-8.558-2.694-17.787-4.632-29.8-6.258-5.581-.755-36.316-1.15-39.495-.507M220.8 38.567c2.53.367 5.5.851 6.6 1.076l5.6 1.125c4.215.84 6.695 1.449 10 2.454 1.32.402 3.12.845 4 .984 1.569.249 9.636 2.925 12 3.981l3.1 1.374 3.6 1.609c.935.423 2.87 1.237 4.3 1.81s2.926 1.224 3.324 1.448 1.86 1.022 3.249 1.772 3.403 1.906 4.476 2.57 2.851 1.685 3.951 2.27c2.509 1.336 7.186 4.456 10.671 7.119 1.469 1.122 3.408 2.485 4.308 3.027s2.939 2.22 4.529 3.728 3.522 3.161 4.292 3.671c1.571 1.042 1.207.693 8 7.676 2.75 2.826 5.572 5.859 6.272 6.739s2.268 2.66 3.485 3.956 3.033 3.546 4.037 5l3.429 4.844c2.352 3.224 5.126 7.436 5.589 8.485.222.503.937 1.725 1.588 2.715s1.38 2.25 1.62 2.799.679 1.27.976 1.6c.715.796 3.804 6.651 3.804 7.211 0 .241.692 1.913 1.537 3.714 1.995 4.251 3.38 7.498 4.47 10.476.483 1.32 1.137 2.947 1.453 3.615s.833 2.379 1.148 3.8.953 3.845 1.416 5.385 1.029 3.7 1.255 4.8.74 3.17 1.142 4.6.903 3.59 1.114 4.8l.81 4.6c1.669 9.418 2.513 29.62 1.572 37.6l-.894 8.021c-.335 3.092-.783 6.152-.994 6.8s-.582 2.519-.823 4.157-.61 3.186-.821 3.44-.49 1.345-.62 2.422-.578 3.04-.996 4.36c-1.514 4.784-2.369 7.952-2.369 8.773 0 .461-.36 1.511-.8 2.331s-.8 1.759-.8 2.084-.344 1.36-.765 2.301-1.246 2.881-1.835 4.311-1.667 3.86-2.397 5.4-1.459 3.25-1.621 3.8-.629 1.627-1.038 2.394-.744 1.534-.744 1.704-.622 1.195-1.383 2.277-1.66 2.565-1.999 3.296a25.01 25.01 0 0 1-1.317 2.425c-.386.603-1.76 2.853-3.055 5s-3.259 5.046-4.364 6.442-2.675 3.556-3.486 4.8c-1.329 2.038-3.293 4.366-7.139 8.462-.723.77-1.558 1.85-1.857 2.4s-1.349 1.63-2.335 2.4-2.067 1.858-2.403 2.419-1.028 1.248-1.537 1.527-1.555 1.319-2.325 2.31-1.85 2.043-2.4 2.34-1.72 1.205-2.6 2.02c-5.071 4.694-6.209 5.656-8.262 6.988-1.244.807-3.404 2.372-4.8 3.478s-4.296 3.069-6.444 4.364l-5.4 3.267c-.822.503-1.944 1.135-2.494 1.405s-1.752.978-2.672 1.574c-1.767 1.144-6.576 3.508-7.137 3.508-.182 0-1.605.614-3.161 1.365A123.11 123.11 0 0 1 262 351.8l-4.311 1.835c-.941.421-2.026.765-2.411.765s-1.077.264-1.537.587-1.986.839-3.389 1.148-4.442 1.123-6.752 1.811-4.514 1.25-4.898 1.252-1.735.347-3 .77-3.37.889-4.676 1.038-2.807.435-3.337.636c-6.855 2.607-37.603 2.833-51.889.382-5.449-.935-7.411-1.337-9.8-2.005-1.43-.401-3.5-.917-4.6-1.148s-3.35-.809-5-1.283-4.069-1.106-5.376-1.404-2.927-.801-3.6-1.119-2.304-.975-3.624-1.458c-2.978-1.09-6.225-2.475-10.476-4.47-1.801-.845-3.473-1.537-3.714-1.537-.53 0-6.366-3.057-7.21-3.776-.543-.464-2.358-1.528-8.021-4.704-2.143-1.202-6.527-4.177-8.979-6.093-.88-.688-2.632-1.948-3.894-2.801s-3.332-2.525-4.6-3.716-3.026-2.738-3.906-3.438-3.865-3.493-6.633-6.207l-5.402-5.2c-.203-.146-1.113-1.255-2.021-2.465s-2.807-3.417-4.22-4.904-3.009-3.436-3.546-4.329-1.891-2.827-3.007-4.296c-3.144-4.14-5.5-7.663-6.733-10.071-.62-1.21-1.343-2.47-1.606-2.8-.667-.836-4.232-7.12-4.232-7.459 0-.153-.251-.562-.557-.91s-1.049-1.891-1.652-3.431-1.542-3.79-2.088-5l-3.107-7c-1.099-2.504-3.747-10.467-3.99-12-.139-.88-.582-2.68-.984-4-1.012-3.327-1.619-5.806-2.448-10l-1.109-5.4c-2.639-11.959-2.65-40.618-.021-53.8 1.517-7.604 3.377-15.517 3.859-16.419.23-.43.552-1.675.716-2.767s.821-3.432 1.462-5.2 1.347-3.844 1.572-4.614c.386-1.324 1.046-2.919 2.729-6.6 1.388-3.037 2.318-5.208 3.254-7.6.516-1.32 1.26-2.829 1.652-3.354s.714-1.155.716-1.4.722-1.578 1.6-2.962 1.596-2.595 1.596-2.692.613-1.134 1.361-2.305 1.648-2.749 1.998-3.507c.639-1.387 2.894-4.695 5.981-8.774.913-1.207 2.2-3.008 2.86-4.001 1.488-2.239 2.449-3.426 4.038-4.988.68-.669 2.105-2.297 3.164-3.617C80.661 89.939 89.865 80.725 93 78.187c1.32-1.069 3.179-2.717 4.13-3.664s2.752-2.393 4-3.216a123.65 123.65 0 0 0 4.952-3.501c4.316-3.228 7.173-5.132 9.42-6.279 1.156-.59 2.576-1.445 3.154-1.9s1.253-.832 1.498-.838 1.522-.727 2.837-1.6 2.548-1.589 2.739-1.589.824-.322 1.408-.716 2.142-1.137 3.462-1.652c2.712-1.057 5.458-2.239 7.134-3.071 3.354-1.665 13.107-5.153 16.666-5.962 1.21-.275 4.334-1.06 6.943-1.745s5.938-1.45 7.4-1.7 2.946-.604 3.298-.787c.57-.295 5.837-1.03 14.159-1.974 5.08-.576 29.467-.172 34.6.574m-23.6 42.215c-.33.184-1.852.938-3.383 1.676-4.517 2.178-7.59 5.697-9.905 11.342-.664 1.617-.857 3.169-1.009 8.112l-.189 6.112-1.137.588c-.626.323-1.44.588-1.81.588-.701 0-7.458 2.237-8.543 2.828-.343.187-1.974.908-3.624 1.602s-4.014 1.871-5.252 2.616-2.37 1.354-2.513 1.354c-.362 0-5.615 3.456-8.035 5.287-10.43 7.888-18.51 17.782-24.102 29.513-4.461 9.356-6.066 14.911-7.978 27.6-.116.77-.325 18.814-.465 40.098L119 258.796l-12.258 12.302c-6.742 6.766-12.457 12.695-12.7 13.176-.775 1.532-.574 10.678.258 11.688l.7.85 107.6-.106 107.6-.106.109-6.414.11-6.413-12.51-12.555-12.509-12.554-.232-37.832c-.24-39.16-.397-43.091-2.007-50.232-.924-4.096-2.681-9.915-3.443-11.4-.282-.55-.514-1.145-.516-1.322-.005-.665-3.374-7.706-5.014-10.478-.521-.88-1.136-2.017-1.368-2.527s-.916-1.59-1.52-2.4l-1.397-1.873c-7.75-10.457-15.395-17.334-26.103-23.478-4.972-2.854-6.479-3.541-14.6-6.657-1.21-.464-3.127-1.04-4.26-1.279-3.127-.661-3.27-.957-3.452-7.192-.321-11.012-4.113-17.005-13.088-20.688-2.304-.945-9.816-1.297-11.2-.524m-77.675 3.94c-3.931 3.099-4.455 3.548-7.087 6.078l-4.672 4.426c-3.84 3.567-8.881 9.468-14.589 17.077-.783 1.043-2.567 3.787-3.965 6.097l-3.668 5.955c-.619.965-1.478 2.495-1.908 3.4-3.662 7.699-5.277 11.268-5.499 12.153a11.41 11.41 0 0 1-.796 2.065c-.295.565-.537 1.18-.539 1.367s-.25.906-.553 1.6-1.013 2.79-1.579 4.66l-1.696 5.6c-.925 3.05-2.11 8.683-2.777 13.2l-.971 6.4c-1.32 8.378-1.828 8.071 13.078 7.917 13.073-.135 12.496.046 12.496-3.909a21.68 21.68 0 0 1 .554-4.424c.305-1.201.672-3.084.817-4.184.632-4.812 2.481-11.884 4.97-19 1.701-4.865 6.902-15.613 9.388-19.4 6.324-9.634 13.672-18.152 20.271-23.5 1.65-1.337 3.18-2.634 3.4-2.883s1.344-1.059 2.497-1.8c4.307-2.768 4.596-2.103-5.166-11.866-9.423-9.422-9.163-9.27-12.006-7.029m154.936 7.051c-9.416 9.427-9.331 9.28-6.464 11.177 4.429 2.932 12.938 11.243 18.068 17.65 4.439 5.544 3.972 4.894 7.62 10.6 1.592 2.49 4.091 6.902 4.758 8.4.244.55 1.145 2.481 2.001 4.291S302 147.4 302 147.665s.334 1.214.743 2.109c2.672 5.852 5.781 18.857 6.701 28.026.536 5.345-.375 5 13.194 5h11.382l.433-1.1c.594-1.509.171-13.165-.599-16.5a125.35 125.35 0 0 1-.999-4.8c-1.077-5.947-4.697-17.633-7.249-23.4-2.358-5.329-4.464-9.652-6.306-12.947-1.155-2.066-2.1-3.842-2.1-3.948 0-.198-3.019-4.862-5.304-8.195-4.571-6.667-13.618-16.95-19.296-21.933-4.095-3.593-8.287-6.776-8.912-6.766-.378.006-4.531 3.859-9.227 8.562m-97.487 218.411c-.713 1.087-.628 1.842.711 6.348 2.429 8.17 8.221 14.076 16.827 17.159 2.892 1.036 14.463 1.348 16.326.441.529-.258 2.042-.941 3.362-1.519 5.843-2.557 11.415-10.639 13.213-19.165.437-2.074.428-2.585-.058-3.348l-.573-.9H202.2h-24.582l-.644.984" fill="#04ac9c" fill-rule="evenodd"/></svg>