<svg xmlns="http://www.w3.org/2000/svg" width="400" height="400" viewBox="0 0 400 NaN" xmlns:v="https://vecta.io/nano"><path d="M183.305 10.414c-.932.188-4.315.63-7.517.981l-6.705.968c-.486.181-1.963.456-3.283.611-2.351.276-6.213 1.157-11.4 2.602l-8.6 2.298c-5.018 1.274-13.652 4.337-16.732 5.938-.623.323-1.302.588-1.509.588s-1.898.72-3.759 1.6-3.612 1.601-3.892 1.601-1.06.339-1.736.751-1.665.882-2.2 1.045-1.242.527-1.572.806-2.22 1.356-4.2 2.392-3.78 2.031-4 2.21-1.66.99-3.2 1.801-3.084 1.728-3.431 2.035-.768.559-.933.559-1.057.619-1.981 1.377-2.741 2.015-4.037 2.795c-2.528 1.523-5.293 3.583-12.263 9.141-6.112 4.875-6.459 5.191-14.555 13.287-8.09 8.09-8.406 8.437-13.287 14.552-4.602 5.767-7.743 10.001-9.974 13.448-.997 1.54-2.156 3.172-2.576 3.626s-.763.956-.763 1.116c0 .274-.285.734-2.27 3.666-.45.664-.954 1.654-1.121 2.2s-.535 1.262-.819 1.592-1.362 2.22-2.397 4.2-2.11 3.87-2.39 4.2-.642 1.038-.806 1.572-.634 1.525-1.045 2.2-.75 1.457-.751 1.736-.721 2.031-1.601 3.892-1.6 3.553-1.6 3.759-.263.886-.584 1.509c-1.113 2.155-2.616 5.831-2.616 6.396 0 .312-.332 1.236-.738 2.052s-1.136 3.014-1.623 4.884-1.235 4.48-1.662 5.8-.777 2.714-.777 3.098-.339 1.735-.754 3c-.962 2.936-2.347 8.914-2.665 11.502-.135 1.1-.406 2.54-.602 3.2-2.179 7.332-3.092 40.903-1.458 53.6 1.522 11.823 3.264 20.149 6.279 30 .404 1.32.852 3.12.996 4s.714 2.86 1.266 4.4l1.572 4.6c.313.99.824 2.34 1.134 3s1.051 2.37 1.646 3.8 1.579 3.68 2.187 5 1.308 3.035 1.554 3.811.983 2.397 1.636 3.6l5.197 9.389c.637 1.1 1.274 2.27 1.414 2.6a12.78 12.78 0 0 0 .609 1.2l1.606 2.756c.689 1.186 1.913 3.014 2.718 4.062a45.43 45.43 0 0 1 2.665 3.963c1.18 2.023 1.529 2.526 3.274 4.72l4.135 5.299c6.593 8.492 18.027 20.403 25.727 26.8l5.123 4.312c1.097.941 2.66 2.132 3.473 2.645s1.926 1.415 2.473 2.004a8.85 8.85 0 0 0 2.195 1.647c1.614.775 2.293 1.22 5.799 3.8 1.651 1.215 3.451 2.439 4.001 2.72s1.72.951 2.6 1.488 2.14 1.252 2.8 1.587c1.35.685 2.335 1.261 3.808 2.225.554.363 1.454.796 2 .963s1.262.534 1.592.815c1.063.906 6.729 3.715 8.085 4.009.723.156 1.793.622 2.377 1.035s1.309.75 1.611.75.904.246 1.338.546 1.239.681 1.789.845c.977.291 1.707.591 5.8 2.378 2.868 1.252 5.672 2.214 8.2 2.811 1.21.286 3.55.923 5.2 1.417 8.565 2.561 14.531 4.008 20.6 4.997 1.76.287 4.55.795 6.2 1.129 11.504 2.328 43.419 2.334 54 .01 1.43-.314 3.95-.747 5.6-.962s3.526-.569 4.17-.785 2.353-.581 3.8-.811 3.44-.68 4.43-1a80.95 80.95 0 0 1 4-1.147 143.03 143.03 0 0 0 5-1.42c1.54-.471 3.79-1.103 5-1.406 2.767-.692 5.843-1.691 7.4-2.402 2.613-1.193 6.949-3 7.199-3 .146 0 1.521-.63 3.055-1.4s3.007-1.4 3.272-1.4c.516 0 8.75-4.189 12.874-6.549a272.18 272.18 0 0 1 4.4-2.433c2.609-1.413 7.347-4.438 7.8-4.981.196-.234 1.493-1.098 5.271-3.513 1.03-.657 2.47-1.685 3.2-2.282l6.902-5.547c9.362-7.492 20.14-18.259 27.779-27.751l5.555-6.897c.601-.744 1.34-1.811 1.642-2.37s.712-1.21.911-1.447.935-1.33 1.636-2.43 1.388-2.09 1.527-2.2c.525-.415 3.521-5.107 4.98-7.8l2.441-4.4c2.278-3.949 6.556-12.35 6.556-12.874 0-.265.63-1.737 1.4-3.272s1.4-2.909 1.4-3.055c0-.25 1.807-4.586 3-7.199.711-1.557 1.71-4.633 2.402-7.4.303-1.21.907-3.37 1.342-4.8 1.859-6.105 2.712-9.268 3.449-12.8l2.605-13.4c2.567-13.462 2.579-43.897.022-55.6-.241-1.1-.703-3.62-1.027-5.6-.876-5.353-3.116-15.165-3.879-17-.417-1.001-1.457-4.664-2.499-8.8a53.42 53.42 0 0 0-2.655-7.8l-1.766-4.2-1.629-3.86c-.311-.694-.565-1.434-.565-1.647s-.337-.814-.748-1.339-.877-1.546-1.035-2.269c-.303-1.388-3.131-7.066-4.027-8.085-.29-.33-.652-1.097-.803-1.704s-.438-1.204-.637-1.327-.628-.796-.953-1.496c-.784-1.688-3.417-6.276-4.297-7.487-.385-.53-.7-1.13-.7-1.334s-.592-1.108-1.314-2.011a54.5 54.5 0 0 1-2.1-2.801l-1.487-2.2c-.385-.572-.966-1.58-1.291-2.24s-1.224-1.821-1.999-2.581-1.409-1.517-1.409-1.685-1.566-2.246-3.48-4.619c-8.421-10.44-20.309-22.166-30.52-30.103l-6.913-5.413c-.268-.22-1.657-1.105-3.087-1.967s-3.312-2.122-4.182-2.8c-2.073-1.614-6.975-4.632-7.524-4.632-.237 0-.715-.254-1.063-.564s-2.586-1.615-4.976-2.9l-6.389-3.434c-1.124-.604-2.678-1.3-3.455-1.547s-2.491-.946-3.811-1.554-3.57-1.592-5-2.187l-3.8-1.646c-.66-.31-2.01-.821-3-1.134s-3.06-1.021-4.6-1.572-3.52-1.122-4.4-1.266-2.68-.602-4-1.017c-8.558-2.694-17.787-4.632-29.8-6.258-5.581-.755-36.316-1.15-39.495-.507M220.8 38.567c2.53.367 5.5.851 6.6 1.076l5.6 1.125c4.215.84 6.695 1.449 10 2.454 1.32.402 3.12.845 4 .984 1.569.249 9.636 2.925 12 3.981l3.1 1.374 3.6 1.609c.935.423 2.87 1.237 4.3 1.81s2.926 1.224 3.324 1.448 1.86 1.022 3.249 1.772 3.403 1.906 4.476 2.57 2.851 1.685 3.951 2.27c2.509 1.336 7.186 4.456 10.671 7.119 1.469 1.122 3.408 2.485 4.308 3.027s2.939 2.22 4.529 3.728 3.522 3.161 4.292 3.671c1.571 1.042 1.207.693 8 7.676 2.75 2.826 5.572 5.859 6.272 6.739s2.268 2.66 3.485 3.956 3.033 3.546 4.037 5l3.429 4.844c2.352 3.224 5.126 7.436 5.589 8.485.222.503.937 1.725 1.588 2.715s1.38 2.25 1.62 2.799.679 1.27.976 1.6c.715.796 3.804 6.651 3.804 7.211 0 .241.692 1.913 1.537 3.714 1.995 4.251 3.38 7.498 4.47 10.476.483 1.32 1.137 2.947 1.453 3.615s.833 2.379 1.148 3.8.953 3.845 1.416 5.385 1.029 3.7 1.255 4.8.74 3.17 1.142 4.6.903 3.59 1.114 4.8l.81 4.6c1.669 9.418 2.513 29.62 1.572 37.6l-.894 8.021c-.335 3.092-.783 6.152-.994 6.8s-.582 2.519-.823 4.157-.61 3.186-.821 3.44-.49 1.345-.62 2.422-.578 3.04-.996 4.36c-1.514 4.784-2.369 7.952-2.369 8.773 0 .461-.36 1.511-.8 2.331s-.8 1.759-.8 2.084-.344 1.36-.765 2.301-1.246 2.881-1.835 4.311-1.667 3.86-2.397 5.4-1.459 3.25-1.621 3.8-.629 1.627-1.038 2.394-.744 1.534-.744 1.704-.622 1.195-1.383 2.277-1.66 2.565-1.999 3.296a25.01 25.01 0 0 1-1.317 2.425c-.386.603-1.76 2.853-3.055 5s-3.259 5.046-4.364 6.442-2.675 3.556-3.486 4.8c-1.329 2.038-3.293 4.366-7.139 8.462-.723.77-1.558 1.85-1.857 2.4s-1.349 1.63-2.335 2.4-2.067 1.858-2.403 2.419-1.028 1.248-1.537 1.527-1.555 1.319-2.325 2.31-1.85 2.043-2.4 2.34-1.72 1.205-2.6 2.02c-5.071 4.694-6.209 5.656-8.262 6.988-1.244.807-3.404 2.372-4.8 3.478s-4.296 3.069-6.444 4.364l-5.4 3.267c-.822.503-1.944 1.135-2.494 1.405s-1.752.978-2.672 1.574c-1.767 1.144-6.576 3.508-7.137 3.508-.182 0-1.605.614-3.161 1.365A123.11 123.11 0 0 1 262 351.8l-4.311 1.835c-.941.421-2.026.765-2.411.765s-1.077.264-1.537.587-1.986.839-3.389 1.148-4.442 1.123-6.752 1.811-4.514 1.25-4.898 1.252-1.735.347-3 .77-3.37.889-4.676 1.038-2.807.435-3.337.636c-6.855 2.607-37.603 2.833-51.889.382-5.449-.935-7.411-1.337-9.8-2.005-1.43-.401-3.5-.917-4.6-1.148s-3.35-.809-5-1.283-4.069-1.106-5.376-1.404-2.927-.801-3.6-1.119-2.304-.975-3.624-1.458c-2.978-1.09-6.225-2.475-10.476-4.47-1.801-.845-3.473-1.537-3.714-1.537-.53 0-6.366-3.057-7.21-3.776-.543-.464-2.358-1.528-8.021-4.704-2.143-1.202-6.527-4.177-8.979-6.093-.88-.688-2.632-1.948-3.894-2.801s-3.332-2.525-4.6-3.716-3.026-2.738-3.906-3.438-3.865-3.493-6.633-6.207l-5.402-5.2c-.203-.146-1.113-1.255-2.021-2.465s-2.807-3.417-4.22-4.904-3.009-3.436-3.546-4.329-1.891-2.827-3.007-4.296c-3.144-4.14-5.5-7.663-6.733-10.071-.62-1.21-1.343-2.47-1.606-2.8-.667-.836-4.232-7.12-4.232-7.459 0-.153-.251-.562-.557-.91s-1.049-1.891-1.652-3.431-1.542-3.79-2.088-5l-3.107-7c-1.099-2.504-3.747-10.467-3.99-12-.139-.88-.582-2.68-.984-4-1.012-3.327-1.619-5.806-2.448-10l-1.109-5.4c-2.639-11.959-2.65-40.618-.021-53.8 1.517-7.604 3.377-15.517 3.859-16.419.23-.43.552-1.675.716-2.767s.821-3.432 1.462-5.2 1.347-3.844 1.572-4.614c.386-1.324 1.046-2.919 2.729-6.6 1.388-3.037 2.318-5.208 3.254-7.6.516-1.32 1.26-2.829 1.652-3.354s.714-1.155.716-1.4.722-1.578 1.6-2.962 1.596-2.595 1.596-2.692.613-1.134 1.361-2.305 1.648-2.749 1.998-3.507c.639-1.387 2.894-4.695 5.981-8.774.913-1.207 2.2-3.008 2.86-4.001 1.488-2.239 2.449-3.426 4.038-4.988.68-.669 2.105-2.297 3.164-3.617C80.661 89.939 89.865 80.725 93 78.187c1.32-1.069 3.179-2.717 4.13-3.664s2.752-2.393 4-3.216a123.65 123.65 0 0 0 4.952-3.501c4.316-3.228 7.173-5.132 9.42-6.279 1.156-.59 2.576-1.445 3.154-1.9s1.253-.832 1.498-.838 1.522-.727 2.837-1.6 2.548-1.589 2.739-1.589.824-.322 1.408-.716 2.142-1.137 3.462-1.652c2.712-1.057 5.458-2.239 7.134-3.071 3.354-1.665 13.107-5.153 16.666-5.962 1.21-.275 4.334-1.06 6.943-1.745s5.938-1.45 7.4-1.7 2.946-.604 3.298-.787c.57-.295 5.837-1.03 14.159-1.974 5.08-.576 29.467-.172 34.6.574M195 81.951c-7.739 1.998-13 10.642-13 21.358 0 5.475-.086 5.693-2.489 6.304-3.965 1.008-14.499 5.214-17.111 6.831-.33.205-1.144.624-1.81.932-1.162.537-8.579 5.318-8.99 5.794-.11.128-1.277 1.042-2.593 2.031-8.756 6.583-16.397 16.173-22.15 27.799-4.08 8.246-4.884 10.539-7.218 20.6-1.227 5.287-1.41 11.145-1.528 48.957l-.119 38.357-12.47 12.539-12.79 13.043c-.724 1.14-.384 11.733.399 12.442.952.861 215.929 1.042 216.789.182.331-.331.479-2.348.477-6.5l-.003-6.02-11.987-12-12.806-13.097c-.811-1.085-.822-1.508-.945-39.4L284.118 180c-1.511-13.9-6.818-27.191-15.967-39.992-9.823-13.743-27.83-25.865-45.351-30.529L221 109l-.23-6.6c-.352-10.07-3.047-14.886-10.97-19.603-1.703-1.015-11.893-1.597-14.8-.846m-77.6 3.942c-6.869 5.571-13.759 12.349-18.778 18.47-.648.79-1.818 2.169-2.6 3.063s-2.142 2.666-3.022 3.939-1.796 2.523-2.035 2.78c-.491.528-4.617 7.201-6.739 10.9-1.847 3.218-5.654 10.888-6.034 12.155-.165.55-.546 1.355-.846 1.789s-.546 1.041-.546 1.35c0 .494-.583 1.972-2.651 6.721-.302.694-.549 1.526-.549 1.85s-.288 1.377-.639 2.34c-1.329 3.64-3.982 14.628-4.353 18.033-.151 1.384-.53 4.026-.841 5.869-1.633 9.659-2.111 9.32 12.937 9.165 12.985-.134 12.491.012 12.502-3.693.003-1.113.255-3.104.56-4.424a53.05 53.05 0 0 0 .821-4.6c.147-1.21.514-3.01.814-4s.758-2.88 1.016-4.2c.968-4.953 4.935-15.816 8.013-21.941 1.017-2.023 2.839-5.303 4.478-8.059 5.887-9.9 23.239-28.843 26.578-29.016.868-.045 2.971-2.361 2.847-3.137-.169-1.064-16.613-17.651-17.485-17.636-.356.006-1.908 1.032-3.448 2.282m157.163 6.087c-7.159 7.202-9.376 9.761-8.872 10.239.06.057 1.729 1.384 3.709 2.95 4.058 3.209 14.473 13.402 14.824 14.508.127.398.376.723.555.723 1.927 0 14.502 21.189 17.211 29 4.508 13.004 5.921 18.648 6.824 27.269.885 8.443-.387 7.731 13.811 7.731h11.395l.39-1.026c.791-2.082.343-11.926-.801-17.574-1.708-8.437-5.399-21.794-6.411-23.2-.158-.22-.414-.94-.569-1.6-.314-1.335-.954-2.754-4.78-10.6-6.948-14.248-17.149-28.413-26.635-36.986l-3.6-3.295c-2.846-2.638-7.768-6.518-8.267-6.519-.25 0-4.203 3.771-8.784 8.38m-82.837 61.12c.582.605 2.407 2.936 4.055 5.18 4.646 6.325 7.647 6.764 11.177 1.635 5.653-8.211 5.683-8.239 8.136-7.545l3.906 1.088c1.1.301 2.63.84 3.4 1.197 6.596 3.059 9.545 4.629 10.387 5.528l.987 1.054-.934 6.429-.934 6.43 2.026 2.026 2.026 2.027 2.921-.494c9.944-1.681 11.086-1.525 12.355 1.685.274.693.717 1.53.985 1.86.944 1.164 3.476 7.45 4.665 11.582l1.204 4.182-1.544 1.342c-1.847 1.604-1.559 1.387-5.572 4.198-5.539 3.881-5.814 7.458-.836 10.888 7.511 5.175 7.969 5.607 7.633 7.191-1.213 5.71-6.045 16.895-8.104 18.758-.993.899-1.86.888-7.979-.098-5.895-.949-5.863-.955-8.261 1.519l-1.574 1.624.876 5.707c1.203 7.83 1.228 7.596-.99 9.065-4.161 2.757-15.322 7.241-18.022 7.242-.923 0-3.169-2.499-6.315-7.025-2.482-3.571-2.788-3.775-5.666-3.775h-2.515l-1.51 1.974a111.57 111.57 0 0 0-2.509 3.416c-2.665 3.845-3.711 5.023-4.675 5.265-2.247.564-15.951-4.982-19.376-7.841l-1.241-1.036.656-3.789c1.273-7.365 1.254-9.199-.11-10.658-2.429-2.596-2.477-2.606-8.268-1.683-6.983 1.113-7.34 1.104-8.375-.194-2.197-2.754-5.682-10.749-7.027-16.118l-.854-3.41.888-.945c.489-.521 1.625-1.449 2.525-2.064 7.108-4.854 7.443-5.232 7.451-8.417.007-2.709-.15-2.967-2.974-4.9-.804-.55-2.473-1.765-3.711-2.7s-2.352-1.706-2.479-1.713c-2.111-.115-.961-8.397 1.805-12.987a9 9 0 0 0 .754-1.711c.643-2.155 3.885-7.292 4.734-7.503.927-.23 5.478.249 9.966 1.049l2.689.48 1.81-1.484c2.352-1.927 2.487-2.653 1.611-8.625-.968-6.586-.948-6.941.442-8.152 2.101-1.83 9.326-5.112 15.359-6.977 3.454-1.068 3.694-1.057 4.926.223m4.409 31.099c-1.355.295-2.885.802-3.4 1.127s-1.382.725-1.929.889c-4.646 1.395-11.536 10.088-12.85 16.214-.74 3.454-.284 11.782.77 14.049.481 1.033.874 2.004.874 2.159s.665 1.282 1.478 2.506c6.306 9.501 16.666 13.446 27.901 10.627 5.05-1.268 12.996-8.068 14.687-12.57.206-.55.713-1.72 1.126-2.6 1.22-2.6 1.694-8.158 1.059-12.4-2.083-13.905-15.675-23.053-29.716-20.001m-19.404 128.216c-3.181 1.856 1.504 13.767 7.571 19.249 8.002 7.229 22.775 8.711 31.065 3.117 1.894-1.279 6.623-5.911 6.629-6.495.002-.173.313-.785.69-1.361 2.431-3.71 4.876-11.92 4.133-13.876L226.42 312l-24.51.012c-15.184.008-24.764.161-25.179.403" fill="#04ac9c" fill-rule="evenodd"/></svg>