<svg xmlns="http://www.w3.org/2000/svg" width="400" height="400" viewBox="0 0 400 NaN" xmlns:v="https://vecta.io/nano"><path d="M190.8 21.574c-3.646.736-9.405 5.079-13.079 9.863C173.506 36.925 172 42.496 172 52.593c0 8.472.167 8.1-4.2 9.352-6.165 1.767-8.125 2.395-9.237 2.959-.64.324-1.883.815-2.763 1.091-1.552.486-9.155 3.964-12.4 5.671l-3.4 1.787c-2.759 1.45-9.961 6.145-12.343 8.047-1.171.935-2.253 1.7-2.405 1.7s-.9.603-1.664 1.339-2.378 2.154-3.588 3.149c-6.919 5.693-15.869 15.979-21.153 24.312-3.315 5.227-4.155 6.73-7.151 12.8-1.792 3.63-3.551 7.41-3.908 8.4l-2.247 6.2c-1.484 4.085-2.033 6.112-3.702 13.66-.8 3.616-1.832 11.365-1.836 13.79a13 13 0 0 1-.615 3.584c-.538 1.526-.609 8.242-.588 55.751l.012 54.789c-.007.476-7.068 7.849-18.412 19.226-13.857 13.896-18.407 18.693-18.428 19.426-.3 10.424-.062 16.462.678 17.202.771.771 2.653.78 157.765.78l156.985.001.7-.849c.618-.749.7-1.839.7-9.266v-8.417l-6.5-6.606-18.394-18.604c-6.541-6.599-11.996-12.319-12.12-12.712s-.277-25.429-.339-55.635l-.548-58.92c-.68-6.223-1.225-9.891-1.666-11.2-.222-.66-.696-2.799-1.053-4.752-3.783-20.729-20.565-48.969-37.38-62.904-5.416-4.489-12.062-9.316-16.45-11.951-7.821-4.695-8.349-4.993-8.856-4.995-.272-.002-1.034-.297-1.694-.656-5.854-3.188-16.782-7.417-22.122-8.563-3.2-.686-3.277-.91-3.284-9.568-.008-10.06-.86-13.406-4.996-19.608-3.387-5.081-9.892-10.214-13.75-10.85-2.298-.38-16.945-.363-18.848.021M77.37 27.818c-4.112 3.291-11.46 9.993-17.123 15.618-2.613 2.595-7.407 8.014-10.386 11.739-1.507 1.884-2.916 3.534-3.131 3.668s-.693.704-1.061 1.269c-1.41 2.164-5.46 7.724-6.182 8.488-.416.44-1.103 1.43-1.526 2.2s-1.513 2.57-2.422 4c-4.112 6.468-8.839 14.776-9.331 16.4-.166.55-.534 1.27-.817 1.6s-1.257 2.31-2.164 4.4-2.173 4.88-2.812 6.2c-2.294 4.736-8.425 22.283-8.417 24.088.001.268-.425 1.798-.946 3.4-.979 3.009-3.041 12.646-3.831 17.912-.248 1.65-.709 4.26-1.024 5.8-1.268 6.189-1.451 14.079-.345 14.887.739.541 33.319.778 35.264.257 1.343-.36 2.084-2.147 2.084-5.024 0-1.386.281-3.96.624-5.72l1.379-7.6c1.128-6.573 3.375-15.862 4.983-20.6.783-2.31 1.679-5.1 1.99-6.2s.847-2.54 1.192-3.2.628-1.335.63-1.499c.012-1.553 8.56-18.703 11.415-22.904a27.08 27.08 0 0 0 1.509-2.597c.383-.77 1.134-2.03 1.669-2.8l2.891-4.161c1.055-1.519 2.562-3.499 3.348-4.4s1.707-2.048 2.044-2.548 1.224-1.579 1.97-2.4 1.83-2.121 2.41-2.891c1.399-1.857 10.417-10.911 12.946-12.996l3-2.502c3.8-3.236 6.439-5.302 7.438-5.823 1.511-.786 4.562-3.619 4.562-4.235 0-.598-1.086-1.744-14.158-14.944-12.686-12.809-11.059-12.176-17.672-6.882M306.251 36.3c-14.492 14.51-14.106 13.845-9.734 16.811 8.542 5.794 24.638 22.309 31.471 32.289 4.874 7.118 7.26 10.969 10.145 16.377 1.063 1.993 2.165 3.893 2.449 4.223s.88 1.59 1.326 2.8 1.638 3.91 2.649 6 1.84 4.038 1.841 4.328.51 1.82 1.131 3.4c2.75 6.996 5.641 16.95 6.657 22.923.342 2.009.794 4.169 1.006 4.8.455 1.365 1.604 9.434 1.985 13.949.518 6.136-.593 5.8 19.183 5.8h16.412l.468-.874c.736-1.375.237-21.899-.597-24.526-.349-1.1-.64-2.63-.647-3.4-.015-1.675-.598-4.326-2.593-11.8-2.441-9.146-2.874-10.566-4.814-15.8-1.019-2.75-2.091-5.81-2.383-6.8-.483-1.64-1.813-4.786-3.803-9l-1.381-3c-.344-.77-1.519-3.11-2.611-5.2s-1.992-3.965-1.999-4.166-.801-1.642-1.766-3.2-2.22-3.734-2.791-4.834-1.575-2.72-2.232-3.6-1.585-2.32-2.063-3.2-1.636-2.614-2.575-3.853-1.896-2.607-2.128-3.041c-.366-.683-2.151-3.004-3.76-4.888-.273-.32-1.397-1.788-2.497-3.261s-3.371-4.181-5.046-6.018l-4.638-5.139c-6.218-7.033-21.622-20.4-23.508-20.4-.611 0-4.547 3.679-13.157 12.3m-121.309 87.278c.547.208 2.232 2.053 3.746 4.1l5.26 7.122c2.993 4.055 3.484 4.369 6.852 4.38 3.786.013 4.254-.216 6.408-3.134l2.993-4.046 3.624-4.894c3.237-4.372 3.279-4.383 9.474-2.514 11.839 3.572 23.507 9.581 23.822 12.268.067.568-.367 4.162-.964 7.986-1.754 11.236-1.86 10.1 1.241 13.254 3.017 3.069 3.764 3.245 9.036 2.128 3.259-.691 10.101-1.596 11.921-1.577 1.901.019 2.711 1.049 6.573 8.349 2.419 4.573 7.487 18.647 7.461 20.723-.015 1.245-1.772 3.109-4.789 5.082-1.43.935-2.78 1.908-3 2.162s-1.84 1.474-3.6 2.71c-6.331 4.447-6.585 10.025-.642 14.123 9.039 6.234 12.042 8.852 12.042 10.502 0 1.266-4.71 15.059-5.784 16.937-.553.969-1.009 1.96-1.011 2.204-.005.408-3.146 6.075-4.591 8.279-1.274 1.945-1.817 1.973-10.414.546-11.197-1.86-10.088-2.031-13.944 2.155-2.241 2.432-2.208 1.876-.674 11.377 1.356 8.403 1.411 9.245.681 10.359-1.763 2.691-17.081 9.637-26.961 12.226-2.623.687-3.131.307-7.202-5.385l-2.774-3.8c-.267-.33-1.309-1.731-2.315-3.113-2.132-2.93-2.865-3.287-6.748-3.287-3.433 0-3.913.276-6.304 3.631-9.935 13.943-8.627 13.198-17.801 10.143-14.848-4.945-22.324-9.631-21.592-13.533.531-2.832 2.234-14.826 2.234-15.736 0-2.949-5.53-6.744-8.946-6.139-16.935 2.999-16.268 3.159-20.321-4.869-3.883-7.691-4.638-9.537-6.097-14.897-.599-2.2-1.347-4.591-1.662-5.314-1.143-2.616-.442-3.729 4.467-7.086 1.286-.88 2.643-1.9 3.015-2.266s1.636-1.302 2.81-2.079c4.575-3.031 5.134-3.892 5.134-7.909 0-3.543-.803-4.74-5.137-7.656-6.122-4.119-10.863-8.017-10.863-8.933 0-1.22 4.317-14.508 5.185-15.957.395-.66.945-1.92 1.222-2.8s.837-2.074 1.243-2.654 1.104-1.84 1.551-2.8c2.26-4.862 3.656-5.769 7.923-5.15 6.336.919 10.717 1.675 11.997 2.071 2.518.779 8.479-3.641 8.479-6.286 0-.955-1.092-8.828-2.033-14.662-.655-4.059.001-4.919 6.233-8.166l3.6-1.891c.66-.352 1.83-.9 2.6-1.217l3.8-1.58c5.677-2.376 12.108-4.032 13.542-3.487m9.061 46.052c-10.262 1.827-22.418 11.653-25.696 20.77l-1.563 4.2c-.843 2.208-.916 3.024-.908 10.2.009 8.326-.131 7.497 2.407 14.2 6.415 16.943 29.213 26.274 46.077 18.859 8.43-3.706 16.358-11.278 18.67-17.832.342-.967.801-1.975 1.022-2.241 2.882-3.473 2.974-21.144.133-25.593-.283-.443-.799-1.613-1.146-2.6-4.689-13.312-23.181-22.779-38.996-19.963M164.16 356.305c-1.532 1.027-1.677 3.095-.553 7.831 2.713 11.423 10.07 20.715 20.393 25.757 7.291 3.561 7.014 3.507 18.013 3.507h9.812l4.697-2.336c6.987-3.475 12.712-9.047 15.685-15.264 4.1-8.575 6.187-16.35 4.97-18.517l-.608-1.083-35.984-.095c-19.792-.052-36.183.038-36.425.2" fill="#04ab9c" fill-rule="evenodd"/></svg>