<svg xmlns="http://www.w3.org/2000/svg" width="400" height="400" viewBox="0 0 400 NaN" xmlns:v="https://vecta.io/nano"><path d="M191.658 20.615c-2.739.911-7.342 3.332-8.258 4.343-.22.243-1.12.977-2 1.63-3.289 2.441-6.691 7.622-8.442 12.856-1.35 4.032-1.358 4.104-1.358 11.488 0 9.581-.014 9.611-5 10.677-3.782.808-13.857 4.587-18.487 6.934-1.147.581-2.258 1.057-2.468 1.057s-1.94.9-3.845 2-3.529 2-3.608 2c-.222 0-5.332 3.212-7.629 4.796-5.885 4.057-9.245 6.806-16.382 13.404-3.253 3.008-10.613 11.873-14.8 17.828-3.997 5.683-11.593 20.711-13.231 26.172-.33 1.1-1.057 3.222-1.616 4.715s-1.247 3.743-1.531 5c-1.574 6.979-1.9 8.573-2.466 12.061-1.344 8.285-1.433 11.775-1.683 66.298l-.254 55.274-1.2 1.263c-.66.694-8.64 8.671-17.734 17.726s-16.878 17.131-17.3 17.947c-1.537 2.977-1.023 17.825.64 18.463s313.139.279 313.778-.36c.517-.517.616-2.024.616-9.395v-8.78l-18.3-18.316-18.396-18.506c-.052-.105-.21-25.03-.349-55.39l-.675-59c-.938-8.449-1.323-11.081-1.873-12.8-.317-.99-.784-3.06-1.04-4.6s-.722-3.43-1.039-4.2-1.396-3.83-2.398-6.8c-6.217-18.426-19.486-37.671-34.986-50.746-3.746-3.159-11.562-8.876-12.944-9.468a12.39 12.39 0 0 1-2.2-1.277c-.92-.702-4.597-2.795-8-4.554-2.172-1.122-9.943-4.538-12.5-5.495l-4.4-1.649c-1.155-.434-3.311-1.068-4.792-1.407-5.792-1.329-5.71-1.188-5.562-9.604.391-22.277-17.489-37.84-36.288-31.585M81.969 23.928c-1.539.664-10.804 8.423-15.569 13.038-2.31 2.238-4.74 4.511-5.4 5.051s-1.92 1.876-2.8 2.968-2.201 2.519-2.934 3.171c-1.933 1.719-9.07 10.561-13.759 17.044-.716.99-1.409 1.89-1.54 2-.215.18-1.357 1.93-5.354 8.2-.701 1.1-1.95 3.213-2.776 4.696s-1.648 2.787-1.827 2.898-1.282 2.137-2.451 4.504-2.358 4.54-2.642 4.831-.517.701-.517.912-.63 1.683-1.4 3.27-1.4 3.16-1.4 3.495-.422 1.235-.937 2.001-1.312 2.473-1.771 3.793-1.369 3.75-2.023 5.4c-1.622 4.094-1.828 4.708-3.436 10.2l-2.474 8.4c-1.444 4.859-2.479 9.773-3.746 17.8-.261 1.65-.731 4.122-1.046 5.493-.655 2.851-1.218 12.654-.818 14.245l.266 1.062h17.56c21.202 0 20.027.322 20.023-5.48-.001-1.496.356-4.61.793-6.92l1.582-8.4c1.341-7.157 2.829-13.224 4.318-17.6l2.318-6.8c.843-2.463 3.479-8.982 4.189-10.361.181-.351 1.085-2.259 2.009-4.239 1.94-4.159 5.721-11.051 7.022-12.8a17.14 17.14 0 0 0 1.529-2.6c.351-.77 1.371-2.39 2.269-3.6 1.481-1.997 2.096-2.865 4.252-6 .379-.55 1.236-1.647 1.905-2.437l1.987-2.4c7.3-9.119 19.06-20.158 27.229-25.559 2.828-1.869 4.2-3.226 4.2-4.155C108.8 48.252 84.827 24 84.038 24c-.205 0-.612-.077-.905-.172s-.817-.05-1.164.1m223.32 11.984c-6.792 6.771-12.453 12.707-12.579 13.19-.258.987.014 1.248 6.89 6.593 3.882 3.018 17.106 15.931 20.442 19.963 6.979 8.432 15.532 21.496 19.732 30.142 8.626 17.752 14.956 39.762 16.223 56.407.272 3.56.65 4.836 1.692 5.701.604.501 34.93.806 35.423.314 1.357-1.351.223-23.651-1.279-25.153-.743-.742-1.035-1.459-1.041-2.551-.009-1.653-.441-3.708-2.372-11.291-1.741-6.839-3.134-11.572-3.797-12.901-.307-.615-.683-1.705-.837-2.422s-.868-2.834-1.589-4.704-1.431-3.929-1.58-4.576a7.52 7.52 0 0 0-1.017-2.224c-.411-.577-.878-1.578-1.037-2.224s-1.044-2.706-1.965-4.576l-3.735-7.6-2.634-5.2-2.27-4c-.934-1.65-2.439-4.08-3.345-5.4s-2.135-3.242-2.731-4.272-1.308-2.109-1.583-2.4-1.304-1.698-2.287-3.128c-8.021-11.671-22.047-26.605-33.413-35.575-1.76-1.389-3.261-2.687-3.336-2.884-.182-.477-2.27-1.541-3.025-1.541-.331 0-6.159 5.54-12.95 12.312M163.376 353.719c-1.829 1.573-.593 9.329 2.374 14.902.578 1.085 1.05 2.119 1.05 2.298 0 2.82 10.376 12.824 16.159 15.579 7.251 3.454 9.374 3.896 18.721 3.9 10.676.003 16.256-2.087 22.834-8.557 5.064-4.982 7.244-8.722 10.943-18.78.812-2.209 1.512-7.135 1.193-8.405-.465-1.854-.511-1.856-37.254-1.856h-34.951l-1.069.919" fill="#04ac9c" fill-rule="evenodd"/></svg>