<svg xmlns="http://www.w3.org/2000/svg" width="400" height="400" viewBox="0 0 400 NaN" xmlns:v="https://vecta.io/nano"><path d="M183.4 10.403c-.88.181-3.58.533-6 .783-7.235.747-15.901 2.4-23 4.387l-8.6 2.301c-5.018 1.274-13.652 4.337-16.732 5.938-.623.323-1.302.588-1.509.588s-1.898.72-3.759 1.6-3.612 1.601-3.892 1.601-1.06.339-1.736.751-1.665.882-2.2 1.045-1.242.527-1.572.806-2.22 1.356-4.2 2.392-3.78 2.031-4 2.21-1.66.99-3.2 1.801-3.084 1.728-3.431 2.035-.768.559-.933.559-1.057.619-1.981 1.377-2.741 2.015-4.037 2.795-3.594 2.366-5.107 3.524c-3.83 2.93-11.267 8.874-13.036 10.417-1.916 1.672-15.49 15.246-17.162 17.162-2.501 2.867-8.513 10.39-8.515 10.656-.001.148-.586.909-1.3 1.691s-1.763 2.132-2.332 3c-3.866 5.898-4.898 7.39-5.4 7.806-.311.258-.566.635-.566.837 0 .346-.257.769-2.27 3.743-.45.664-.954 1.654-1.121 2.2s-.535 1.262-.819 1.592-1.362 2.22-2.397 4.2-2.11 3.87-2.39 4.2-.642 1.038-.806 1.572-.634 1.525-1.045 2.2-.75 1.457-.751 1.736-.721 2.031-1.601 3.892-1.6 3.553-1.6 3.759-.263.886-.584 1.509c-1.113 2.155-2.616 5.831-2.616 6.396 0 .312-.332 1.236-.738 2.052s-1.136 3.014-1.623 4.884-1.235 4.48-1.662 5.8-.777 2.714-.777 3.098-.341 1.735-.758 3c-5.98 18.154-7.452 54.425-3.185 78.502 1.396 7.881 2.48 12.406 4.743 19.8.404 1.32.852 3.12.996 4s.714 2.86 1.266 4.4l1.572 4.6c.313.99.824 2.34 1.134 3s1.051 2.37 1.646 3.8 1.579 3.68 2.187 5 1.308 3.035 1.554 3.811c.469 1.475 1.027 2.563 5.153 10.043l2.837 5.146c2.291 4.176 3.757 6.554 5.19 8.418a45.43 45.43 0 0 1 2.665 3.963c1.18 2.023 1.529 2.526 3.274 4.72l4.135 5.299c6.593 8.492 18.027 20.403 25.727 26.8l5.123 4.312c1.097.941 2.66 2.132 3.473 2.645s1.926 1.415 2.473 2.004a8.85 8.85 0 0 0 2.195 1.647c1.614.775 2.293 1.22 5.799 3.8 1.651 1.215 3.451 2.439 4.001 2.72s1.72.951 2.6 1.488 2.14 1.252 2.8 1.587c1.35.685 2.335 1.261 3.808 2.225.554.363 1.454.796 2 .963s1.262.534 1.592.815c1.063.906 6.729 3.715 8.085 4.009.723.156 1.793.622 2.377 1.035s1.309.75 1.611.75.904.246 1.338.546 1.239.681 1.789.845c.977.291 1.707.591 5.8 2.378 2.868 1.252 5.672 2.214 8.2 2.811 1.21.286 3.55.923 5.2 1.417 8.565 2.561 14.531 4.008 20.6 4.997 1.76.287 4.55.795 6.2 1.129 11.504 2.328 43.419 2.334 54 .01 1.43-.314 3.95-.747 5.6-.962s3.526-.569 4.17-.785 2.353-.576 3.8-.8 3.44-.671 4.43-.993a85.02 85.02 0 0 1 4-1.158c1.21-.314 3.46-.957 5-1.427s3.79-1.103 5-1.406c2.767-.692 5.843-1.691 7.4-2.402 2.613-1.193 6.949-3 7.199-3 .146 0 1.521-.63 3.055-1.4s3.007-1.4 3.272-1.4c.516 0 8.75-4.189 12.874-6.549a272.18 272.18 0 0 1 4.4-2.433c2.609-1.413 7.347-4.438 7.8-4.981.196-.234 1.493-1.098 5.271-3.513 1.03-.657 2.47-1.682 3.2-2.277l6.873-5.519c9.344-7.479 20.178-18.303 27.808-27.784l5.555-6.897c.601-.744 1.34-1.811 1.642-2.37s.712-1.21.911-1.447.935-1.33 1.636-2.43 1.388-2.09 1.527-2.2c.525-.415 3.521-5.107 4.98-7.8l2.441-4.4c2.267-3.93 6.556-12.349 6.556-12.869 0-.262.72-1.919 1.6-3.683s1.6-3.374 1.6-3.579c0-.328.785-2.214 2.608-6.269.712-1.582 1.711-4.673 2.394-7.4.303-1.21.907-3.37 1.342-4.8 1.859-6.105 2.712-9.268 3.449-12.8l2.605-13.4c2.567-13.462 2.579-43.897.022-55.6-.241-1.1-.703-3.62-1.027-5.6-.876-5.353-3.116-15.165-3.879-17-.414-.994-1.431-4.596-2.484-8.8-.622-2.481-1.631-5.43-2.67-7.8l-1.766-4.2-1.629-3.86c-.311-.694-.565-1.434-.565-1.647s-.337-.814-.748-1.339-.877-1.546-1.035-2.269c-.303-1.388-3.131-7.066-4.027-8.085-.29-.33-.652-1.097-.803-1.704s-.438-1.204-.637-1.327-.628-.796-.953-1.496c-.784-1.688-3.417-6.276-4.297-7.487-.385-.53-.7-1.13-.7-1.334s-.592-1.108-1.314-2.011a54.5 54.5 0 0 1-2.1-2.801l-1.487-2.2c-.385-.572-.963-1.58-1.284-2.24a8.72 8.72 0 0 0-1.599-2.142c-.559-.518-1.522-1.692-2.14-2.608-5.95-8.816-22.121-25.257-33.676-34.238l-6.913-5.413c-.268-.22-1.657-1.105-3.087-1.967s-3.312-2.122-4.182-2.8c-2.073-1.614-6.975-4.632-7.524-4.632-.237 0-.715-.254-1.063-.564s-2.586-1.615-4.976-2.9l-6.389-3.434c-1.124-.604-2.678-1.3-3.455-1.547-1.312-.417-2.483-.928-8.486-3.703-1.252-.579-2.517-1.052-2.811-1.052s-.891-.246-1.325-.546-1.689-.824-2.789-1.165a142.63 142.63 0 0 1-4.8-1.625c-1.54-.553-3.52-1.124-4.4-1.268s-2.68-.602-4-1.017c-8.558-2.694-17.787-4.632-29.8-6.258-5.509-.745-36.314-1.15-39.4-.518m37.4 28.164c2.53.367 5.5.852 6.6 1.078l4.699.933c3.73.723 8.05 1.77 10.901 2.641 1.32.403 3.12.848 4 .987 1.569.249 9.636 2.925 12 3.981l3 1.33 4 1.78a126.43 126.43 0 0 0 4.6 1.929c1.32.518 2.878 1.264 3.462 1.658s1.177.716 1.318.716c.326 0 6.617 3.569 7.42 4.209.33.264 1.68 1.061 3 1.772 2.8 1.51 6.122 3.725 9.871 6.583 1.469 1.12 3.408 2.48 4.308 3.022s2.939 2.22 4.529 3.728 3.522 3.161 4.292 3.671 1.76 1.292 2.2 1.735c4.976 5.015 11.052 11.407 12.056 12.683.69.878 2.258 2.657 3.483 3.952s3.05 3.545 4.054 5l3.43 4.845c2.352 3.224 5.126 7.436 5.589 8.485.222.503.937 1.725 1.588 2.715s1.38 2.25 1.62 2.799.679 1.27.976 1.6c.715.796 3.804 6.651 3.804 7.211 0 .241.692 1.913 1.537 3.714 1.995 4.251 3.38 7.498 4.47 10.476.483 1.32 1.137 2.947 1.453 3.615s.833 2.379 1.148 3.8.953 3.845 1.416 5.385 1.029 3.7 1.255 4.8.74 3.17 1.142 4.6.903 3.59 1.114 4.8l.81 4.6c1.669 9.418 2.513 29.62 1.572 37.6l-.894 8.021c-.335 3.092-.783 6.152-.994 6.8s-.582 2.519-.823 4.157-.61 3.186-.821 3.44-.49 1.345-.62 2.422-.578 3.04-.996 4.36c-1.514 4.784-2.369 7.952-2.369 8.773 0 .461-.36 1.511-.8 2.331s-.8 1.759-.8 2.084-.344 1.36-.765 2.301-1.246 2.881-1.835 4.311-1.667 3.86-2.397 5.4-1.459 3.25-1.621 3.8-.629 1.627-1.038 2.394-.744 1.534-.744 1.704-.622 1.195-1.383 2.277-1.66 2.565-1.999 3.296a25.01 25.01 0 0 1-1.317 2.425c-.386.603-1.76 2.853-3.055 5s-3.259 5.046-4.364 6.442-2.675 3.556-3.486 4.8c-1.329 2.038-3.293 4.366-7.139 8.462-.723.77-1.558 1.85-1.857 2.4s-1.349 1.63-2.335 2.4-2.067 1.858-2.403 2.419-1.028 1.248-1.537 1.527-1.555 1.319-2.325 2.31-1.85 2.043-2.4 2.34-1.72 1.205-2.6 2.02c-5.071 4.694-6.209 5.656-8.262 6.988-1.244.807-3.404 2.372-4.8 3.478s-4.296 3.069-6.444 4.364l-5.4 3.267c-.822.503-1.944 1.135-2.494 1.405s-1.752.978-2.672 1.574c-1.767 1.144-6.576 3.508-7.137 3.508-.182 0-1.605.614-3.161 1.365A123.11 123.11 0 0 1 262 351.8l-4.311 1.835c-.941.421-2.026.765-2.411.765s-1.077.264-1.537.587-1.986.839-3.389 1.148-4.442 1.123-6.752 1.811-4.514 1.25-4.898 1.252-1.735.347-3 .77-3.37.889-4.676 1.038-2.781.425-3.278.614c-6.891 2.62-37.637 2.859-51.948.404-5.449-.935-7.411-1.337-9.8-2.005-1.43-.401-3.5-.917-4.6-1.148s-3.35-.809-5-1.283-4.069-1.106-5.376-1.404-2.927-.801-3.6-1.119-2.304-.975-3.624-1.458c-2.978-1.09-6.225-2.475-10.476-4.47-1.801-.845-3.473-1.537-3.714-1.537-.53 0-6.366-3.057-7.21-3.776-.543-.464-2.358-1.528-8.021-4.704-2.143-1.202-6.527-4.177-8.979-6.093-.88-.688-2.632-1.948-3.894-2.801s-3.332-2.525-4.6-3.716-3.026-2.738-3.906-3.438-3.865-3.493-6.633-6.207l-5.402-5.2c-.203-.146-1.113-1.255-2.021-2.465s-2.807-3.417-4.22-4.904-3.009-3.436-3.546-4.329-1.891-2.827-3.007-4.296c-3.144-4.14-5.5-7.663-6.733-10.071-.62-1.21-1.343-2.47-1.606-2.8-.667-.836-4.232-7.12-4.232-7.459 0-.153-.251-.562-.557-.91s-1.049-1.891-1.652-3.431-1.542-3.79-2.088-5l-3.107-7c-1.099-2.504-3.747-10.467-3.99-12-.139-.88-.582-2.68-.984-4-1.012-3.327-1.619-5.806-2.448-10l-1.109-5.4c-2.639-11.959-2.65-40.618-.021-53.8 1.517-7.604 3.377-15.517 3.859-16.419.23-.43.552-1.675.716-2.767s.821-3.432 1.462-5.2 1.347-3.844 1.572-4.614c.386-1.324 1.046-2.919 2.729-6.6 1.388-3.037 2.318-5.208 3.254-7.6.516-1.32 1.26-2.829 1.652-3.354s.712-1.158.712-1.409.715-1.53 1.589-2.846 1.593-2.523 1.6-2.683.624-1.25 1.372-2.421 1.648-2.749 1.998-3.507c.639-1.387 2.894-4.695 5.981-8.774.913-1.207 2.2-3.008 2.86-4.002 1.33-2.003 2.668-3.637 4.242-5.182.573-.562 1.908-2.102 2.965-3.422C80.651 89.949 89.854 80.734 93 78.187c1.32-1.069 3.179-2.717 4.13-3.664s2.752-2.393 4-3.216a123.65 123.65 0 0 0 4.952-3.501c4.316-3.228 7.173-5.132 9.42-6.279 1.156-.59 2.576-1.445 3.154-1.9s1.253-.832 1.498-.838 1.522-.727 2.837-1.6 2.548-1.589 2.739-1.589.824-.322 1.408-.716 2.142-1.137 3.462-1.652c2.712-1.057 5.458-2.239 7.134-3.071 3.354-1.665 13.107-5.153 16.666-5.962 1.21-.275 4.334-1.06 6.943-1.745s5.938-1.45 7.4-1.7 2.946-.604 3.298-.787c.57-.295 5.837-1.03 14.159-1.974 5.08-.576 29.467-.172 34.6.574m-26.2 28.589c-18.802 2.287-32.741 25.44-26.872 44.634 3.685 12.049 12.801 20.842 25.189 24.295 5.957 1.66 18.454.91 21.283-1.278.22-.17.85-.442 1.4-.605 14.221-4.206 24.811-26.057 20.066-41.402-5.848-18.913-20.611-28.132-41.066-25.644M165.952 138.5c-8.113 7.566-13.216 20.307-13.819 34.5-.308 7.249.706 6.6-10.311 6.6-11.505 0-14.763.753-20.752 4.795-2.649 1.787-8.27 8.266-8.27 9.531 0 .157-.347.934-.772 1.726s-.895 2.139-1.047 2.994-.525 2.537-.828 3.738c-.388 1.534-.555 4.869-.559 11.2-.007 9.522-.042 9.748-1.602 10.346-10.133 3.882-15.102 18.574-9.74 28.8 9.463 18.051 36.57 13.422 39.42-6.732 1.363-9.636-2.415-16.405-12.597-22.568l-1.125-.681.125-10.074.125-10.075 1.136-2c1.579-2.78 3.146-4.308 5.794-5.65l2.27-1.15 30.037-.117c25.455-.098 30.109-.03 30.506.448.342.412.439 4.36.362 14.697l-.105 14.133-2.4 1.398c-19.108 11.135-12.058 39.674 9.8 39.674s28.78-27.311 10.001-39.46l-2.801-1.812V208.63c0-11.64.099-14.214.561-14.598.419-.347 8.162-.436 30.5-.349l29.939.117 1.925.948c6.019 2.963 7.192 5.725 7.388 17.392.188 11.21.324 10.635-2.935 12.457-5.615 3.14-9.09 7.921-10.562 14.533l-.822 3.688.824 3.976c4.375 21.111 32.32 23.549 40.437 3.528 3.802-9.379-1.303-21.874-10.755-26.325-1.037-.489-1.702-1.073-1.706-1.499-.191-22.674-.649-25.354-5.46-31.961-6.073-8.339-12.416-10.937-26.706-10.937-11.06 0-10.059.619-10.351-6.4-.309-7.45-1.657-14.437-3.665-19-4.28-9.729-10.322-17.521-12.352-15.931-1.522 1.192-6.82 5.089-7.672 5.645-17.083 11.134-41.056 9.265-57.785-4.505-2.559-2.107-2.407-2.069-3.651-.909M87.747 265.928c-1.221 1.553-4.052 7.059-5.074 9.872-.826 2.27-.873 3.062-.873 14.6 0 18.283-4.046 16.4 35.237 16.4 34.169 0 31.578.242 33.939-3.165l1.087-1.569-.167-11.933c-.181-12.822-.307-13.687-2.7-18.55-3.85-7.823-3.601-7.732-8.443-3.08-4.059 3.901-8.07 6.304-13.953 8.358-5.635 1.968-21.015.902-24.209-1.678-.225-.181-1.481-.894-2.792-1.583-2.875-1.513-5.237-3.358-8.279-6.469-2.601-2.658-2.622-2.665-3.773-1.203m85.164-.359c-1.205 1.005-4.173 6.814-5.345 10.46-.918 2.854-.956 3.436-.961 14.771l-.005 11.8.982 1.309c2.316 3.087.005 2.891 34.046 2.891h30.383l1.368-.896c.752-.494 1.84-1.619 2.418-2.5l1.05-1.604-.155-11.4c-.184-13.442-.958-16.844-5.33-23.43-1.78-2.683-1.428-2.736-4.984.744-7.709 7.543-13.918 10.061-24.778 10.048-11.051-.013-17.375-2.595-24.963-10.195l-2.8-2.754c-.02.008-.437.348-.926.756m84.718-.069c-.886.721-1.247 1.281-3.034 4.7-2.989 5.72-3.155 6.779-3.176 20.2l-.019 12.2.994 1.326c2.312 3.082-.134 2.874 33.853 2.873 35.013-.002 32.244.374 35.93-4.887.87-1.243.903-17.899.042-20.912-1.541-5.389-4.982-12.984-6.862-15.145-1.132-1.302-.997-1.363-4.336 1.955-11.034 10.964-26.699 13.358-41.007 6.267-3.106-1.54-4.472-2.542-7.6-5.576l-3.87-3.7c-.03 0-.442.314-.915.699" fill="#05ac9c" fill-rule="evenodd"/></svg>