<svg xmlns="http://www.w3.org/2000/svg" width="400" height="400" viewBox="0 0 400 NaN" xmlns:v="https://vecta.io/nano"><path d="M187.505 10.012c-3.587.273-4.007.395-5.314 1.542-.78.685-1.731 1.246-2.113 1.246s-2.49.904-4.686 2.008C148.853 28.16 136.498 59.124 146.986 86c1.435 3.678 2.558 6.076 3.54 7.56.591.893 1.074 1.734 1.074 1.869s1.066 1.715 2.369 3.509c14.035 19.324 38.434 27.864 60.831 21.292 9.432-2.767 15.012-5.886 23.172-12.95 2.455-2.125 7.843-8.71 9.473-11.578l1.915-3.302c13.111-22.041 6.201-54.051-15.36-71.158-4.655-3.693-10.78-7.231-14.6-8.435-.88-.277-2.07-.942-2.645-1.478-1.668-1.554-17.028-2.245-29.25-1.317M142.123 125.1c-1.824 1.876-5.201 6.013-6.734 8.251-2.599 3.793-3.868 5.811-4.432 7.049-.35.77-.876 1.67-1.168 2-1.79 2.021-6.302 14.891-7.399 21.104-1.482 8.398-1.574 9.397-1.582 17.196-.008 8.065-.281 9.271-2.108 9.311-.275.006-5.919.001-12.542-.011-19.9-.035-25.592 1.278-35.467 8.181-4.745 3.316-11.943 11.915-13.411 16.019-.236.66-.877 2.28-1.423 3.6-2.161 5.216-2.367 7.152-2.621 24.668L53 258.737l-.97 1.031c-.533.568-1.171 1.032-1.416 1.032-1.056 0-7.041 4.14-9.627 6.66-21.51 20.954-6.632 57.485 23.413 57.488 34.756.003 46.662-47.358 15.866-63.11-4.792-2.451-4.446-1.37-4.595-14.352-.168-14.681.257-19.483 2.06-23.263 2.457-5.153 7.512-9.491 12.695-10.895 4.242-1.15 95.408-1.314 96.816-.175l.958.776.11 21.854c.123 24.338.142 24.141-2.447 24.997-7.791 2.577-16.869 13.338-18.962 22.478-7.099 30.996 27.981 54.009 53.153 34.869 19.414-14.763 16.916-44.987-4.654-56.309-4.706-2.471-4.232.348-4.234-25.137-.003-23.256.027-23.666 1.746-24.092 2.712-.672 93.714.051 96.088.763 7.217 2.167 13.15 8.939 14.202 16.208.589 4.068.5 28.015-.108 29.216-.289.57-2.113 1.9-4.389 3.2-21.57 12.317-23.786 41.24-4.305 56.178 22.006 16.874 53.88 1.041 53.986-26.819.049-12.79-8.163-25.671-19.344-30.343-2.754-1.151-2.637-.415-2.786-17.629-.088-10.121-.296-16.122-.594-17.163-.253-.88-.729-2.86-1.058-4.4-2.811-13.165-14.592-25.548-28.329-29.777-5.674-1.747-9.021-2.036-23.221-2.008-15.504.031-14.251.538-14.26-5.777-.028-19.535-4.298-34.937-13.483-48.638-7.804-11.641-10.09-13.537-13.171-10.917-7.515 6.389-15.198 11.301-21.159 13.529-1.089.408-2.364.983-2.832 1.278-3.647 2.304-19.862 5.31-28.638 5.31-8.724 0-23.017-2.655-27.911-5.185-.77-.398-1.85-.86-2.4-1.027-5.075-1.54-16.134-8.498-21.683-13.642-2.388-2.215-3.111-2.194-5.394.154M17.334 328.7l-2.385 3.7c-.502.77-1.202 2.12-1.557 3-.827 2.053-2.421 5.454-3.749 8l-1.043 2-.117 20.906c-.064 11.498.026 21.155.2 21.461s1.609 1.636 3.188 2.956l2.87 2.4 3.33.265c1.831.145 24.034.207 49.339.138l46.011-.126 2.039-1.6a21.66 21.66 0 0 0 3.59-3.8l1.55-2.2v-17c0-12.952-.13-17.571-.548-19.4-.918-4.025-2.776-9.727-4.019-12.331-.648-1.358-1.363-2.919-1.59-3.469-3.231-7.836-4.937-8.364-10.102-3.129-3.569 3.617-8.666 7.929-9.373 7.929-.123 0-.976.515-1.896 1.146-1.939 1.328-7.926 4.192-9.658 4.62-.652.161-1.912.622-2.8 1.025-8.635 3.92-29.146 2.487-39.388-2.752-.784-.402-2.056-1.028-2.826-1.393-4.082-1.934-9.395-5.993-14.045-10.73-4.624-4.71-4.985-4.793-7.021-1.616m135.485-.528c-.67.975-1.219 1.887-1.219 2.028s-.514 1.008-1.142 1.928-1.376 2.392-1.661 3.272-.777 1.997-1.092 2.482c-.86 1.323-3.248 9.034-3.8 12.273-.806 4.728-.689 34.447.142 36.245.861 1.862 3.617 4.926 5.465 6.075l1.488.925 46.2.124c57.663.156 52.921.63 57.047-5.712l1.553-2.387-.016-17.013-.016-17.012-1.495-5.534c-.821-3.043-1.916-6.373-2.432-7.4s-1.066-2.282-1.224-2.79-1.313-2.667-2.569-4.796c-3.256-5.525-3.602-5.59-7.463-1.394-16.75 18.203-42.983 23.157-65.385 12.347-6.483-3.129-13.989-8.909-17.433-13.425-2.045-2.681-3.226-2.738-4.948-.236m136.265-1.272c-1.875 1.401-5.809 9.144-8.097 15.937-2.122 6.304-2.372 9.088-2.38 26.563s-.101 16.836 2.952 20.275c.915 1.031 2.334 2.291 3.153 2.8l1.488.925h48.4l49.505-.309c1.838-.514 8.184-7.192 8.717-9.174.313-1.16.399-6.129.28-16.097-.187-15.618-.183-15.584-2.651-21.059-.635-1.408-1.285-3.191-1.444-3.961-.383-1.858-4.563-10.333-6.707-13.6-2.422-3.689-2.715-3.653-7.201.885-2.035 2.058-4.153 4.096-4.707 4.528-6.368 4.97-10.625 7.382-17.392 9.856-4.531 1.656-5.394 1.855-10.998 2.529-14.977 1.804-27.125-1.327-40.268-10.379-2.313-1.593-7.808-6.783-8.971-8.473-1.262-1.834-2.384-2.214-3.679-1.246" fill="#06ac9d" fill-rule="evenodd"/></svg>