<svg id="svg" version="1.1" xmlns="http://www.w3.org/2000/svg" xmlns:xlink="http://www.w3.org/1999/xlink" width="400" height="400" viewBox="0, 0, 400,400"><g id="svgg"><path id="path0" d="M194.600 12.050 C 188.157 12.301,175.337 13.468,174.702 13.860 C 174.514 13.977,172.794 14.303,170.880 14.587 C 168.966 14.870,166.230 15.381,164.800 15.722 C 161.868 16.421,159.636 16.937,155.000 17.985 C 149.389 19.255,147.117 19.913,142.000 21.753 C 139.250 22.741,136.190 23.837,135.200 24.188 C 134.210 24.539,132.860 25.075,132.200 25.380 C 131.540 25.685,129.542 26.482,127.761 27.151 C 125.979 27.820,123.729 28.806,122.761 29.341 C 118.844 31.506,112.728 34.400,112.071 34.400 C 111.866 34.400,111.465 34.680,111.181 35.023 C 110.896 35.366,110.109 35.908,109.432 36.228 C 108.754 36.549,106.940 37.616,105.400 38.601 C 103.860 39.586,102.330 40.516,102.000 40.669 C 100.244 41.480,87.871 50.087,85.541 52.117 C 84.583 52.952,82.718 54.482,81.394 55.517 C 78.010 58.166,76.405 59.664,68.433 67.611 C 61.334 74.687,59.208 76.983,55.620 81.452 C 54.537 82.801,53.170 84.421,52.583 85.052 C 51.996 85.684,50.723 87.370,49.755 88.800 C 48.787 90.230,46.691 93.315,45.097 95.656 C 43.504 97.997,41.570 100.945,40.800 102.207 C 40.030 103.470,38.636 105.694,37.703 107.151 C 36.769 108.608,36.004 110.075,36.003 110.411 C 36.001 110.747,35.752 111.377,35.448 111.811 C 35.145 112.245,33.943 114.490,32.777 116.800 C 31.611 119.110,30.330 121.429,29.929 121.954 C 29.528 122.479,29.200 123.221,29.200 123.603 C 29.200 124.273,28.366 126.402,26.762 129.826 C 26.343 130.721,26.000 131.716,26.000 132.037 C 26.000 132.359,25.766 132.977,25.479 133.411 C 25.021 134.104,24.129 136.364,22.404 141.200 C 22.129 141.970,21.650 143.748,21.339 145.151 C 21.028 146.554,20.610 148.007,20.411 148.379 C 20.212 148.751,19.785 150.123,19.461 151.427 C 19.137 152.732,18.333 155.960,17.675 158.600 C 17.016 161.240,16.295 164.390,16.072 165.600 C 15.849 166.810,15.482 168.520,15.256 169.400 C 15.030 170.280,14.652 173.340,14.417 176.200 C 14.181 179.060,13.799 182.660,13.566 184.200 C 12.327 192.406,13.666 225.199,15.620 234.513 C 17.418 243.081,19.520 251.462,20.558 254.200 C 20.892 255.080,21.172 256.070,21.181 256.400 C 21.200 257.134,23.090 263.345,23.798 265.000 C 24.080 265.660,24.445 266.650,24.609 267.200 C 24.773 267.750,25.154 268.555,25.454 268.989 C 25.754 269.423,26.001 270.053,26.002 270.389 C 26.004 270.725,26.297 271.540,26.653 272.200 C 27.425 273.629,28.703 276.850,29.271 278.800 C 29.496 279.570,29.919 280.470,30.212 280.801 C 30.505 281.131,30.936 281.851,31.171 282.401 C 31.406 282.950,31.767 283.670,31.974 284.000 C 32.180 284.330,32.608 285.140,32.924 285.800 C 34.855 289.836,38.027 295.741,39.369 297.800 C 42.184 302.119,43.478 304.184,44.007 305.200 C 44.293 305.750,45.894 308.045,47.564 310.300 C 49.234 312.555,50.960 314.930,51.400 315.578 C 51.840 316.227,53.435 318.252,54.945 320.079 C 63.230 330.104,75.803 342.647,82.912 347.980 C 84.184 348.934,85.894 350.334,86.712 351.090 C 87.531 351.846,89.010 352.934,90.000 353.507 C 90.990 354.080,92.610 355.201,93.600 355.997 C 95.739 357.718,101.168 361.292,104.800 363.369 C 106.230 364.187,108.570 365.561,110.000 366.422 C 111.430 367.284,113.410 368.292,114.400 368.662 C 115.390 369.033,116.470 369.548,116.800 369.807 C 117.130 370.067,118.570 370.855,120.000 371.558 C 121.430 372.261,122.870 372.998,123.200 373.194 C 124.248 373.819,128.479 375.599,128.948 375.614 C 129.197 375.621,130.120 375.975,131.000 376.400 C 131.880 376.825,132.787 377.179,133.015 377.186 C 133.243 377.194,134.953 377.847,136.815 378.637 C 138.677 379.428,140.913 380.247,141.784 380.458 C 142.656 380.669,143.556 380.993,143.784 381.177 C 144.249 381.552,150.922 383.370,153.400 383.797 C 154.280 383.948,156.080 384.398,157.400 384.795 C 160.669 385.780,164.838 386.715,168.200 387.217 C 169.740 387.447,171.630 387.799,172.400 387.999 C 173.170 388.200,175.510 388.556,177.600 388.790 C 179.690 389.025,182.480 389.391,183.800 389.603 C 186.889 390.100,216.644 390.108,219.800 389.613 C 221.120 389.405,224.090 389.039,226.400 388.797 C 228.710 388.556,231.500 388.117,232.600 387.821 C 233.700 387.526,235.590 387.167,236.800 387.023 C 238.010 386.879,239.900 386.514,241.000 386.212 C 245.441 384.993,249.547 383.964,252.200 383.406 C 256.785 382.442,258.603 381.854,267.600 378.426 C 269.470 377.714,271.770 376.786,272.711 376.365 C 273.652 375.944,274.696 375.600,275.031 375.600 C 275.367 375.600,276.307 375.266,277.121 374.857 C 278.994 373.916,280.770 373.030,283.800 371.527 C 285.120 370.872,286.470 370.174,286.800 369.977 C 287.130 369.779,288.300 369.214,289.400 368.721 C 292.383 367.383,295.708 365.590,296.503 364.890 C 296.889 364.550,297.551 364.075,297.974 363.836 C 301.156 362.031,304.255 360.202,304.594 359.927 C 304.984 359.612,308.490 357.201,314.000 353.461 C 315.430 352.491,317.235 351.090,318.011 350.348 C 318.786 349.607,320.281 348.370,321.331 347.600 C 322.382 346.830,323.997 345.505,324.921 344.656 C 325.844 343.807,327.614 342.257,328.854 341.212 C 330.093 340.167,331.983 338.342,333.054 337.156 C 334.124 335.970,335.958 334.135,337.129 333.078 C 339.697 330.760,345.676 324.129,348.067 320.947 C 349.020 319.679,350.340 318.090,351.000 317.415 C 352.374 316.011,354.397 313.140,354.407 312.578 C 354.411 312.370,354.864 311.773,355.414 311.251 C 356.340 310.372,359.150 306.287,361.776 302.000 C 362.383 301.010,363.792 298.763,364.909 297.007 C 366.025 295.250,367.561 292.460,368.322 290.807 C 369.084 289.153,369.821 287.710,369.961 287.600 C 370.448 287.217,375.600 276.437,375.600 275.800 C 375.600 275.447,375.941 274.493,376.358 273.679 C 377.607 271.242,378.800 268.411,378.800 267.883 C 378.800 267.611,379.136 266.761,379.547 265.994 C 379.957 265.227,380.428 263.970,380.593 263.200 C 380.758 262.430,381.036 261.620,381.211 261.400 C 381.386 261.180,382.065 258.930,382.719 256.400 C 383.968 251.569,385.243 247.022,386.195 244.000 C 386.507 243.010,386.876 241.300,387.014 240.200 C 387.152 239.100,387.435 237.643,387.643 236.962 C 388.282 234.871,389.620 225.671,390.052 220.400 C 390.591 213.829,390.237 178.884,389.606 176.400 C 389.355 175.410,388.908 172.890,388.614 170.800 C 387.968 166.217,386.998 161.315,386.198 158.600 C 385.874 157.500,385.322 155.520,384.971 154.200 C 381.636 141.669,380.955 139.398,379.567 136.200 C 379.185 135.320,378.475 133.610,377.989 132.400 C 377.502 131.190,376.766 129.460,376.352 128.556 C 375.938 127.652,375.600 126.682,375.600 126.400 C 375.600 125.963,370.665 115.752,369.608 114.000 C 369.408 113.670,368.581 111.990,367.769 110.266 C 366.956 108.543,365.897 106.653,365.415 106.066 C 364.933 105.480,363.595 103.380,362.442 101.400 C 361.289 99.420,359.740 96.990,359.000 96.000 C 358.259 95.010,357.641 94.009,357.627 93.775 C 357.612 93.541,357.053 92.825,356.384 92.184 C 355.715 91.543,354.744 90.261,354.226 89.336 C 350.851 83.297,327.642 58.554,322.770 55.800 C 322.381 55.580,320.491 54.050,318.571 52.400 C 316.650 50.750,314.223 48.860,313.178 48.200 C 312.132 47.540,309.234 45.630,306.738 43.956 C 302.549 41.145,294.422 36.056,292.301 34.915 C 288.306 32.765,274.715 26.422,273.600 26.188 C 272.830 26.026,271.573 25.557,270.806 25.147 C 270.039 24.736,269.184 24.400,268.904 24.400 C 268.625 24.400,267.725 24.040,266.904 23.600 C 266.084 23.160,265.139 22.799,264.806 22.798 C 264.473 22.796,263.717 22.543,263.127 22.235 C 262.537 21.927,261.457 21.544,260.727 21.384 C 259.997 21.224,258.680 20.774,257.800 20.385 C 256.920 19.996,254.400 19.289,252.200 18.813 C 250.000 18.338,246.940 17.614,245.400 17.206 C 243.860 16.797,241.880 16.347,241.000 16.207 C 240.120 16.066,238.500 15.705,237.400 15.404 C 228.686 13.020,209.087 11.484,194.600 12.050 M218.800 41.189 C 223.468 41.646,230.151 42.685,232.800 43.366 C 234.010 43.676,235.898 44.054,236.995 44.204 C 238.092 44.354,239.478 44.730,240.075 45.039 C 240.672 45.347,241.484 45.599,241.880 45.598 C 242.276 45.597,244.040 46.031,245.800 46.562 C 247.560 47.092,250.384 47.914,252.075 48.388 C 253.767 48.862,256.647 49.883,258.475 50.657 C 260.304 51.432,262.250 52.213,262.800 52.393 C 263.954 52.772,265.959 53.692,268.079 54.816 C 268.893 55.247,269.849 55.600,270.204 55.600 C 270.806 55.600,277.182 58.837,278.305 59.712 C 278.901 60.177,280.444 61.015,284.000 62.807 C 285.430 63.527,287.320 64.688,288.200 65.387 C 289.080 66.086,291.330 67.684,293.200 68.938 C 298.012 72.165,300.337 73.854,301.993 75.323 C 302.785 76.025,304.055 77.050,304.816 77.600 C 311.239 82.242,327.192 99.544,333.214 108.400 C 334.778 110.699,336.046 112.446,337.163 113.837 C 337.355 114.077,338.159 115.470,338.949 116.932 C 339.738 118.395,340.861 120.346,341.443 121.268 C 342.025 122.190,342.759 123.497,343.075 124.172 C 343.656 125.417,343.930 125.891,345.513 128.400 C 345.999 129.170,346.398 130.100,346.399 130.468 C 346.399 130.835,346.674 131.645,347.008 132.268 C 347.342 132.890,347.792 133.850,348.007 134.400 C 348.222 134.950,348.566 135.670,348.771 136.000 C 349.176 136.653,350.158 138.852,351.718 142.600 C 352.783 145.159,354.400 150.132,354.400 150.848 C 354.400 151.085,354.648 151.846,354.951 152.540 C 356.086 155.138,358.182 162.682,359.024 167.200 C 359.331 168.850,359.848 171.100,360.174 172.200 C 360.499 173.300,360.877 176.090,361.014 178.400 C 361.152 180.710,361.514 184.130,361.819 186.000 C 362.609 190.845,362.619 211.003,361.834 216.053 C 361.513 218.114,361.126 221.780,360.974 224.200 C 360.821 226.620,360.360 229.658,359.948 230.952 C 359.537 232.246,359.192 233.866,359.182 234.552 C 359.173 235.238,358.905 236.520,358.588 237.400 C 358.271 238.280,357.817 240.056,357.580 241.347 C 357.342 242.638,356.998 243.988,356.814 244.347 C 356.497 244.969,355.877 246.887,353.373 255.000 C 352.762 256.980,352.041 258.960,351.770 259.400 C 351.500 259.840,351.159 260.773,351.014 261.472 C 350.868 262.172,350.490 262.959,350.174 263.221 C 349.858 263.483,349.600 263.881,349.600 264.104 C 349.600 264.328,348.906 265.971,348.057 267.755 C 347.209 269.540,346.396 271.490,346.252 272.090 C 346.108 272.689,345.556 273.819,345.025 274.601 C 344.495 275.383,343.652 276.873,343.154 277.911 C 342.655 278.950,341.675 280.620,340.975 281.623 C 340.275 282.625,339.570 283.864,339.408 284.375 C 339.246 284.887,337.967 286.947,336.566 288.953 C 335.166 290.959,333.347 293.590,332.524 294.800 C 330.611 297.616,327.126 302.033,326.237 302.770 C 325.860 303.083,324.931 304.253,324.173 305.370 C 322.063 308.481,309.085 321.525,306.000 323.636 C 305.230 324.162,303.669 325.405,302.530 326.397 C 300.259 328.376,296.846 330.960,293.903 332.930 C 292.859 333.629,290.483 335.240,288.623 336.512 C 286.763 337.784,284.646 339.095,283.920 339.426 C 283.194 339.757,281.790 340.528,280.800 341.139 C 279.810 341.750,278.010 342.773,276.800 343.413 C 275.590 344.052,274.187 344.883,273.681 345.260 C 273.176 345.637,272.186 346.065,271.481 346.212 C 270.777 346.359,268.670 347.196,266.800 348.072 C 262.150 350.250,261.248 350.658,259.400 351.415 C 256.821 352.473,252.328 353.903,250.600 354.217 C 249.720 354.376,248.534 354.743,247.964 355.031 C 246.421 355.811,238.054 357.886,231.200 359.188 C 228.890 359.627,226.409 360.158,225.687 360.369 C 221.088 361.710,184.107 361.722,178.600 360.383 C 177.720 360.170,175.110 359.642,172.800 359.211 C 165.126 357.779,157.637 355.892,155.800 354.926 C 155.360 354.695,154.280 354.381,153.400 354.229 C 151.567 353.912,147.172 352.568,145.400 351.782 C 144.740 351.489,143.390 350.903,142.400 350.480 C 141.410 350.057,139.048 348.985,137.151 348.098 C 135.255 347.212,133.102 346.354,132.367 346.193 C 131.633 346.031,130.574 345.600,130.016 345.234 C 128.446 344.205,127.598 343.728,124.922 342.370 C 123.559 341.678,122.136 340.772,121.760 340.356 C 121.384 339.940,120.789 339.600,120.438 339.599 C 119.169 339.598,106.286 330.740,101.549 326.613 C 100.531 325.726,98.911 324.427,97.949 323.726 C 96.987 323.025,95.207 321.495,93.993 320.326 C 92.779 319.157,90.979 317.453,89.993 316.539 C 87.815 314.521,80.676 306.891,79.239 305.044 C 78.668 304.310,76.842 302.020,75.183 299.955 C 73.523 297.890,71.633 295.390,70.984 294.400 C 70.334 293.410,69.686 292.510,69.545 292.400 C 69.066 292.027,65.530 286.610,64.715 285.000 C 64.054 283.692,62.020 280.181,59.966 276.800 C 59.310 275.720,57.200 271.329,57.200 271.044 C 57.200 270.891,56.120 268.531,54.800 265.800 C 53.480 263.069,52.400 260.623,52.400 260.364 C 52.400 260.106,52.063 259.333,51.651 258.647 C 51.239 257.961,50.780 256.590,50.631 255.600 C 50.482 254.610,50.122 253.437,49.832 252.994 C 49.542 252.551,49.182 251.561,49.031 250.794 C 48.880 250.027,48.513 248.770,48.214 248.000 C 47.388 245.872,46.053 241.195,45.758 239.400 C 45.613 238.520,45.322 237.465,45.110 237.056 C 44.898 236.647,44.464 234.757,44.145 232.856 C 43.826 230.955,43.399 228.410,43.197 227.200 C 42.995 225.990,42.644 222.750,42.416 220.000 C 42.188 217.250,41.804 213.020,41.562 210.600 C 41.063 205.600,41.301 190.771,41.944 186.800 C 42.175 185.370,42.551 181.950,42.779 179.200 C 43.303 172.866,44.533 166.524,46.581 159.600 C 46.873 158.610,47.592 156.180,48.177 154.200 C 48.762 152.220,49.502 150.090,49.821 149.466 C 50.140 148.843,50.519 147.583,50.664 146.666 C 50.808 145.750,51.240 144.370,51.622 143.600 C 52.005 142.830,52.807 140.940,53.404 139.400 C 54.002 137.860,54.678 136.368,54.908 136.084 C 55.490 135.363,57.014 132.010,57.324 130.767 C 57.545 129.882,58.167 128.675,59.987 125.600 C 61.855 122.446,65.600 115.678,65.600 115.457 C 65.600 115.210,66.327 114.203,69.562 109.966 C 69.996 109.398,71.242 107.598,72.331 105.966 C 73.420 104.335,74.826 102.420,75.456 101.711 C 78.114 98.718,79.823 96.664,80.163 96.053 C 81.641 93.396,99.060 76.800,100.370 76.800 C 100.620 76.800,100.929 76.530,101.055 76.201 C 101.272 75.634,106.450 71.635,110.394 68.987 C 111.387 68.321,113.426 66.917,114.925 65.869 C 116.424 64.820,118.749 63.404,120.091 62.722 C 121.433 62.040,124.699 60.237,127.349 58.714 C 129.999 57.192,132.714 55.837,133.382 55.704 C 134.049 55.570,135.677 54.889,136.998 54.191 C 138.319 53.492,140.120 52.688,141.000 52.403 C 141.880 52.119,142.955 51.642,143.389 51.343 C 143.823 51.044,144.456 50.800,144.795 50.800 C 145.134 50.800,146.080 50.442,146.897 50.004 C 147.714 49.566,150.501 48.646,153.091 47.959 C 161.052 45.847,163.216 45.238,163.608 44.995 C 164.619 44.370,179.444 41.687,184.600 41.196 C 188.697 40.806,214.827 40.801,218.800 41.189 M197.600 62.746 C 197.270 62.939,194.570 63.221,191.600 63.373 C 183.231 63.800,175.076 65.215,166.200 67.780 C 165.100 68.098,162.490 68.842,160.400 69.433 C 156.509 70.534,151.715 72.250,151.000 72.796 C 150.780 72.964,150.150 73.238,149.600 73.403 C 149.050 73.569,147.160 74.375,145.400 75.195 C 143.640 76.014,141.210 77.107,140.000 77.623 C 138.790 78.139,137.530 78.780,137.200 79.047 C 136.870 79.314,135.520 80.136,134.200 80.874 C 129.748 83.360,124.415 86.799,120.600 89.644 C 119.720 90.300,118.487 91.171,117.860 91.578 C 112.810 94.863,95.060 112.424,93.247 115.930 C 92.943 116.519,91.863 117.965,90.847 119.145 C 88.578 121.780,86.414 124.848,86.406 125.442 C 86.403 125.686,85.797 126.676,85.061 127.642 C 83.540 129.638,81.276 133.553,79.766 136.800 C 79.203 138.010,77.869 140.800,76.801 143.000 C 73.151 150.519,72.000 153.231,71.998 154.315 C 71.996 154.912,71.763 155.850,71.480 156.400 C 71.197 156.950,70.385 159.290,69.677 161.600 C 68.968 163.910,68.134 166.610,67.824 167.600 C 67.513 168.590,67.132 170.300,66.975 171.400 C 66.819 172.500,66.538 173.810,66.352 174.310 C 65.194 177.415,63.910 191.203,63.886 200.800 C 63.845 217.091,66.629 233.929,71.238 245.274 C 71.657 246.305,72.000 247.525,72.000 247.986 C 72.000 249.057,73.446 252.541,76.404 258.600 C 77.693 261.240,79.210 264.390,79.775 265.600 C 80.340 266.810,81.244 268.520,81.782 269.400 C 82.321 270.280,82.884 271.236,83.033 271.525 C 83.183 271.814,84.091 273.223,85.053 274.657 C 86.014 276.090,86.800 277.506,86.800 277.804 C 86.800 279.235,88.897 279.939,90.483 279.040 C 92.017 278.171,95.470 275.899,96.238 275.253 C 96.478 275.051,97.288 274.573,98.038 274.192 C 99.610 273.391,110.712 266.066,110.960 265.665 C 111.051 265.518,110.515 264.408,109.770 263.199 C 109.024 261.989,108.231 260.550,108.007 260.000 C 107.784 259.450,107.419 258.730,107.197 258.400 C 106.976 258.070,106.570 257.352,106.297 256.803 C 105.826 255.860,102.250 250.237,101.124 248.671 C 100.529 247.844,99.820 248.041,97.000 249.815 C 96.120 250.369,94.680 251.175,93.800 251.606 C 92.920 252.037,91.913 252.599,91.562 252.854 C 89.805 254.131,87.195 251.008,86.503 246.800 C 86.377 246.030,86.047 245.040,85.771 244.600 C 85.495 244.160,84.824 242.450,84.281 240.800 C 83.378 238.057,82.914 236.501,81.059 230.000 C 80.714 228.790,80.239 226.450,80.003 224.800 C 79.768 223.150,79.397 220.680,79.180 219.310 C 76.446 202.109,78.172 180.497,83.595 164.000 C 88.765 148.276,88.887 148.093,92.730 150.359 C 100.181 154.752,100.673 154.900,101.838 153.097 C 102.300 152.384,103.367 150.731,104.210 149.425 C 105.053 148.119,106.699 145.159,107.867 142.849 C 109.036 140.538,110.174 138.466,110.396 138.244 C 111.299 137.341,110.822 136.131,109.300 135.463 C 108.475 135.101,107.080 134.363,106.200 133.823 C 105.320 133.283,104.150 132.640,103.600 132.395 C 101.407 131.417,100.429 130.055,101.068 128.869 C 104.339 122.800,118.675 108.036,126.964 102.200 C 127.589 101.760,128.573 101.031,129.150 100.579 C 129.728 100.128,131.280 99.069,132.600 98.227 C 133.920 97.384,135.360 96.446,135.800 96.143 C 138.637 94.187,140.066 93.367,144.895 90.928 C 147.864 89.427,151.262 87.769,152.446 87.243 C 153.631 86.716,155.230 85.973,156.000 85.593 C 158.761 84.227,158.990 84.758,160.010 94.864 C 160.462 99.339,161.003 103.630,161.213 104.400 C 161.423 105.170,161.597 106.887,161.598 108.215 C 161.599 109.544,161.875 112.784,162.212 115.415 C 162.548 118.047,162.991 122.180,163.197 124.600 C 163.403 127.020,163.929 131.880,164.368 135.400 C 165.460 144.179,165.936 149.100,166.415 156.600 C 166.640 160.120,166.991 163.722,167.194 164.604 C 168.325 169.516,168.513 177.117,167.538 178.479 C 167.022 179.199,166.374 180.218,166.098 180.743 C 165.822 181.268,165.157 182.531,164.619 183.549 C 158.253 195.598,158.176 212.683,164.445 222.008 C 164.818 222.562,165.613 224.050,166.211 225.314 C 167.294 227.601,172.346 233.462,175.187 235.726 C 177.266 237.384,183.735 241.595,184.206 241.598 C 184.429 241.599,185.239 241.932,186.006 242.338 C 193.230 246.164,211.599 246.166,218.794 242.341 C 219.561 241.933,220.347 241.600,220.540 241.600 C 220.734 241.600,222.087 240.820,223.546 239.866 C 225.006 238.912,226.920 237.700,227.800 237.173 C 230.571 235.514,238.400 226.910,238.400 225.524 C 238.400 225.281,239.008 224.164,239.751 223.041 C 244.071 216.513,246.723 200.291,244.401 194.600 C 244.132 193.940,243.666 192.373,243.365 191.119 C 242.187 186.206,237.178 177.635,233.000 173.385 C 229.793 170.122,222.585 164.806,221.357 164.798 C 221.161 164.796,220.525 164.547,219.944 164.244 C 219.363 163.941,217.383 163.198,215.544 162.593 C 212.421 161.566,211.338 160.843,210.102 158.959 C 209.828 158.542,208.658 156.752,207.502 154.982 C 206.346 153.212,204.845 151.052,204.167 150.182 C 203.490 149.312,202.534 147.757,202.044 146.726 C 201.554 145.695,200.606 144.165,199.936 143.326 C 199.267 142.487,198.078 140.810,197.295 139.600 C 192.967 132.911,190.493 129.227,189.374 127.800 C 188.683 126.920,187.705 125.356,187.201 124.325 C 186.696 123.294,185.815 121.929,185.242 121.291 C 184.669 120.653,183.570 119.105,182.800 117.852 C 180.297 113.779,175.829 106.998,174.582 105.380 C 173.913 104.511,173.168 103.342,172.928 102.782 C 172.688 102.222,171.580 100.559,170.465 99.087 C 169.351 97.614,167.939 95.553,167.327 94.505 C 166.075 92.360,163.116 87.813,162.183 86.600 C 160.812 84.817,161.512 83.917,165.200 82.721 C 172.265 80.430,179.665 78.650,184.000 78.198 C 185.430 78.050,187.385 77.759,188.345 77.552 C 191.188 76.940,191.269 77.146,191.840 86.493 C 192.185 92.135,191.308 91.743,202.806 91.392 C 214.223 91.043,213.603 91.365,212.800 86.199 C 212.334 83.202,212.367 78.300,212.857 77.810 C 213.912 76.754,230.208 79.740,237.800 82.379 C 238.900 82.761,241.150 83.486,242.800 83.989 C 248.748 85.804,264.484 93.294,267.800 95.888 C 268.900 96.749,270.700 97.963,271.800 98.586 C 272.900 99.210,274.070 99.966,274.400 100.267 C 274.730 100.568,276.170 101.716,277.600 102.817 C 282.162 106.331,283.085 107.138,288.800 112.601 C 293.533 117.126,301.909 126.885,302.871 128.995 C 303.334 130.011,302.010 131.638,300.232 132.238 C 299.809 132.381,298.491 133.119,297.303 133.880 C 296.114 134.640,294.614 135.446,293.968 135.671 C 292.399 136.218,292.086 137.578,293.165 139.168 C 293.624 139.846,294.373 140.950,294.829 141.623 C 295.285 142.296,296.055 143.691,296.540 144.723 C 297.025 145.755,297.762 147.140,298.177 147.800 C 300.061 150.793,302.535 154.436,302.792 154.595 C 302.947 154.691,305.277 153.524,307.969 152.001 C 314.529 148.292,314.072 148.354,315.555 150.981 C 316.240 152.195,316.801 153.416,316.802 153.694 C 316.804 153.972,317.046 154.662,317.341 155.227 C 317.635 155.791,318.000 156.781,318.151 157.427 C 318.303 158.072,319.075 160.391,319.867 162.579 C 320.659 164.767,321.540 167.557,321.823 168.779 C 322.107 170.001,322.526 171.720,322.754 172.600 C 324.022 177.482,324.775 181.890,325.012 185.800 C 325.517 194.146,325.817 208.204,325.519 209.600 C 325.355 210.370,325.110 213.250,324.975 216.000 C 324.841 218.750,324.489 221.900,324.194 223.000 C 323.899 224.100,323.539 225.900,323.393 227.000 C 323.247 228.100,322.803 230.080,322.406 231.400 C 320.699 237.074,319.423 241.041,319.125 241.600 C 318.949 241.930,318.260 243.877,317.595 245.927 C 314.941 254.108,313.976 255.064,310.456 253.001 C 309.141 252.231,307.916 251.600,307.733 251.599 C 307.550 251.599,306.361 251.051,305.091 250.381 C 302.056 248.781,301.526 249.293,296.938 258.260 C 295.796 260.493,294.423 263.013,293.889 263.860 C 291.883 267.039,292.340 267.567,301.600 272.761 C 303.250 273.686,304.870 274.606,305.200 274.806 C 305.530 275.005,306.880 275.813,308.200 276.601 C 309.520 277.389,311.464 278.567,312.521 279.218 L 314.442 280.401 315.581 279.301 C 316.208 278.695,317.145 277.390,317.663 276.400 C 318.182 275.410,319.202 273.739,319.931 272.687 C 322.031 269.655,325.439 263.028,328.716 255.600 C 329.153 254.610,329.960 252.810,330.510 251.600 C 331.060 250.390,331.639 248.770,331.797 248.000 C 332.168 246.190,333.507 241.987,333.979 241.149 C 334.180 240.791,334.471 239.801,334.625 238.949 C 334.779 238.097,335.070 237.081,335.271 236.692 C 335.659 235.941,336.975 230.475,337.653 226.800 C 337.877 225.590,338.349 223.160,338.704 221.400 C 339.508 217.407,339.921 189.857,339.243 185.385 C 339.011 183.853,338.541 180.710,338.199 178.400 C 337.856 176.090,337.327 173.300,337.023 172.200 C 336.719 171.100,336.261 169.390,336.006 168.400 C 334.926 164.214,334.340 162.152,334.016 161.400 C 333.528 160.266,331.596 153.879,331.598 153.406 C 331.601 152.901,328.251 145.219,326.887 142.600 C 326.313 141.500,325.630 140.150,325.367 139.600 C 322.695 134.010,322.018 132.760,319.947 129.600 C 319.153 128.390,317.994 126.500,317.371 125.400 C 316.747 124.300,315.314 122.230,314.186 120.800 C 313.058 119.370,311.610 117.395,310.968 116.411 C 310.325 115.427,309.170 113.973,308.400 113.179 C 307.630 112.385,306.190 110.768,305.200 109.586 C 302.695 106.594,296.237 100.149,293.600 98.007 C 292.390 97.025,291.030 95.856,290.579 95.410 C 288.848 93.703,286.889 92.076,285.975 91.587 C 285.452 91.307,283.668 90.034,282.012 88.760 C 280.355 87.485,278.550 86.098,278.000 85.677 C 277.450 85.257,276.550 84.773,276.000 84.603 C 275.450 84.433,274.370 83.809,273.600 83.218 C 272.830 82.627,271.480 81.782,270.600 81.341 C 269.720 80.900,267.788 79.787,266.307 78.869 C 264.826 77.951,263.384 77.200,263.103 77.200 C 262.822 77.200,260.925 76.390,258.887 75.400 C 256.850 74.410,255.052 73.594,254.892 73.587 C 254.731 73.581,253.700 73.132,252.600 72.591 C 251.500 72.050,250.321 71.606,249.980 71.604 C 249.639 71.602,249.189 71.438,248.980 71.241 C 248.536 70.820,241.366 68.689,236.000 67.382 C 234.570 67.033,232.500 66.499,231.400 66.195 C 223.828 64.099,199.529 61.620,197.600 62.746 M209.021 182.127 C 209.669 182.446,211.249 183.223,212.532 183.854 C 228.316 191.614,227.660 216.577,211.511 222.703 C 188.485 231.438,170.149 204.993,187.171 187.597 C 192.431 182.222,203.555 179.436,209.021 182.127 " stroke="none" fill="#05ac9c" fill-rule="evenodd"></path></g></svg>