<svg xmlns="http://www.w3.org/2000/svg" width="400" height="400" xmlns:v="https://vecta.io/nano"><path d="M179 44.838c-.66.204-3.139.63-5.508.947l-4.693.816c-.212.131-1.694.48-3.292.775-3.756.694-9.593 2.203-10.107 2.612-.22.176-1.21.509-2.2.741-2.827.66-8.819 2.733-11.8 4.08-.88.398-2.77 1.208-4.2 1.8s-3.5 1.521-4.6 2.063l-3.2 1.578a39.93 39.93 0 0 0-1.8.939c-.33.192-1.86 1.016-3.4 1.831s-3.719 2.09-4.841 2.832-2.149 1.348-2.28 1.348-1.077.585-2.102 1.3l-2.77 1.9c-11.771 7.79-25.562 20.677-35.101 32.8-2.96 3.762-9.786 13.621-10.228 14.774-.126.328-.88 1.594-1.676 2.812-1.533 2.347-7.305 13.914-8.79 17.614-.486 1.21-1.205 2.83-1.597 3.6s-.851 2.027-1.017 2.794-.532 1.757-.812 2.2-.632 1.57-.782 2.504-.426 1.792-.612 1.907-.551 1.241-.811 2.502-.704 2.745-.988 3.298-.65 1.9-.814 2.994-.519 2.531-.79 3.194-.62 2.287-.777 3.607a40.99 40.99 0 0 1-.807 4.427c-.288 1.114-.645 3.454-.795 5.2s-.555 4.523-.9 6.173c-.923 4.402-.94 26.704-.025 31.8.356 1.98.764 4.95.907 6.6s.503 3.9.799 5 .667 2.99.824 4.2.454 2.649.662 3.198.621 2.169.919 3.6.833 3.502 1.189 4.602l2.243 7c.878 2.75 1.935 5.72 2.35 6.6s1.233 2.77 1.819 4.2c1.951 4.766 2.076 5.032 5.597 11.8 1.258 2.42 2.81 5.174 3.447 6.12s1.159 1.825 1.159 1.954 1.395 2.298 3.1 4.822l3.5 5.215c2.732 4.283 15.197 18.424 19.642 22.284l4.558 4.066c3.836 3.558 13.209 10.645 17.945 13.568l4 2.478c.8.499 1.815 1.087 2.255 1.307s1.61.871 2.6 1.447c2.115 1.231 6.512 3.437 11 5.519 4.669 2.165 3.834 1.829 12.4 4.995 3.531 1.305 5.946 2.064 8.237 2.588 1.23.281 2.481.663 2.781.848s1.723.563 3.163.84 3.603.783 4.806 1.126 2.733.625 3.4.628 2.171.259 3.341.571 3.33.676 4.8.811l8.626.872c6.679.705 19.931.595 26.846-.222 10.08-1.192 13.781-1.756 17.6-2.684l4.4-1.001c4.466-.935 14.082-3.934 18.4-5.739.66-.275 2.28-.909 3.6-1.408 2.657-1.004 9.439-4.092 11-5.009.55-.323 2.26-1.234 3.8-2.024s3.292-1.737 3.892-2.104l5-3.038c2.15-1.304 4.538-2.847 5.308-3.43l6.157-4.629c2.616-1.964 5.856-4.578 7.2-5.808l4.028-3.6c9.062-7.793 26.286-29.348 25.608-32.048-.163-.649-.878-1.225-2.314-1.864-1.981-.881-7.091-3.322-17.679-8.443l-10.4-5.014-11.6-5.605-7.4-3.543c-.77-.346-1.67-.803-2-1.014s-2.22-1.14-4.2-2.064l-19.2-9.189-13.2-6.379-13.2-6.371-10-4.827-11.4-5.5-10.8-5.218c-7.762-3.74-10.079-5.707-12.592-10.684-.8-1.585-.81-2.343-1.008-80.715l-.8-79.493c-.72-.456-1.405-.445-3 .046m36.843.195c-.431 1.122-.279 142.552.154 143.361.218.407.925.857 1.572.999s1.39.517 1.652.833.668.574.901.574c.43 0 7.583 3.325 8.678 4.035.33.213.93.498 1.334.632s2.273 1.029 4.153 1.989 3.637 1.744 3.905 1.744.901.36 1.408.8 1.096.8 1.309.8c.404 0 7.648 3.348 8.691 4.017.33.212 1.05.576 1.6.809 1.824.774 7.79 3.615 8.4 4a9.91 9.91 0 0 0 1.2.632c.33.138 3.12 1.467 6.2 2.951l9.2 4.368c1.98.918 3.87 1.84 4.2 2.047s1.05.557 1.6.777 1.27.58 1.6.801.87.508 1.2.636c1.144.444 5.003 2.234 5.6 2.598.33.201 1.05.545 1.6.765s1.27.579 1.6.8 1.05.59 1.6.821c2.038.855 4.618 2.046 5.2 2.399.632.384 3.515 1.774 7.2 3.474 1.21.557 3.1 1.471 4.2 2.029 2.679 1.36 2.457 1.252 8.6 4.186l10.4 4.99c15.958 7.691 14.323 7.487 15.988 2l1.665-5.3c.231-.66.665-2.28.965-3.6l1.13-4.8c1.247-5.105 1.872-8.556 2.274-12.551.23-2.284.586-5.039.792-6.123 1.813-9.561.108-36.47-3.087-48.726l-1.139-4.6c-1.221-5.192-3.08-11.201-4.221-13.644-.422-.904-.767-1.94-.767-2.301s-.36-1.33-.8-2.151-.8-1.737-.8-2.036-.252-1.022-.561-1.606c-.541-1.024-3.667-7.611-4.585-9.662-.247-.55-.615-1.27-.82-1.6s-1.49-2.58-2.857-5c-2.222-3.933-6.054-9.901-9.631-15-7.708-10.986-23.645-26.763-34.667-34.318l-4.409-3.048c-2.816-1.954-4.968-3.315-6.67-4.217-.44-.233-1.7-.959-2.8-1.614-1.718-1.023-3.724-2.093-8.6-4.589-1.133-.58-3.655-1.721-6.6-2.986a57.57 57.57 0 0 1-3.479-1.643c-.814-.432-1.784-.785-2.156-.785s-1.417-.333-2.321-.74c-2.196-.989-5.241-2.026-7.444-2.536-.99-.229-1.987-.566-2.216-.75s-1.309-.521-2.4-.751-2.884-.686-3.984-1.014c-2.719-.811-7.598-1.775-12.335-2.439-2.164-.303-4.594-.735-5.4-.959-2.035-.565-2.74-.513-3.022.222" fill="#04ac9c" fill-rule="evenodd"/></svg>