<svg id="SvgjsSvg1051" width="288" height="288" xmlns="http://www.w3.org/2000/svg" version="1.1" xmlns:xlink="http://www.w3.org/1999/xlink" xmlns:svgjs="http://svgjs.com/svgjs"><defs id="SvgjsDefs1052"></defs><g id="SvgjsG1053"><svg xmlns="http://www.w3.org/2000/svg" width="288" height="288" viewBox="0 0 400 400"><path fill-rule="evenodd" d="M25.089 70.001 C 22.718 70.160,20.729 70.359,20.670 70.445 C 20.610 70.530,20.345 71.104,20.080 71.721 C 19.793 72.389,19.022 73.082,18.173 73.437 C 17.207 73.841,16.609 74.429,16.319 75.259 C 16.041 76.058,15.435 76.677,14.581 77.034 C 13.312 77.564,13.262 77.675,13.008 80.491 C 12.458 86.605,12.948 128.516,13.573 128.724 C 13.887 128.829,14.475 129.294,14.877 129.758 C 18.726 134.185,20.399 135.551,22.288 135.804 C 23.340 135.945,25.318 136.407,26.684 136.830 C 30.592 138.041,368.467 138.040,372.458 136.829 C 373.856 136.404,376.052 135.931,377.339 135.778 C 379.457 135.524,379.715 135.388,380.084 134.331 C 380.338 133.602,381.025 132.908,381.915 132.482 C 382.919 132.001,383.473 131.387,383.795 130.400 C 384.102 129.459,384.654 128.819,385.478 128.448 C 387.188 127.679,387.200 127.507,387.197 103.844 C 387.194 79.830,387.091 78.000,385.751 78.000 C 384.757 78.000,383.820 76.874,383.404 75.180 C 383.221 74.435,382.704 74.003,381.489 73.580 C 380.177 73.122,379.750 72.733,379.465 71.737 C 379.147 70.618,378.893 70.440,377.253 70.188 C 374.804 69.812,30.660 69.629,25.089 70.001 M47.685 91.129 C 49.617 92.323,51.059 94.619,51.356 96.972 C 51.508 98.177,51.915 99.234,52.402 99.688 C 53.520 100.729,53.526 104.860,52.413 106.687 C 51.981 107.394,51.421 109.164,51.167 110.618 C 50.557 114.124,49.686 115.083,46.600 115.646 C 41.635 116.553,36.400 115.619,36.400 113.826 C 36.400 113.579,36.010 113.112,35.534 112.788 C 32.897 110.997,32.614 109.805,32.876 101.597 C 33.067 95.619,33.249 95.077,35.364 94.188 C 36.129 93.866,36.677 93.237,36.964 92.349 C 37.761 89.882,44.437 89.122,47.685 91.129 M75.064 90.867 C 75.732 91.188,76.575 92.206,77.186 93.429 C 77.744 94.545,78.540 95.798,78.956 96.213 C 81.590 98.846,81.536 109.731,78.885 110.573 C 78.377 110.734,77.917 111.467,77.588 112.642 C 76.932 114.984,76.021 115.541,72.332 115.853 C 66.470 116.348,63.200 115.331,63.200 113.012 C 63.200 112.449,62.806 112.027,61.993 111.720 C 58.623 110.448,58.538 96.367,61.891 94.800 C 62.717 94.414,63.387 93.677,63.771 92.734 C 64.098 91.928,64.593 91.128,64.870 90.957 C 66.518 89.938,73.011 89.881,75.064 90.867 M361.075 90.555 C 361.556 90.734,362.315 91.658,362.762 92.609 C 363.209 93.560,363.953 94.458,364.415 94.605 C 367.277 95.513,367.753 104.400,364.940 104.400 C 364.627 104.400,364.036 105.184,363.625 106.141 C 362.850 107.950,361.914 108.382,358.743 108.396 C 358.161 108.398,357.586 108.659,357.465 108.975 C 356.960 110.291,354.381 110.396,322.400 110.396 C 290.694 110.396,287.994 110.291,286.999 109.027 C 286.778 108.746,285.608 108.390,284.399 108.236 C 281.666 107.886,280.942 107.362,280.587 105.473 C 280.434 104.655,279.908 103.671,279.418 103.285 C 277.362 101.669,277.355 99.571,279.396 96.806 C 279.948 96.057,280.400 95.142,280.400 94.771 C 280.400 94.401,280.670 93.874,281.000 93.600 C 281.330 93.326,281.600 92.875,281.600 92.597 C 281.600 91.955,283.102 90.965,284.848 90.455 C 286.492 89.975,359.773 90.071,361.075 90.555 M102.619 98.182 C 103.674 98.623,104.074 99.072,104.266 100.031 C 104.437 100.885,104.942 101.547,105.817 102.063 C 108.622 103.718,108.297 110.498,105.360 111.615 C 104.697 111.867,104.400 112.292,104.400 112.990 C 104.400 115.349,100.759 116.433,94.859 115.830 C 91.589 115.496,90.688 114.939,90.067 112.864 C 89.770 111.876,89.273 111.150,88.787 110.996 C 85.969 110.102,86.128 104.935,89.057 102.172 C 89.796 101.475,90.400 100.550,90.400 100.115 C 90.400 99.132,91.480 98.131,92.800 97.891 C 95.255 97.444,101.280 97.623,102.619 98.182 M22.752 157.892 C 21.065 158.027,20.873 158.151,20.539 159.320 C 20.253 160.323,19.828 160.721,18.576 161.157 C 17.342 161.587,16.831 162.056,16.336 163.215 C 15.857 164.338,15.390 164.783,14.482 164.982 C 12.795 165.353,12.714 166.834,12.871 194.543 L 13.000 217.285 14.878 218.943 C 16.196 220.106,16.792 220.958,16.878 221.800 C 16.985 222.856,17.192 223.034,18.600 223.284 C 22.898 224.047,23.204 224.192,24.518 226.099 C 24.975 226.760,30.523 226.797,129.800 226.801 L 234.600 226.805 234.476 225.746 C 234.331 224.511,233.212 222.831,232.523 222.813 C 231.801 222.794,230.800 221.155,230.800 219.994 C 230.800 219.181,230.530 218.885,229.509 218.583 C 228.212 218.199,227.417 217.110,227.034 215.196 C 226.923 214.644,226.310 213.883,225.671 213.506 C 222.623 211.705,222.906 199.182,226.018 198.194 C 226.373 198.082,226.926 197.137,227.249 196.095 C 227.719 194.575,228.135 194.042,229.354 193.400 C 230.277 192.914,231.085 192.096,231.411 191.316 C 231.756 190.492,232.438 189.828,233.320 189.459 C 234.245 189.073,234.834 188.477,235.130 187.629 C 235.429 186.771,236.015 186.186,236.980 185.782 C 237.936 185.383,238.579 184.747,238.969 183.812 C 239.356 182.887,240.048 182.196,241.068 181.715 C 241.934 181.307,242.652 180.654,242.736 180.199 C 242.936 179.111,243.978 178.000,244.800 178.000 C 245.598 178.000,246.598 176.953,246.972 175.725 C 247.273 174.734,248.716 174.168,252.000 173.750 C 253.715 173.532,254.444 173.209,255.308 172.284 C 256.687 170.808,259.155 170.907,261.509 172.534 C 262.329 173.100,263.810 173.683,264.800 173.829 C 267.197 174.182,268.400 174.978,268.400 176.209 C 268.400 177.003,268.602 177.200,269.413 177.200 C 271.010 177.200,274.287 179.055,274.879 180.294 C 275.772 182.162,286.181 182.224,288.205 180.374 C 288.648 179.969,289.638 179.372,290.405 179.048 C 293.237 177.849,295.470 174.928,295.749 172.058 C 296.067 168.794,296.644 167.660,298.521 166.615 C 299.358 166.150,300.261 165.329,300.529 164.792 C 300.797 164.255,301.448 163.600,301.976 163.337 C 303.355 162.649,303.591 162.002,303.273 159.775 L 302.990 157.800 163.795 157.772 C 87.238 157.756,23.768 157.810,22.752 157.892 M312.281 170.613 C 311.886 171.156,311.326 171.600,311.036 171.600 C 310.746 171.600,310.194 172.603,309.808 173.830 C 309.281 175.505,308.845 176.172,308.053 176.511 C 307.474 176.759,306.955 176.985,306.900 177.014 C 306.846 177.042,306.599 178.581,306.352 180.433 C 305.861 184.116,304.835 186.608,303.655 186.982 C 303.184 187.132,302.709 187.895,302.399 189.004 C 301.678 191.579,301.330 191.737,295.680 192.036 C 291.192 192.275,290.570 192.397,289.950 193.162 C 286.774 197.085,271.593 197.079,269.710 193.154 C 269.390 192.487,268.657 191.964,267.596 191.646 C 266.264 191.247,265.928 190.941,265.729 189.945 C 265.489 188.747,264.878 188.304,262.800 187.825 C 262.250 187.698,261.440 187.017,261.000 186.313 C 259.623 184.106,256.899 183.942,256.116 186.018 C 255.821 186.800,255.168 187.421,254.232 187.812 C 253.444 188.141,252.800 188.654,252.800 188.951 C 252.800 189.848,251.244 191.538,250.294 191.673 C 249.717 191.755,249.150 192.338,248.686 193.327 C 248.204 194.352,247.515 195.043,246.591 195.429 C 245.728 195.790,245.123 196.367,244.971 196.973 C 244.683 198.121,243.711 199.060,242.601 199.264 C 242.147 199.347,241.494 200.063,241.091 200.918 C 240.695 201.761,239.901 202.637,239.291 202.905 C 237.851 203.537,237.613 203.924,237.606 205.650 C 237.595 208.345,238.069 209.538,239.843 211.281 C 241.040 212.456,241.595 213.338,241.597 214.067 C 241.599 214.902,241.927 215.294,243.100 215.867 C 244.261 216.434,244.719 216.976,245.126 218.263 C 245.506 219.464,245.922 219.994,246.621 220.170 C 249.911 220.995,249.872 231.114,246.573 232.563 C 245.819 232.895,245.695 233.536,245.155 239.880 L 244.562 246.834 242.940 248.317 C 242.047 249.133,241.188 250.207,241.030 250.705 C 240.626 251.977,239.050 252.662,235.781 252.986 C 233.419 253.220,232.900 253.406,232.581 254.132 C 232.069 255.299,229.618 256.390,226.426 256.874 C 222.653 257.445,222.590 257.551,222.655 263.183 L 222.709 267.936 224.096 269.323 C 225.581 270.808,225.806 271.604,226.209 276.800 C 226.583 281.611,226.729 282.119,228.202 283.722 C 228.971 284.560,229.603 285.640,229.606 286.122 C 229.620 288.060,229.713 288.078,239.045 287.934 C 244.746 287.847,248.075 287.638,248.588 287.335 C 249.195 286.977,249.607 286.989,250.388 287.388 C 250.944 287.672,252.210 288.036,253.200 288.196 C 255.345 288.543,256.262 289.263,256.617 290.879 C 256.806 291.740,257.258 292.232,258.233 292.640 C 259.106 293.004,259.677 293.568,259.843 294.229 C 259.991 294.818,260.765 295.673,261.665 296.241 C 262.526 296.785,263.443 297.696,263.703 298.267 C 263.983 298.881,264.867 299.600,265.871 300.030 C 267.208 300.604,267.637 301.036,267.900 302.078 C 268.135 303.005,268.606 303.566,269.478 303.955 C 272.275 305.205,272.081 314.836,269.178 318.884 C 268.086 320.405,268.027 326.310,269.100 326.641 C 270.459 327.062,271.005 327.485,271.509 328.509 C 271.942 329.391,272.356 329.579,274.309 329.778 C 282.113 330.574,282.467 330.661,283.811 332.129 C 285.274 333.725,288.223 334.176,295.594 333.928 L 299.388 333.800 299.620 332.400 C 299.910 330.646,300.588 329.336,301.997 327.800 C 302.852 326.869,303.151 326.062,303.334 324.200 C 303.670 320.773,304.272 319.324,305.604 318.734 C 306.402 318.381,306.814 317.849,306.982 316.955 C 307.281 315.361,307.916 314.826,309.864 314.522 C 310.709 314.390,311.850 313.981,312.400 313.611 C 314.571 312.154,320.440 310.802,324.602 310.801 C 326.430 310.800,326.650 310.698,327.122 309.632 C 328.353 306.850,334.977 306.838,335.946 309.616 C 336.225 310.419,336.696 310.799,337.665 311.005 C 339.145 311.320,340.400 312.251,340.400 313.033 C 340.400 313.836,341.571 314.800,342.547 314.800 C 343.065 314.800,344.099 315.485,345.019 316.438 C 348.559 320.104,356.322 320.473,356.973 317.005 C 357.207 315.754,358.436 314.800,359.811 314.800 C 360.127 314.800,360.502 314.305,360.646 313.700 C 361.004 312.194,361.828 311.334,363.172 311.066 C 364.075 310.885,364.355 310.565,364.558 309.481 C 364.807 308.154,365.999 307.200,367.407 307.200 C 367.721 307.200,368.122 306.615,368.299 305.900 C 368.547 304.899,369.009 304.419,370.311 303.810 L 372.000 303.021 371.996 300.410 C 371.988 296.180,371.648 294.800,370.610 294.800 C 369.500 294.800,368.482 293.704,368.171 292.174 C 368.008 291.373,367.529 290.809,366.666 290.400 C 365.827 290.002,365.103 289.171,364.520 287.933 C 364.035 286.906,363.296 285.957,362.876 285.824 C 360.409 285.041,359.881 274.092,362.305 273.987 C 363.669 273.928,363.999 272.836,364.413 267.006 C 364.860 260.712,365.276 259.172,366.948 257.630 C 367.527 257.097,368.000 256.345,368.000 255.959 C 368.000 254.798,369.024 254.132,371.209 253.873 C 372.883 253.675,373.608 253.326,374.991 252.051 C 376.535 250.628,376.970 250.449,379.451 250.217 C 383.497 249.838,383.751 249.744,384.334 248.415 C 384.644 247.709,385.275 247.096,385.837 246.955 C 387.886 246.441,387.736 238.274,385.645 236.448 C 384.212 235.197,383.676 233.389,383.378 228.800 C 383.066 223.986,382.839 222.800,382.231 222.800 C 381.487 222.800,380.705 221.768,379.991 219.842 C 379.301 217.982,377.342 217.453,373.600 218.116 C 372.610 218.292,368.283 218.472,363.985 218.518 C 355.116 218.611,354.415 218.420,353.309 215.604 C 352.981 214.771,352.283 213.859,351.757 213.577 C 351.231 213.295,350.800 212.942,350.800 212.791 C 350.800 212.562,349.932 211.468,348.491 209.880 C 347.367 208.641,344.656 206.408,344.038 206.212 C 343.626 206.081,342.817 205.260,342.239 204.387 C 341.651 203.498,340.867 202.800,340.456 202.800 C 337.094 202.800,336.940 189.052,340.258 185.069 C 342.834 181.977,340.745 177.415,336.475 176.810 C 332.635 176.265,330.908 175.644,329.899 174.445 C 328.974 173.345,328.770 173.295,324.170 173.023 C 317.986 172.658,316.516 172.270,315.668 170.778 C 314.821 169.290,313.298 169.216,312.281 170.613 M44.990 178.396 C 45.564 178.614,46.337 179.322,46.708 179.969 C 47.154 180.746,47.814 181.226,48.651 181.383 C 50.269 181.687,50.608 182.134,51.142 184.665 C 51.381 185.801,51.966 187.477,52.441 188.389 C 53.507 190.433,53.346 194.127,52.084 196.600 C 51.635 197.480,51.143 199.010,50.990 200.000 C 50.630 202.339,49.946 203.057,47.768 203.384 C 46.788 203.531,45.501 204.067,44.910 204.576 C 43.848 205.489,43.815 205.492,42.201 204.801 C 41.303 204.416,39.945 203.966,39.184 203.802 C 34.094 202.703,33.000 200.581,33.000 191.810 C 33.000 184.156,33.294 183.136,35.844 181.937 C 36.793 181.491,37.673 180.799,37.800 180.399 C 38.367 178.612,42.518 177.456,44.990 178.396 M73.842 179.772 C 74.526 180.557,75.381 181.200,75.742 181.200 C 76.636 181.200,78.000 182.626,78.000 183.560 C 78.000 183.978,78.630 184.950,79.400 185.720 L 80.800 187.120 80.800 191.734 C 80.800 196.928,80.539 197.976,79.045 198.776 C 78.470 199.084,78.000 199.674,78.000 200.087 C 78.000 202.027,76.925 203.071,74.419 203.564 C 73.088 203.826,72.000 204.205,72.000 204.406 C 72.000 205.394,70.372 205.634,69.223 204.816 C 68.587 204.364,67.467 203.890,66.734 203.763 C 64.625 203.399,63.200 202.750,63.200 202.155 C 63.200 201.853,62.636 201.110,61.946 200.503 C 58.305 197.300,58.551 186.410,62.344 182.905 C 63.365 181.961,64.661 180.732,65.224 180.173 C 67.793 177.626,71.813 177.439,73.842 179.772 M101.917 186.054 C 102.421 186.240,103.141 186.963,103.517 187.659 C 104.219 188.960,104.866 189.705,106.304 190.866 C 108.453 192.600,108.222 198.651,105.962 199.820 C 105.284 200.170,104.766 200.844,104.603 201.588 C 104.282 203.047,104.191 203.109,101.600 203.600 C 100.465 203.815,99.077 204.353,98.515 204.796 C 97.250 205.790,97.155 205.790,96.082 204.791 C 95.605 204.346,94.266 203.804,93.107 203.587 C 90.896 203.172,90.093 202.495,89.734 200.746 C 89.613 200.154,89.094 199.498,88.551 199.250 C 86.155 198.159,86.314 193.343,88.831 190.768 C 89.486 190.099,90.458 188.859,90.992 188.013 C 92.564 185.523,97.891 184.568,101.917 186.054 M308.000 226.343 C 308.000 226.531,309.829 226.812,312.064 226.966 C 316.354 227.261,317.669 227.706,319.236 229.391 C 319.766 229.961,321.100 230.848,322.201 231.363 C 323.786 232.104,324.352 232.641,324.930 233.949 C 325.330 234.857,325.883 235.600,326.159 235.600 C 327.410 235.600,328.930 238.340,329.350 241.350 C 329.479 242.278,329.895 243.132,330.385 243.475 C 333.442 245.616,333.578 257.188,330.587 260.742 C 329.976 261.469,329.498 262.664,329.342 263.860 C 328.979 266.628,328.192 267.982,326.783 268.263 C 325.802 268.460,325.600 268.696,325.600 269.650 C 325.600 270.879,324.386 272.400,323.405 272.400 C 323.078 272.400,322.370 273.098,321.831 273.951 C 320.997 275.272,320.582 275.542,319.024 275.776 C 317.567 275.994,317.077 276.278,316.616 277.169 C 314.830 280.622,293.832 280.456,292.960 276.981 C 292.791 276.309,292.342 276.029,291.118 275.833 C 288.969 275.490,288.000 274.931,288.000 274.035 C 288.000 273.128,287.340 272.551,285.884 272.185 C 284.992 271.962,284.680 271.562,284.307 270.168 C 283.928 268.750,283.634 268.383,282.718 268.182 C 281.320 267.875,280.819 266.966,280.394 263.961 C 280.119 262.013,279.821 261.377,278.674 260.295 C 275.710 257.500,276.212 247.152,279.457 244.119 C 279.976 243.635,280.400 242.802,280.400 242.269 C 280.400 240.071,280.985 238.773,282.888 236.746 C 283.990 235.572,285.044 234.211,285.230 233.721 C 285.612 232.718,288.023 231.070,289.727 230.650 C 290.372 230.490,291.142 229.867,291.527 229.192 C 292.389 227.681,293.618 227.271,298.259 226.945 C 300.331 226.799,302.121 226.527,302.237 226.340 C 302.513 225.894,308.000 225.897,308.000 226.343 M24.400 246.338 C 24.400 247.546,23.077 248.388,20.067 249.094 C 17.429 249.713,17.210 249.846,16.970 250.980 C 16.812 251.724,15.986 252.844,14.855 253.850 L 13.000 255.500 12.872 277.650 C 12.720 303.908,12.865 307.200,14.175 307.200 C 15.251 307.200,16.238 308.202,16.602 309.661 C 16.814 310.508,17.227 310.813,18.650 311.171 C 19.665 311.427,20.546 311.917,20.696 312.310 C 21.661 314.837,9.348 314.600,139.923 314.600 L 257.400 314.600 257.400 312.400 C 257.400 310.313,257.335 310.171,256.132 309.642 C 255.306 309.278,254.679 308.598,254.332 307.693 C 253.938 306.663,253.439 306.186,252.409 305.851 C 251.414 305.529,250.901 305.057,250.611 304.200 C 250.122 302.757,249.459 302.000,248.683 302.000 C 247.865 302.000,246.000 300.450,246.000 299.771 C 246.000 299.020,245.427 299.045,244.781 299.823 C 243.652 301.183,241.471 301.684,235.748 301.897 C 228.880 302.152,227.774 301.968,225.744 300.231 C 224.872 299.484,223.388 298.666,222.446 298.412 C 220.965 298.014,220.626 297.708,219.939 296.154 C 219.477 295.111,218.725 294.166,218.145 293.902 C 216.704 293.245,215.949 291.104,215.713 287.000 C 215.539 283.994,215.356 283.235,214.598 282.400 C 212.806 280.424,212.310 278.806,211.910 273.631 C 211.585 269.424,211.400 268.535,210.759 268.086 C 207.963 266.128,207.772 258.632,210.446 255.789 C 211.072 255.123,211.703 253.953,211.849 253.189 C 212.251 251.075,212.702 250.448,214.080 250.091 C 214.997 249.854,215.458 249.423,215.770 248.511 C 216.352 246.814,216.480 246.724,219.107 246.160 C 220.947 245.764,201.961 245.660,122.900 245.634 C 27.413 245.601,24.400 245.623,24.400 246.338 M71.906 268.052 C 72.192 268.447,73.218 268.874,74.260 269.030 C 76.456 269.359,77.460 270.246,77.822 272.178 C 77.969 272.960,78.257 273.600,78.463 273.600 C 80.149 273.600,80.800 275.501,80.800 280.422 L 80.800 285.280 79.400 286.680 C 78.593 287.487,78.000 288.479,78.000 289.021 C 78.000 289.587,77.582 290.250,76.953 290.681 C 76.377 291.077,75.214 292.075,74.369 292.900 C 72.831 294.401,72.241 294.574,69.229 294.404 C 66.333 294.241,61.335 290.018,60.187 286.763 C 58.667 282.455,59.501 274.452,61.700 272.236 C 62.415 271.516,63.270 270.537,63.600 270.059 C 64.023 269.448,64.790 269.116,66.200 268.935 C 67.416 268.779,68.645 268.309,69.334 267.737 C 70.499 266.769,71.026 266.833,71.906 268.052 M44.984 267.982 C 45.374 268.413,46.473 268.882,47.428 269.025 C 49.890 269.394,50.349 269.876,51.029 272.804 C 51.361 274.232,52.005 276.174,52.461 277.120 C 53.479 279.231,53.385 283.491,52.293 284.697 C 51.923 285.106,51.391 286.601,51.110 288.020 C 50.606 290.568,50.579 290.607,48.900 291.138 C 47.962 291.435,47.200 291.928,47.200 292.238 C 47.200 295.275,39.361 295.275,37.569 292.238 C 37.124 291.482,36.241 290.683,35.609 290.463 C 33.299 289.658,33.000 288.576,33.000 281.018 C 33.000 271.951,34.285 269.415,39.144 268.892 C 40.165 268.782,41.450 268.362,42.000 267.959 C 43.295 267.009,44.109 267.015,44.984 267.982 M98.913 273.748 C 99.621 274.050,100.636 274.770,101.170 275.348 C 101.703 275.927,102.446 276.400,102.821 276.400 C 103.772 276.400,107.095 280.556,107.664 282.457 C 108.271 284.481,107.313 287.801,105.701 289.268 C 105.095 289.819,104.015 290.925,103.299 291.725 C 100.919 294.389,96.610 295.416,94.265 293.880 C 92.424 292.673,89.600 289.871,89.589 289.238 C 89.583 288.887,89.053 288.085,88.411 287.455 C 86.337 285.420,86.340 282.574,88.419 280.581 C 89.069 279.959,89.600 279.124,89.600 278.725 C 89.600 277.687,91.031 276.400,92.186 276.400 C 92.771 276.400,93.351 276.066,93.611 275.579 C 94.636 273.663,96.888 272.886,98.913 273.748 " fill="#01a89e" class="color000 svgShape"></path></svg></g></svg>