<svg id="SvgjsSvg1046" width="288" height="288" xmlns="http://www.w3.org/2000/svg" version="1.1" xmlns:xlink="http://www.w3.org/1999/xlink" xmlns:svgjs="http://svgjs.com/svgjs"><defs id="SvgjsDefs1047"></defs><g id="SvgjsG1048"><svg xmlns="http://www.w3.org/2000/svg" width="288" height="288" viewBox="0 0 400 400"><path fill-rule="evenodd" d="M264.094 13.758 C 239.514 25.880,236.272 34.286,256.176 34.286 C 271.975 34.286,274.240 33.088,281.400 20.952 C 290.626 5.316,285.517 3.193,264.094 13.758 M293.610 17.657 C 282.165 32.206,283.560 34.286,304.762 34.286 C 326.551 34.286,326.698 34.074,315.474 18.893 C 305.275 5.099,303.564 5.002,293.610 17.657 M324.937 20.791 C 332.911 33.300,365.714 41.776,365.714 31.327 C 365.714 26.125,334.033 7.619,325.127 7.619 L 316.541 7.619 324.937 20.791 M166.110 25.106 C 164.831 28.438,164.749 32.723,165.927 34.629 C 167.105 36.536,165.492 38.095,162.342 38.095 C 144.133 38.095,135.702 54.596,133.997 93.569 C 132.601 125.495,131.216 131.922,124.575 137.299 C 116.820 143.579,116.839 143.671,129.517 161.326 C 144.875 182.711,143.638 182.724,159.503 160.998 C 171.776 144.191,169.187 127.206,155.629 135.585 C 149.215 139.549,151.862 65.825,158.367 59.320 C 164.917 52.770,169.325 51.300,165.927 56.799 C 155.999 72.862,171.787 74.795,192.075 60.000 C 212.754 44.920,212.754 46.509,192.075 31.429 C 172.838 17.400,169.389 16.560,166.110 25.106 M226.731 54.497 C 223.837 61.422,220.310 71.708,218.893 77.354 L 216.317 87.619 239.069 87.619 L 261.822 87.619 264.064 71.256 C 265.298 62.257,267.429 51.971,268.799 48.399 C 274.421 33.748,232.885 39.769,226.731 54.497 M274.486 56.190 C 265.849 87.292,266.168 87.619,305.186 87.619 L 339.896 87.619 337.318 73.879 C 331.528 43.014,330.341 41.905,303.130 41.905 L 278.453 41.905 274.486 56.190 M340.279 50.476 C 341.411 55.190,343.502 65.476,344.926 73.333 L 347.515 87.619 368.541 87.619 L 389.568 87.619 387.339 73.883 C 383.436 49.827,375.594 41.905,355.690 41.905 C 339.505 41.905,338.373 42.534,340.279 50.476 M297.143 64.762 C 297.143 66.857,294.571 68.571,291.429 68.571 C 288.286 68.571,285.714 66.857,285.714 64.762 C 285.714 62.667,288.286 60.952,291.429 60.952 C 294.571 60.952,297.143 62.667,297.143 64.762 M219.136 107.619 C 224.863 134.912,228.809 138.949,250.998 140.216 C 269.452 141.270,271.181 140.710,268.641 134.502 C 267.092 130.716,264.934 120.333,263.846 111.429 L 261.866 95.238 239.202 95.238 L 216.537 95.238 219.136 107.619 M270.476 106.098 C 270.476 134.879,276.402 140.952,304.480 140.952 L 330.120 140.952 334.584 121.614 C 337.039 110.978,339.048 100.692,339.048 98.757 C 339.048 96.822,323.619 95.238,304.762 95.238 L 270.476 95.238 270.476 106.098 M344.926 109.524 C 343.502 117.381,341.411 127.667,340.279 132.381 C 336.266 149.099,375.925 144.797,383.052 127.741 C 394.137 101.211,391.379 95.238,368.043 95.238 L 347.515 95.238 344.926 109.524 M297.143 118.095 C 297.143 120.190,294.571 121.905,291.429 121.905 C 288.286 121.905,285.714 120.190,285.714 118.095 C 285.714 116.000,288.286 114.286,291.429 114.286 C 294.571 114.286,297.143 116.000,297.143 118.095 M43.106 125.776 C 16.605 136.341,24.333 180.317,52.691 180.317 C 69.534 180.317,80.000 169.611,80.000 152.381 C 80.000 131.685,61.589 118.408,43.106 125.776 M240.000 151.875 C 240.000 156.514,267.865 174.438,279.692 177.406 C 291.711 180.423,291.849 178.722,280.952 161.898 C 272.663 149.100,240.000 141.106,240.000 151.875 M285.714 152.745 C 285.714 157.905,300.507 179.065,304.069 179.000 C 306.666 178.953,323.810 154.228,323.810 150.530 C 323.810 149.453,315.238 148.571,304.762 148.571 C 293.495 148.571,285.714 150.276,285.714 152.745 M326.166 163.810 C 313.307 183.242,321.111 184.645,347.826 167.703 C 369.571 153.913,370.452 148.571,350.982 148.571 C 338.016 148.571,335.042 150.397,326.166 163.810 M194.286 202.261 C 194.286 245.129,193.756 248.471,186.667 250.325 C 181.804 251.596,179.048 255.521,179.048 261.172 C 179.048 266.042,177.333 271.086,175.238 272.381 C 166.740 277.633,172.355 281.898,187.619 281.784 C 217.735 281.558,224.762 269.321,224.762 217.100 C 224.762 179.474,224.470 178.170,213.626 167.326 C 195.655 149.355,194.286 151.828,194.286 202.261 M24.589 199.827 C 15.757 208.658,15.238 211.583,15.238 252.496 C 15.238 306.248,19.859 313.068,58.398 316.190 L 81.905 318.095 83.810 354.286 L 85.714 390.476 99.048 390.476 L 112.381 390.476 113.489 348.571 C 114.997 291.546,110.679 281.905,83.630 281.905 C 77.246 281.905,76.190 279.213,76.190 262.935 C 76.190 244.610,75.667 243.697,60.818 236.122 C 52.363 231.808,46.445 226.662,47.667 224.685 C 48.888 222.708,72.934 233.188,101.101 247.974 C 153.220 275.332,161.653 277.532,169.096 265.714 C 176.146 254.520,168.189 247.921,112.188 218.519 C 53.069 187.480,39.773 184.643,24.589 199.827 M83.810 261.612 C 83.810 273.737,101.419 281.905,127.559 281.905 C 149.412 281.905,133.795 270.401,87.047 252.063 C 85.266 251.365,83.810 255.662,83.810 261.612 M264.589 291.255 C 256.039 299.805,255.238 303.558,255.238 335.065 L 255.238 369.524 316.190 369.524 L 377.143 369.524 377.085 334.286 C 377.002 284.179,374.278 281.905,314.363 281.905 C 276.523 281.905,273.342 282.503,264.589 291.255 M141.619 310.843 C 128.843 328.206,129.847 342.662,143.467 337.436 C 147.013 336.075,148.571 338.864,148.571 346.570 C 148.571 359.069,160.236 369.524,174.181 369.524 C 178.953 369.524,182.857 371.752,182.857 374.476 C 182.857 387.753,191.646 388.027,208.352 375.271 C 229.127 359.408,229.113 359.837,209.388 344.228 C 193.032 331.285,179.358 332.053,184.565 345.623 C 186.080 349.571,183.882 350.662,176.200 349.775 C 169.931 349.051,165.277 345.921,164.518 341.918 C 163.676 337.480,165.047 335.952,168.637 337.330 C 182.248 342.553,183.419 328.640,170.867 310.831 C 155.939 289.653,157.213 289.653,141.619 310.843 M327.428 306.436 C 337.162 318.165,330.825 333.333,316.190 333.333 C 304.254 333.333,302.723 332.156,301.578 322.093 C 299.637 305.037,317.359 294.304,327.428 306.436 M311.190 311.032 C 305.322 316.900,308.724 327.619,316.455 327.619 C 322.381 327.619,324.037 325.564,323.122 319.346 C 321.858 310.754,315.735 306.488,311.190 311.032 M15.238 358.095 L 15.238 392.381 46.667 392.390 L 78.095 392.398 76.872 358.104 L 75.650 323.810 45.444 323.810 L 15.238 323.810 15.238 358.095 M243.810 380.190 C 243.810 390.446,255.296 392.381,316.190 392.381 C 377.085 392.381,388.571 390.446,388.571 380.190 C 388.571 378.514,356.000 377.143,316.190 377.143 C 276.381 377.143,243.810 378.514,243.810 380.190 " fill="#01a89e" class="color000 svgShape"></path></svg></g></svg>