<svg xmlns="http://www.w3.org/2000/svg" width="400" height="400" viewBox="0 0 400 NaN" xmlns:v="https://vecta.io/nano"><path d="M112.4 3.546l-1 .29-.114 25.982c-.127 28.878-.157 28.318 1.55 29.2 1.961 1.015 20.743.689 21.923-.38 1.034-.937 1.365-54.252.341-54.914-.63-.408-21.348-.57-22.7-.178m109.009.019c-1.222.478-1.221.465-1.009 28.489.194 25.56.225 26.429.976 26.978 1.139.833 20.509.833 21.648.001 1.195-.874 1.612-54.023.432-55.133-.798-.75-20.228-1.045-22.047-.335m-194.787 18.4c-.516.835-.241 372.576.276 372.906.773.494 165.376.215 165.872-.281.257-.257.422-4.354.444-11l.034-10.59-1.053-.905-1.052-.906-69.825.017c-62.418.014-69.926-.05-70.772-.604l-.946-.62V208.17 46.359l1.412-.59c1.197-.5 5.207-.585 26.236-.557 21.985.03 24.933-.039 25.788-.599l.964-.631V33.413c0-10.467-.008-10.574-.889-11.19-1.027-.72-76.047-.973-76.489-.258m117.201.524c-.99 1.413-.922 20.659.077 21.873l.7.852 34.37.012c33.605.012 34.387-.005 35.153-.772 1.142-1.141 1.19-20.824.054-22.079-.683-.755-1.58-.775-35.216-.775h-34.516l-.622.889m105.206-.26c-.346.345-.635.84-.642 1.1-.11 4.015.097 20.424.262 20.856.389 1.012 1.121 1.042 27.05 1.13 20.828.07 25.497.183 26.039.634.612.508.662 7.058.662 86.856l.717 87.192c.66.815 11.611 1.25 20.983.834.385-.017 1.06-.391 1.5-.831.796-.796.8-1.333.8-98.977V22.845l-.889-.622c-1.361-.954-75.529-.948-76.482.006M93 106.744c-11.611 3.836-14.855 15.887-6.5 24.148 13.136 12.988 32.555-6.675 19.769-20.016-3.115-3.25-9.716-5.306-13.269-4.132m48.772 8.042c-2.464.997-3.31 9.461-1.118 11.185l1.054.829h62.676 62.677l.869-.926c2.309-2.457.909-10.764-1.891-11.227-2.252-.373-123.338-.237-124.267.139M91.091 190.29c-7.412 2.811-11.33 11.748-8.173 18.644 5.3 11.575 20.438 11.499 26.317-.134 5.382-10.649-6.611-22.885-18.144-18.51m49.379 8.636c-1.337 1.423-1.298 7.733.056 9.004l.926.87h62.858 62.859l.815-.875c.698-.749.816-1.406.816-4.525s-.118-3.776-.816-4.525l-.815-.875h-62.915-62.915l-.869.926m137.93 41.841a160.98 160.98 0 0 1-5.8 2.02c-3.303 1.062-9.245 3.786-13.264 6.08-3.759 2.146-4.441 3.321-3.818 6.585.247 1.291.554 3.608.683 5.148s.492 3.915.806 5.277c.724 3.143.269 4.394-2.561 7.041-2.3 2.151-2.946 2.258-8.006 1.317-11.925-2.218-13.589-1.83-15.672 3.648-.213.562-.719 1.493-1.124 2.069-1.716 2.443-7.244 17.536-7.244 19.777 0 1.636.498 2.324 2.876 3.971 10.225 7.086 11.598 8.377 11.826 11.122.391 4.717-1.083 6.399-12.076 13.778-2.011 1.35-2.835 2.587-2.712 4.072.215 2.591 5.754 17.094 7.525 19.7.529.777.961 1.613.961 1.856s.746 1.483 1.658 2.757l1.657 2.314 2.643-.231c1.453-.127 4.892-.594 7.642-1.037 7.171-1.158 7.674-1.123 9.656.667 3.196 2.887 3.744 4.21 3.015 7.271-.344 1.447-.73 3.801-.858 5.231a82.29 82.29 0 0 1-.672 5.224c-.373 2.219-.342 2.814.198 3.859 1.034 1.998 9.571 6.568 16.735 8.957 2.049.684 4.536 1.618 5.526 2.075 4.7 2.172 5.474 1.704 11.922-7.218 4.432-6.133 5.439-6.915 8.641-6.713 3.791.238 3.83.276 11.959 11.359 3.02 4.118 4.009 4.445 8.19 2.705 1.258-.523 3.64-1.414 5.293-1.978 12.298-4.202 18.722-8.65 17.658-12.228-.236-.793-.618-3.152-.85-5.242s-.623-4.824-.867-6.076c-.595-3.044-.34-3.791 2.139-6.257 2.726-2.711 2.883-2.737 10.049-1.656 10.355 1.562 10.309 1.564 11.954-.478 2.214-2.751 6.572-11.581 7.724-15.653.991-3.504 2.906-7.48 3.602-7.48 2.09 0 1.45-2.858-.95-4.24-1.653-.952-4.736-3.159-11.522-8.249-2.963-2.222-3.982-5.721-2.611-8.968.596-1.413 4.837-4.775 12.705-10.074 4.148-2.794 4.64-3.919 2.309-5.28-1.048-.612-2.426-3.525-3.59-7.589-1.115-3.892-5.577-12.95-7.636-15.5-1.636-2.026-1.678-2.03-9.319-.897l-7.072 1.05c-4.475.664-9.061-4.233-7.798-8.327.225-.729.526-2.766.669-4.526s.516-4.333.829-5.717c.968-4.286.285-5.215-6.347-8.638-5.402-2.787-8.309-4.013-12.881-5.432-1.98-.614-4.269-1.408-5.087-1.765-3.231-1.408-3.163-1.458-9.411 6.924-5.001 6.709-5.673 7.293-8.683 7.543-3.872.321-4.941-.627-11.952-10.608-3.527-5.023-3.837-5.142-8.667-3.34m-186 31.579c-12.671 2.767-14.132 20.652-2.162 26.472 11.575 5.629 24.697-6.945 18.962-18.169-3.36-6.576-9.902-9.809-16.8-8.303m48.958 8.621c-2.054.902-2.648 7.561-.858 9.628l.9 1.039 32.6-.006 33.484-.017c2.469-.03 3.779-7.562 1.751-10.067l-.764-.944-32.936-.089c-27.085-.073-33.156.008-34.177.456m168.235 3.586c2.087.821 4.081 1.752 4.432 2.07s.833.577 1.071.577c2.047 0 11.768 10.13 12.696 13.229.159.534.606 1.523.993 2.199 7.022 12.266.103 34.863-12.673 41.392a21.44 21.44 0 0 0-2.112 1.27c-2.078 1.457-7.619 3.126-11.767 3.543-22.184 2.233-39.587-15.727-36.659-37.833.457-3.455 3.109-11.213 4.219-12.344.246-.251 1.177-1.448 2.069-2.661 2.853-3.877 10.899-10.395 12.833-10.395.195 0 1.106-.363 2.025-.807 5.458-2.637 16.486-2.753 22.873-.24" fill="#06ac9d" fill-rule="evenodd"/></svg>