<svg xmlns="http://www.w3.org/2000/svg" width="400" height="400" viewBox="0 0 400 NaN" xmlns:v="https://vecta.io/nano"><path d="M183.2 10.407c-.77.188-3.38.541-5.8.785-7.192.726-18.283 2.863-23.102 4.45-1.265.417-2.615.758-3 .758s-1.778.349-3.098.777-3.93 1.175-5.8 1.662-4.068 1.218-4.884 1.623-1.74.738-2.052.738c-.565 0-4.241 1.503-6.396 2.616-.623.321-1.309.584-1.525.584s-1.866.691-3.667 1.536-3.816 1.669-4.476 1.831-1.47.53-1.8.817-1.05.654-1.6.816-1.27.524-1.6.803-2.22 1.356-4.2 2.392-3.78 2.031-4 2.21-1.66.992-3.2 1.806-3.475 1.955-4.3 2.535c-1.881 1.322-6.794 4.653-8.878 6.02-.868.569-2.218 1.618-3 2.332s-1.543 1.299-1.691 1.3c-.262.002-7.676 5.922-10.656 8.508-6.93 6.014-22.641 23.04-25.739 27.894a17.55 17.55 0 0 1-1.587 2.022c-.522.561-1.414 1.731-1.983 2.6-3.855 5.881-4.898 7.39-5.4 7.806-.311.258-.566.635-.566.837 0 .346-.257.769-2.27 3.743-.45.664-.954 1.654-1.121 2.2s-.535 1.262-.819 1.592-1.362 2.22-2.397 4.2-2.117 3.87-2.406 4.2-.646 1.088-.795 1.684-.511 1.283-.806 1.527-.658 1.017-.809 1.717-.973 2.753-1.826 4.564-1.551 3.461-1.551 3.667-.265.886-.588 1.509c-.602 1.159-2.1 4.829-2.992 7.332l-1.43 4c-.512 1.43-1.05 3.32-1.194 4.2s-.597 2.68-1.007 4c-2.802 9.023-4.577 17.409-6.094 28.8-1.15 8.633-1.49 35.17-.536 41.8.332 2.31.714 5.37.848 6.8.589 6.27 3.286 18.703 5.772 26.6.415 1.32.873 3.12 1.017 4s.715 2.86 1.268 4.4a142.63 142.63 0 0 1 1.625 4.8c.341 1.1.865 2.355 1.165 2.789s.546 1.03.546 1.325.429 1.469.953 2.611l2.143 4.675c.656 1.43 1.398 3.235 1.649 4.011s.953 2.331 1.557 3.454L36 297.273c1.894 3.414 3.466 5.914 4.608 7.327.711.88 1.595 2.14 1.964 2.8 1.472 2.63 2.541 4.267 3.723 5.699a358.5 358.5 0 0 1 4.345 5.501c6.611 8.511 17.44 19.865 25.114 26.331l6.169 5.207c.998.846 2.461 1.947 3.251 2.445s1.884 1.389 2.431 1.978a8.85 8.85 0 0 0 2.195 1.647c1.643.789 2.326 1.24 5.889 3.892 1.699 1.265 3.234 2.3 3.411 2.3s.756.315 1.286.7c.995.723 5.301 3.214 7.414 4.289.66.336 2.1 1.117 3.2 1.736 4.254 2.393 8.323 4.475 8.746 4.475.244 0 1.345.426 2.448.947 4.37 2.063 5.707 2.653 6.006 2.653.172 0 1.142.377 2.156.838 5.211 2.37 7.962 3.387 11.244 4.158 1.21.284 3.55.917 5.2 1.407 9.007 2.675 14.644 4.029 21 5.045 1.98.317 4.243.749 5.028.96 9.432 2.536 42.875 2.538 55.572.003 2.09-.418 4.79-.883 6-1.035s2.61-.43 3.11-.62 2.121-.531 3.6-.76 3.5-.67 4.49-.979a142.1 142.1 0 0 1 4.2-1.216 199.78 199.78 0 0 0 5-1.451c1.43-.439 3.59-1.045 4.8-1.348 2.767-.692 5.843-1.691 7.4-2.402 2.613-1.193 6.949-3 7.199-3 .146 0 1.521-.63 3.055-1.4s3.007-1.4 3.272-1.4c.516 0 8.75-4.189 12.874-6.549a272.18 272.18 0 0 1 4.4-2.433c2.609-1.413 7.347-4.438 7.8-4.981.196-.234 1.493-1.098 5.271-3.513 1.03-.657 2.47-1.682 3.2-2.277l6.873-5.519c9.344-7.479 20.178-18.303 27.808-27.784 6.546-8.133 6.466-8.029 7.768-10.066 2.423-3.791 3.283-5.082 3.517-5.278.577-.482 3.685-5.327 4.909-7.653.738-1.401 1.809-3.357 2.381-4.347 2.362-4.089 6.673-12.533 6.673-13.069 0-.262.72-1.919 1.6-3.683s1.6-3.374 1.6-3.579c0-.328.785-2.214 2.608-6.269.712-1.582 1.711-4.673 2.394-7.4.303-1.21.907-3.37 1.342-4.8 2.765-9.077 3.071-10.403 6.064-26.2 2.537-13.399 2.541-46.215.005-55.772-.208-.785-.655-3.138-.994-5.228-.672-4.154-1.763-9.262-2.772-12.984-.356-1.311-.647-2.634-.647-2.94s-.258-1.122-.574-1.816c-.547-1.201-1.186-3.402-2.398-8.26-.65-2.606-1.662-5.584-2.648-7.8-.392-.88-1.193-2.77-1.781-4.2l-1.589-3.8c-.287-.66-.638-1.589-.781-2.064s-.523-1.082-.844-1.349-.585-.87-.585-1.34c0-.886-3.258-7.592-4.201-8.647-.295-.33-.661-1.097-.812-1.704s-.438-1.204-.637-1.327-.628-.796-.953-1.496c-.784-1.688-3.417-6.276-4.297-7.487-.385-.53-.7-1.13-.7-1.334s-.592-1.108-1.314-2.011c-1.216-1.517-1.636-2.103-3.586-5.001a19.84 19.84 0 0 1-1.204-2.092c-.277-.579-1.187-1.839-2.024-2.8s-3.35-4.088-5.587-6.948c-7.176-9.172-24.934-26.257-33.414-32.145-.749-.52-1.671-1.24-2.05-1.6-.729-.693-1.045-.91-4.221-2.906a81.4 81.4 0 0 1-3.6-2.414c-2.114-1.529-4.607-3.206-5.6-3.766l-15.134-8.267c-1.124-.604-2.678-1.3-3.455-1.547-1.312-.417-2.483-.928-8.486-3.703-1.252-.579-2.517-1.052-2.811-1.052s-.891-.246-1.325-.546-1.689-.824-2.789-1.165a142.63 142.63 0 0 1-4.8-1.625c-1.54-.553-3.52-1.124-4.4-1.268s-2.68-.602-4-1.017c-8.686-2.734-17.602-4.606-29.8-6.258-5.561-.753-36.95-1.161-39.6-.514m37.6 28.16c4.557.662 6.328.979 10.2 1.825l5.8 1.259c2.09.453 4.88 1.16 6.2 1.571s3.21.867 4.2 1.012 2.34.5 3 .787 2.899 1.095 4.976 1.795 4.057 1.42 4.4 1.6 1.434.679 2.424 1.111l4 1.77a126.43 126.43 0 0 0 4.6 1.929c1.32.518 2.878 1.264 3.462 1.658s1.182.716 1.33.716c.285 0 5.071 2.725 7.408 4.219.77.492 2.3 1.382 3.4 1.979 2.454 1.33 5.932 3.668 9.471 6.366 1.469 1.12 3.408 2.48 4.308 3.022s2.939 2.22 4.529 3.728 3.535 3.162 4.32 3.674 2.135 1.685 3 2.606 3.252 3.324 5.304 5.34 4.247 4.386 4.875 5.266 2.412 2.938 3.963 4.573 3.637 4.155 4.635 5.6l3.418 4.827c2.352 3.224 5.126 7.436 5.589 8.485.222.503.937 1.725 1.588 2.715s1.38 2.25 1.62 2.799.677 1.27.971 1.6c.687.771 3.809 6.709 3.809 7.245 0 .388.415 1.331 3.446 7.83a62.98 62.98 0 0 1 3.181 8.082c.313.966.739 1.962.947 2.213s.655 1.711.993 3.244.993 4.047 1.457 5.587 1.028 3.7 1.254 4.8a53.35 53.35 0 0 0 1.024 4c.337 1.1.847 3.35 1.132 5l.924 5.2c1.798 9.768 2.578 29.67 1.489 38-.1.77-.466 4.041-.813 7.268s-.788 6.288-.982 6.8-.478 1.922-.631 3.132a28.29 28.29 0 0 1-1.05 4.502c-.424 1.265-.771 2.795-.771 3.4s-.358 2.178-.795 3.498c-1.354 4.088-2.405 7.899-2.405 8.724 0 .433-.338 1.528-.751 2.432s-1.149 2.724-1.635 4.044c-1.226 3.324-2.647 6.7-4.211 10-.73 1.54-1.459 3.25-1.621 3.8s-.629 1.627-1.038 2.394-.744 1.534-.744 1.704-.638 1.218-1.418 2.328-1.587 2.413-1.793 2.896-.783 1.547-1.282 2.365l-3.107 5.183c-1.21 2.033-3.194 4.964-4.409 6.513s-2.88 3.837-3.7 5.085c-1.358 2.066-2.396 3.293-6.875 8.132-.815.88-1.724 2.05-2.02 2.6s-1.345 1.63-2.331 2.4-2.067 1.858-2.403 2.419-1.028 1.248-1.537 1.527-1.555 1.319-2.325 2.31-1.85 2.04-2.4 2.331-2.71 2.11-4.8 4.04-4.818 4.17-6.062 4.977-3.404 2.372-4.8 3.478-4.296 3.069-6.444 4.364l-5.4 3.261c-.822.499-1.944 1.096-2.493 1.328s-1.27.664-1.6.961c-.796.715-6.332 3.621-7.601 3.989-.55.16-2.26.888-3.8 1.618-3.339 1.582-6.725 3.006-10 4.204-1.32.483-2.951 1.139-3.624 1.458s-2.293.826-3.6 1.127-3.366.827-4.576 1.168l-4.8 1.28c-1.43.363-3.68.982-5 1.375a33.74 33.74 0 0 1-4.774.988c-1.306.15-2.781.428-3.278.617-5.118 1.946-32.369 2.862-43.748 1.471-8.734-1.068-14.17-1.995-18-3.07-1.43-.402-3.5-.916-4.6-1.142s-3.26-.791-4.8-1.255-3.963-1.101-5.385-1.416-3.131-.832-3.8-1.148-2.295-.97-3.615-1.453c-2.978-1.09-6.225-2.475-10.476-4.47-1.801-.845-3.458-1.537-3.681-1.537-.505 0-6.428-3.091-7.243-3.781-.33-.279-1.834-1.208-3.342-2.063l-4.2-2.383c-1.919-1.088-5.325-3.354-8.058-5.359l-3.6-2.6-3.031-2.143c-.898-.637-2.608-2.091-3.8-3.231s-2.78-2.56-3.527-3.156-3.635-3.301-6.418-6.01l-5.445-5.2c-.211-.151-1.127-1.264-2.035-2.474s-2.807-3.417-4.22-4.904-3.009-3.436-3.546-4.329-1.894-2.827-3.014-4.296c-2.698-3.539-5.036-7.017-6.366-9.471-.597-1.1-1.487-2.63-1.979-3.4-1.563-2.445-4.219-7.129-4.219-7.438 0-.165-.251-.583-.557-.931s-1.049-1.891-1.652-3.431-1.542-3.79-2.088-5l-3.107-7c-1.319-3.008-3.58-9.842-4.035-12.2-.276-1.43-.764-3.41-1.083-4.4-.821-2.544-1.483-5.244-2.304-9.4l-1.109-5.4c-2.639-11.959-2.65-40.618-.021-53.8 1.5-7.522 3.375-15.512 3.852-16.419.226-.43.536-1.591.69-2.581.428-2.768 4.05-13.131 5.964-17.066 1.247-2.564 2.251-4.866 3.113-7.134.502-1.32 1.233-2.829 1.625-3.354s.712-1.158.712-1.409.715-1.53 1.589-2.846 1.593-2.523 1.6-2.683.644-1.282 1.417-2.491 1.574-2.639 1.779-3.178 1.184-2.117 2.177-3.509c6.263-8.779 10.27-14.084 11.359-15.038.435-.38 1.65-1.772 2.7-3.092C80.652 89.943 89.859 80.724 93 78.202c1.32-1.059 2.948-2.484 3.617-3.164 1.428-1.453 2.273-2.135 4.867-3.926 1.054-.728 2.906-2.068 4.116-2.978 4.209-3.166 7.408-5.343 8.78-5.975.758-.35 2.337-1.249 3.507-1.998s2.26-1.366 2.421-1.372 1.368-.727 2.683-1.6 2.596-1.589 2.846-1.589.884-.321 1.409-.712 2.034-1.123 3.354-1.625c2.476-.94 3.001-1.165 7.4-3.177 1.43-.654 3.68-1.596 5-2.092l4.2-1.582c2.328-.878 5.197-1.71 10.4-3.015l6.2-1.605c1.1-.303 3.26-.763 4.8-1.022s3.089-.62 3.441-.803c.57-.295 5.837-1.03 14.159-1.974 5.08-.576 29.467-.172 34.6.574m-64 30.174l-1 .295-.104 16.849c-.093 14.924-.032 16.922.528 17.482 1.056 1.056 13.988.931 14.562-.141.645-1.205.563-33.882-.086-34.302-.642-.416-12.579-.573-13.9-.183m69.6.017l-1 .278-.104 16.7c-.07 11.058.037 16.964.314 17.482.509.952 13.388 1.224 14.31.302.942-.942.661-34.195-.294-34.706-.856-.458-11.616-.504-13.226-.056M101.829 80.229c-.832.831-.98 236.86-.149 237.691.638.638 104.357.702 105.546.066s1.191-13.735 0-14.372c-.52-.278-15.387-.414-45.351-.414-37.161 0-44.652-.091-45.03-.546-.621-.748-.648-206.611-.027-207.232.275-.276 6.208-.491 17.102-.622l16.68-.2.11-6.998c.098-6.229.034-7.054-.577-7.5-1.149-.84-47.459-.719-48.304.127m74.833.102c-.78.862-.987 12.314-.248 13.695.546 1.021 44.306 1.235 45.147.221 1.044-1.258.382-13.552-.761-14.13-1.833-.926-43.288-.725-44.138.214m66.977-.178c-.316.38-.424 2.715-.349 7.5l.11 6.947 16.564.104c11.417.073 16.731.243 17.1.549.443.368.536 9.939.536 55.17l.39 55.751.39 1.026h6.73c4.701 0 6.875-.145 7.21-.48.956-.956.665-126.193-.294-126.706-1.297-.694-47.806-.561-48.387.139m-101.045 54.699c-6.957 3.72-7.78 11.332-1.709 15.811 7.025 5.183 17.324-3.19 13.396-10.89-2.484-4.869-7.686-7.06-11.687-4.921M174.4 140c-.983.983-1.133 4.992-.232 6.224.698.954 80.517 1.251 81.465.303.68-.68.688-5.858.011-6.674-.937-1.129-80.111-.986-81.244.147m-31.304 47.438c-6.379 2.308-8.308 10.11-3.639 14.714s11.731 3.392 14.725-2.517c3.453-6.813-3.828-14.824-11.086-12.197m31.375 5.597c-1.38.967-1.144 5.306.329 6.049 1.095.552 78.029.705 80 .159 1.498-.415 1.775-6.196.316-6.587-2.372-.635-79.716-.272-80.645.379m88.563 26.51c-.117.19-1.073.567-2.124.837-3.679.948-11.893 4.915-12.688 6.129-.595.908-.533 2.384.413 9.733.253 1.962.202 2.113-1.263 3.735-1.716 1.899-.946 1.829-8.861.805-3.848-.497-4.137-.484-4.913.218-1.837 1.663-6.896 13.82-6.898 16.576 0 1.037.889 1.909 4.3 4.219 7.159 4.848 6.993 7.255-.879 12.803-1.561 1.1-3.033 2.406-3.272 2.901-.81 1.687 3.758 13.574 6.564 17.079l.945 1.18 5.632-.944 5.633-.944 1.128 1.164c1.748 1.805 2.168 2.866 1.864 4.717-.666 4.054-.949 8.368-.608 9.266.438 1.152 5.024 3.561 11.193 5.88 6.7 2.519 6.102 2.702 10.2-3.122 4.148-5.896 6.902-6.302 10.476-1.544l2.816 3.767c2.297 3.079 2.541 3.119 7.708 1.251 8.978-3.245 13.212-6.101 12.367-8.344-1.427-3.79-1.151-10.046.51-11.535 1.608-1.441 1.849-1.458 7.358-.522l5.401.917.958-1.183c1.131-1.397 4.345-7.779 4.928-9.784.224-.77.872-2.558 1.441-3.972 1.019-2.535.807-4.428-.497-4.428-.173 0-.664-.32-1.091-.712s-1.668-1.336-2.76-2.1c-4.252-2.974-5.056-4.269-4.427-7.133.236-1.077 6.534-6.39 8.442-7.122 1.317-.505 1.387-2.113.206-4.718-.638-1.407-1.285-3.129-1.438-3.826-.412-1.872-3.967-8.867-4.962-9.761-.816-.734-1.063-.746-4.947-.244-7.909 1.023-7.148 1.09-8.84-.782-1.666-1.844-1.706-2.499-.592-9.714.357-2.312.323-2.859-.233-3.707-.711-1.085-9.431-5.504-11.824-5.992-.77-.157-1.886-.534-2.48-.837-2.433-1.243-3.095-.878-6.303 3.478-5.67 7.699-7.149 7.701-12.803.016-2.954-4.016-4.839-5.223-5.78-3.701m-118.901 20.449c-6.021.907-9.357 8.857-5.733 13.662 4.654 6.17 12.203 5.529 15.81-1.343 3.28-6.248-2.607-13.445-10.077-12.319M174.4 246c-.587.587-.8 1.333-.8 2.8 0 3.842-1.515 3.6 22.511 3.6 24.485 0 22.876.276 22.612-3.88-.107-1.666-.369-2.704-.744-2.941-1.353-.856-42.702-.456-43.579.421m107.955 1.847c22.039 8.817 16.437 40.953-7.14 40.953-23.498 0-29.497-31.729-7.718-40.816 3.927-1.638 10.943-1.703 14.858-.137" fill="#06ac9d" fill-rule="evenodd"/></svg>