<svg xmlns="http://www.w3.org/2000/svg" width="400" height="400" viewBox="0 0 400 NaN" xmlns:v="https://vecta.io/nano"><path d="M109.071 3.544c-1.189.468-1.109 53.796.082 54.987.834.834 19.218 1.259 21.57.499 1.625-.525 1.677-1.413 1.677-28.666V3.98l-1.026-.39c-1.172-.446-21.184-.487-22.303-.046m109.029.068l-.9.362.005 26.313c.006 28.314-.017 27.891 1.546 28.665 1.734.86 20.691.515 21.697-.395.722-.654.752-1.759.752-27.629V3.98l-1.026-.39c-1.289-.49-20.848-.47-22.074.022M23.19 22.226c-.617 1.624-.528 371.876.09 372.494.661.661 163.966.701 165.86.041l1.26-.439v-10.715-10.715l-.986-.646c-.898-.588-7.232-.646-71.111-.646-62.821 0-70.218-.065-71.014-.623l-.889-.622V208.439l.768-162.61c.713-.646 2.549-.692 25.777-.647 27.221.052 27.825.007 27.879-2.062.308-11.769-.046-20.56-.855-21.22-.803-.656-3.249-.7-38.623-.7H23.58l-.39 1.026m117.842-.499c-1.043.763-1.088 21.589-.049 22.627.657.657 65.072 1.265 68.504.646 2.529-.455 2.513-.379 2.513-12.006 0-10.447-.009-10.555-.889-11.171-1.234-.865-68.902-.957-70.079-.096m105.345.211c-.907.735-.911.788-.891 11.08l.02 10.342 1.091.939 1.091.938 24.807-.058c24.054-.057 24.839-.035 25.856.724l1.049.783.202 86.557.3 86.643c1.584 1.393 21.843 1.449 22.998.064 1.175-1.408 1.077-196.773-.1-197.95-1.205-1.205-74.937-1.265-76.423-.062M89.566 106.762c-13.103 4.224-14.776 20.015-2.833 26.737 10.323 5.81 23.708-5.406 19.881-16.659-2.441-7.175-10.773-12.101-17.048-10.078m48.774 7.904c-1.592.428-2.234 9.739-.791 11.474.506.608 5.474.66 63.43.66h62.882l.869-.926c1.232-1.311 1.292-8.702.084-10.274l-.768-1-62.523-.056c-34.388-.031-62.82.024-63.183.122m-49.036 74.898c-7.797 2.005-12.849 11.417-9.903 18.452 5.571 13.302 23.073 12.506 27.383-1.246 3.01-9.603-7.358-19.808-17.48-17.206m48.996 8.382c-1.603.468-2.264 7.985-.877 9.965l.622.889h62.908 62.908l.869-.926c1.213-1.29 1.311-8.151.133-9.217-.679-.614-124.514-1.31-126.563-.711m115.5 38.611c-4.49.659-10.476 2.519-11.543 3.586l-.805.805 2.014 1.826c1.108 1.004 2.334 2.323 2.724 2.931 1.048 1.634 2.039 1.675 6.431.264 12.059-3.874 27.997.677 36.724 10.487 19.262 21.649 2.477 54.98-27.605 54.816-20.242-.11-37.598-17.818-34.788-35.494 1.6-10.059 4.007-13.056 7.87-9.798 4.016 3.386 5.291 2.132 6.002-5.907 1.213-13.722.873-14.025-14.511-12.896-8.59.63-10.486 1.933-6.847 4.706 3.685 2.806 4.187 4.256 2.402 6.924-5.088 7.603-6.215 22.642-2.436 32.504 12.297 32.093 56.436 38.665 78.51 11.689 11.579-14.15 12.012-35.714.988-49.19-11.208-13.7-27.336-19.866-45.13-17.253m81.696 10.831c-3.753 1.299-3.896 1.807-3.896 13.861v10.088l1.766 1.692c3.198 3.064 8.089 2.258 9.417-1.551.875-2.511.532-20.197-.422-21.74-1.399-2.265-4.272-3.248-6.865-2.35M310.5 258.412c-1.131.455-1.166 1.7-.117 4.149 3.063 7.144 4.106 19.617 2.06 24.615-2.052 5.01-2.823 4.86 24.675 4.808 20.645-.04 23.059.022 23.638.6.8.8 1.208 71.38.429 74.272-.335 1.245-.831 1.845-2.291 2.771l-1.864 1.181-56.015-.104L245 370.6l-1.481-1c-2.608-1.762-2.512-.832-2.594-24.979-.081-23.914-.005-23.157-2.452-24.441-.81-.425-2.801-1.629-4.424-2.676-5.59-3.606-5.249-5.168-5.249 24.054v24.412l.958 3.016c2.174 6.847 7.557 11.024 15.729 12.206 4.883.706 108.512.529 112.649-.192 5.355-.934 7.33-2.006 11.575-6.283L373.4 371l.104-51.032.105-51.032-1.505-1.591-2.999-3.227c-4.389-4.803-15.354-7.93-18.456-5.262l-1.115.959.042 5.887c.071 10.17-4.444 15.498-12.731 15.018-7.788-.451-11.759-5.511-11.707-14.92.029-5.296-.305-6.675-1.784-7.348-1.185-.54-11.53-.572-12.854-.04m-32.911.68c-.544.381-3.913 3.256-7.487 6.389-5.739 5.03-6.767 5.77-8.8 6.334-3.782 1.048-4.397 1.387-5.473 3.013-1.231 1.861-1.341 4.006-.281 5.51 1.961 2.785 2.384 4.263 3.006 10.514.73 7.332.766 7.451 2.389 7.879 3.158.832 3.665-.134 4.459-8.484.411-4.334.92-7.485 1.419-8.8.428-1.126.779-2.497.781-3.047.002-1.557 1.743-3.831 7.798-10.187 6.064-6.366 6.644-7.275 5.628-8.826-.762-1.163-2.042-1.272-3.439-.295m-187.761 13.34c-5.996.903-11.731 8.113-11.352 14.269.597 9.667 10.734 16.339 19.324 12.719 16.533-6.967 9.827-29.669-7.972-26.988m47.595 9.257c-1.041 1.486-.88 8.354.219 9.349.994.9 63.971 1.42 67.183.555 2.146-.578 2.474-1.408 2.312-5.869-.198-5.487 3.847-4.924-35.391-4.924h-33.701l-.622.889m172.486 21.837c-2.854.328-4.025 8.156-1.509 10.088 1.775 1.363 8.862 1.142 10.006-.313 1.074-1.364 1.069-8.015-.006-9.053-.585-.564-5.924-1.018-8.491-.722m22.988.226c-1.167.636-1.285 1.104-1.291 5.148-.008 5.333.166 5.5 5.75 5.5 5.747 0 5.954-.183 6.005-5.322.052-5.18-.121-5.35-5.664-5.555-2.257-.083-4.417.02-4.8.229m-72.643 22.677c-1.429 1.124-1.634 8.522-.271 9.755 1.108 1.003 8.272 1.065 9.769.084 1.984-1.3 2.056-8.042.103-9.722-1.556-1.339-7.949-1.417-9.601-.117m23.892.116c-1.485 1.277-1.733 8.046-.346 9.432.945.945 8.547 1.308 10.09.482 2.054-1.099 2.229-8.359.239-9.951-1.722-1.378-8.367-1.353-9.983.037m24.224.087c-1.417 1.508-1.467 8.049-.072 9.443 1.156 1.156 8.941 1.258 10.067.131 1.147-1.147.904-8.858-.309-9.841-1.613-1.306-8.384-1.119-9.686.267m24.1-.106c-1.351 1.438-1.302 8.278.069 9.65 1.355 1.354 8.599 1.264 9.987-.125 1.458-1.458 1.266-8.183-.272-9.506-1.644-1.414-8.461-1.428-9.784-.019m-71.659 21.925c-1.476.58-1.598.992-1.605 5.387-.008 5.331.026 5.362 5.744 5.362 5.8 0 6.256-.401 6.237-5.482-.013-3.776-.342-4.617-2.062-5.271-1.314-.499-7.04-.497-8.314.004m24.731-.191c-2.469.431-3.758 7.96-1.714 10.005 2.069 2.068 11.228 1.133 11.412-1.165.261-3.257-.176-7.381-.856-8.076-.767-.785-6.088-1.244-8.842-.764m24.058 0c-2.666 1.075-3.617 7.759-1.418 9.958 1.194 1.194 8.559 1.498 10.042.415 1.193-.872 1.393-8.029.263-9.425-.79-.975-7.14-1.653-8.887-.948m23.059.565c-1.515 1.192-1.646 8.718-.17 9.752 1.578 1.105 8.892.879 10.083-.312 1.243-1.244 1.082-7.899-.225-9.263-1.187-1.238-8.176-1.366-9.688-.177" fill="#06ac9d" fill-rule="evenodd"/></svg>