<svg xmlns="http://www.w3.org/2000/svg" width="400" height="400" viewBox="0 0 400 NaN" xmlns:v="https://vecta.io/nano"><path d="M110.7 3.632c-.655.382-.7 2.068-.7 26.406v25.998l.982.982.982.982h9.838c10.078 0 12.183-.295 12.206-1.71.362-21.632-.034-52.492-.677-52.746-1.164-.458-21.83-.378-22.631.088m109.568-.088c-1.219.481-1.096 52.206.128 53.429 1.247 1.247 21.729 1.292 22.636.051.477-.652.568-4.995.568-27.054V3.693l-.9-.241c-1.27-.34-21.545-.257-22.432.092M24.839 20.86c-.721 2.067-.615 373.296.107 373.895s166.412.447 167.015-.156c.954-.954.623-21.883-.359-22.678-.85-.689-4.068-.721-71.37-.721-60.237 0-70.592-.083-71.256-.568-.833-.609-1.459-324.456-.629-325.761.728-1.145 3.949-1.283 28.211-1.206l24.759.078.741-.916c.679-.838.742-1.778.742-11.09V21.562l-1.058-.981-1.059-.981H62.981 25.278l-.439 1.26m118.511-.318l-1.095.941.104 10.307c.109 10.924.138 11.208 1.154 11.598 1.816.697 69.455.271 69.975-.44.378-.518.513-2.954.516-9.324.003-4.743.115-9.291.25-10.105.212-1.286.083-1.643-.974-2.7l-1.218-1.219h-33.809-33.808l-1.095.942m106.392-.665c-2.148.42-2.221.828-2.164 11.996.048 9.497.113 10.387.798 11.076.714.718 1.789.747 25.745.678 27.254-.077 27.874-.032 27.883 2.053L302 132.468l-.007 85.868 1.081.85c1.593 1.254 21.83 1.109 22.759-.162.591-.809.906-196.076.319-197.606-.708-1.843-.233-1.821-39.032-1.764l-37.378.223M91.2 105.772c-9.817 2.731-13.82 14.27-7.729 22.28 6.8 8.941 19.483 7.388 24.442-2.994 4.979-10.423-5.423-22.426-16.713-19.286m111 7.716l-62.4.102-.7.849c-1.39 1.686-.795 10.332.751 10.925.797.306 125.873.317 126.669.011 1.572-.603 2.218-9.786.78-11.082-1.05-.947 1.565-.914-65.1-.805m-110.587 75.14c-13.142 3.604-15.028 20.668-2.96 26.783 10.971 5.559 24.634-6.647 19.614-17.523-.587-1.271-1.067-2.465-1.067-2.653 0-.545-3.256-3.656-4.946-4.725-3.363-2.127-7.242-2.813-10.641-1.882m48.79 8.529c-2.442.68-2.955 9.685-.604 10.587.839.322 125.869.358 126.706.037 1.853-.711 2.13-8.775.351-10.216-.971-.786-123.673-1.181-126.453-.408m218.68 55.949c-.394.087-18.608 18.055-40.474 39.927l-40.68 39.767c-.686 0-6.004-5.124-20.757-20-16.49-16.627-20.018-20-20.922-20-1.099 0-20.93 19.268-21.583 20.97-.435 1.133-.623.935 31.098 32.619 29.696 29.662 31.612 31.463 33 31.022.356-.113 23.055-22.63 50.442-50.037l51.493-51.022c2.282-1.598 2.986-.618-8.931-12.422-10.605-10.505-11.332-11.125-12.686-10.824M92 271.559c-7.471 1.081-13.213 10.289-11.052 17.722 3.13 10.765 17.011 14.111 24.408 5.883 9.189-10.22.483-25.607-13.356-23.605m48.094 8.856c-1.777.714-2.433 8.617-.847 10.204.74.739 67.314.951 68.683.218 1.962-1.049 1.741-8.761-.295-10.324-.776-.596-66.066-.691-67.541-.098" fill="#07ac9e" fill-rule="evenodd"/></svg>