<svg id="SvgjsSvg1056" width="288" height="288" xmlns="http://www.w3.org/2000/svg" version="1.1" xmlns:xlink="http://www.w3.org/1999/xlink" xmlns:svgjs="http://svgjs.com/svgjs"><defs id="SvgjsDefs1057"></defs><g id="SvgjsG1058"><svg xmlns="http://www.w3.org/2000/svg" width="288" height="288" viewBox="0 0 400 400"><path fill-rule="evenodd" d="M246.667 21.556 C 233.620 26.968,232.381 28.768,232.381 42.312 C 232.381 57.006,232.244 57.143,217.556 57.143 C 203.684 57.143,202.318 58.177,196.288 73.249 L 189.843 89.355 199.683 97.202 C 211.982 107.008,211.982 110.134,199.683 119.941 L 189.843 127.788 196.288 143.894 C 202.318 158.966,203.684 160.000,217.556 160.000 C 232.209 160.000,232.381 160.170,232.381 174.627 C 232.381 196.223,262.536 207.874,273.402 190.476 C 279.578 180.587,288.140 180.773,293.568 190.915 C 302.573 207.741,337.131 193.672,334.293 174.335 C 332.465 161.878,336.811 157.942,350.778 159.407 C 369.474 161.368,382.755 129.567,367.433 119.528 C 355.598 111.773,355.584 104.678,367.389 96.943 C 376.772 90.795,376.838 89.410,368.788 67.820 C 365.592 59.249,362.332 57.353,349.145 56.391 C 333.475 55.248,333.344 55.115,334.533 41.465 C 335.670 28.424,334.865 27.344,319.380 21.149 L 303.026 14.605 295.179 24.445 C 285.348 36.775,279.950 36.849,272.031 24.762 C 264.806 13.735,265.355 13.805,246.667 21.556 M311.344 82.011 C 323.583 94.249,324.591 96.889,322.627 111.535 C 317.428 150.306,266.525 162.400,249.238 128.971 C 226.457 84.918,276.450 47.117,311.344 82.011 M161.789 153.176 C 155.440 157.528,146.012 166.796,140.837 173.772 C 132.639 184.825,129.222 186.472,114.286 186.576 C 93.135 186.723,73.707 197.877,67.058 213.689 C 63.951 221.078,55.148 229.331,42.930 236.309 C -2.519 262.266,-4.469 330.612,39.464 357.764 C 51.942 365.476,56.871 365.714,203.808 365.714 L 355.288 365.714 371.930 349.073 C 402.504 318.499,393.224 263.748,354.768 247.819 C 345.516 243.987,343.484 240.584,341.864 226.209 C 339.491 205.158,337.774 203.336,325.551 208.905 C 312.546 214.831,294.735 214.512,288.885 208.249 C 284.931 204.017,282.485 204.112,274.282 208.821 C 254.973 219.902,217.143 203.958,217.143 184.738 C 217.143 177.788,214.790 175.470,206.790 174.539 C 199.971 173.745,193.390 168.782,187.513 160.000 C 176.513 143.563,176.011 143.430,161.789 153.176 " fill="#01a89e" class="color000 svgShape"></path></svg></g></svg>