<svg id="svg" version="1.1" xmlns="http://www.w3.org/2000/svg" xmlns:xlink="http://www.w3.org/1999/xlink" width="400" height="400" viewBox="0, 0, 400,400"><g id="svgg"><path id="path0" d="M189.888 7.832 C 171.450 10.064,155.897 22.582,151.659 38.600 C 151.090 40.751,151.002 51.381,150.812 141.067 C 150.695 196.103,150.510 241.217,150.400 241.319 C 150.290 241.421,148.940 242.443,147.400 243.590 C 140.117 249.015,134.582 254.982,129.896 262.456 C 127.534 266.224,122.789 275.489,122.807 276.297 C 122.811 276.464,122.097 278.850,121.222 281.600 C 117.226 294.147,115.727 312.365,117.750 323.800 C 118.896 330.276,119.727 333.867,120.713 336.600 C 121.269 338.140,122.071 340.390,122.496 341.600 C 126.377 352.656,136.757 367.385,146.000 374.950 C 154.560 381.956,162.075 386.336,171.800 389.987 C 184.471 394.743,201.001 396.269,213.400 393.825 C 221.949 392.141,223.723 391.736,225.400 391.085 C 226.280 390.743,228.260 389.984,229.800 389.397 C 231.340 388.810,233.912 387.716,235.515 386.965 C 237.119 386.214,238.508 385.600,238.603 385.600 C 239.000 385.600,247.770 379.918,250.088 378.159 C 256.419 373.357,264.790 364.672,268.192 359.377 C 271.111 354.834,273.936 350.031,274.212 349.144 C 274.373 348.625,274.806 347.750,275.174 347.200 C 275.902 346.112,276.994 343.588,277.424 342.000 C 277.573 341.450,278.023 340.270,278.422 339.377 C 283.133 328.866,284.588 307.871,281.623 293.200 C 281.200 291.110,280.732 288.410,280.583 287.200 C 280.433 285.990,280.179 284.820,280.019 284.600 C 279.859 284.380,279.141 282.310,278.424 280.000 C 276.897 275.080,275.714 272.039,275.003 271.200 C 274.724 270.870,274.358 270.155,274.192 269.611 C 272.221 263.168,260.170 248.385,253.594 244.345 C 253.008 243.984,251.779 242.977,250.864 242.107 L 249.200 240.524 249.200 220.062 C 249.200 200.133,249.221 199.579,250.000 198.800 C 250.763 198.037,251.333 198.000,262.383 198.000 L 273.966 198.000 275.583 196.462 C 278.278 193.898,277.729 190.336,274.339 188.396 C 272.626 187.415,272.434 187.397,261.285 187.200 C 251.813 187.033,249.908 186.902,249.591 186.400 C 248.881 185.275,249.099 164.558,249.829 163.829 C 250.370 163.287,252.008 163.200,261.645 163.200 C 273.911 163.200,274.980 163.016,276.539 160.637 C 277.521 159.139,277.388 156.057,276.286 154.751 C 274.527 152.669,274.190 152.614,261.961 152.400 C 253.083 152.245,250.373 152.077,249.861 151.651 C 249.140 151.052,248.838 130.390,249.534 129.293 C 250.188 128.262,252.827 128.000,262.551 128.000 C 275.568 128.000,277.203 127.437,277.199 122.953 C 277.194 118.160,275.566 117.600,261.641 117.600 C 252.007 117.600,250.370 117.513,249.829 116.971 C 248.884 116.027,248.884 94.773,249.829 93.829 C 250.370 93.287,252.008 93.200,261.648 93.200 C 273.907 93.200,274.154 93.159,276.152 90.784 C 278.278 88.258,277.472 85.376,273.899 82.727 C 273.844 82.686,268.562 82.551,262.160 82.427 C 253.145 82.251,250.372 82.076,249.860 81.651 C 249.263 81.154,249.200 79.235,249.200 61.530 C 249.200 39.942,249.144 39.321,246.648 33.317 C 244.283 27.630,237.946 19.833,233.373 16.983 C 232.728 16.581,231.840 15.939,231.400 15.557 C 224.267 9.359,205.749 5.913,189.888 7.832 M209.335 24.411 C 218.992 25.807,227.937 31.813,231.365 39.200 L 232.200 41.000 232.400 145.439 C 232.570 234.254,232.684 249.978,233.161 250.553 C 233.470 250.925,234.910 251.889,236.361 252.695 C 253.694 262.322,263.525 278.263,266.031 300.800 C 267.990 318.419,265.234 332.267,256.878 346.800 C 250.724 357.503,234.921 370.776,224.722 373.806 C 224.215 373.957,222.169 374.682,220.176 375.418 C 216.655 376.718,215.245 376.976,204.862 378.213 C 198.761 378.940,186.139 377.642,181.000 375.759 C 179.460 375.195,177.404 374.478,176.430 374.165 C 162.825 369.794,148.321 356.840,140.865 342.400 C 126.485 314.554,134.239 272.179,156.415 257.411 C 157.397 256.757,158.658 255.857,159.217 255.411 C 159.777 254.965,161.724 253.801,163.544 252.825 C 165.363 251.848,167.066 250.678,167.326 250.225 C 167.687 249.598,167.848 224.351,168.000 144.800 C 168.226 26.709,167.830 39.575,171.375 35.010 C 178.214 26.203,193.058 22.058,209.335 24.411 M197.075 95.761 C 191.811 97.956,189.073 101.379,188.019 107.081 C 187.731 108.639,187.598 134.737,187.602 188.960 C 187.605 232.736,187.459 268.701,187.278 268.882 C 187.097 269.063,185.160 270.015,182.974 270.996 C 161.788 280.505,151.895 300.823,157.209 323.910 C 159.085 332.060,167.141 343.413,174.419 348.163 C 175.398 348.802,176.659 349.636,177.220 350.015 C 196.117 362.803,226.125 355.377,238.105 334.948 C 252.825 309.846,242.257 281.316,213.840 269.442 L 212.409 268.845 212.305 187.122 L 212.200 105.400 211.309 103.733 C 208.821 99.080,207.394 97.607,203.883 96.069 C 200.828 94.731,199.671 94.679,197.075 95.761 " stroke="none" fill="#07ad9d" fill-rule="evenodd"></path></g></svg>