<svg id="SvgjsSvg1061" width="288" height="288" xmlns="http://www.w3.org/2000/svg" version="1.1" xmlns:xlink="http://www.w3.org/1999/xlink" xmlns:svgjs="http://svgjs.com/svgjs"><defs id="SvgjsDefs1062"></defs><g id="SvgjsG1063"><svg xmlns="http://www.w3.org/2000/svg" width="288" height="288" viewBox="0 0 400 400"><path fill="#01a89e" fill-rule="evenodd" d="M165.907 12.593 C 163.326 12.890,160.616 13.331,159.886 13.572 C 159.155 13.813,157.217 14.290,155.579 14.632 C 149.992 15.799,147.801 16.304,147.000 16.611 C 146.191 16.921,143.271 18.148,141.800 18.796 C 141.360 18.990,140.106 19.527,139.014 19.990 C 137.922 20.452,136.932 20.959,136.814 21.116 C 136.575 21.433,134.715 22.356,131.992 23.509 C 130.997 23.930,129.912 24.545,129.582 24.875 C 129.251 25.206,128.276 25.811,127.416 26.219 C 124.806 27.458,114.845 35.482,111.645 38.924 C 106.511 44.446,103.543 48.040,102.957 49.442 C 102.657 50.159,101.942 51.253,101.367 51.873 C 100.793 52.493,99.810 54.035,99.182 55.300 C 98.554 56.565,97.583 58.200,97.024 58.933 C 96.465 59.666,95.575 61.601,95.047 63.233 C 94.519 64.865,93.644 67.013,93.104 68.007 C 92.108 69.839,91.029 74.163,90.662 77.800 C 90.550 78.900,90.000 81.207,89.438 82.926 C 87.648 88.404,87.621 102.276,89.390 108.000 C 90.196 110.610,90.543 112.178,91.393 117.047 C 91.815 119.466,92.496 121.606,93.415 123.400 C 94.177 124.888,94.800 126.521,94.800 127.029 C 94.800 127.537,94.960 128.052,95.156 128.173 C 95.351 128.294,95.633 128.889,95.781 129.496 C 95.929 130.103,96.544 131.230,97.147 132.000 C 97.750 132.770,98.640 134.257,99.125 135.304 C 99.611 136.351,100.347 137.547,100.761 137.961 C 101.176 138.376,102.262 139.994,103.175 141.558 C 104.088 143.121,104.983 144.400,105.164 144.400 C 105.346 144.400,105.987 145.146,106.591 146.058 C 107.194 146.970,108.343 148.385,109.144 149.204 C 109.945 150.023,111.753 151.887,113.162 153.346 C 114.571 154.806,115.869 156.000,116.046 156.000 C 116.223 156.000,117.074 156.692,117.937 157.539 C 118.801 158.385,120.203 159.503,121.054 160.022 C 121.904 160.542,122.780 161.172,123.000 161.424 C 123.796 162.333,126.229 163.899,127.512 164.328 C 128.233 164.569,129.256 165.281,129.785 165.909 C 130.370 166.604,131.658 167.355,133.073 167.826 C 134.353 168.252,135.619 168.780,135.886 169.000 C 136.153 169.220,136.615 169.601,136.911 169.846 C 137.749 170.539,140.057 171.512,141.600 171.822 C 142.370 171.977,143.990 172.547,145.200 173.090 C 147.838 174.274,151.857 175.434,154.600 175.804 C 156.694 176.086,159.168 176.775,159.730 177.232 C 160.357 177.741,155.793 179.563,151.247 180.619 C 150.011 180.906,147.920 181.436,146.600 181.798 C 144.228 182.448,141.042 183.175,136.837 184.026 C 135.648 184.267,134.298 184.694,133.837 184.975 C 133.377 185.257,131.830 185.889,130.400 186.382 C 128.970 186.874,126.900 187.693,125.800 188.203 C 122.486 189.739,121.056 190.312,119.891 190.572 C 119.281 190.708,117.647 191.514,116.261 192.363 C 114.874 193.211,113.179 194.029,112.493 194.180 C 111.807 194.330,110.485 195.005,109.554 195.679 C 108.623 196.354,106.948 197.312,105.831 197.809 C 104.714 198.306,103.090 199.281,102.223 199.974 C 101.355 200.668,99.735 201.690,98.623 202.246 C 97.510 202.801,96.051 203.783,95.381 204.428 C 94.710 205.072,93.961 205.600,93.715 205.600 C 93.469 205.600,92.398 206.410,91.335 207.400 C 90.271 208.390,89.279 209.200,89.129 209.200 C 88.980 209.200,88.619 209.433,88.329 209.717 C 88.038 210.002,86.097 211.667,84.016 213.417 C 79.791 216.970,69.836 226.768,68.600 228.591 C 68.160 229.239,66.990 230.691,66.000 231.817 C 62.120 236.228,61.519 236.990,60.778 238.443 C 60.356 239.270,59.681 240.184,59.278 240.474 C 58.876 240.763,58.198 241.630,57.773 242.400 C 57.348 243.170,56.336 244.664,55.525 245.721 C 54.714 246.777,53.730 248.487,53.339 249.521 C 52.947 250.554,52.220 251.844,51.722 252.387 C 51.224 252.929,50.171 254.639,49.381 256.187 C 48.591 257.734,47.527 259.741,47.016 260.647 C 46.505 261.553,45.963 262.859,45.811 263.549 C 45.660 264.239,44.962 265.658,44.261 266.702 C 42.907 268.717,42.000 270.943,42.000 272.250 C 42.000 272.686,41.209 274.653,40.243 276.621 C 39.060 279.032,38.397 280.983,38.213 282.600 C 37.904 285.315,37.199 287.651,35.774 290.679 C 35.098 292.117,34.667 294.027,34.378 296.879 C 33.817 302.391,33.224 306.219,32.591 308.400 C 31.554 311.973,31.513 314.182,32.436 316.679 C 32.908 317.955,33.600 319.881,33.974 320.958 C 34.366 322.084,35.153 323.310,35.827 323.843 C 36.472 324.352,37.540 325.290,38.200 325.926 C 39.516 327.194,40.505 327.624,44.400 328.621 C 48.869 329.766,209.819 329.816,213.800 328.674 C 218.091 327.444,222.000 324.218,222.000 321.908 C 222.000 321.607,222.155 321.189,222.345 320.980 C 223.218 320.021,223.679 317.189,224.228 309.417 C 224.861 300.464,225.418 297.505,226.990 294.740 C 227.534 293.783,228.091 292.190,228.228 291.200 C 228.640 288.213,229.498 285.680,230.578 284.265 C 231.140 283.528,231.601 282.761,231.602 282.562 C 231.604 282.363,231.846 281.738,232.141 281.173 C 232.435 280.609,232.804 279.640,232.959 279.020 C 233.115 278.400,234.043 276.667,235.021 275.168 C 235.999 273.669,236.800 272.270,236.800 272.059 C 236.800 271.848,237.430 270.922,238.200 270.000 C 238.970 269.078,239.600 268.071,239.600 267.762 C 239.600 267.453,239.780 267.200,240.000 267.200 C 240.220 267.200,240.400 266.946,240.400 266.635 C 240.400 266.324,241.283 265.109,242.363 263.935 C 243.442 262.761,245.241 260.720,246.360 259.400 C 248.642 256.709,248.761 256.587,251.766 253.800 C 255.158 250.655,257.387 248.858,259.939 247.208 C 261.240 246.367,262.429 245.476,262.583 245.227 C 262.737 244.978,263.704 244.385,264.731 243.909 C 265.759 243.433,267.230 242.547,268.000 241.942 C 268.770 241.336,270.480 240.435,271.800 239.940 C 273.120 239.444,274.290 238.925,274.400 238.785 C 274.627 238.496,278.000 236.506,279.794 235.602 C 280.451 235.271,281.174 234.640,281.400 234.200 C 281.625 233.760,282.281 232.590,282.857 231.600 C 285.185 227.595,283.977 223.563,279.064 218.940 C 274.517 214.661,272.850 213.200,272.518 213.200 C 272.336 213.200,271.403 212.390,270.444 211.400 C 269.484 210.410,268.564 209.600,268.398 209.600 C 268.232 209.600,267.371 208.896,266.485 208.036 C 265.599 207.176,264.247 206.175,263.482 205.812 C 262.716 205.449,261.484 204.610,260.745 203.948 C 260.005 203.286,258.365 202.192,257.100 201.516 C 255.835 200.841,254.800 200.166,254.800 200.015 C 254.800 199.865,253.945 199.338,252.900 198.843 C 249.880 197.416,248.847 196.805,247.786 195.822 C 247.240 195.316,245.940 194.666,244.897 194.377 C 243.854 194.089,241.920 193.196,240.600 192.394 C 239.280 191.591,237.673 190.803,237.029 190.642 C 236.385 190.481,234.135 189.567,232.029 188.610 C 229.923 187.653,227.331 186.582,226.269 186.229 C 225.207 185.877,223.850 185.336,223.254 185.028 C 222.657 184.719,221.186 184.265,219.985 184.019 C 213.860 182.761,212.424 182.431,210.400 181.812 C 208.186 181.135,207.162 180.898,201.531 179.764 C 195.952 178.641,193.062 177.161,195.483 176.668 C 201.798 175.383,204.127 174.684,207.058 173.198 C 208.346 172.545,209.798 172.008,210.285 172.005 C 211.501 171.998,215.011 170.575,216.539 169.469 C 217.233 168.967,218.880 168.126,220.200 167.600 C 221.520 167.074,223.050 166.211,223.600 165.682 C 224.150 165.153,225.189 164.465,225.909 164.151 C 226.629 163.838,227.889 162.984,228.709 162.253 C 229.529 161.522,231.058 160.427,232.107 159.820 C 233.155 159.213,234.235 158.420,234.507 158.058 C 234.778 157.696,235.860 156.709,236.912 155.863 C 238.774 154.367,242.189 150.926,243.800 148.923 C 244.240 148.376,245.365 147.093,246.300 146.073 C 247.235 145.052,248.000 144.085,248.000 143.923 C 248.000 143.760,248.562 143.053,249.248 142.351 C 249.935 141.648,250.913 140.247,251.422 139.237 C 251.930 138.227,252.731 136.989,253.202 136.486 C 253.672 135.984,254.590 134.279,255.242 132.697 C 255.895 131.116,256.770 129.457,257.187 129.011 C 257.998 128.143,258.949 125.569,259.384 123.060 C 259.641 121.577,260.742 118.814,261.241 118.400 C 264.661 115.562,264.621 77.313,261.192 72.400 C 260.414 71.284,259.203 67.943,259.194 66.886 C 259.184 65.699,258.012 62.763,257.026 61.456 C 256.505 60.765,255.592 59.036,254.998 57.614 C 254.404 56.192,253.680 54.842,253.390 54.614 C 253.100 54.386,252.287 53.120,251.583 51.800 C 250.878 50.481,249.903 49.031,249.415 48.578 C 248.926 48.126,248.363 47.468,248.163 47.117 C 246.517 44.223,234.254 32.011,230.933 29.959 C 230.141 29.469,228.971 28.558,228.333 27.934 C 227.695 27.311,226.989 26.800,226.765 26.800 C 226.541 26.800,225.121 25.993,223.610 25.006 C 222.099 24.020,219.950 22.853,218.835 22.414 C 217.719 21.974,216.130 21.195,215.303 20.682 C 214.477 20.169,212.540 19.332,211.000 18.821 C 209.460 18.311,208.110 17.763,208.000 17.605 C 207.724 17.206,202.993 15.858,198.200 14.812 C 196.000 14.331,193.750 13.773,193.200 13.570 C 190.005 12.392,172.951 11.781,165.907 12.593 M308.000 250.832 C 297.155 252.162,296.493 252.288,293.961 253.508 C 292.552 254.187,290.320 255.046,289.000 255.417 C 287.680 255.788,286.060 256.495,285.400 256.989 C 284.740 257.483,283.210 258.386,282.000 258.997 C 280.790 259.608,278.826 260.803,277.635 261.654 C 276.444 262.504,275.244 263.200,274.968 263.200 C 274.692 263.200,274.407 263.335,274.333 263.500 C 274.260 263.665,273.480 264.337,272.600 264.993 C 267.746 268.614,260.558 276.207,258.912 279.455 C 258.396 280.473,257.529 281.656,256.984 282.084 C 256.440 282.512,255.539 283.860,254.981 285.080 C 254.423 286.300,253.547 287.861,253.035 288.549 C 252.523 289.237,251.778 290.880,251.379 292.200 C 250.979 293.520,250.175 295.500,249.591 296.600 C 249.006 297.700,248.122 300.400,247.625 302.600 C 247.128 304.800,246.558 307.230,246.357 308.000 C 245.258 312.217,245.073 323.896,246.014 329.600 C 247.266 337.185,248.337 341.512,249.377 343.190 C 249.858 343.965,250.564 345.773,250.945 347.207 C 251.327 348.641,252.072 350.531,252.602 351.407 C 253.132 352.283,254.116 354.103,254.789 355.451 C 255.462 356.800,256.426 358.330,256.932 358.851 C 257.437 359.373,258.279 360.520,258.803 361.400 C 260.318 363.948,268.333 372.786,269.148 372.806 C 269.286 372.810,270.300 373.631,271.400 374.631 C 272.500 375.631,274.210 376.928,275.200 377.514 C 276.190 378.099,277.360 378.913,277.800 379.323 C 278.240 379.733,279.737 380.587,281.127 381.221 C 282.517 381.855,284.176 382.813,284.813 383.350 C 285.450 383.886,287.283 384.717,288.886 385.197 C 290.489 385.676,292.738 386.497,293.885 387.022 C 296.416 388.179,300.281 389.106,304.587 389.589 C 306.354 389.787,309.479 390.152,311.531 390.400 C 316.128 390.956,331.391 389.895,334.400 388.810 C 334.950 388.612,336.030 388.328,336.800 388.180 C 337.570 388.031,339.100 387.492,340.200 386.983 C 341.300 386.473,343.530 385.596,345.156 385.033 C 346.782 384.470,348.672 383.584,349.356 383.065 C 350.040 382.545,351.420 381.759,352.422 381.317 C 353.424 380.876,355.134 379.832,356.222 378.999 C 357.310 378.165,358.768 377.244,359.463 376.952 C 360.158 376.659,361.059 375.997,361.465 375.480 C 361.872 374.964,362.963 374.039,363.889 373.426 C 364.816 372.812,365.670 372.016,365.787 371.655 C 365.903 371.295,366.621 370.577,367.382 370.060 C 368.143 369.543,369.263 368.463,369.871 367.660 C 370.478 366.857,371.383 365.875,371.880 365.477 C 372.377 365.080,373.075 364.142,373.430 363.394 C 373.785 362.646,374.484 361.621,374.985 361.117 C 375.485 360.613,376.500 359.210,377.240 358.000 C 377.981 356.790,378.945 355.386,379.383 354.879 C 379.822 354.373,380.558 352.843,381.018 351.479 C 381.479 350.116,382.333 348.248,382.915 347.328 C 383.498 346.409,384.171 344.789,384.412 343.728 C 385.421 339.280,385.785 338.052,386.938 335.200 L 388.150 332.200 388.315 322.354 C 388.489 311.929,388.175 308.280,386.863 305.472 C 385.848 303.301,384.991 300.431,384.407 297.245 C 384.149 295.839,383.513 294.039,382.993 293.245 C 382.474 292.450,381.928 291.303,381.780 290.696 C 381.632 290.089,381.351 289.494,381.156 289.373 C 380.960 289.252,380.800 288.820,380.800 288.414 C 380.800 288.008,380.215 286.974,379.500 286.116 C 378.785 285.259,377.763 283.704,377.228 282.661 C 376.694 281.619,375.873 280.368,375.404 279.883 C 374.935 279.397,374.129 278.370,373.613 277.600 C 372.664 276.184,371.949 275.412,366.584 270.000 C 362.736 266.119,360.708 264.409,358.000 262.765 C 356.790 262.030,355.581 261.242,355.314 261.014 C 353.898 259.808,353.611 259.600,353.361 259.600 C 352.810 259.600,349.600 257.849,349.600 257.548 C 349.600 257.077,347.345 256.148,343.950 255.220 C 342.273 254.762,339.843 253.868,338.550 253.235 C 336.785 252.370,335.154 251.966,332.000 251.616 C 329.690 251.359,326.720 250.996,325.400 250.808 C 322.431 250.387,311.512 250.402,308.000 250.832 M336.726 277.906 C 338.700 278.359,341.018 279.481,342.065 280.491 C 342.459 280.871,343.371 281.437,344.091 281.750 C 345.843 282.511,350.008 286.587,351.194 288.700 C 351.718 289.635,352.290 290.400,352.463 290.400 C 353.013 290.400,353.892 292.514,354.375 295.000 C 354.632 296.320,354.984 297.760,355.158 298.200 C 357.060 303.002,357.197 305.295,355.827 309.333 C 355.291 310.910,354.645 313.010,354.390 314.000 C 353.463 317.599,348.244 323.142,344.800 324.186 C 344.250 324.353,342.900 325.045,341.800 325.724 C 339.862 326.920,339.626 326.963,334.200 327.122 C 331.120 327.212,328.420 327.422,328.200 327.588 C 327.980 327.754,327.302 328.009,326.693 328.154 C 325.991 328.322,325.061 329.149,324.154 330.411 C 323.366 331.507,322.510 332.538,322.250 332.702 C 321.991 332.866,321.153 333.806,320.389 334.792 C 319.625 335.777,318.368 337.217,317.596 337.992 C 316.824 338.766,315.540 340.210,314.743 341.200 C 313.946 342.190,312.190 344.170,310.841 345.600 C 309.492 347.030,307.536 349.164,306.494 350.343 C 305.452 351.522,304.055 353.052,303.390 353.743 C 302.724 354.434,301.799 355.540,301.333 356.200 C 300.305 357.657,296.526 361.485,295.341 362.270 C 294.830 362.608,292.431 363.016,289.415 363.276 L 284.348 363.714 281.974 362.557 C 279.018 361.117,278.553 360.210,278.199 355.200 C 278.051 353.110,277.778 350.806,277.592 350.079 C 276.886 347.327,279.386 344.418,282.467 344.406 C 284.343 344.398,285.402 342.801,285.720 339.500 C 285.999 336.613,286.607 336.002,289.500 335.708 C 292.514 335.402,293.200 334.643,293.200 331.614 C 293.200 328.615,294.497 327.200,297.245 327.200 C 300.354 327.200,301.581 325.209,301.594 320.144 C 301.600 317.871,301.720 317.542,303.200 315.751 C 304.080 314.686,304.800 313.667,304.800 313.486 C 304.800 313.305,305.339 312.581,305.998 311.878 C 307.418 310.363,307.606 308.023,306.554 304.926 C 305.103 300.651,307.528 290.440,310.774 287.164 C 311.338 286.594,312.340 285.503,313.000 284.740 C 313.660 283.977,315.370 282.654,316.800 281.801 C 318.230 280.947,319.490 280.130,319.600 279.984 C 321.308 277.725,330.881 276.563,336.726 277.906 M332.109 289.429 C 326.299 292.409,327.080 299.311,333.624 302.813 C 334.840 303.464,337.867 303.379,338.959 302.664 C 339.516 302.299,340.232 302.000,340.550 302.000 C 342.253 302.000,344.614 296.294,343.642 294.530 C 343.420 294.129,342.928 293.101,342.548 292.246 C 341.331 289.508,335.188 287.850,332.109 289.429 " class="color050505 svgShape"></path></svg></g></svg>