<svg id="SvgjsSvg1066" width="288" height="288" xmlns="http://www.w3.org/2000/svg" version="1.1" xmlns:xlink="http://www.w3.org/1999/xlink" xmlns:svgjs="http://svgjs.com/svgjs"><defs id="SvgjsDefs1067"></defs><g id="SvgjsG1068"><svg xmlns="http://www.w3.org/2000/svg" width="288" height="288" viewBox="0 0 400 400"><path fill="#01a89e" fill-rule="evenodd" d="M101.600 39.610 C 100.830 39.785,99.210 40.229,98.000 40.595 C 96.790 40.962,94.990 41.424,94.000 41.623 C 90.986 42.228,88.075 43.228,87.575 43.830 C 87.315 44.143,86.899 44.401,86.651 44.402 C 86.403 44.404,85.742 44.644,85.182 44.936 C 84.623 45.228,83.568 45.586,82.839 45.732 C 82.110 45.878,80.435 46.808,79.117 47.799 C 77.799 48.789,76.469 49.600,76.160 49.600 C 75.852 49.600,75.600 49.780,75.600 50.000 C 75.600 50.220,75.403 50.400,75.163 50.400 C 74.699 50.400,72.043 52.579,68.703 55.700 C 67.584 56.745,66.526 57.600,66.352 57.600 C 66.177 57.600,65.568 58.395,64.999 59.366 C 64.430 60.337,63.567 61.392,63.081 61.710 C 62.595 62.029,61.786 63.113,61.283 64.120 C 60.780 65.128,59.671 66.795,58.819 67.826 C 57.967 68.857,57.149 70.353,57.001 71.150 C 56.854 71.948,56.324 73.140,55.824 73.800 C 54.329 75.774,53.322 78.079,53.027 80.200 C 52.874 81.300,52.286 83.550,51.720 85.200 C 49.113 92.798,48.792 111.644,51.219 114.616 C 51.561 115.035,51.984 116.556,53.006 121.040 C 53.682 124.002,54.288 125.453,55.455 126.895 C 55.942 127.498,56.631 128.990,56.986 130.212 C 57.361 131.502,58.193 133.055,58.971 133.917 C 59.708 134.732,60.709 136.166,61.196 137.102 C 61.684 138.038,62.869 139.637,63.831 140.655 C 64.793 141.673,65.683 142.833,65.810 143.232 C 65.937 143.632,66.361 144.061,66.753 144.185 C 67.144 144.309,68.410 145.308,69.567 146.405 C 70.723 147.502,71.788 148.403,71.934 148.406 C 72.080 148.409,73.010 149.143,74.000 150.038 C 74.990 150.932,76.700 152.085,77.800 152.599 C 78.900 153.114,80.287 154.000,80.883 154.568 C 81.478 155.135,82.081 155.600,82.222 155.600 C 82.363 155.600,83.046 155.850,83.740 156.154 C 84.433 156.459,86.170 157.119,87.600 157.620 C 89.030 158.120,90.380 158.653,90.600 158.804 C 94.682 161.596,111.920 162.024,123.341 159.618 C 125.204 159.225,130.057 156.923,130.333 156.300 C 130.407 156.135,130.682 156.000,130.944 156.000 C 131.821 156.000,132.692 154.536,133.589 151.554 C 134.078 149.929,134.974 147.880,135.581 147.000 C 136.188 146.120,137.010 144.680,137.407 143.800 C 137.805 142.920,138.534 141.750,139.028 141.200 C 139.522 140.650,140.419 139.300,141.021 138.200 C 141.624 137.100,142.706 135.540,143.427 134.733 C 144.148 133.926,145.047 132.795,145.424 132.220 C 145.800 131.645,147.287 130.055,148.728 128.687 C 150.168 127.319,152.076 125.480,152.969 124.600 C 153.861 123.720,155.273 122.635,156.107 122.188 C 156.941 121.741,158.116 120.910,158.719 120.341 C 159.323 119.772,160.724 118.747,161.835 118.064 C 162.945 117.381,164.111 116.331,164.427 115.732 C 164.742 115.133,165.388 114.221,165.862 113.704 C 166.973 112.494,167.410 106.381,167.086 96.600 C 166.867 90.003,166.725 89.186,165.205 85.800 C 165.008 85.360,164.475 83.480,164.022 81.621 C 163.294 78.632,162.744 77.232,161.237 74.529 C 161.013 74.128,160.386 72.789,159.844 71.552 C 159.302 70.316,158.395 68.805,157.829 68.194 C 157.263 67.583,156.800 66.879,156.800 66.631 C 156.800 66.382,155.723 64.833,154.407 63.189 C 153.090 61.545,152.010 59.990,152.007 59.734 C 152.003 59.477,151.294 58.708,150.431 58.024 C 149.568 57.341,148.255 56.201,147.513 55.491 C 144.897 52.987,141.894 50.586,139.846 49.362 C 138.707 48.681,137.280 47.665,136.675 47.104 C 136.069 46.543,134.905 45.971,134.087 45.832 C 133.269 45.694,131.340 44.966,129.800 44.215 C 126.316 42.517,125.914 42.368,123.200 41.764 C 121.990 41.495,119.920 40.980,118.600 40.619 C 117.280 40.259,115.570 39.797,114.800 39.592 C 113.125 39.146,103.583 39.159,101.600 39.610 M285.400 39.620 C 284.300 39.790,282.320 40.217,281.000 40.571 C 279.680 40.924,277.260 41.478,275.623 41.802 C 273.985 42.126,271.555 42.914,270.223 43.552 C 268.890 44.191,266.900 45.013,265.800 45.379 C 262.960 46.324,260.800 47.305,260.800 47.648 C 260.800 47.810,259.675 48.622,258.300 49.452 C 256.925 50.283,255.291 51.466,254.669 52.081 C 254.047 52.697,253.400 53.200,253.231 53.200 C 252.642 53.200,244.843 61.157,244.184 62.430 C 243.819 63.136,242.925 64.273,242.197 64.957 C 241.468 65.640,240.467 67.190,239.971 68.400 C 239.476 69.610,238.670 71.050,238.181 71.600 C 237.064 72.855,236.002 74.937,235.995 75.880 C 235.992 76.276,235.369 78.023,234.609 79.763 C 233.788 81.646,232.898 84.722,232.411 87.363 C 231.961 89.803,231.397 92.700,231.158 93.800 C 230.640 96.180,230.910 107.073,231.575 110.600 C 232.396 114.957,233.142 116.372,235.374 117.809 C 236.488 118.526,237.850 119.514,238.400 120.004 C 238.950 120.494,240.120 121.341,241.000 121.886 C 242.744 122.968,243.862 123.973,248.400 128.544 C 253.740 133.923,256.281 137.222,258.836 142.097 C 259.405 143.184,260.330 144.559,260.892 145.154 C 261.863 146.183,263.200 149.351,263.200 150.622 C 263.200 151.512,265.018 154.218,266.838 156.038 C 269.206 158.406,272.530 159.631,279.800 160.817 C 281.340 161.068,283.500 161.424,284.600 161.608 C 287.167 162.036,292.090 162.045,294.400 161.625 C 295.390 161.445,297.550 161.087,299.200 160.829 C 304.152 160.056,307.265 159.223,309.849 157.979 C 311.196 157.331,312.563 156.800,312.888 156.800 C 313.711 156.800,315.939 155.669,317.600 154.407 C 318.370 153.822,319.793 152.940,320.762 152.446 C 322.909 151.352,328.133 147.078,331.086 144.000 C 334.124 140.833,334.791 140.050,335.695 138.594 C 336.243 137.711,336.990 136.740,337.356 136.437 C 337.721 136.133,338.554 134.733,339.205 133.325 C 339.857 131.917,340.915 130.098,341.557 129.283 C 342.199 128.467,342.852 127.170,343.008 126.400 C 343.164 125.630,343.428 124.820,343.594 124.600 C 343.760 124.380,344.123 123.480,344.400 122.600 C 344.677 121.720,345.043 120.820,345.212 120.600 C 345.841 119.783,346.945 114.329,348.007 106.800 C 348.483 103.423,348.483 98.030,348.006 95.000 C 347.798 93.680,347.444 91.340,347.219 89.800 C 346.579 85.419,344.461 78.069,343.535 77.020 C 343.351 76.811,343.200 76.358,343.200 76.014 C 343.200 75.323,341.689 72.321,341.175 71.992 C 340.801 71.752,338.400 67.011,338.400 66.512 C 338.400 66.328,337.884 65.725,337.253 65.172 C 336.622 64.618,335.820 63.613,335.472 62.938 C 334.508 61.075,323.549 50.400,322.600 50.400 C 322.433 50.400,320.954 49.485,319.313 48.367 C 317.672 47.249,315.221 45.974,313.865 45.535 C 312.509 45.095,310.782 44.377,310.027 43.938 C 308.327 42.951,306.069 42.187,303.200 41.631 C 301.990 41.396,299.830 40.919,298.400 40.570 C 293.035 39.263,289.431 39.000,285.400 39.620 M190.200 121.664 C 184.770 122.029,180.223 122.910,179.200 123.796 C 178.870 124.082,176.980 124.981,175.000 125.793 C 173.020 126.606,171.116 127.525,170.769 127.835 C 170.421 128.146,169.926 128.400,169.669 128.400 C 169.411 128.400,169.200 128.560,169.200 128.757 C 169.200 128.953,168.784 129.218,168.275 129.345 C 167.766 129.473,166.316 130.483,165.052 131.589 C 163.788 132.695,162.586 133.600,162.381 133.600 C 161.771 133.600,153.438 142.075,152.445 143.705 C 151.941 144.533,151.037 145.703,150.435 146.305 C 149.833 146.907,149.000 148.300,148.584 149.400 C 148.167 150.500,147.490 151.760,147.078 152.200 C 145.992 153.362,144.909 155.609,144.356 157.846 C 144.091 158.921,143.454 160.700,142.941 161.800 C 138.865 170.538,139.016 190.357,143.247 202.114 C 144.101 204.487,144.800 206.696,144.800 207.022 C 144.800 207.650,146.350 210.284,147.280 211.236 C 147.583 211.546,148.170 212.698,148.585 213.796 C 149.000 214.894,149.938 216.322,150.670 216.969 C 151.401 217.617,152.000 218.371,152.000 218.644 C 152.000 219.391,159.447 227.488,161.205 228.651 C 162.049 229.209,163.481 230.371,164.387 231.233 C 165.292 232.095,166.271 232.800,166.561 232.800 C 166.850 232.800,167.878 233.428,168.844 234.196 C 169.810 234.964,170.780 235.600,171.000 235.610 C 171.220 235.619,172.120 235.975,173.000 236.400 C 173.880 236.825,174.743 237.179,174.917 237.186 C 175.092 237.194,175.690 237.622,176.247 238.138 C 177.372 239.182,179.562 239.789,185.200 240.620 C 187.290 240.928,190.260 241.472,191.800 241.827 C 196.462 242.904,200.125 242.954,204.200 241.999 C 206.180 241.534,209.510 240.910,211.600 240.611 C 217.177 239.814,219.134 239.291,220.541 238.221 C 221.233 237.694,222.775 236.880,223.967 236.411 C 225.159 235.942,226.599 235.229,227.167 234.826 C 227.735 234.423,229.187 233.512,230.394 232.801 C 231.600 232.091,232.801 231.206,233.062 230.833 C 233.322 230.461,234.319 229.662,235.276 229.056 C 236.234 228.451,237.823 227.038,238.809 225.915 C 239.794 224.793,241.273 223.178,242.095 222.326 C 242.918 221.475,243.882 220.216,244.237 219.528 C 244.593 218.841,245.372 217.867,245.970 217.364 C 246.567 216.861,247.398 215.674,247.817 214.725 C 248.235 213.776,248.673 212.910,248.789 212.800 C 249.522 212.105,250.773 209.910,251.412 208.200 C 251.822 207.100,252.584 205.425,253.105 204.477 C 254.047 202.762,254.695 200.295,255.804 194.200 C 256.124 192.440,256.576 190.100,256.807 189.000 C 257.039 187.900,257.227 184.660,257.226 181.800 C 257.224 177.138,257.079 175.677,256.191 171.400 C 256.054 170.740,255.574 168.220,255.126 165.800 C 254.677 163.380,253.883 160.556,253.361 159.525 C 252.839 158.494,251.972 156.482,251.435 155.054 C 250.897 153.626,250.109 152.109,249.684 151.684 C 249.258 151.258,248.413 149.860,247.806 148.576 C 247.199 147.292,246.184 145.787,245.551 145.232 C 244.918 144.676,244.400 143.969,244.400 143.660 C 244.400 142.779,237.076 135.318,234.600 133.677 C 233.720 133.094,232.631 132.238,232.181 131.775 C 231.092 130.656,224.169 126.545,222.400 125.968 C 220.491 125.344,217.648 124.002,217.406 123.609 C 216.979 122.918,211.503 122.004,205.438 121.612 C 198.422 121.158,197.712 121.160,190.200 121.664 M50.200 150.617 C 49.760 151.157,49.094 151.698,48.719 151.820 C 48.008 152.052,43.180 156.763,39.874 160.451 C 38.815 161.633,37.150 163.442,36.174 164.471 C 35.198 165.501,34.400 166.525,34.400 166.747 C 34.400 166.969,33.653 168.014,32.741 169.068 C 31.828 170.123,30.830 171.588,30.522 172.325 C 30.214 173.061,29.356 174.271,28.614 175.012 C 27.873 175.754,27.137 176.774,26.978 177.280 C 26.819 177.786,25.913 179.391,24.966 180.846 C 24.018 182.302,23.127 183.952,22.986 184.513 C 22.845 185.074,22.113 186.223,21.358 187.067 C 20.604 187.910,19.803 189.320,19.579 190.200 C 18.995 192.498,18.538 193.468,17.255 195.130 C 16.563 196.026,15.770 197.928,15.224 200.000 C 14.731 201.870,13.807 204.191,13.171 205.157 C 12.535 206.124,11.908 207.564,11.777 208.357 C 11.646 209.151,11.387 210.250,11.200 210.800 C 11.013 211.350,10.751 212.463,10.617 213.273 C 10.483 214.083,9.951 215.523,9.435 216.473 C 8.918 217.423,8.102 220.000,7.621 222.200 C 7.140 224.400,6.313 228.000,5.784 230.200 C 4.865 234.022,3.970 239.844,3.171 247.200 C 2.482 253.541,2.020 255.200,0.945 255.200 L 0.000 255.200 0.000 260.800 L 0.000 266.400 1.100 266.402 C 1.801 266.403,2.760 266.918,3.745 267.822 C 5.289 269.240,5.836 269.428,11.400 270.442 C 13.961 270.909,17.116 271.855,17.790 272.357 C 18.668 273.011,21.929 273.990,24.600 274.402 C 27.540 274.855,33.209 275.999,37.600 277.027 C 39.030 277.361,42.000 277.890,44.200 278.203 C 49.292 278.926,52.640 279.559,53.890 280.034 C 56.328 280.961,61.140 281.576,67.600 281.786 C 71.450 281.911,77.054 282.220,80.052 282.472 C 88.799 283.207,90.812 282.305,91.815 277.200 C 91.967 276.430,92.880 274.157,93.845 272.148 C 94.810 270.139,95.600 268.231,95.600 267.908 C 95.600 267.585,96.140 266.575,96.800 265.663 C 97.460 264.752,98.006 263.870,98.014 263.703 C 98.021 263.537,98.375 262.680,98.800 261.800 C 99.225 260.920,99.579 259.975,99.586 259.700 C 99.594 259.425,99.738 259.200,99.906 259.200 C 100.418 259.200,102.678 255.483,102.964 254.172 C 103.111 253.496,103.823 252.326,104.546 251.572 C 105.269 250.817,106.207 249.329,106.630 248.265 C 107.054 247.200,107.989 245.698,108.710 244.926 C 109.430 244.154,110.305 242.955,110.654 242.261 C 111.003 241.567,111.878 240.370,112.598 239.600 C 113.319 238.830,114.154 237.731,114.454 237.158 C 115.024 236.072,117.588 232.988,121.000 229.288 C 125.601 224.298,127.211 222.578,127.636 222.200 C 131.271 218.962,134.000 215.806,134.000 214.838 C 134.000 213.263,132.844 210.004,131.773 208.562 C 130.759 207.197,129.817 203.856,129.434 200.269 C 129.298 198.987,128.814 196.647,128.359 195.069 C 126.812 189.702,126.713 189.000,126.636 182.827 C 126.543 175.480,125.913 174.081,122.905 174.542 C 115.433 175.685,93.932 175.116,90.795 173.691 C 89.808 173.243,88.010 172.573,86.800 172.201 C 83.221 171.103,82.317 170.754,79.921 169.550 C 78.668 168.920,76.737 168.048,75.631 167.612 C 74.525 167.176,73.244 166.444,72.786 165.986 C 72.327 165.527,70.804 164.621,69.401 163.971 C 67.999 163.322,66.511 162.359,66.096 161.831 C 65.681 161.304,64.674 160.419,63.859 159.866 C 63.044 159.313,61.888 158.343,61.289 157.711 C 60.690 157.080,59.840 156.301,59.400 155.981 C 58.960 155.662,57.913 154.545,57.073 153.500 C 56.233 152.455,55.350 151.600,55.111 151.600 C 54.871 151.600,54.086 151.150,53.364 150.600 C 51.746 149.366,51.219 149.369,50.200 150.617 M342.000 152.587 C 340.570 154.003,339.006 155.575,338.525 156.081 C 337.626 157.026,335.920 158.536,331.882 161.958 C 330.607 163.038,329.078 164.044,328.484 164.193 C 327.890 164.342,326.683 165.045,325.802 165.755 C 324.246 167.009,321.668 168.400,320.901 168.400 C 320.361 168.400,318.056 169.586,317.804 169.993 C 317.688 170.182,316.289 170.726,314.696 171.203 C 313.103 171.679,311.233 172.324,310.540 172.635 C 309.846 172.946,309.081 173.200,308.840 173.200 C 308.598 173.200,308.400 173.360,308.400 173.557 C 308.400 175.121,290.408 175.999,279.031 174.990 L 272.262 174.390 271.331 175.265 C 270.455 176.087,270.400 176.428,270.400 181.000 C 270.400 185.923,269.515 193.834,268.821 195.106 C 268.109 196.413,267.267 199.800,267.008 202.400 C 266.682 205.684,265.954 207.862,264.445 210.064 C 263.702 211.149,263.161 212.555,263.002 213.814 L 262.749 215.829 265.544 218.714 C 267.082 220.301,268.508 221.600,268.714 221.600 C 268.920 221.600,269.428 222.076,269.844 222.657 C 270.260 223.239,271.034 224.094,271.565 224.557 C 272.095 225.021,272.905 225.850,273.365 226.400 C 273.824 226.950,274.851 228.045,275.648 228.834 C 276.444 229.623,277.433 230.793,277.846 231.434 C 278.258 232.075,279.003 232.929,279.500 233.330 C 279.997 233.732,280.974 234.902,281.671 235.930 C 282.368 236.959,283.470 238.417,284.119 239.171 C 284.769 239.925,285.533 241.095,285.819 241.771 C 286.104 242.447,286.982 243.620,287.769 244.378 C 288.556 245.137,289.200 245.949,289.200 246.184 C 289.200 246.903,290.823 249.738,291.877 250.860 C 292.425 251.443,293.299 252.841,293.821 253.966 C 294.343 255.092,295.197 256.595,295.720 257.307 C 296.242 258.018,297.082 259.590,297.585 260.800 C 298.089 262.010,298.635 263.090,298.800 263.200 C 299.321 263.547,300.800 266.558,300.800 267.270 C 300.800 267.646,300.960 268.052,301.156 268.173 C 301.351 268.294,301.629 268.860,301.772 269.431 C 301.916 270.003,302.460 270.931,302.982 271.494 C 303.605 272.166,304.099 273.426,304.419 275.159 C 304.686 276.612,305.037 277.980,305.198 278.200 C 305.358 278.420,305.598 279.050,305.730 279.600 C 306.426 282.493,311.089 283.425,319.800 282.411 C 321.560 282.206,326.306 281.928,330.346 281.792 C 335.551 281.617,338.699 281.310,341.146 280.740 C 349.071 278.894,351.138 278.482,353.800 278.219 C 355.340 278.067,357.230 277.788,358.000 277.598 C 362.583 276.471,369.388 275.084,373.800 274.377 C 376.525 273.940,379.781 272.974,380.610 272.357 C 381.326 271.823,384.536 270.848,386.400 270.597 C 391.304 269.937,393.730 268.853,394.953 266.777 C 396.212 264.637,395.500 246.177,393.964 241.169 C 393.733 240.416,393.280 238.090,392.958 236.000 C 392.636 233.910,392.121 230.580,391.814 228.600 C 391.217 224.749,390.660 222.604,390.063 221.861 C 389.859 221.608,389.504 220.590,389.275 219.600 C 388.291 215.359,387.677 213.291,386.898 211.600 C 386.441 210.610,385.607 208.202,385.043 206.250 C 384.480 204.297,383.578 202.122,383.040 201.417 C 382.502 200.711,381.932 199.429,381.774 198.567 C 381.422 196.646,379.941 193.199,379.114 192.371 C 378.317 191.574,377.384 189.706,377.031 188.200 C 376.876 187.540,376.255 186.370,375.649 185.600 C 375.044 184.830,374.143 183.354,373.648 182.319 C 372.854 180.661,369.799 175.693,368.902 174.600 C 367.293 172.640,365.599 170.203,365.595 169.842 C 365.592 169.599,364.874 168.590,363.999 167.600 C 363.124 166.610,361.614 164.900,360.644 163.800 C 353.261 155.425,349.857 152.124,347.400 150.957 C 344.761 149.704,344.977 149.639,342.000 152.587 M140.722 231.737 C 138.741 232.835,134.638 236.351,132.800 238.526 C 132.470 238.916,131.639 239.813,130.954 240.518 C 127.620 243.949,125.600 246.212,125.600 246.517 C 125.600 246.702,124.972 247.516,124.203 248.327 C 123.435 249.137,122.805 250.025,122.803 250.300 C 122.802 250.575,122.661 250.800,122.491 250.800 C 122.321 250.800,121.865 251.389,121.477 252.110 C 121.089 252.830,120.238 253.990,119.586 254.688 C 118.934 255.386,118.400 256.122,118.400 256.324 C 118.400 256.525,117.520 257.882,116.445 259.339 C 115.370 260.796,114.373 262.452,114.231 263.019 C 114.089 263.586,113.259 265.095,112.386 266.373 C 111.514 267.651,110.800 268.918,110.800 269.188 C 110.800 269.942,109.560 272.425,108.317 274.160 C 107.703 275.018,107.200 275.957,107.200 276.246 C 107.200 277.329,105.867 280.675,104.588 282.800 C 103.860 284.010,103.144 285.810,102.998 286.800 C 102.580 289.633,101.755 292.168,100.704 293.851 C 99.809 295.283,99.335 296.958,98.341 302.200 C 98.133 303.300,97.526 305.550,96.994 307.200 C 96.026 310.200,95.689 311.900,94.576 319.400 C 94.250 321.600,93.813 323.800,93.605 324.288 C 93.042 325.614,91.877 345.166,92.328 345.731 C 92.534 345.989,92.838 346.642,93.004 347.181 C 93.578 349.048,95.191 349.970,100.000 351.178 C 101.870 351.648,103.760 352.196,104.200 352.396 C 105.335 352.912,109.543 353.912,112.701 354.416 C 115.429 354.852,119.072 355.879,119.800 356.418 C 120.669 357.061,125.204 357.935,129.000 358.190 C 133.477 358.492,138.588 359.335,141.000 360.170 C 143.458 361.021,146.562 361.566,151.600 362.029 C 154.130 362.262,158.900 362.713,162.200 363.031 C 165.500 363.349,170.450 363.811,173.200 364.059 C 179.720 364.645,214.978 364.642,221.800 364.054 C 240.135 362.475,250.145 361.363,253.000 360.587 C 257.940 359.246,262.331 358.477,266.600 358.204 C 271.201 357.910,273.814 357.378,277.560 355.971 C 278.792 355.509,281.290 354.869,283.111 354.550 C 286.341 353.983,289.946 353.098,294.400 351.778 C 295.610 351.420,297.410 350.947,298.400 350.727 C 304.559 349.363,304.794 348.751,304.373 335.200 C 304.115 326.874,303.937 324.949,303.189 322.400 C 302.342 319.513,301.743 316.580,300.780 310.600 C 300.353 307.954,299.540 304.738,298.149 300.200 C 297.811 299.100,297.355 297.300,297.135 296.200 C 296.914 295.100,296.291 293.385,295.751 292.388 C 295.211 291.392,294.498 289.502,294.167 288.188 C 293.835 286.875,293.410 285.211,293.222 284.490 C 293.034 283.770,292.415 282.571,291.848 281.827 C 290.876 280.553,290.018 278.440,289.430 275.875 C 289.288 275.257,288.473 273.726,287.619 272.474 C 286.764 271.222,285.931 269.659,285.766 268.999 C 285.426 267.631,284.360 265.629,283.015 263.833 C 282.508 263.155,281.959 262.150,281.795 261.600 C 281.631 261.050,280.710 259.547,279.749 258.260 C 278.787 256.974,278.000 255.751,278.000 255.543 C 278.000 255.336,277.814 254.949,277.587 254.683 C 277.360 254.417,276.549 253.480,275.785 252.600 C 275.020 251.720,274.281 250.640,274.142 250.200 C 274.003 249.760,273.465 249.005,272.947 248.521 C 272.429 248.038,271.581 247.017,271.062 246.253 C 270.543 245.489,269.437 244.174,268.603 243.332 C 267.769 242.489,264.973 239.604,262.391 236.919 C 259.237 233.642,257.317 231.957,256.547 231.788 C 255.916 231.651,254.997 231.342,254.504 231.104 C 253.689 230.709,253.237 231.039,249.504 234.761 C 247.247 237.011,244.457 239.479,243.304 240.245 C 242.151 241.011,241.029 241.971,240.811 242.380 C 240.592 242.788,239.588 243.522,238.579 244.010 C 237.570 244.498,236.262 245.300,235.672 245.792 C 235.083 246.284,233.429 247.226,231.997 247.885 C 230.565 248.545,229.140 249.391,228.829 249.765 C 228.139 250.596,226.338 251.376,224.200 251.768 C 222.059 252.161,218.788 253.220,217.800 253.840 C 212.670 257.058,180.620 256.923,178.427 253.675 C 178.171 253.296,174.920 252.218,172.800 251.809 C 170.825 251.429,168.335 250.237,167.438 249.244 C 167.019 248.780,166.499 248.400,166.282 248.400 C 165.617 248.400,162.248 246.644,161.400 245.856 C 160.960 245.447,159.871 244.794,158.979 244.404 C 158.088 244.015,156.828 243.123,156.179 242.422 C 155.531 241.721,154.525 240.895,153.944 240.586 C 152.990 240.079,151.026 238.286,145.000 232.421 L 143.000 230.475 140.722 231.737 " class="color050505 svgShape"></path></svg></g></svg>