<svg xmlns="http://www.w3.org/2000/svg" width="400" height="400" viewBox="0 0 400 NaN" xmlns:v="https://vecta.io/nano"><path d="M193.193 5.572c-1.655.175-3.998.605-5.209.957s-3.997.928-6.193 1.279c-4.211.674-4.286.694-13.391 3.6-5.707 1.821-6.615 2.178-12.2 4.786l-3.4 1.558c-.7.293-2.949 1.615-7.773 4.571-11.757 7.204-23.42 18.356-31.928 30.529-10.689 15.294-17.429 34.75-18.714 54.019-.797 11.957 1.494 32.975 4.172 38.269.295.583.665 1.772.823 2.641s.607 2.22.999 3 1.028 2.409 1.416 3.619c.718 2.242 4.307 9.784 6.376 13.4 10.824 18.915 26.321 33.591 45.829 43.398 26.332 13.239 57.001 15.008 85.4 4.926 6.807-2.416 18.163-7.927 19.886-9.65.261-.261.616-.474.79-.474.496 0 7.114-4.607 9.194-6.4.383-.33 1.684-1.41 2.891-2.4 5.032-4.125 13.756-13.436 17.618-18.8 7.909-10.988 17.421-31.049 17.421-36.742 0-.417.281-1.545.625-2.508 3.474-9.724 3.577-40.403.165-49.375-.241-.636-.693-2.331-1.004-3.766-.496-2.292-2.296-7.731-4.356-13.167-5.763-15.206-18.574-32.032-33.63-44.167-2.417-1.948-9.983-7.075-10.441-7.075-.156 0-.872-.449-1.591-.997-5.244-4-25.681-11.701-33.968-12.8-1.1-.146-3.89-.715-6.2-1.265-4.621-1.1-17.384-1.622-23.607-.966M96.971 197.589c-.864.654-1.762 1.194-1.996 1.2s-.8.361-1.26.789-2.231 1.717-3.938 2.863-3.389 2.34-3.74 2.654-1.552 1.23-2.671 2.037C69.374 217.23 55.678 231.071 47.677 243.2c-4.102 6.218-8.979 15.509-9.87 18.8-.149.55-.603 1.9-1.01 3-4.056 10.981-5.833 25.94-4.372 36.8.857 6.365 2.078 13.229 2.597 14.6.291.77.741 2.48.999 3.8s.693 2.85.966 3.4.716 1.898.985 2.996c1.062 4.344 6.35 17.196 10.039 24.404 7.763 15.165 18.794 27.146 31.223 33.914l2.966 1.612C84.182 387.6 89.863 390 90.424 390c.288 0 1.255.35 2.15.777 2.404 1.149 8.459 2.567 21.626 5.064 3.848.73 7.205.759 88.2.759h84.2l6.4-1.324c7.301-1.511 14.943-3.415 17-4.236l5.8-2.24c2.42-.925 4.804-1.937 5.299-2.249s2.474-1.398 4.4-2.414c10.295-5.427 20.952-15.688 27.416-26.397.817-1.353 1.485-2.618 1.485-2.811s.315-.794.7-1.336c.844-1.187 3.152-6.684 3.872-9.224.286-1.007.8-2.267 1.144-2.8s.752-1.689.908-2.569.604-2.5.995-3.6 1.02-3.35 1.395-5 1.013-4.08 1.415-5.4.944-4.02 1.202-6c.312-2.396.82-4.269 1.519-5.6l1.05-2V301v-10.4l-1.081-1.916c-.685-1.215-1.234-3.017-1.499-4.923a41.05 41.05 0 0 0-1.277-5.683c-2.521-7.855-3.919-11.518-6.021-15.771-1.277-2.584-2.322-4.794-2.322-4.912s-.585-1.093-1.3-2.166-2.286-3.513-3.492-5.421-2.915-4.417-3.8-5.576l-2.796-3.67c-8.857-11.646-29.861-30.756-43.312-39.405-.715-.46-1.3-.981-1.3-1.157 0-.505-2.346-1.194-3.111-.915-.379.139-2.439 1.921-4.577 3.962-5.003 4.774-14.162 12.258-17.076 13.953-.378.22-1.756 1.109-3.062 1.975-6.879 4.564-12.239 7.495-20.811 11.378-2 .906-3.862 1.647-4.138 1.647s-.979.271-1.563.601c-4.714 2.67-24.425 7.345-34.791 8.251-6.681.585-21.288.199-25.071-.662-1.54-.35-4.317-.893-6.171-1.206s-4.345-.852-5.536-1.198-3.454-.966-5.029-1.378c-5.707-1.491-19.859-7.146-25.664-10.254l-4.86-2.58c-5.621-2.975-16.933-10.089-21.244-13.36-7.082-5.373-11.503-8.889-14.054-11.176-3.4-3.049-4.298-3.244-6.671-1.449" fill="#02a89e" fill-rule="evenodd"/></svg>