<svg id="svg" version="1.1" xmlns="http://www.w3.org/2000/svg" xmlns:xlink="http://www.w3.org/1999/xlink" width="400" height="400" viewBox="0, 0, 400,400"><g id="svgg"><path id="path1" d="M185.200 18.399 C 179.956 18.772,171.108 19.891,169.045 20.444 C 168.190 20.673,166.210 21.102,164.645 21.397 C 157.713 22.703,149.498 24.670,147.740 25.445 C 147.046 25.750,146.305 26.000,146.093 26.000 C 145.668 26.000,138.681 28.223,137.400 28.765 C 136.960 28.952,135.340 29.566,133.800 30.130 C 129.334 31.766,125.508 33.255,124.828 33.621 C 124.483 33.808,122.220 34.905,119.800 36.059 C 117.380 37.214,114.410 38.728,113.200 39.424 C 111.990 40.120,109.386 41.548,107.412 42.597 C 105.439 43.647,103.369 44.824,102.812 45.214 C 102.256 45.603,100.810 46.558,99.600 47.337 C 98.390 48.115,95.960 49.758,94.200 50.987 C 92.440 52.217,90.550 53.527,90.000 53.899 C 77.715 62.209,55.258 85.195,47.322 97.581 C 46.399 99.021,45.263 100.740,44.797 101.400 C 44.331 102.060,43.219 103.770,42.325 105.200 C 41.432 106.630,40.363 108.288,39.950 108.884 C 39.538 109.480,39.200 110.096,39.200 110.252 C 39.200 110.409,38.944 110.821,38.632 111.169 C 37.286 112.665,29.434 128.891,27.196 134.800 C 26.488 136.670,25.578 139.023,25.174 140.029 C 24.162 142.546,21.589 151.196,20.005 157.400 C 19.724 158.500,19.158 160.555,18.747 161.967 C 18.336 163.379,17.997 164.909,17.993 165.367 C 17.989 165.825,17.709 167.460,17.369 169.000 C 17.030 170.540,16.506 173.960,16.204 176.600 C 15.902 179.240,15.439 182.930,15.175 184.800 C 14.508 189.520,14.463 214.779,15.114 219.000 C 15.385 220.760,15.796 223.820,16.026 225.800 C 16.891 233.240,18.818 243.198,20.398 248.400 C 20.833 249.830,21.667 252.620,22.252 254.600 C 24.662 262.758,27.439 270.439,29.482 274.600 C 30.023 275.700,31.183 278.211,32.060 280.181 C 34.026 284.594,39.180 294.203,40.935 296.729 C 41.651 297.758,42.836 299.590,43.570 300.800 C 44.304 302.010,45.022 303.090,45.166 303.200 C 45.309 303.310,46.044 304.390,46.799 305.600 C 48.420 308.196,53.835 315.539,54.765 316.400 C 55.121 316.730,56.231 318.010,57.231 319.244 C 63.152 326.551,70.296 333.836,77.978 340.400 C 79.395 341.610,81.374 343.331,82.377 344.224 C 87.335 348.640,102.353 358.823,109.800 362.819 C 114.778 365.491,119.575 367.839,127.800 371.633 C 129.715 372.516,141.871 376.755,146.000 377.978 C 147.650 378.468,149.990 379.196,151.200 379.597 C 156.163 381.242,163.808 382.743,177.600 384.781 C 186.739 386.132,211.186 386.277,220.400 385.034 C 222.710 384.723,226.845 384.168,229.590 383.802 C 232.334 383.436,234.727 383.045,234.906 382.934 C 235.085 382.824,236.980 382.401,239.116 381.996 C 244.155 381.039,247.806 380.161,249.800 379.425 C 250.680 379.101,251.685 378.827,252.033 378.818 C 252.844 378.795,257.253 377.461,261.600 375.923 C 263.470 375.262,265.720 374.467,266.600 374.157 C 267.480 373.848,268.483 373.434,268.828 373.238 C 269.174 373.043,270.704 372.389,272.228 371.786 C 276.112 370.250,285.053 366.058,287.797 364.486 C 288.456 364.109,290.886 362.745,293.197 361.456 C 297.711 358.939,297.862 358.846,304.800 354.294 C 309.139 351.447,316.768 345.657,322.971 340.503 C 325.299 338.569,334.274 329.754,339.651 324.120 C 341.419 322.268,350.172 311.205,353.200 306.994 C 358.847 299.143,368.893 281.224,371.587 274.200 C 372.093 272.880,372.653 271.440,372.831 271.000 C 373.009 270.560,373.629 269.030,374.209 267.600 C 378.599 256.780,381.491 245.968,384.375 229.600 C 386.842 215.599,387.103 192.263,384.943 178.800 C 384.608 176.710,384.094 173.349,383.801 171.331 C 383.508 169.313,382.999 166.433,382.669 164.931 C 382.340 163.429,381.891 161.300,381.670 160.200 C 380.503 154.367,377.044 143.343,374.563 137.550 C 374.034 136.312,373.600 135.043,373.600 134.730 C 373.600 134.416,373.442 133.989,373.248 133.780 C 373.055 133.571,372.671 132.694,372.394 131.830 C 371.923 130.358,370.400 126.943,369.615 125.600 C 369.422 125.270,368.494 123.380,367.553 121.400 C 365.724 117.550,361.649 109.904,360.200 107.600 C 357.787 103.766,354.559 98.984,351.830 95.200 C 350.163 92.890,348.372 90.370,347.850 89.600 C 347.327 88.830,346.472 87.740,345.950 87.178 C 345.427 86.616,343.656 84.546,342.013 82.578 C 338.157 77.958,326.254 66.088,322.395 63.014 C 320.748 61.702,318.563 59.902,317.540 59.014 C 314.195 56.110,305.856 50.077,302.513 48.142 C 301.461 47.533,299.790 46.478,298.800 45.798 C 297.810 45.118,295.470 43.707,293.600 42.663 C 291.730 41.618,289.930 40.590,289.600 40.376 C 289.270 40.163,287.674 39.352,286.052 38.573 C 277.489 34.461,273.949 32.800,273.746 32.800 C 273.622 32.800,272.954 32.545,272.260 32.233 C 267.475 30.079,265.729 29.408,259.800 27.444 C 252.161 24.912,241.101 21.968,237.200 21.426 C 236.430 21.319,233.640 20.876,231.000 20.440 C 218.963 18.453,216.590 18.263,202.800 18.181 C 195.430 18.137,187.510 18.235,185.200 18.399 M220.400 33.625 C 223.590 34.065,227.100 34.583,228.200 34.776 C 229.300 34.969,231.370 35.333,232.800 35.584 C 237.040 36.329,242.820 37.620,245.567 38.437 C 246.979 38.857,248.386 39.200,248.693 39.200 C 249.000 39.200,250.095 39.544,251.126 39.966 C 252.157 40.387,254.530 41.199,256.400 41.771 C 260.010 42.875,261.072 43.267,265.200 45.021 C 272.361 48.063,277.615 50.661,287.300 55.946 C 291.706 58.350,305.188 67.644,308.000 70.216 C 308.770 70.920,309.697 71.654,310.061 71.848 C 311.792 72.771,326.438 86.942,329.647 90.800 C 334.584 96.736,341.194 105.296,342.774 107.800 C 343.745 109.340,345.184 111.589,345.970 112.798 C 346.757 114.007,347.627 115.447,347.903 115.998 C 348.180 116.549,348.839 117.720,349.367 118.600 C 351.159 121.585,355.546 130.014,356.550 132.400 C 356.874 133.170,357.706 135.150,358.400 136.800 C 359.094 138.450,359.917 140.367,360.230 141.060 C 360.544 141.754,360.801 142.474,360.802 142.660 C 360.804 142.847,361.058 143.485,361.367 144.077 C 361.676 144.670,362.500 147.010,363.199 149.277 C 363.897 151.545,364.720 154.030,365.027 154.800 C 365.335 155.570,366.048 158.360,366.612 161.000 C 367.176 163.640,367.896 166.880,368.213 168.200 C 368.530 169.520,368.897 171.590,369.028 172.800 C 369.160 174.010,369.513 175.900,369.814 177.000 C 372.393 186.447,372.079 216.005,369.246 230.400 C 366.133 246.221,363.372 255.839,359.142 265.600 C 358.046 268.130,356.999 270.560,356.815 271.000 C 355.913 273.166,351.387 282.196,350.454 283.695 C 348.743 286.441,348.446 286.935,347.746 288.200 C 342.651 297.413,339.394 300.719,338.208 297.881 C 337.633 296.505,333.811 289.696,332.156 287.100 C 331.630 286.275,330.773 284.925,330.252 284.100 C 327.052 279.038,325.930 277.414,323.270 274.000 C 321.642 271.910,320.015 269.927,319.655 269.594 C 319.295 269.260,318.100 267.911,317.000 266.595 C 313.659 262.599,304.975 254.225,303.016 253.110 C 302.735 252.950,300.596 251.420,298.262 249.710 C 292.217 245.280,290.053 244.023,282.276 240.429 C 278.016 238.459,277.157 238.421,275.041 240.108 C 273.377 241.436,272.113 242.290,267.800 245.009 C 266.480 245.841,264.770 246.923,264.000 247.413 C 260.786 249.459,257.546 251.151,253.400 252.949 C 245.366 256.432,242.929 257.358,238.000 258.801 C 236.350 259.283,233.920 260.001,232.600 260.395 C 220.801 263.919,194.161 264.905,183.200 262.224 C 181.990 261.928,180.190 261.564,179.200 261.414 C 175.407 260.841,160.645 256.423,158.516 255.223 C 158.122 255.002,156.709 254.377,155.375 253.837 C 154.041 253.296,151.881 252.277,150.575 251.572 C 149.269 250.868,147.030 249.679,145.600 248.930 C 142.437 247.274,142.424 247.266,137.203 243.852 C 134.891 242.340,132.339 240.472,131.531 239.701 C 129.296 237.566,128.094 237.710,121.517 240.895 C 118.501 242.356,114.811 244.343,113.317 245.311 C 111.822 246.280,109.610 247.704,108.400 248.475 C 102.781 252.059,91.458 262.360,86.278 268.600 C 85.182 269.920,84.151 271.090,83.987 271.200 C 83.596 271.461,74.035 285.094,73.012 286.849 C 72.579 287.592,71.638 289.190,70.920 290.400 C 70.202 291.610,68.486 294.893,67.107 297.696 C 64.200 303.606,63.680 303.930,61.649 301.100 C 60.978 300.165,60.198 299.135,59.915 298.812 C 57.749 296.336,50.554 284.308,47.344 277.800 C 46.260 275.600,45.201 273.530,44.992 273.200 C 43.518 270.876,36.634 252.289,35.806 248.400 C 35.642 247.630,35.358 246.814,35.176 246.586 C 34.528 245.776,32.358 235.441,31.401 228.600 C 31.062 226.180,30.474 222.130,30.093 219.600 C 29.247 213.985,29.149 190.489,29.951 185.800 C 30.214 184.260,30.609 181.020,30.828 178.600 C 31.046 176.180,31.472 173.300,31.773 172.200 C 32.074 171.100,32.443 169.300,32.594 168.200 C 32.882 166.090,34.397 159.960,35.400 156.847 C 35.727 155.831,36.808 152.390,37.802 149.200 C 38.796 146.010,39.778 143.040,39.984 142.600 C 40.190 142.160,40.841 140.540,41.431 139.000 C 42.021 137.460,42.931 135.283,43.452 134.161 C 43.973 133.040,44.400 131.951,44.400 131.741 C 44.400 131.532,44.601 131.159,44.847 130.913 C 45.092 130.668,45.860 129.225,46.551 127.706 C 48.384 123.686,54.470 113.138,57.230 109.200 C 58.540 107.330,60.119 105.080,60.738 104.200 C 61.357 103.320,62.301 101.970,62.836 101.200 C 70.385 90.336,86.712 74.414,100.800 64.179 C 109.060 58.177,124.559 49.471,132.000 46.654 C 133.650 46.029,135.283 45.375,135.628 45.200 C 142.204 41.878,166.940 35.076,175.600 34.209 C 177.030 34.065,179.280 33.759,180.600 33.529 C 187.730 32.283,211.074 32.339,220.400 33.625 M193.400 55.417 C 190.760 55.701,187.700 56.132,186.600 56.374 C 185.500 56.617,183.430 57.065,182.000 57.369 C 177.997 58.220,174.691 59.202,173.714 59.830 C 173.227 60.144,172.590 60.400,172.299 60.400 C 172.007 60.400,171.063 60.760,170.200 61.200 C 169.337 61.640,168.478 62.000,168.291 62.000 C 167.899 62.000,162.357 64.673,159.380 66.298 C 150.415 71.189,138.361 81.731,132.800 89.542 C 131.810 90.933,130.533 92.640,129.963 93.335 C 127.399 96.462,120.800 108.814,120.800 110.486 C 120.800 110.781,120.559 111.377,120.265 111.811 C 119.315 113.213,116.681 122.582,115.376 129.200 C 114.001 136.168,113.885 154.519,115.190 158.600 C 115.401 159.260,115.770 161.057,116.010 162.594 C 116.438 165.344,116.773 166.635,118.496 172.200 C 119.743 176.229,123.470 184.481,125.903 188.600 C 131.677 198.374,137.755 205.713,145.614 212.400 C 147.036 213.610,148.435 214.822,148.723 215.094 C 151.427 217.650,164.395 225.102,170.029 227.338 C 195.975 237.632,226.788 235.162,249.659 220.955 C 251.932 219.544,256.126 216.711,256.400 216.403 C 256.510 216.279,258.130 214.988,260.000 213.533 C 262.878 211.295,265.807 208.528,269.800 204.275 C 270.527 203.501,273.494 199.785,274.971 197.800 C 275.298 197.360,275.988 196.460,276.504 195.800 C 278.346 193.442,280.479 189.930,282.802 185.429 C 284.860 181.441,285.877 179.062,288.202 172.800 C 289.366 169.667,290.399 165.906,290.805 163.329 C 291.042 161.828,291.402 159.970,291.606 159.200 C 292.959 154.081,292.839 132.098,291.436 128.092 C 291.149 127.272,290.781 125.707,290.620 124.615 C 290.458 123.523,290.090 121.993,289.802 121.215 C 289.514 120.437,288.698 117.910,287.989 115.600 C 287.280 113.290,286.564 111.220,286.396 111.000 C 286.229 110.780,285.970 110.027,285.820 109.328 C 285.671 108.628,285.290 107.841,284.974 107.579 C 284.658 107.317,284.396 106.899,284.391 106.651 C 284.387 106.403,283.760 105.030,282.998 103.600 C 282.237 102.170,281.384 100.550,281.102 100.000 C 280.600 99.018,279.705 97.584,276.858 93.200 C 270.394 83.246,259.416 73.242,247.800 66.719 C 230.095 56.778,213.261 53.280,193.400 55.417 M277.600 352.269 C 277.600 352.970,276.150 354.400,275.440 354.400 C 275.132 354.400,273.557 355.075,271.940 355.900 C 270.323 356.725,267.650 357.929,266.000 358.575 C 264.350 359.222,262.820 359.873,262.600 360.023 C 262.380 360.173,261.480 360.511,260.600 360.774 C 259.720 361.037,258.370 361.495,257.600 361.793 C 256.830 362.090,254.850 362.731,253.200 363.216 C 251.550 363.701,249.120 364.433,247.800 364.843 C 241.417 366.824,231.387 368.821,219.807 370.417 C 211.337 371.584,188.096 371.579,180.000 370.408 C 173.749 369.504,169.191 368.750,166.400 368.159 C 159.853 366.771,154.531 365.495,153.200 364.995 C 151.685 364.425,148.860 363.486,146.000 362.601 C 142.897 361.640,139.450 360.409,138.140 359.793 C 137.446 359.467,136.726 359.194,136.540 359.186 C 136.353 359.179,135.480 358.825,134.600 358.400 C 133.720 357.975,132.847 357.621,132.660 357.614 C 132.293 357.599,130.986 357.029,126.508 354.932 C 124.116 353.812,122.800 352.740,122.800 351.912 C 122.800 351.834,157.630 351.764,200.200 351.755 C 264.250 351.741,277.600 351.830,277.600 352.269 " stroke="none" fill="#01a99e" fill-rule="evenodd"></path></g></svg>